<svg width="146" height="148" viewBox="0 0 146 148" fill="none" xmlns="http://www.w3.org/2000/svg">
<path d="M52.7539 0H46.9484V5.88966H52.7539V0Z" fill="black"/>
<path d="M58.5594 0H52.7539V5.88966H58.5594V0Z" fill="black"/>
<path d="M64.3648 0H58.5594V5.88966H64.3648V0Z" fill="black"/>
<path d="M81.7812 0H75.9757V5.88966H81.7812V0Z" fill="black"/>
<path d="M52.7539 5.88965H46.9484V11.7793H52.7539V5.88965Z" fill="black"/>
<path d="M58.5594 5.88965H52.7539V11.7793H58.5594V5.88965Z" fill="black"/>
<path d="M87.5866 5.88965H81.7812V11.7793H87.5866V5.88965Z" fill="black"/>
<path d="M52.7539 11.7793H46.9484V17.669H52.7539V11.7793Z" fill="black"/>
<path d="M58.5594 11.7793H52.7539V17.669H58.5594V11.7793Z" fill="black"/>
<path d="M64.3648 11.7793H58.5594V17.669H64.3648V11.7793Z" fill="black"/>
<path d="M75.9757 11.7793H70.1702V17.669H75.9757V11.7793Z" fill="black"/>
<path d="M81.7812 11.7793H75.9757V17.669H81.7812V11.7793Z" fill="black"/>
<path d="M87.5866 11.7793H81.7812V17.669H87.5866V11.7793Z" fill="black"/>
<path d="M58.5594 17.6689H52.7539V23.5586H58.5594V17.6689Z" fill="black"/>
<path d="M75.9757 17.6689H70.1702V23.5586H75.9757V17.6689Z" fill="black"/>
<path d="M81.7812 17.6689H75.9757V23.5586H81.7812V17.6689Z" fill="black"/>
<path d="M93.3921 17.6689H87.5867V23.5586H93.3921V17.6689Z" fill="black"/>
<path d="M99.1975 17.6689H93.3921V23.5586H99.1975V17.6689Z" fill="black"/>
<path d="M52.7539 23.5586H46.9484V29.4482H52.7539V23.5586Z" fill="black"/>
<path d="M58.5594 23.5586H52.7539V29.4482H58.5594V23.5586Z" fill="black"/>
<path d="M70.1703 23.5586H64.3648V29.4482H70.1703V23.5586Z" fill="black"/>
<path d="M87.5866 23.5586H81.7812V29.4482H87.5866V23.5586Z" fill="black"/>
<path d="M64.3648 29.4482H58.5594V35.3379H64.3648V29.4482Z" fill="black"/>
<path d="M75.9757 29.4482H70.1702V35.3379H75.9757V29.4482Z" fill="black"/>
<path d="M52.7539 35.3379H46.9484V41.2275H52.7539V35.3379Z" fill="black"/>
<path d="M64.3648 35.3379H58.5594V41.2275H64.3648V35.3379Z" fill="black"/>
<path d="M75.9757 35.3379H70.1702V41.2275H75.9757V35.3379Z" fill="black"/>
<path d="M87.5866 35.3379H81.7812V41.2275H87.5866V35.3379Z" fill="black"/>
<path d="M99.1975 35.3379H93.3921V41.2275H99.1975V35.3379Z" fill="black"/>
<path d="M58.5594 41.2275H52.7539V47.1172H58.5594V41.2275Z" fill="black"/>
<path d="M75.9757 41.2275H70.1702V47.1172H75.9757V41.2275Z" fill="black"/>
<path d="M81.7812 41.2275H75.9757V47.1172H81.7812V41.2275Z" fill="black"/>
<path d="M99.1975 41.2275H93.3921V47.1172H99.1975V41.2275Z" fill="black"/>
<path d="M6.31022 47.1172H0.504761V53.0068H6.31022V47.1172Z" fill="black"/>
<path d="M23.7266 47.1172H17.9211V53.0068H23.7266V47.1172Z" fill="black"/>
<path d="M29.5321 47.1172H23.7266V53.0068H29.5321V47.1172Z" fill="black"/>
<path d="M35.3375 47.1172H29.532V53.0068H35.3375V47.1172Z" fill="black"/>
<path d="M41.143 47.1172H35.3375V53.0068H41.143V47.1172Z" fill="black"/>
<path d="M46.9484 47.1172H41.1429V53.0068H46.9484V47.1172Z" fill="black"/>
<path d="M52.7539 47.1172H46.9484V53.0068H52.7539V47.1172Z" fill="black"/>
<path d="M58.5594 47.1172H52.7539V53.0068H58.5594V47.1172Z" fill="black"/>
<path d="M99.1975 47.1172H93.3921V53.0068H99.1975V47.1172Z" fill="black"/>
<path d="M105.003 47.1172H99.1976V53.0068H105.003V47.1172Z" fill="black"/>
<path d="M122.419 47.1172H116.614V53.0068H122.419V47.1172Z" fill="black"/>
<path d="M134.03 47.1172H128.225V53.0068H134.03V47.1172Z" fill="black"/>
<path d="M139.836 47.1172H134.03V53.0068H139.836V47.1172Z" fill="black"/>
<path d="M145.641 47.1172H139.836V53.0068H145.641V47.1172Z" fill="black"/>
<path d="M17.9211 53.0068H12.1157V58.8965H17.9211V53.0068Z" fill="black"/>
<path d="M23.7266 53.0068H17.9211V58.8965H23.7266V53.0068Z" fill="black"/>
<path d="M29.5321 53.0068H23.7266V58.8965H29.5321V53.0068Z" fill="black"/>
<path d="M52.7539 53.0068H46.9484V58.8965H52.7539V53.0068Z" fill="black"/>
<path d="M58.5594 53.0068H52.7539V58.8965H58.5594V53.0068Z" fill="black"/>
<path d="M70.1703 53.0068H64.3648V58.8965H70.1703V53.0068Z" fill="black"/>
<path d="M81.7812 53.0068H75.9757V58.8965H81.7812V53.0068Z" fill="black"/>
<path d="M87.5866 53.0068H81.7812V58.8965H87.5866V53.0068Z" fill="black"/>
<path d="M93.3921 53.0068H87.5867V58.8965H93.3921V53.0068Z" fill="black"/>
<path d="M116.614 53.0068H110.808V58.8965H116.614V53.0068Z" fill="black"/>
<path d="M122.419 53.0068H116.614V58.8965H122.419V53.0068Z" fill="black"/>
<path d="M128.225 53.0068H122.419V58.8965H128.225V53.0068Z" fill="black"/>
<path d="M134.03 53.0068H128.225V58.8965H134.03V53.0068Z" fill="black"/>
<path d="M139.836 53.0068H134.03V58.8965H139.836V53.0068Z" fill="black"/>
<path d="M12.1156 58.8966H6.31018V64.7863H12.1156V58.8966Z" fill="black"/>
<path d="M23.7266 58.8966H17.9211V64.7863H23.7266V58.8966Z" fill="black"/>
<path d="M35.3375 58.8966H29.532V64.7863H35.3375V58.8966Z" fill="black"/>
<path d="M41.143 58.8966H35.3375V64.7863H41.143V58.8966Z" fill="black"/>
<path d="M46.9484 58.8966H41.1429V64.7863H46.9484V58.8966Z" fill="black"/>
<path d="M52.7539 58.8966H46.9484V64.7863H52.7539V58.8966Z" fill="black"/>
<path d="M70.1703 58.8966H64.3648V64.7863H70.1703V58.8966Z" fill="black"/>
<path d="M75.9757 58.8966H70.1702V64.7863H75.9757V58.8966Z" fill="black"/>
<path d="M81.7812 58.8966H75.9757V64.7863H81.7812V58.8966Z" fill="black"/>
<path d="M93.3921 58.8966H87.5867V64.7863H93.3921V58.8966Z" fill="black"/>
<path d="M99.1975 58.8966H93.3921V64.7863H99.1975V58.8966Z" fill="black"/>
<path d="M105.003 58.8966H99.1976V64.7863H105.003V58.8966Z" fill="black"/>
<path d="M110.808 58.8966H105.003V64.7863H110.808V58.8966Z" fill="black"/>
<path d="M116.614 58.8966H110.808V64.7863H116.614V58.8966Z" fill="black"/>
<path d="M122.419 58.8966H116.614V64.7863H122.419V58.8966Z" fill="black"/>
<path d="M128.225 58.8966H122.419V64.7863H128.225V58.8966Z" fill="black"/>
<path d="M145.641 58.8966H139.836V64.7863H145.641V58.8966Z" fill="black"/>
<path d="M17.9211 64.7863H12.1157V70.6759H17.9211V64.7863Z" fill="black"/>
<path d="M29.5321 64.7863H23.7266V70.6759H29.5321V64.7863Z" fill="black"/>
<path d="M35.3375 64.7863H29.532V70.6759H35.3375V64.7863Z" fill="black"/>
<path d="M52.7539 64.7863H46.9484V70.6759H52.7539V64.7863Z" fill="black"/>
<path d="M58.5594 64.7863H52.7539V70.6759H58.5594V64.7863Z" fill="black"/>
<path d="M64.3648 64.7863H58.5594V70.6759H64.3648V64.7863Z" fill="black"/>
<path d="M70.1703 64.7863H64.3648V70.6759H70.1703V64.7863Z" fill="black"/>
<path d="M75.9757 64.7863H70.1702V70.6759H75.9757V64.7863Z" fill="black"/>
<path d="M87.5866 64.7863H81.7812V70.6759H87.5866V64.7863Z" fill="black"/>
<path d="M93.3921 64.7863H87.5867V70.6759H93.3921V64.7863Z" fill="black"/>
<path d="M105.003 64.7863H99.1976V70.6759H105.003V64.7863Z" fill="black"/>
<path d="M128.225 64.7863H122.419V70.6759H128.225V64.7863Z" fill="black"/>
<path d="M134.03 64.7863H128.225V70.6759H134.03V64.7863Z" fill="black"/>
<path d="M139.836 64.7863H134.03V70.6759H139.836V64.7863Z" fill="black"/>
<path d="M145.641 64.7863H139.836V70.6759H145.641V64.7863Z" fill="black"/>
<path d="M12.1156 70.6759H6.31018V76.5656H12.1156V70.6759Z" fill="black"/>
<path d="M23.7266 70.6759H17.9211V76.5656H23.7266V70.6759Z" fill="black"/>
<path d="M35.3375 70.6759H29.532V76.5656H35.3375V70.6759Z" fill="black"/>
<path d="M41.143 70.6759H35.3375V76.5656H41.143V70.6759Z" fill="black"/>
<path d="M46.9484 70.6759H41.1429V76.5656H46.9484V70.6759Z" fill="black"/>
<path d="M52.7539 70.6759H46.9484V76.5656H52.7539V70.6759Z" fill="black"/>
<path d="M70.1703 70.6759H64.3648V76.5656H70.1703V70.6759Z" fill="black"/>
<path d="M81.7812 70.6759H75.9757V76.5656H81.7812V70.6759Z" fill="black"/>
<path d="M87.5866 70.6759H81.7812V76.5656H87.5866V70.6759Z" fill="black"/>
<path d="M99.1975 70.6759H93.3921V76.5656H99.1975V70.6759Z" fill="black"/>
<path d="M110.808 70.6759H105.003V76.5656H110.808V70.6759Z" fill="black"/>
<path d="M145.641 70.6759H139.836V76.5656H145.641V70.6759Z" fill="black"/>
<path d="M6.31022 76.5656H0.504761V82.4552H6.31022V76.5656Z" fill="black"/>
<path d="M52.7539 76.5656H46.9484V82.4552H52.7539V76.5656Z" fill="black"/>
<path d="M58.5594 76.5656H52.7539V82.4552H58.5594V76.5656Z" fill="black"/>
<path d="M75.9757 76.5656H70.1702V82.4552H75.9757V76.5656Z" fill="black"/>
<path d="M87.5866 76.5656H81.7812V82.4552H87.5866V76.5656Z" fill="black"/>
<path d="M93.3921 76.5656H87.5867V82.4552H93.3921V76.5656Z" fill="black"/>
<path d="M99.1975 76.5656H93.3921V82.4552H99.1975V76.5656Z" fill="black"/>
<path d="M122.419 76.5656H116.614V82.4552H122.419V76.5656Z" fill="black"/>
<path d="M139.836 76.5656H134.03V82.4552H139.836V76.5656Z" fill="black"/>
<path d="M6.31022 82.4552H0.504761V88.3449H6.31022V82.4552Z" fill="black"/>
<path d="M12.1156 82.4552H6.31018V88.3449H12.1156V82.4552Z" fill="black"/>
<path d="M23.7266 82.4552H17.9211V88.3449H23.7266V82.4552Z" fill="black"/>
<path d="M29.5321 82.4552H23.7266V88.3449H29.5321V82.4552Z" fill="black"/>
<path d="M35.3375 82.4552H29.532V88.3449H35.3375V82.4552Z" fill="black"/>
<path d="M41.143 82.4552H35.3375V88.3449H41.143V82.4552Z" fill="black"/>
<path d="M46.9484 82.4552H41.1429V88.3449H46.9484V82.4552Z" fill="black"/>
<path d="M58.5594 82.4552H52.7539V88.3449H58.5594V82.4552Z" fill="black"/>
<path d="M87.5866 82.4552H81.7812V88.3449H87.5866V82.4552Z" fill="black"/>
<path d="M93.3921 82.4552H87.5867V88.3449H93.3921V82.4552Z" fill="black"/>
<path d="M122.419 82.4552H116.614V88.3449H122.419V82.4552Z" fill="black"/>
<path d="M128.225 82.4552H122.419V88.3449H128.225V82.4552Z" fill="black"/>
<path d="M134.03 82.4552H128.225V88.3449H134.03V82.4552Z" fill="black"/>
<path d="M139.836 82.4552H134.03V88.3449H139.836V82.4552Z" fill="black"/>
<path d="M145.641 82.4552H139.836V88.3449H145.641V82.4552Z" fill="black"/>
<path d="M6.31022 88.3448H0.504761V94.2345H6.31022V88.3448Z" fill="black"/>
<path d="M17.9211 88.3448H12.1157V94.2345H17.9211V88.3448Z" fill="black"/>
<path d="M23.7266 88.3448H17.9211V94.2345H23.7266V88.3448Z" fill="black"/>
<path d="M29.5321 88.3448H23.7266V94.2345H29.5321V88.3448Z" fill="black"/>
<path d="M52.7539 88.3448H46.9484V94.2345H52.7539V88.3448Z" fill="black"/>
<path d="M64.3648 88.3448H58.5594V94.2345H64.3648V88.3448Z" fill="black"/>
<path d="M75.9757 88.3448H70.1702V94.2345H75.9757V88.3448Z" fill="black"/>
<path d="M81.7812 88.3448H75.9757V94.2345H81.7812V88.3448Z" fill="black"/>
<path d="M87.5866 88.3448H81.7812V94.2345H87.5866V88.3448Z" fill="black"/>
<path d="M93.3921 88.3448H87.5867V94.2345H93.3921V88.3448Z" fill="black"/>
<path d="M99.1975 88.3448H93.3921V94.2345H99.1975V88.3448Z" fill="black"/>
<path d="M105.003 88.3448H99.1976V94.2345H105.003V88.3448Z" fill="black"/>
<path d="M110.808 88.3448H105.003V94.2345H110.808V88.3448Z" fill="black"/>
<path d="M116.614 88.3448H110.808V94.2345H116.614V88.3448Z" fill="black"/>
<path d="M128.225 88.3448H122.419V94.2345H128.225V88.3448Z" fill="black"/>
<path d="M134.03 88.3448H128.225V94.2345H134.03V88.3448Z" fill="black"/>
<path d="M145.641 88.3448H139.836V94.2345H145.641V88.3448Z" fill="black"/>
<path d="M6.31022 94.2345H0.504761V100.124H6.31022V94.2345Z" fill="black"/>
<path d="M17.9211 94.2345H12.1157V100.124H17.9211V94.2345Z" fill="black"/>
<path d="M35.3375 94.2345H29.532V100.124H35.3375V94.2345Z" fill="black"/>
<path d="M41.143 94.2345H35.3375V100.124H41.143V94.2345Z" fill="black"/>
<path d="M64.3648 94.2345H58.5594V100.124H64.3648V94.2345Z" fill="black"/>
<path d="M70.1703 94.2345H64.3648V100.124H70.1703V94.2345Z" fill="black"/>
<path d="M75.9757 94.2345H70.1702V100.124H75.9757V94.2345Z" fill="black"/>
<path d="M93.3921 94.2345H87.5867V100.124H93.3921V94.2345Z" fill="black"/>
<path d="M99.1975 94.2345H93.3921V100.124H99.1975V94.2345Z" fill="black"/>
<path d="M105.003 94.2345H99.1976V100.124H105.003V94.2345Z" fill="black"/>
<path d="M110.808 94.2345H105.003V100.124H110.808V94.2345Z" fill="black"/>
<path d="M116.614 94.2345H110.808V100.124H116.614V94.2345Z" fill="black"/>
<path d="M122.419 94.2345H116.614V100.124H122.419V94.2345Z" fill="black"/>
<path d="M134.03 94.2345H128.225V100.124H134.03V94.2345Z" fill="black"/>
<path d="M139.836 94.2345H134.03V100.124H139.836V94.2345Z" fill="black"/>
<path d="M52.7539 100.124H46.9484V106.014H52.7539V100.124Z" fill="black"/>
<path d="M58.5594 100.124H52.7539V106.014H58.5594V100.124Z" fill="black"/>
<path d="M70.1703 100.124H64.3648V106.014H70.1703V100.124Z" fill="black"/>
<path d="M99.1975 100.124H93.3921V106.014H99.1975V100.124Z" fill="black"/>
<path d="M122.419 100.124H116.614V106.014H122.419V100.124Z" fill="black"/>
<path d="M134.03 100.124H128.225V106.014H134.03V100.124Z" fill="black"/>
<path d="M139.836 100.124H134.03V106.014H139.836V100.124Z" fill="black"/>
<path d="M52.7539 106.014H46.9484V111.903H52.7539V106.014Z" fill="black"/>
<path d="M75.9757 106.014H70.1702V111.903H75.9757V106.014Z" fill="black"/>
<path d="M81.7812 106.014H75.9757V111.903H81.7812V106.014Z" fill="black"/>
<path d="M87.5866 106.014H81.7812V111.903H87.5866V106.014Z" fill="black"/>
<path d="M99.1975 106.014H93.3921V111.903H99.1975V106.014Z" fill="black"/>
<path d="M110.808 106.014H105.003V111.903H110.808V106.014Z" fill="black"/>
<path d="M122.419 106.014H116.614V111.903H122.419V106.014Z" fill="black"/>
<path d="M145.641 106.014H139.836V111.903H145.641V106.014Z" fill="black"/>
<path d="M52.7539 111.903H46.9484V117.793H52.7539V111.903Z" fill="black"/>
<path d="M58.5594 111.903H52.7539V117.793H58.5594V111.903Z" fill="black"/>
<path d="M70.1703 111.903H64.3648V117.793H70.1703V111.903Z" fill="black"/>
<path d="M81.7812 111.903H75.9757V117.793H81.7812V111.903Z" fill="black"/>
<path d="M93.3921 111.903H87.5867V117.793H93.3921V111.903Z" fill="black"/>
<path d="M99.1975 111.903H93.3921V117.793H99.1975V111.903Z" fill="black"/>
<path d="M122.419 111.903H116.614V117.793H122.419V111.903Z" fill="black"/>
<path d="M145.641 111.903H139.836V117.793H145.641V111.903Z" fill="black"/>
<path d="M52.7539 117.793H46.9484V123.683H52.7539V117.793Z" fill="black"/>
<path d="M58.5594 117.793H52.7539V123.683H58.5594V117.793Z" fill="black"/>
<path d="M64.3648 117.793H58.5594V123.683H64.3648V117.793Z" fill="black"/>
<path d="M70.1703 117.793H64.3648V123.683H70.1703V117.793Z" fill="black"/>
<path d="M81.7812 117.793H75.9757V123.683H81.7812V117.793Z" fill="black"/>
<path d="M93.3921 117.793H87.5867V123.683H93.3921V117.793Z" fill="black"/>
<path d="M99.1975 117.793H93.3921V123.683H99.1975V117.793Z" fill="black"/>
<path d="M105.003 117.793H99.1976V123.683H105.003V117.793Z" fill="black"/>
<path d="M110.808 117.793H105.003V123.683H110.808V117.793Z" fill="black"/>
<path d="M116.614 117.793H110.808V123.683H116.614V117.793Z" fill="black"/>
<path d="M122.419 117.793H116.614V123.683H122.419V117.793Z" fill="black"/>
<path d="M139.836 117.793H134.03V123.683H139.836V117.793Z" fill="black"/>
<path d="M145.641 117.793H139.836V123.683H145.641V117.793Z" fill="black"/>
<path d="M52.7539 123.683H46.9484V129.572H52.7539V123.683Z" fill="black"/>
<path d="M75.9757 123.683H70.1702V129.572H75.9757V123.683Z" fill="black"/>
<path d="M81.7812 123.683H75.9757V129.572H81.7812V123.683Z" fill="black"/>
<path d="M105.003 123.683H99.1976V129.572H105.003V123.683Z" fill="black"/>
<path d="M110.808 123.683H105.003V129.572H110.808V123.683Z" fill="black"/>
<path d="M139.836 123.683H134.03V129.572H139.836V123.683Z" fill="black"/>
<path d="M145.641 123.683H139.836V129.572H145.641V123.683Z" fill="black"/>
<path d="M58.5594 129.572H52.7539V135.462H58.5594V129.572Z" fill="black"/>
<path d="M70.1703 129.572H64.3648V135.462H70.1703V129.572Z" fill="black"/>
<path d="M81.7812 129.572H75.9757V135.462H81.7812V129.572Z" fill="black"/>
<path d="M99.1975 129.572H93.3921V135.462H99.1975V129.572Z" fill="black"/>
<path d="M105.003 129.572H99.1976V135.462H105.003V129.572Z" fill="black"/>
<path d="M122.419 129.572H116.614V135.462H122.419V129.572Z" fill="black"/>
<path d="M128.225 129.572H122.419V135.462H128.225V129.572Z" fill="black"/>
<path d="M134.03 129.572H128.225V135.462H134.03V129.572Z" fill="black"/>
<path d="M139.836 129.572H134.03V135.462H139.836V129.572Z" fill="black"/>
<path d="M145.641 129.572H139.836V135.462H145.641V129.572Z" fill="black"/>
<path d="M64.3648 135.462H58.5594V141.352H64.3648V135.462Z" fill="black"/>
<path d="M70.1703 135.462H64.3648V141.352H70.1703V135.462Z" fill="black"/>
<path d="M75.9757 135.462H70.1702V141.352H75.9757V135.462Z" fill="black"/>
<path d="M81.7812 135.462H75.9757V141.352H81.7812V135.462Z" fill="black"/>
<path d="M105.003 135.462H99.1976V141.352H105.003V135.462Z" fill="black"/>
<path d="M110.808 135.462H105.003V141.352H110.808V135.462Z" fill="black"/>
<path d="M116.614 135.462H110.808V141.352H116.614V135.462Z" fill="black"/>
<path d="M122.419 135.462H116.614V141.352H122.419V135.462Z" fill="black"/>
<path d="M134.03 135.462H128.225V141.352H134.03V135.462Z" fill="black"/>
<path d="M139.836 135.462H134.03V141.352H139.836V135.462Z" fill="black"/>
<path d="M145.641 135.462H139.836V141.352H145.641V135.462Z" fill="black"/>
<path d="M52.7539 141.352H46.9484V147.241H52.7539V141.352Z" fill="black"/>
<path d="M70.1703 141.352H64.3648V147.241H70.1703V141.352Z" fill="black"/>
<path d="M75.9757 141.352H70.1702V147.241H75.9757V141.352Z" fill="black"/>
<path d="M81.7812 141.352H75.9757V147.241H81.7812V141.352Z" fill="black"/>
<path d="M93.3921 141.352H87.5867V147.241H93.3921V141.352Z" fill="black"/>
<path d="M99.1975 141.352H93.3921V147.241H99.1975V141.352Z" fill="black"/>
<path d="M128.225 141.352H122.419V147.241H128.225V141.352Z" fill="black"/>
<path d="M145.641 141.352H139.836V147.241H145.641V141.352Z" fill="black"/>
<path d="M35.0472 0H6.60049H0.504761V6.18414V35.0434V41.2276H6.60049H35.0472H41.143V35.0434V6.18414V0H35.0472ZM35.0472 35.0434H6.60049V6.18414H35.0472V35.0434Z" fill="black"/>
<path d="M139.545 0H111.099H105.003V6.18414V35.0434V41.2276H111.099H139.545H145.641V35.0434V6.18414V0H139.545ZM139.545 35.0434H111.099V6.18414H139.545V35.0434Z" fill="black"/>
<path d="M35.0472 106.014H6.60049H0.504761V112.198V141.057V147.241H6.60049H35.0472H41.143V141.057V112.198V106.014H35.0472ZM35.0472 141.057H6.60049V112.198H35.0472V141.057Z" fill="black"/>
<path d="M29.532 11.7793H12.1157V29.4483H29.532V11.7793Z" fill="black"/>
<path d="M134.03 11.7793H116.614V29.4483H134.03V11.7793Z" fill="black"/>
<path d="M29.532 117.793H12.1157V135.462H29.532V117.793Z" fill="black"/>
</svg>
