<svg width="728" height="87" viewBox="0 0 728 87" fill="none" xmlns="http://www.w3.org/2000/svg">
<rect width="728" height="87" rx="25" fill="#24356A"/>
<path d="M186.379 35.0742C185.22 35.0742 184.191 35.3021 183.293 35.7578C182.408 36.2005 181.659 36.8451 181.047 37.6914C180.448 38.5378 179.992 39.5599 179.68 40.7578C179.367 41.9557 179.211 43.3034 179.211 44.8008C179.211 46.819 179.458 48.5443 179.953 49.9766C180.461 51.3958 181.242 52.4831 182.297 53.2383C183.352 53.9805 184.712 54.3516 186.379 54.3516C187.538 54.3516 188.697 54.2214 189.855 53.9609C191.027 53.7005 192.297 53.3294 193.664 52.8477V57.9258C192.401 58.4466 191.158 58.8177 189.934 59.0391C188.71 59.2734 187.336 59.3906 185.812 59.3906C182.87 59.3906 180.448 58.7852 178.547 57.5742C176.659 56.3503 175.259 54.6445 174.348 52.457C173.436 50.2565 172.98 47.6914 172.98 44.7617C172.98 42.6003 173.273 40.6211 173.859 38.8242C174.445 37.0273 175.305 35.4714 176.438 34.1562C177.57 32.8411 178.97 31.8255 180.637 31.1094C182.303 30.3932 184.217 30.0352 186.379 30.0352C187.798 30.0352 189.217 30.2174 190.637 30.582C192.069 30.9336 193.436 31.4219 194.738 32.0469L192.785 36.9688C191.717 36.4609 190.643 36.0182 189.562 35.6406C188.482 35.263 187.421 35.0742 186.379 35.0742ZM210.078 30.4453C212.669 30.4453 214.805 30.7578 216.484 31.3828C218.177 32.0078 219.434 32.9518 220.254 34.2148C221.074 35.4779 221.484 37.0729 221.484 39C221.484 40.3021 221.237 41.4414 220.742 42.418C220.247 43.3945 219.596 44.2214 218.789 44.8984C217.982 45.5755 217.109 46.1289 216.172 46.5586L224.57 59H217.852L211.035 48.043H207.812V59H201.758V30.4453H210.078ZM209.648 35.4062H207.812V43.1211H209.766C211.771 43.1211 213.203 42.7891 214.062 42.125C214.935 41.4479 215.371 40.4583 215.371 39.1562C215.371 37.8021 214.902 36.8385 213.965 36.2656C213.04 35.6927 211.602 35.4062 209.648 35.4062ZM247.645 59L245.574 52.2031H235.164L233.094 59H226.57L236.648 30.3281H244.051L254.168 59H247.645ZM244.129 47.125L242.059 40.4844C241.928 40.0417 241.753 39.4753 241.531 38.7852C241.323 38.082 241.108 37.3724 240.887 36.6562C240.678 35.9271 240.509 35.2956 240.379 34.7617C240.249 35.2956 240.066 35.9596 239.832 36.7539C239.611 37.5352 239.396 38.2773 239.188 38.9805C238.979 39.6836 238.829 40.1849 238.738 40.4844L236.688 47.125H244.129ZM285.113 59H277.418L264.996 37.3984H264.82C264.872 38.2969 264.918 39.2018 264.957 40.1133C264.996 41.0247 265.035 41.9362 265.074 42.8477C265.113 43.7461 265.152 44.651 265.191 45.5625V59H259.781V30.4453H267.418L279.82 51.832H279.957C279.931 50.9466 279.898 50.0677 279.859 49.1953C279.82 48.3229 279.781 47.4505 279.742 46.5781C279.716 45.7057 279.69 44.8333 279.664 43.9609V30.4453H285.113V59ZM310.766 59H294.32V30.4453H310.766V35.4062H300.375V41.6758H310.043V46.6367H300.375V54H310.766V59ZM357.051 44.6836C357.051 46.8841 356.777 48.8893 356.23 50.6992C355.684 52.4961 354.85 54.0456 353.73 55.3477C352.624 56.6497 351.217 57.6523 349.512 58.3555C347.806 59.0456 345.788 59.3906 343.457 59.3906C341.126 59.3906 339.108 59.0456 337.402 58.3555C335.697 57.6523 334.284 56.6497 333.164 55.3477C332.057 54.0456 331.23 52.4896 330.684 50.6797C330.137 48.8698 329.863 46.8581 329.863 44.6445C329.863 41.6888 330.345 39.1172 331.309 36.9297C332.285 34.7292 333.783 33.0234 335.801 31.8125C337.819 30.6016 340.384 29.9961 343.496 29.9961C346.595 29.9961 349.141 30.6016 351.133 31.8125C353.138 33.0234 354.622 34.7292 355.586 36.9297C356.562 39.1302 357.051 41.7148 357.051 44.6836ZM336.211 44.6836C336.211 46.6758 336.458 48.3945 336.953 49.8398C337.461 51.2721 338.249 52.3789 339.316 53.1602C340.384 53.9284 341.764 54.3125 343.457 54.3125C345.176 54.3125 346.569 53.9284 347.637 53.1602C348.704 52.3789 349.479 51.2721 349.961 49.8398C350.456 48.3945 350.703 46.6758 350.703 44.6836C350.703 41.6888 350.143 39.332 349.023 37.6133C347.904 35.8945 346.061 35.0352 343.496 35.0352C341.79 35.0352 340.397 35.4258 339.316 36.207C338.249 36.9753 337.461 38.082 336.953 39.5273C336.458 40.9596 336.211 42.6784 336.211 44.6836ZM374.09 30.4453C377.775 30.4453 380.464 31.2396 382.156 32.8281C383.849 34.4036 384.695 36.5781 384.695 39.3516C384.695 40.6016 384.507 41.7995 384.129 42.9453C383.751 44.0781 383.133 45.0872 382.273 45.9727C381.427 46.8581 380.294 47.5612 378.875 48.082C377.456 48.5898 375.704 48.8438 373.621 48.8438H371.023V59H364.969V30.4453H374.09ZM373.777 35.4062H371.023V43.8828H373.016C374.148 43.8828 375.132 43.7331 375.965 43.4336C376.798 43.1341 377.443 42.6654 377.898 42.0273C378.354 41.3893 378.582 40.569 378.582 39.5664C378.582 38.1602 378.191 37.1185 377.41 36.4414C376.629 35.7513 375.418 35.4062 373.777 35.4062ZM408.531 59H392.086V30.4453H408.531V35.4062H398.141V41.6758H407.809V46.6367H398.141V54H408.531V59ZM424.828 30.4453C427.419 30.4453 429.555 30.7578 431.234 31.3828C432.927 32.0078 434.184 32.9518 435.004 34.2148C435.824 35.4779 436.234 37.0729 436.234 39C436.234 40.3021 435.987 41.4414 435.492 42.418C434.997 43.3945 434.346 44.2214 433.539 44.8984C432.732 45.5755 431.859 46.1289 430.922 46.5586L439.32 59H432.602L425.785 48.043H422.562V59H416.508V30.4453H424.828ZM424.398 35.4062H422.562V43.1211H424.516C426.521 43.1211 427.953 42.7891 428.812 42.125C429.685 41.4479 430.121 40.4583 430.121 39.1562C430.121 37.8021 429.652 36.8385 428.715 36.2656C427.79 35.6927 426.352 35.4062 424.398 35.4062ZM462.395 59L460.324 52.2031H449.914L447.844 59H441.32L451.398 30.3281H458.801L468.918 59H462.395ZM458.879 47.125L456.809 40.4844C456.678 40.0417 456.503 39.4753 456.281 38.7852C456.073 38.082 455.858 37.3724 455.637 36.6562C455.428 35.9271 455.259 35.2956 455.129 34.7617C454.999 35.2956 454.816 35.9596 454.582 36.7539C454.361 37.5352 454.146 38.2773 453.938 38.9805C453.729 39.6836 453.579 40.1849 453.488 40.4844L451.438 47.125H458.879ZM485.547 59H479.492V35.4844H471.738V30.4453H493.301V35.4844H485.547V59ZM525.613 44.6836C525.613 46.8841 525.34 48.8893 524.793 50.6992C524.246 52.4961 523.413 54.0456 522.293 55.3477C521.186 56.6497 519.78 57.6523 518.074 58.3555C516.368 59.0456 514.35 59.3906 512.02 59.3906C509.689 59.3906 507.671 59.0456 505.965 58.3555C504.259 57.6523 502.846 56.6497 501.727 55.3477C500.62 54.0456 499.793 52.4896 499.246 50.6797C498.699 48.8698 498.426 46.8581 498.426 44.6445C498.426 41.6888 498.908 39.1172 499.871 36.9297C500.848 34.7292 502.345 33.0234 504.363 31.8125C506.382 30.6016 508.947 29.9961 512.059 29.9961C515.158 29.9961 517.703 30.6016 519.695 31.8125C521.701 33.0234 523.185 34.7292 524.148 36.9297C525.125 39.1302 525.613 41.7148 525.613 44.6836ZM504.773 44.6836C504.773 46.6758 505.021 48.3945 505.516 49.8398C506.023 51.2721 506.811 52.3789 507.879 53.1602C508.947 53.9284 510.327 54.3125 512.02 54.3125C513.738 54.3125 515.132 53.9284 516.199 53.1602C517.267 52.3789 518.042 51.2721 518.523 49.8398C519.018 48.3945 519.266 46.6758 519.266 44.6836C519.266 41.6888 518.706 39.332 517.586 37.6133C516.466 35.8945 514.624 35.0352 512.059 35.0352C510.353 35.0352 508.96 35.4258 507.879 36.207C506.811 36.9753 506.023 38.082 505.516 39.5273C505.021 40.9596 504.773 42.6784 504.773 44.6836ZM541.852 30.4453C544.443 30.4453 546.578 30.7578 548.258 31.3828C549.951 32.0078 551.207 32.9518 552.027 34.2148C552.848 35.4779 553.258 37.0729 553.258 39C553.258 40.3021 553.01 41.4414 552.516 42.418C552.021 43.3945 551.37 44.2214 550.562 44.8984C549.755 45.5755 548.883 46.1289 547.945 46.5586L556.344 59H549.625L542.809 48.043H539.586V59H533.531V30.4453H541.852ZM541.422 35.4062H539.586V43.1211H541.539C543.544 43.1211 544.977 42.7891 545.836 42.125C546.708 41.4479 547.145 40.4583 547.145 39.1562C547.145 37.8021 546.676 36.8385 545.738 36.2656C544.814 35.6927 543.375 35.4062 541.422 35.4062Z" fill="white"/>
</svg>
