<svg width="410" height="153" viewBox="0 0 410 153" fill="none" xmlns="http://www.w3.org/2000/svg">
<path d="M328.301 146.366H307.016V65.7726H328.301V146.366Z" fill="#333333" fill-opacity="0.15"/>
<path d="M409.254 77.7419L396.193 92.3549C392.57 87.9076 387.193 84.0947 379.617 84.0947C366.775 84.0947 358.763 93.2029 358.763 106.016C358.763 118.83 366.775 128.044 379.617 128.044C387.199 128.044 392.57 124.231 396.193 119.783L409.146 134.398C400.914 143.189 391.472 146.37 379.617 146.37C355.032 146.37 337.577 129.001 337.577 106.02C337.577 83.0392 355.032 65.7765 379.617 65.7765C392.789 65.7725 401.241 69.6971 409.254 77.7419Z" fill="#333333" fill-opacity="0.15"/>
<path d="M297.102 116.643C296.34 113.353 294.919 110.424 292.547 107.978C291.142 106.511 289.528 105.259 287.758 104.263C286.994 103.836 286.236 103.397 285.476 102.96C285.406 102.906 285.359 102.829 285.344 102.742L285.306 102.724C285.316 102.718 285.324 102.711 285.332 102.702C285.319 102.655 285.317 102.605 285.325 102.556C285.334 102.508 285.352 102.462 285.38 102.421C285.687 102.066 285.997 101.711 286.314 101.365C288.314 99.2386 289.764 96.6549 290.538 93.8394C291.141 91.6928 291.411 89.4659 291.336 87.2372C291.302 86.4391 291.154 85.6291 291.088 84.825C290.92 83.0079 290.492 81.2245 289.815 79.5297C288.643 76.4181 286.667 73.6727 284.089 71.5727C281.514 69.4786 278.527 67.9503 275.322 67.0874C272.33 66.2473 269.237 65.8217 266.13 65.8224C255.614 65.8224 245.098 65.8111 234.581 65.7885L221.567 65.7745C221.168 65.7745 220.759 65.8005 220.353 65.8224C220.326 65.828 220.299 65.8394 220.276 65.8559C220.253 65.8724 220.234 65.8936 220.22 65.9182C220.136 66.0698 220.202 66.1556 220.352 66.2434C220.934 66.5826 221.501 66.9517 222.085 67.2889C224.418 68.6549 226.607 70.2518 228.62 72.0555C230.795 73.9793 232.791 76.0977 234.581 78.3844C237.878 82.5927 240.401 87.3527 242.034 92.4428C243.102 95.6453 243.772 98.967 244.029 102.333C244.26 105.765 244.276 109.205 243.75 112.633C243.459 114.565 243.059 116.479 242.552 118.367C241.276 122.994 239.268 127.387 236.605 131.38C236.455 131.605 236.293 131.823 236.15 132.05C235.721 132.732 235.735 132.98 236.283 133.68C236.617 134.103 236.968 134.514 237.321 134.923C237.762 135.434 238.217 135.933 238.66 136.442C241.269 139.449 243.879 142.457 246.487 145.466C246.665 145.666 246.85 145.865 247.03 146.065C247.117 146.159 247.223 146.235 247.341 146.288C247.458 146.34 247.585 146.369 247.714 146.372H271.383C272.75 146.345 274.114 146.244 275.47 146.069C279.364 145.577 283.121 144.309 286.517 142.341C289.814 140.453 292.566 137.743 294.506 134.476C296.445 131.208 297.506 127.495 297.585 123.696C297.647 121.328 297.641 118.979 297.102 116.643ZM254.707 84.7432H263.816C268.051 84.7432 271.124 87.0457 271.124 91.102C271.124 95.1583 268.051 97.4608 263.816 97.4608H254.707V84.7432ZM269.111 127.395H254.707V113.141H269.111C273.878 113.141 277.267 115.663 277.267 120.268C277.267 124.873 273.878 127.395 269.111 127.395Z" fill="#333333" fill-opacity="0.15"/>
<path d="M247.584 152.326C244.937 149.266 242.285 146.207 239.627 143.148C237.191 140.354 234.713 137.587 232.317 134.756C231.599 133.906 231.186 133.493 231.036 133.173L230.637 132.718C236.453 125.707 239.859 116.497 239.859 106.08C239.859 95.3997 236.341 86.0022 230.366 78.8253C225.158 72.5723 218.079 68.0192 209.827 65.7726C208.896 65.5185 207.946 65.2937 206.979 65.0982L206.728 65.0503C206.403 64.9864 206.074 64.9266 205.744 64.8687C203.793 64.5417 201.825 64.3325 199.848 64.2422C199.424 64.2223 198.999 64.2143 198.574 64.2063C198.418 64.2063 198.264 64.2063 198.107 64.2063C197.847 64.2063 197.586 64.2063 197.327 64.2063C197.035 64.2063 196.742 64.2063 196.451 64.2203L195.8 64.2482C195.515 64.2602 195.232 64.2721 194.948 64.2901C194.561 64.314 194.174 64.344 193.787 64.3799L193.54 64.3998C191.467 64.5971 189.411 64.9351 187.384 65.4114C183.292 66.3506 179.365 67.9017 175.736 70.0124L175.656 70.0583C173.482 71.3416 171.438 72.8338 169.553 74.5137C166.266 77.414 163.481 80.8373 161.311 84.6454C161.241 84.7691 161.173 84.8968 161.111 85.0205C160.898 85.4196 160.688 85.8007 160.487 86.1977C160.411 86.3434 160.339 86.493 160.265 86.6407C160.066 87.0577 159.866 87.4747 159.667 87.8977C159.625 87.9894 159.585 88.0812 159.545 88.171C157.806 92.1791 156.669 96.4222 156.171 100.763C156.073 101.561 156.007 102.373 155.955 103.179C155.955 103.353 155.933 103.526 155.925 103.702C155.884 104.5 155.858 105.298 155.86 106.096V106.134C155.869 107.913 155.981 109.691 156.195 111.457C156.348 112.726 156.494 114.001 156.883 115.23C156.903 115.45 156.913 115.673 156.927 115.895C160.339 131.258 171.716 142.671 186.975 146.356C190.539 147.209 194.191 147.637 197.855 147.629C203.876 147.614 209.836 146.422 215.399 144.119L217.395 146.356L223.227 152.916C223.27 152.947 223.316 152.975 223.364 153H247.84C247.871 152.951 247.884 152.894 247.878 152.836C247.817 152.647 247.717 152.473 247.584 152.326ZM216.604 116.611L207.177 105.751L192.482 118.032L201.584 128.339C200.353 128.557 199.106 128.667 197.855 128.668C185.575 128.668 177.021 119.348 177.021 106.08C177.021 92.5924 185.575 83.163 197.855 83.163C210.136 83.163 218.689 92.5924 218.689 106.08C218.72 109.695 218.01 113.277 216.604 116.607V116.611Z" fill="#333333" fill-opacity="0.15"/>
<path d="M43.4231 17.2981C48.1999 17.2981 52.0722 13.4258 52.0722 8.64907C52.0722 3.87232 48.1999 0 43.4231 0C38.6464 0 34.7741 3.87232 34.7741 8.64907C34.7741 13.4258 38.6464 17.2981 43.4231 17.2981Z" fill="#333333" fill-opacity="0.15"/>
<path d="M0 82.1045C0 121.214 31.7048 152.919 70.8143 152.919C83.1151 152.932 95.2051 149.725 105.882 143.617V122.335C96.1761 130.829 83.7123 135.504 70.8143 135.488C41.3316 135.488 17.4324 111.587 17.4324 82.1045C17.4258 74.3883 19.0964 66.7629 22.3285 59.7563C25.5606 52.7497 30.2769 46.5292 36.1509 41.5257V20.3619C14.5808 32.4975 0 55.5986 0 82.1045Z" fill="#333333" fill-opacity="0.15"/>
<path d="M36.1509 82.8083C36.1509 83.6754 36.218 84.5243 36.2797 85.3769C37.6002 103.517 52.6998 117.834 71.1771 117.834C88.9904 117.834 103.666 104.527 105.882 87.316V78.3005C103.666 61.0949 88.9904 47.7857 71.1771 47.7857C64.9919 47.7858 58.9184 49.4338 53.5814 52.5601V31.5814C47.1932 33.7619 41.2774 37.1365 36.1491 41.5257L36.1509 82.8083ZM70.8143 64.3256C74.3302 64.3256 77.7672 65.3682 80.6907 67.3216C83.6141 69.275 85.8926 72.0514 87.2381 75.2997C88.5836 78.548 88.9357 82.1224 88.2497 85.5708C87.5638 89.0192 85.8707 92.1868 83.3845 94.6729C80.8984 97.1591 77.7308 98.8522 74.2824 99.5381C70.834 100.224 67.2596 99.872 64.0113 98.5265C60.763 97.181 57.9866 94.9025 56.0332 91.979C54.0799 89.0556 53.0372 85.6186 53.0372 82.1027C53.0372 77.3879 54.9102 72.8662 58.244 69.5324C61.5779 66.1986 66.0995 64.3256 70.8143 64.3256Z" fill="#333333" fill-opacity="0.15"/>
<path d="M123.315 129.622C135.127 116.614 141.66 99.6663 141.636 82.0954C141.636 42.9878 109.931 11.283 70.8215 11.283C65.0121 11.2819 59.2245 11.9941 53.5887 13.4035V31.5814C59.1367 29.6874 64.9591 28.7215 70.8215 28.7226C95.401 28.7226 116.088 45.3405 122.291 67.9482C122.7 69.4356 123.044 70.9473 123.322 72.4831V129.624L123.315 129.622Z" fill="#333333" fill-opacity="0.15"/>
</svg>
