<svg width="26" height="33" viewBox="0 0 26 33" fill="none" xmlns="http://www.w3.org/2000/svg">
<path d="M13 16C14.6569 16 16 14.6569 16 13C16 11.3431 14.6569 10 13 10C11.3431 10 10 11.3431 10 13C10 14.6569 11.3431 16 13 16Z" fill="black"/>
<path d="M13 0C9.55219 0 6.24558 1.36964 3.80761 3.80762C1.36964 6.24559 0 9.55219 0 13C0 19.18 6.7 26.6 12.33 31.74L13.02 32.37L13.69 31.72C19.92 25.72 26 19.35 26 13C26 11.2928 25.6637 9.60235 25.0104 8.02512C24.3571 6.44788 23.3996 5.01478 22.1924 3.80762C20.9852 2.60046 19.5521 1.64287 17.9749 0.989563C16.3977 0.336252 14.7072 0 13 0ZM13 18C12.0111 18 11.0444 17.7068 10.2221 17.1573C9.3999 16.6079 8.75904 15.8271 8.3806 14.9134C8.00216 13.9998 7.90315 12.9944 8.09608 12.0245C8.289 11.0546 8.7652 10.1637 9.46446 9.46448C10.1637 8.76521 11.0546 8.289 12.0246 8.09607C12.9945 7.90314 13.9998 8.00215 14.9134 8.38058C15.827 8.75902 16.6079 9.39989 17.1573 10.2221C17.7068 11.0444 18 12.0111 18 13C18 14.3261 17.4732 15.5978 16.5355 16.5355C15.5979 17.4732 14.3261 18 13 18Z" fill="black"/>
</svg>
