<svg width="100" height="100" viewBox="0 0 100 100" fill="none" xmlns="http://www.w3.org/2000/svg">
<g clip-path="url(#clip0_85_9024)">
<path d="M2.76399 94.702C4.22699 94.702 5.41299 95.888 5.41299 97.351C5.41299 98.814 4.22699 100 2.76399 100C1.30099 100 0.11499 98.814 0.11499 97.351C0.11499 95.888 1.30099 94.702 2.76399 94.702Z" fill="#282476" fill-opacity="0.3"/>
<path d="M16.26 94.702C17.723 94.702 18.909 95.888 18.909 97.351C18.909 98.814 17.723 100 16.26 100C14.797 100 13.611 98.814 13.611 97.351C13.611 95.888 14.797 94.702 16.26 94.702Z" fill="#282476" fill-opacity="0.3"/>
<path d="M29.7561 94.702C31.2191 94.702 32.4051 95.888 32.4051 97.351C32.4051 98.814 31.2191 100 29.7561 100C28.2931 100 27.1071 98.814 27.1071 97.351C27.1071 95.888 28.2931 94.702 29.7561 94.702Z" fill="#282476" fill-opacity="0.3"/>
<path d="M43.252 94.702C44.715 94.702 45.901 95.888 45.901 97.351C45.901 98.814 44.715 100 43.252 100C41.789 100 40.603 98.814 40.603 97.351C40.603 95.888 41.789 94.702 43.252 94.702Z" fill="#282476" fill-opacity="0.3"/>
<path d="M56.748 94.702C58.211 94.702 59.397 95.888 59.397 97.351C59.397 98.814 58.211 100 56.748 100C55.285 100 54.099 98.814 54.099 97.351C54.099 95.888 55.285 94.702 56.748 94.702Z" fill="#282476" fill-opacity="0.3"/>
<path d="M70.244 94.702C71.707 94.702 72.893 95.888 72.893 97.351C72.893 98.814 71.707 100 70.244 100C68.781 100 67.595 98.814 67.595 97.351C67.595 95.888 68.781 94.702 70.244 94.702Z" fill="#282476" fill-opacity="0.3"/>
<path d="M83.7401 94.702C85.2031 94.702 86.3891 95.888 86.3891 97.351C86.3891 98.814 85.2031 100 83.7401 100C82.2771 100 81.0911 98.814 81.0911 97.351C81.0911 95.888 82.2771 94.702 83.7401 94.702Z" fill="#282476" fill-opacity="0.3"/>
<path d="M97.236 94.702C98.699 94.702 99.885 95.888 99.885 97.351C99.885 98.814 98.699 100 97.236 100C95.773 100 94.587 98.814 94.587 97.351C94.587 95.888 95.773 94.702 97.236 94.702Z" fill="#282476" fill-opacity="0.3"/>
<path d="M2.76399 81.1729C4.22699 81.1729 5.41299 82.3589 5.41299 83.8219C5.41299 85.285 4.22699 86.4709 2.76399 86.4709C1.30099 86.4709 0.11499 85.285 0.11499 83.8219C0.11499 82.3589 1.30099 81.1729 2.76399 81.1729Z" fill="#282476" fill-opacity="0.3"/>
<path d="M16.26 81.1729C17.723 81.1729 18.909 82.3589 18.909 83.8219C18.909 85.285 17.723 86.4709 16.26 86.4709C14.797 86.4709 13.611 85.285 13.611 83.8219C13.611 82.3589 14.797 81.1729 16.26 81.1729Z" fill="#282476" fill-opacity="0.3"/>
<path d="M29.7561 81.1729C31.2191 81.1729 32.4051 82.3589 32.4051 83.8219C32.4051 85.285 31.2191 86.4709 29.7561 86.4709C28.2931 86.4709 27.1071 85.285 27.1071 83.8219C27.1071 82.3589 28.2931 81.1729 29.7561 81.1729Z" fill="#282476" fill-opacity="0.3"/>
<path d="M43.252 81.1729C44.715 81.1729 45.901 82.3589 45.901 83.8219C45.901 85.285 44.715 86.4709 43.252 86.4709C41.789 86.4709 40.603 85.285 40.603 83.8219C40.603 82.3589 41.789 81.1729 43.252 81.1729Z" fill="#282476" fill-opacity="0.3"/>
<path d="M56.748 81.1729C58.211 81.1729 59.397 82.3589 59.397 83.8219C59.397 85.285 58.211 86.4709 56.748 86.4709C55.285 86.4709 54.099 85.285 54.099 83.8219C54.099 82.3589 55.285 81.1729 56.748 81.1729Z" fill="#282476" fill-opacity="0.3"/>
<path d="M70.244 81.1729C71.707 81.1729 72.893 82.3589 72.893 83.8219C72.893 85.285 71.707 86.4709 70.244 86.4709C68.781 86.4709 67.595 85.285 67.595 83.8219C67.595 82.3589 68.781 81.1729 70.244 81.1729Z" fill="#282476" fill-opacity="0.3"/>
<path d="M83.7401 81.1729C85.2031 81.1729 86.3891 82.3589 86.3891 83.8219C86.3891 85.285 85.2031 86.4709 83.7401 86.4709C82.2771 86.4709 81.0911 85.285 81.0911 83.8219C81.0911 82.3589 82.2771 81.1729 83.7401 81.1729Z" fill="#282476" fill-opacity="0.3"/>
<path d="M97.236 81.1729C98.699 81.1729 99.885 82.3589 99.885 83.8219C99.885 85.285 98.699 86.4709 97.236 86.4709C95.773 86.4709 94.587 85.285 94.587 83.8219C94.587 82.3589 95.773 81.1729 97.236 81.1729Z" fill="#282476" fill-opacity="0.3"/>
<path d="M2.76399 67.644C4.22699 67.644 5.41299 68.83 5.41299 70.293C5.41299 71.756 4.22699 72.942 2.76399 72.942C1.30099 72.942 0.11499 71.756 0.11499 70.293C0.11499 68.83 1.30099 67.644 2.76399 67.644Z" fill="#282476" fill-opacity="0.3"/>
<path d="M16.26 67.644C17.723 67.644 18.909 68.83 18.909 70.293C18.909 71.756 17.723 72.942 16.26 72.942C14.797 72.942 13.611 71.756 13.611 70.293C13.611 68.83 14.797 67.644 16.26 67.644Z" fill="#282476" fill-opacity="0.3"/>
<path d="M29.7561 67.644C31.2191 67.644 32.4051 68.83 32.4051 70.293C32.4051 71.756 31.2191 72.942 29.7561 72.942C28.2931 72.942 27.1071 71.756 27.1071 70.293C27.1071 68.83 28.2931 67.644 29.7561 67.644Z" fill="#282476" fill-opacity="0.3"/>
<path d="M43.252 67.644C44.715 67.644 45.901 68.83 45.901 70.293C45.901 71.756 44.715 72.942 43.252 72.942C41.789 72.942 40.603 71.756 40.603 70.293C40.603 68.83 41.789 67.644 43.252 67.644Z" fill="#282476" fill-opacity="0.3"/>
<path d="M56.748 67.644C58.211 67.644 59.397 68.83 59.397 70.293C59.397 71.756 58.211 72.942 56.748 72.942C55.285 72.942 54.099 71.756 54.099 70.293C54.099 68.83 55.285 67.644 56.748 67.644Z" fill="#282476" fill-opacity="0.3"/>
<path d="M70.244 67.644C71.707 67.644 72.893 68.83 72.893 70.293C72.893 71.756 71.707 72.942 70.244 72.942C68.781 72.942 67.595 71.756 67.595 70.293C67.595 68.83 68.781 67.644 70.244 67.644Z" fill="#282476" fill-opacity="0.3"/>
<path d="M83.7401 67.644C85.2031 67.644 86.3891 68.83 86.3891 70.293C86.3891 71.756 85.2031 72.942 83.7401 72.942C82.2771 72.942 81.0911 71.756 81.0911 70.293C81.0911 68.83 82.2771 67.644 83.7401 67.644Z" fill="#282476" fill-opacity="0.3"/>
<path d="M97.236 67.644C98.699 67.644 99.885 68.83 99.885 70.293C99.885 71.756 98.699 72.942 97.236 72.942C95.773 72.942 94.587 71.756 94.587 70.293C94.587 68.83 95.773 67.644 97.236 67.644Z" fill="#282476" fill-opacity="0.3"/>
<path d="M2.76399 54.115C4.22699 54.115 5.41299 55.301 5.41299 56.764C5.41299 58.227 4.22699 59.413 2.76399 59.413C1.30099 59.413 0.11499 58.227 0.11499 56.764C0.11499 55.301 1.30099 54.115 2.76399 54.115Z" fill="#282476" fill-opacity="0.3"/>
<path d="M16.26 54.115C17.723 54.115 18.909 55.301 18.909 56.764C18.909 58.227 17.723 59.413 16.26 59.413C14.797 59.413 13.611 58.227 13.611 56.764C13.611 55.301 14.797 54.115 16.26 54.115Z" fill="#282476" fill-opacity="0.3"/>
<path d="M29.7561 54.115C31.2191 54.115 32.4051 55.301 32.4051 56.764C32.4051 58.227 31.2191 59.413 29.7561 59.413C28.2931 59.413 27.1071 58.227 27.1071 56.764C27.1071 55.301 28.2931 54.115 29.7561 54.115Z" fill="#282476" fill-opacity="0.3"/>
<path d="M2.76399 40.587C4.22699 40.587 5.41299 41.773 5.41299 43.236C5.41299 44.699 4.22699 45.885 2.76399 45.885C1.30099 45.885 0.11499 44.699 0.11499 43.236C0.11499 41.773 1.30099 40.587 2.76399 40.587Z" fill="#282476" fill-opacity="0.3"/>
<path d="M16.26 40.587C17.723 40.587 18.909 41.773 18.909 43.236C18.909 44.699 17.723 45.885 16.26 45.885C14.797 45.885 13.611 44.699 13.611 43.236C13.611 41.773 14.797 40.587 16.26 40.587Z" fill="#282476" fill-opacity="0.3"/>
<path d="M29.7561 40.587C31.2191 40.587 32.4051 41.773 32.4051 43.236C32.4051 44.699 31.2191 45.885 29.7561 45.885C28.2931 45.885 27.1071 44.699 27.1071 43.236C27.1071 41.773 28.2931 40.587 29.7561 40.587Z" fill="#282476" fill-opacity="0.3"/>
<path d="M2.76399 27.058C4.22699 27.058 5.41299 28.244 5.41299 29.707C5.41299 31.17 4.22699 32.356 2.76399 32.356C1.30099 32.356 0.11499 31.17 0.11499 29.707C0.11499 28.244 1.30099 27.058 2.76399 27.058Z" fill="#282476" fill-opacity="0.3"/>
<path d="M16.26 27.058C17.723 27.058 18.909 28.244 18.909 29.707C18.909 31.17 17.723 32.356 16.26 32.356C14.797 32.356 13.611 31.17 13.611 29.707C13.611 28.244 14.797 27.058 16.26 27.058Z" fill="#282476" fill-opacity="0.3"/>
<path d="M29.7561 27.058C31.2191 27.058 32.4051 28.244 32.4051 29.707C32.4051 31.17 31.2191 32.356 29.7561 32.356C28.2931 32.356 27.1071 31.17 27.1071 29.707C27.1071 28.244 28.2931 27.058 29.7561 27.058Z" fill="#282476" fill-opacity="0.3"/>
<path d="M2.76399 13.529C4.22699 13.529 5.41299 14.715 5.41299 16.178C5.41299 17.641 4.22699 18.827 2.76399 18.827C1.30099 18.827 0.11499 17.641 0.11499 16.178C0.11499 14.715 1.30099 13.529 2.76399 13.529Z" fill="#282476" fill-opacity="0.3"/>
<path d="M16.26 13.529C17.723 13.529 18.909 14.715 18.909 16.178C18.909 17.641 17.723 18.827 16.26 18.827C14.797 18.827 13.611 17.641 13.611 16.178C13.611 14.715 14.797 13.529 16.26 13.529Z" fill="#282476" fill-opacity="0.3"/>
<path d="M29.7561 13.529C31.2191 13.529 32.4051 14.715 32.4051 16.178C32.4051 17.641 31.2191 18.827 29.7561 18.827C28.2931 18.827 27.1071 17.641 27.1071 16.178C27.1071 14.715 28.2931 13.529 29.7561 13.529Z" fill="#282476" fill-opacity="0.3"/>
<path d="M2.76399 -2.28882e-05C4.22699 -2.28882e-05 5.41299 1.18598 5.41299 2.64898C5.41299 4.11198 4.22699 5.29797 2.76399 5.29797C1.30099 5.29797 0.11499 4.11198 0.11499 2.64898C0.11499 1.18598 1.30099 -2.28882e-05 2.76399 -2.28882e-05Z" fill="#282476" fill-opacity="0.3"/>
<path d="M16.26 -2.28882e-05C17.723 -2.28882e-05 18.909 1.18598 18.909 2.64898C18.909 4.11198 17.723 5.29797 16.26 5.29797C14.797 5.29797 13.611 4.11198 13.611 2.64898C13.611 1.18598 14.797 -2.28882e-05 16.26 -2.28882e-05Z" fill="#282476" fill-opacity="0.3"/>
<path d="M29.7561 -2.28882e-05C31.2191 -2.28882e-05 32.4051 1.18598 32.4051 2.64898C32.4051 4.11198 31.2191 5.29797 29.7561 5.29797C28.2931 5.29797 27.1071 4.11198 27.1071 2.64898C27.1071 1.18598 28.2931 -2.28882e-05 29.7561 -2.28882e-05Z" fill="#282476" fill-opacity="0.3"/>
</g>
<defs>
<clipPath id="clip0_85_9024">
<rect width="100" height="100" fill="white" transform="matrix(1 0 0 -1 0 100)"/>
</clipPath>
</defs>
</svg>
