<svg width="31" height="31" viewBox="0 0 31 31" fill="none" xmlns="http://www.w3.org/2000/svg">
<path d="M25.2103 19.2632C24.9925 19.0113 24.723 18.8092 24.4202 18.6707C24.1174 18.5322 23.7882 18.4605 23.4553 18.4605C23.1223 18.4605 22.7932 18.5322 22.4903 18.6707C22.1875 18.8092 21.918 19.0113 21.7002 19.2632C20.8802 20.0732 20.0603 20.8932 19.2503 21.7232C19.1741 21.8268 19.0609 21.8971 18.9343 21.9194C18.8077 21.9418 18.6773 21.9145 18.5703 21.8432C18.0403 21.5532 17.4703 21.3232 16.9603 21.0032C14.6199 19.4864 12.5455 17.5944 10.8203 15.4032C9.91951 14.3413 9.17528 13.1559 8.61025 11.8832C8.54881 11.7776 8.5281 11.6533 8.55205 11.5335C8.576 11.4138 8.64295 11.307 8.74025 11.2332C9.56025 10.4332 10.3602 9.62319 11.1702 8.80319C11.4346 8.5836 11.6473 8.30847 11.7934 7.99738C11.9394 7.68628 12.0151 7.34686 12.0151 7.0032C12.0151 6.65955 11.9394 6.3201 11.7934 6.009C11.6473 5.6979 11.4346 5.42277 11.1702 5.20319L9.24025 3.27319C8.58025 2.61319 7.92025 1.94319 7.24025 1.27319C7.02066 1.0242 6.75061 0.824795 6.44802 0.688202C6.14543 0.551609 5.81724 0.480957 5.48525 0.480957C5.15326 0.480957 4.82507 0.551609 4.52248 0.688202C4.21989 0.824795 3.94983 1.0242 3.73024 1.27319C2.90024 2.08319 2.11024 2.92318 1.26024 3.72318C0.511902 4.42897 0.0642502 5.39594 0.0102587 6.42319C-0.0609777 8.10789 0.239468 9.78764 0.890264 11.3432C2.13754 14.5769 3.93392 17.5709 6.20025 20.1932C9.18318 23.7752 12.8958 26.6798 17.0903 28.7132C18.9542 29.6892 20.9939 30.2841 23.0903 30.4632C23.7925 30.5421 24.5034 30.4527 25.1642 30.2023C25.825 29.9519 26.4167 29.5477 26.8902 29.0232C27.5903 28.2332 28.3803 27.5132 29.1303 26.7632C29.3896 26.5426 29.5979 26.2682 29.7408 25.9592C29.8836 25.6501 29.9576 25.3137 29.9576 24.9732C29.9576 24.6327 29.8836 24.2963 29.7408 23.9872C29.5979 23.6781 29.3896 23.4038 29.1303 23.1832C27.8369 21.8765 26.5303 20.5699 25.2103 19.2632Z" fill="black"/>
<path d="M30.4003 13.5531C27.7965 7.47099 22.9358 2.63539 16.8403 0.0631558C16.5948 -0.0284846 16.3231 -0.0201261 16.0837 0.0864712C15.8444 0.193069 15.6564 0.389364 15.5603 0.633133C15.5079 0.755115 15.4803 0.88631 15.4792 1.01906C15.478 1.15181 15.5033 1.28346 15.5536 1.40633C15.6038 1.52919 15.6781 1.64081 15.7719 1.7347C15.8658 1.82858 15.9774 1.90284 16.1003 1.95314C21.7191 4.32697 26.1994 8.7858 28.6003 14.3931C28.7076 14.6309 28.9036 14.8174 29.1465 14.9126C29.3894 15.0079 29.6599 15.0045 29.9003 14.9032C30.0234 14.8493 30.1343 14.7711 30.2266 14.6734C30.3188 14.5757 30.3904 14.4604 30.4371 14.3344C30.4837 14.2084 30.5045 14.0742 30.4982 13.94C30.4919 13.8058 30.4586 13.6742 30.4003 13.5531Z" fill="black"/>
<path d="M15.5802 7.38308C18.9861 8.81767 21.7032 11.5168 23.1603 14.9131C23.2376 15.0806 23.3599 15.2235 23.5134 15.3259C23.667 15.4282 23.8458 15.4861 24.0303 15.4931C24.1653 15.4921 24.2984 15.4614 24.4202 15.4031C24.6502 15.2904 24.8282 15.0938 24.9175 14.8538C25.0068 14.6138 25.0006 14.3487 24.9002 14.1131C23.2486 10.2572 20.1657 7.1922 16.3002 5.56311C16.0622 5.47861 15.801 5.48732 15.5691 5.58749C15.3373 5.68766 15.1519 5.87185 15.0502 6.10309C14.9562 6.34359 14.9589 6.61114 15.0577 6.84973C15.1565 7.08832 15.3437 7.27944 15.5802 7.38308Z" fill="black"/>
</svg>
