<svg width="227" height="245" viewBox="0 0 227 245" fill="none" xmlns="http://www.w3.org/2000/svg">
<path d="M69.3993 27.6461C77.0336 27.6461 83.2224 21.4573 83.2224 13.8231C83.2224 6.18879 77.0336 0 69.3993 0C61.7651 0 55.5763 6.18879 55.5763 13.8231C55.5763 21.4573 61.7651 27.6461 69.3993 27.6461Z" fill="#333333" fill-opacity="0.15"/>
<path d="M0 131.22C0 193.726 50.671 244.397 113.176 244.397C132.836 244.418 152.158 239.292 169.222 229.53V195.517C153.71 209.093 133.79 216.564 113.176 216.539C66.0567 216.539 27.8606 178.34 27.8606 131.22C27.8502 118.888 30.5202 106.701 35.6857 95.5033C40.8512 84.3052 48.3889 74.3636 57.7768 66.3669V32.5427C23.3032 51.9379 0 88.8583 0 131.22Z" fill="#333333" fill-opacity="0.15"/>
<path d="M57.7767 132.345C57.7767 133.731 57.884 135.088 57.9825 136.45C60.0931 165.442 84.2255 188.325 113.756 188.325C142.225 188.325 165.679 167.057 169.222 139.55V125.141C165.679 97.6427 142.225 76.3718 113.756 76.3718C103.871 76.3719 94.164 79.0057 85.6344 84.0023V50.4739C75.4246 53.9588 65.97 59.3522 57.7738 66.3669L57.7767 132.345ZM113.176 102.806C118.795 102.806 124.289 104.472 128.961 107.594C133.633 110.716 137.275 115.153 139.425 120.345C141.575 125.536 142.138 131.249 141.042 136.76C139.945 142.272 137.24 147.334 133.266 151.307C129.293 155.281 124.23 157.987 118.719 159.083C113.208 160.179 107.495 159.617 102.304 157.466C97.1121 155.316 92.6748 151.674 89.5529 147.002C86.431 142.33 84.7647 136.837 84.7647 131.218C84.7647 123.682 87.758 116.456 93.0862 111.128C98.4144 105.799 105.641 102.806 113.176 102.806Z" fill="#333333" fill-opacity="0.15"/>
<path d="M197.083 207.163C215.961 186.374 226.403 159.288 226.364 131.206C226.364 68.7036 175.693 18.0326 113.188 18.0326C103.903 18.031 94.6533 19.1692 85.646 21.4217V50.4739C94.5129 47.4468 103.818 45.9031 113.188 45.9048C152.471 45.9048 185.533 72.4638 195.448 108.596C196.101 110.973 196.65 113.389 197.094 115.843V207.166L197.083 207.163Z" fill="#333333" fill-opacity="0.15"/>
</svg>
