<svg width="885" height="92" viewBox="0 0 885 92" fill="none" xmlns="http://www.w3.org/2000/svg">
<path d="M14.568 16.8377V30.8232H6.85702C5.70757 30.8477 4.55879 30.7487 3.42991 30.5276C2.64018 30.3941 1.90531 30.0319 1.31367 29.4846C0.775538 28.888 0.421134 28.1447 0.294105 27.3464C0.0793603 26.2007 -0.0182551 25.0356 0.00280378 23.8695C-0.0180114 22.7035 0.0796019 21.5385 0.294105 20.3927C0.411834 19.5735 0.766685 18.8081 1.31367 18.1936C1.89702 17.6425 2.6268 17.2768 3.41279 17.1419C4.54136 16.918 5.69014 16.816 6.8399 16.8377H14.568ZM10.4555 21.5488H5.66609C5.3264 21.5222 4.98869 21.621 4.71508 21.8269C4.60185 21.9384 4.5152 22.0747 4.46174 22.2253C4.40829 22.376 4.38944 22.537 4.40663 22.6961V25.0777C4.39722 25.2284 4.41992 25.3794 4.47314 25.5203C4.52637 25.6613 4.60888 25.789 4.71508 25.8948C4.98567 26.1075 5.3249 26.2098 5.66609 26.1816H10.4555V21.5488Z" fill="#282476"/>
<path d="M17.4467 30.8232V26.1382H26.1087C25.9371 25.2538 25.7052 24.3825 25.4147 23.5306C25.2249 22.963 24.9535 22.427 24.6093 21.94C24.3359 21.5721 23.9642 21.2915 23.5384 21.1316C23.0482 20.9747 22.5357 20.9012 22.0219 20.9143C21.4834 20.9163 20.9455 20.9511 20.4111 21.0186C19.8866 21.0812 19.3659 21.1741 18.8518 21.2967L17.738 16.716C18.4069 16.5368 19.0887 16.4119 19.7771 16.3423C20.5219 16.2499 21.2715 16.2035 22.0219 16.2032C22.9739 16.1919 23.9244 16.2822 24.8578 16.4727C25.6125 16.6327 26.3232 16.9592 26.9398 17.4288C27.5919 17.9456 28.1316 18.5937 28.5248 19.3323C29.0635 20.3323 29.4971 21.387 29.8185 22.4789C30.2241 23.7595 30.6411 25.3241 31.0694 27.1726V30.8232H17.4467Z" fill="#282476"/>
<path d="M40.1686 30.8233C39.2533 30.8433 38.3412 30.7081 37.4698 30.4234C36.751 30.1836 36.1148 29.7403 35.6362 29.1457C35.1333 28.4635 34.7772 27.6817 34.591 26.851C34.3396 25.7307 34.2217 24.5838 34.2397 23.435C34.2186 22.347 34.3631 21.2623 34.6681 20.219C34.9087 19.3982 35.3476 18.6512 35.9447 18.046C36.5708 17.4609 37.3304 17.0428 38.1552 16.8291C39.2422 16.5376 40.3638 16.4002 41.488 16.4206C42.7406 16.4081 43.9922 16.4924 45.2322 16.6726C46.2945 16.8453 47.3347 17.1368 48.3337 17.5418V26.1209L46.1061 30.8233H40.1686ZM43.0217 26.1209C43.1881 26.1621 43.3622 26.1589 43.527 26.1118C43.6919 26.0647 43.8419 25.9751 43.9626 25.8518C44.0833 25.7285 44.1705 25.5756 44.2158 25.408C44.2611 25.2404 44.263 25.0638 44.2212 24.8953V21.1577H40.2885C39.8427 21.1195 39.395 21.2067 38.9948 21.4098C38.863 21.5367 38.7625 21.6933 38.7014 21.867C38.6404 22.0407 38.6206 22.2265 38.6435 22.4094V26.1382L43.0217 26.1209ZM41.9079 39.1589L39.1405 36.0385C39.898 35.3913 40.5871 34.6659 41.1967 33.8742C41.818 33.0877 42.3604 32.2404 42.816 31.3448C43.251 30.5139 43.6012 29.6402 43.8613 28.7372C44.0978 27.8887 44.2189 27.0113 44.2212 26.1296H48.3679C48.3613 27.3044 48.2028 28.4733 47.8967 29.6064C47.5717 30.8094 47.1238 31.9746 46.5602 33.0832C45.9744 34.2273 45.2921 35.3179 44.521 36.3427C43.7432 37.3635 42.8679 38.3039 41.9079 39.1502V39.1589Z" fill="#282476"/>
<path d="M51.2124 30.8232V26.1382H59.8744C59.7052 25.254 59.4762 24.3828 59.189 23.5306C58.9966 22.9625 58.7223 22.4265 58.3751 21.9399C58.1016 21.5721 57.7299 21.2915 57.3041 21.1315C56.8167 20.9753 56.3072 20.9018 55.7962 20.9142C55.2548 20.916 54.7141 20.9508 54.1769 21.0186C53.6551 21.081 53.1373 21.1739 52.6261 21.2967L51.5037 16.716C52.1728 16.5376 52.8546 16.4126 53.5429 16.3422C54.2905 16.2499 55.043 16.2034 55.7962 16.2032C56.7454 16.1914 57.6931 16.2817 58.6235 16.4726C59.3803 16.6344 60.0935 16.9606 60.7141 17.4287C61.3617 17.9502 61.9005 18.5973 62.2991 19.3323C62.8378 20.3323 63.2714 21.3869 63.5928 22.4788C63.9955 23.7565 64.4068 25.3211 64.8438 27.1725V30.8232H51.2124ZM63.8584 26.1382H66.7886V30.8232H63.8584V26.1382Z" fill="#282476"/>
<path d="M76.9072 21.7574L80.7541 23.0699C80.4038 24.3394 79.8759 25.5512 79.1862 26.6684C78.0619 28.4912 76.3086 29.8237 74.2683 30.406C73.2662 30.701 72.2273 30.8474 71.1839 30.8406H65.572V26.1382H71.6551C72.3658 26.1537 73.0728 26.0298 73.7371 25.7732C74.2917 25.5592 74.7965 25.2306 75.2193 24.8083C75.6206 24.3999 75.9612 23.9343 76.2303 23.4263C76.5114 22.8949 76.7381 22.3357 76.9072 21.7574ZM82.3392 26.1035H84.6611V30.8232H81.6023C81.071 30.8515 80.5441 30.7118 80.0944 30.4234C79.6737 30.1037 79.3597 29.6608 79.1948 29.1544L77.4813 24.5128C77.2427 23.7978 76.8605 23.1407 76.3589 22.5832C75.888 22.0772 75.2985 21.7004 74.6453 21.488C73.7774 21.2326 72.8755 21.1153 71.9721 21.1403C71.4581 21.1403 70.9183 21.1403 70.3271 21.1403C69.699 21.1625 69.0725 21.2206 68.4508 21.3141L67.8339 16.6726C68.5965 16.5683 69.3161 16.4988 70.0015 16.4466C70.687 16.3945 71.3381 16.3684 71.9464 16.3684C73.4247 16.3309 74.898 16.5574 76.2989 17.0377C77.449 17.4602 78.4727 18.1756 79.2719 19.1151C80.141 20.1918 80.8036 21.4241 81.2254 22.7483L82.3392 26.1035Z" fill="#282476"/>
<path d="M95.9619 16.4205C97.1251 16.3853 98.2853 16.5589 99.389 16.9333C100.2 17.2134 100.887 17.7772 101.325 18.5239C101.768 19.3801 101.981 20.3394 101.942 21.3054V30.8232H83.4272V26.1382H97.8125V21.3054C97.4783 21.2452 97.1406 21.2074 96.8015 21.1924C96.416 21.1924 95.9447 21.1924 95.4992 21.1924C94.5653 21.1942 93.6325 21.2552 92.7061 21.3749C91.7267 21.4976 90.7564 21.6863 89.8017 21.9399L88.1824 17.7851C88.9958 17.4635 89.8321 17.2049 90.6841 17.0115C91.5491 16.8116 92.4244 16.6607 93.3059 16.5595C94.1882 16.466 95.0747 16.4196 95.9619 16.4205ZM88.7392 29.4585C88.1207 28.7391 87.7009 27.8664 87.5226 26.9291C87.3045 25.8013 87.2012 24.6537 87.2142 23.5045C87.2072 22.5446 87.2962 21.5865 87.4798 20.6448C87.6511 19.7756 87.891 18.8021 88.1824 17.8112L92.4662 18.7325C92.1321 19.6887 91.875 20.5231 91.678 21.2532C91.4777 21.9864 91.3769 22.7437 91.3781 23.5045C91.3737 24.1605 91.4052 24.8163 91.4723 25.4689C91.5201 25.9502 91.6178 26.4251 91.7637 26.8857C91.9086 27.3037 92.0952 27.7056 92.3205 28.0852L88.7392 29.4585ZM101.959 26.1555H104.804V30.8232H101.959V26.1555Z" fill="#282476"/>
<path d="M112.232 30.8232H103.664V26.1382H108.128V12.0745H112.266L112.232 30.8232Z" fill="#282476"/>
<path d="M116.756 30.8232V12.0745H120.894V30.8232H116.756Z" fill="#282476"/>
<path d="M138.989 37.9941C137.688 38.0168 136.388 37.9061 135.108 37.6638C134.229 37.5162 133.408 37.1252 132.735 36.5339C132.124 35.9291 131.708 35.15 131.544 34.3C131.289 33.1274 131.174 31.928 131.201 30.7276C131.201 29.9859 131.235 29.2557 131.304 28.5372C131.372 27.8157 131.475 27.0943 131.604 26.3903C131.727 25.6986 131.896 25.0162 132.109 24.3476L136.196 25.0082C135.965 25.8774 135.759 26.6945 135.596 27.5115C135.427 28.3026 135.341 29.1097 135.339 29.9192C135.339 30.6146 135.339 31.223 135.408 31.7359C135.441 32.2488 135.519 32.7577 135.639 33.257H139.837C140.618 33.2957 141.399 33.1897 142.142 32.944C142.384 32.844 142.587 32.667 142.722 32.4398C142.856 32.2126 142.914 31.9473 142.888 31.6837V27.6506H147.034V30.9014C147.056 32.0683 146.953 33.2341 146.726 34.3782C146.573 35.2114 146.165 35.9746 145.561 36.5599C144.863 37.1452 144.022 37.5295 143.128 37.6725C141.761 37.9142 140.376 38.0219 138.989 37.9941ZM157.341 30.8232V21.5749C156.889 21.4548 156.428 21.3763 155.962 21.3402C155.354 21.2793 154.66 21.2533 153.871 21.2533C151.601 21.2533 149.896 21.7835 148.731 22.8613C148.126 23.4901 147.66 24.2426 147.365 25.0685C147.069 25.8943 146.951 26.7746 147.017 27.6506H142.87V16.8377H147.017V21.0099C147.457 20.0845 148.106 19.2774 148.911 18.6543C149.809 17.9542 150.825 17.4242 151.909 17.0898C153.117 16.7164 154.374 16.5318 155.636 16.5422C156.827 16.4986 158.017 16.6543 159.158 17.0029C159.547 17.1326 159.907 17.3402 160.216 17.6134C160.525 17.8866 160.777 18.2199 160.957 18.5935C161.348 19.5779 161.527 20.6362 161.48 21.6966V30.8232H157.341ZM159.509 26.1208L161.48 30.8232H145.252V26.1382L159.509 26.1208ZM161.48 26.1208H164.358V30.8232H161.48V26.1208Z" fill="#282476"/>
<path d="M174.52 21.7574L178.367 23.0699C178.017 24.3412 177.486 25.5536 176.79 26.6684C176.216 27.6098 175.468 28.4302 174.588 29.0848C173.766 29.6867 172.847 30.1396 171.872 30.4234C170.87 30.7196 169.831 30.866 168.788 30.858H163.185V26.1382H169.242C169.953 26.1553 170.66 26.0313 171.324 25.7731C171.882 25.5602 172.389 25.2316 172.815 24.8083C173.213 24.3975 173.554 23.9324 173.826 23.4263C174.109 22.8938 174.342 22.3349 174.52 21.7574ZM179.952 26.1034H182.274V30.8232H179.215C178.681 30.8499 178.152 30.7104 177.698 30.4234C177.294 30.0974 176.995 29.6551 176.842 29.1544L175.077 24.5128C174.844 23.7968 174.465 23.1391 173.963 22.5832C173.478 22.0687 172.87 21.6912 172.198 21.488C171.333 21.2325 170.434 21.1152 169.533 21.1403C169.019 21.1403 168.471 21.1403 167.888 21.1403C167.257 21.163 166.628 21.221 166.003 21.3141L165.386 16.6726C166.158 16.5683 166.877 16.4987 167.563 16.4466C168.248 16.3944 168.891 16.3684 169.499 16.3684C170.98 16.3309 172.456 16.5575 173.86 17.0377C175.009 17.458 176.03 18.1738 176.824 19.115C177.7 20.1875 178.363 21.4211 178.778 22.7483L179.952 26.1034Z" fill="#282476"/>
<path d="M181.04 26.1381H185.324C185.153 25.4602 185.015 24.8343 184.93 24.2694C184.836 23.584 184.793 22.8925 184.801 22.2007C184.778 21.3131 184.917 20.4289 185.213 19.593C185.477 18.8815 185.927 18.2564 186.515 17.7851C187.178 17.2716 187.944 16.9125 188.76 16.7334C189.858 16.4811 190.983 16.3643 192.11 16.3857C193.322 16.3757 194.534 16.46 195.734 16.6378C196.83 16.8202 197.906 17.1113 198.947 17.507V30.8232H181.04V26.1381ZM193.635 26.1381C193.966 26.1752 194.298 26.0784 194.56 25.8687C194.753 25.5906 194.842 25.2512 194.808 24.9126V21.1576H190.43C190.097 21.1237 189.763 21.2201 189.496 21.4271C189.287 21.7078 189.192 22.0594 189.231 22.4093V26.1381H193.635ZM192.135 13.3869C191.784 13.3532 191.452 13.2106 191.184 12.9784C190.821 12.7108 190.502 12.385 190.242 12.0136C190.013 11.7358 189.875 11.3924 189.848 11.0314C189.87 10.6744 190.009 10.3351 190.242 10.0666C190.508 9.71645 190.82 9.4037 191.167 9.13653C191.431 8.90411 191.761 8.76393 192.11 8.73669C192.474 8.75903 192.823 8.89913 193.103 9.13653C193.451 9.4037 193.762 9.71645 194.029 10.0666C194.268 10.3423 194.41 10.6909 194.431 11.0575C194.401 11.4149 194.253 11.7517 194.012 12.0136C193.742 12.3719 193.428 12.6933 193.078 12.9697C192.817 13.2095 192.486 13.3561 192.135 13.3869ZM198.947 26.1034H201.8V30.8232H198.947V26.1034Z" fill="#282476"/>
<path d="M209.228 26.1382H212.081V30.8232H200.626V26.1382H205.09V12.0745H209.228V26.1382Z" fill="#282476"/>
<path d="M219.509 30.8232H210.941V26.1382H215.405V12.0745H219.552L219.509 30.8232Z" fill="#282476"/>
<path d="M244.493 16.8377V30.8232H236.782C235.632 30.8469 234.484 30.7478 233.355 30.5277C232.563 30.4134 231.829 30.0415 231.264 29.4678C230.698 28.8941 230.332 28.1497 230.219 27.3464C230.004 26.2007 229.907 25.0356 229.928 23.8696C229.907 22.7036 230.004 21.5385 230.219 20.3928C230.36 19.5965 230.723 18.8577 231.264 18.2632C231.848 17.7121 232.577 17.3464 233.363 17.2115C234.492 16.9879 235.641 16.8859 236.79 16.9073L244.493 16.8377ZM235.24 13.3609C234.889 13.3272 234.557 13.1846 234.289 12.9524C233.925 12.6848 233.607 12.359 233.346 11.9876C233.122 11.7067 232.985 11.365 232.952 11.0054C232.978 10.6493 233.116 10.3111 233.346 10.0406C233.613 9.69044 233.924 9.37771 234.271 9.11053C234.535 8.87811 234.866 8.73793 235.214 8.71069C235.582 8.73119 235.933 8.8714 236.216 9.11053C236.564 9.37771 236.875 9.69044 237.142 10.0406C237.372 10.3207 237.51 10.6674 237.536 11.0315C237.505 11.3872 237.361 11.723 237.125 11.9876C236.85 12.3442 236.534 12.6653 236.182 12.9437C235.919 13.1995 235.577 13.3559 235.214 13.387L235.24 13.3609ZM240.38 21.5228H235.599C235.257 21.4948 234.916 21.5936 234.64 21.8009C234.527 21.9124 234.44 22.0487 234.387 22.1993C234.333 22.3499 234.314 22.511 234.331 22.6701V25.0517C234.322 25.2024 234.345 25.3533 234.398 25.4943C234.451 25.6353 234.534 25.763 234.64 25.8688C234.913 26.0828 235.255 26.1852 235.599 26.1556H240.355L240.38 21.5228ZM240.5 13.3609C240.149 13.3272 239.817 13.1846 239.549 12.9524C239.184 12.6872 238.865 12.3609 238.607 11.9876C238.378 11.7098 238.24 11.3664 238.213 11.0054C238.235 10.6484 238.374 10.3091 238.607 10.0406C238.864 9.70186 239.164 9.39806 239.498 9.1366C239.761 8.90311 240.092 8.76278 240.44 8.73677C240.805 8.7591 241.153 8.8992 241.434 9.1366C241.782 9.40378 242.093 9.71652 242.359 10.0667C242.487 10.1937 242.588 10.3452 242.657 10.5123C242.726 10.6795 242.762 10.8589 242.762 11.0402C242.762 11.2214 242.726 11.4009 242.657 11.568C242.588 11.7351 242.487 11.8866 242.359 12.0137C242.088 12.3701 241.774 12.6913 241.426 12.9698C241.169 13.2062 240.845 13.3525 240.5 13.387V13.3609Z" fill="#282476"/>
<path d="M247.372 30.8232V26.1382H256.034C255.866 25.2528 255.634 24.3812 255.34 23.5306C255.153 22.9617 254.881 22.4253 254.534 21.9399C254.261 21.5721 253.889 21.2915 253.463 21.1315C252.976 20.9753 252.466 20.9018 251.955 20.9142C251.414 20.9162 250.873 20.9511 250.336 21.0186C249.814 21.081 249.297 21.1739 248.785 21.2967L247.663 16.716C248.335 16.5369 249.019 16.4119 249.711 16.3422C250.455 16.2496 251.205 16.2032 251.955 16.2032C252.905 16.1914 253.852 16.2817 254.783 16.4726C255.54 16.6344 256.253 16.9606 256.873 17.4287C257.523 17.9478 258.063 18.5955 258.458 19.3323C258.993 20.334 259.427 21.3883 259.752 22.4788C260.158 23.7594 260.572 25.324 260.994 27.1725V30.8232H247.372Z" fill="#282476"/>
<path d="M270.102 30.8232C269.187 30.8432 268.274 30.7081 267.403 30.4234C266.682 30.188 266.045 29.7439 265.57 29.1456C265.064 28.465 264.708 27.6826 264.524 26.8509C264.269 25.7314 264.151 24.584 264.173 23.435C264.15 22.3474 264.291 21.2627 264.593 20.2189C264.833 19.3981 265.272 18.6512 265.869 18.0459C266.506 17.4482 267.281 17.0236 268.123 16.8116C269.21 16.5202 270.331 16.3827 271.456 16.4031C272.705 16.3907 273.954 16.4749 275.191 16.6552C276.254 16.8269 277.294 17.1184 278.293 17.5244V26.1034L276.031 30.8232H270.102ZM272.912 26.1382C273.248 26.1717 273.585 26.0755 273.855 25.8687C274.062 25.5972 274.158 25.2542 274.12 24.9126V21.1576H270.179C269.736 21.1192 269.291 21.2065 268.894 21.4097C268.761 21.5358 268.66 21.6923 268.598 21.8662C268.537 22.0401 268.518 22.2263 268.543 22.4093V26.1382H272.912ZM271.798 39.1762L269.074 36.0384C269.831 35.3912 270.52 34.6659 271.13 33.8741C271.749 33.0875 272.288 32.2401 272.741 31.3447C273.179 30.5155 273.53 29.6414 273.786 28.7371C274.025 27.889 274.149 27.0116 274.154 26.1295H278.293C278.291 27.3047 278.132 28.4742 277.821 29.6063C277.504 30.8118 277.056 31.9779 276.485 33.0831C275.902 34.2291 275.22 35.3199 274.446 36.3426C273.67 37.3655 272.795 38.3062 271.833 39.1502L271.798 39.1762ZM276.502 26.1382H281.48V30.8232H276.579L276.502 26.1382Z" fill="#282476"/>
<path d="M291.598 21.7574L295.445 23.0699C295.095 24.3393 294.567 25.5512 293.877 26.6684C292.752 28.4941 290.995 29.8271 288.951 30.406C287.949 30.7022 286.91 30.8486 285.867 30.8406H280.263V26.1382H286.338C287.051 26.1544 287.761 26.0304 288.428 25.7731C288.983 25.5592 289.488 25.2306 289.911 24.8083C290.303 24.3964 290.638 23.9313 290.904 23.4263C291.188 22.8938 291.42 22.3349 291.598 21.7574ZM297.03 26.1034H299.344V30.8232H296.294C295.762 30.8515 295.235 30.7118 294.786 30.4234C294.381 30.0974 294.082 29.6551 293.929 29.1544L292.172 24.5128C291.931 23.7993 291.549 23.1429 291.05 22.5832C290.579 22.0772 289.99 21.7004 289.337 21.488C288.468 21.2331 287.567 21.1158 286.663 21.1403C286.149 21.1403 285.601 21.1403 285.018 21.1403C284.387 21.163 283.758 21.221 283.133 21.3141L282.525 16.6726C283.279 16.5683 284.007 16.4987 284.693 16.4466C285.378 16.3944 286.021 16.3684 286.629 16.3684C288.11 16.3309 289.586 16.5575 290.99 17.0377C292.139 17.4623 293.162 18.1773 293.963 19.115C294.832 20.1902 295.492 21.4232 295.908 22.7483L297.03 26.1034ZM289.833 37.8377C289.484 37.8065 289.152 37.6669 288.882 37.4379C288.517 37.1695 288.198 36.8404 287.94 36.4644C287.711 36.1866 287.573 35.8432 287.546 35.4822C287.568 35.1252 287.707 34.7858 287.94 34.5173C288.204 34.1678 288.516 33.8577 288.865 33.596C289.129 33.362 289.459 33.2189 289.808 33.1875C290.174 33.2122 290.522 33.3554 290.802 33.596C291.166 33.8658 291.489 34.1878 291.761 34.5521C292.002 34.8301 292.144 35.1821 292.164 35.5517C292.129 35.9054 291.982 36.238 291.744 36.4991C291.477 36.8596 291.163 37.1813 290.81 37.4552C290.54 37.7021 290.196 37.8491 289.833 37.8725V37.8377Z" fill="#282476"/>
<path d="M306.721 30.8232H298.153V26.1382H302.608V12.0745H306.755L306.721 30.8232Z" fill="#282476"/>
<path d="M311.244 30.8232V12.0745H315.383V30.8232H311.244Z" fill="#282476"/>
<path d="M340.375 16.8377V30.8232H332.664C331.514 30.8465 330.366 30.7474 329.237 30.5277C328.445 30.4134 327.711 30.0415 327.146 29.4678C326.58 28.8941 326.214 28.1497 326.101 27.3464C325.886 26.2007 325.789 25.0356 325.81 23.8696C325.789 22.7036 325.886 21.5385 326.101 20.3928C326.239 19.5952 326.602 18.8554 327.146 18.2632C327.726 17.7123 328.453 17.3466 329.237 17.2115C330.365 16.9883 331.514 16.8864 332.664 16.9073L340.375 16.8377ZM331.122 13.3609C330.768 13.329 330.432 13.1862 330.162 12.9524C329.801 12.6846 329.485 12.3587 329.228 11.9876C328.999 11.7098 328.861 11.3664 328.834 11.0054C328.857 10.6484 328.995 10.3091 329.228 10.0406C329.495 9.69044 329.806 9.37771 330.153 9.11053C330.415 8.87982 330.742 8.73974 331.087 8.71069C331.455 8.73119 331.807 8.8714 332.09 9.11053C332.437 9.37771 332.749 9.69044 333.015 10.0406C333.143 10.1676 333.244 10.3191 333.313 10.4862C333.382 10.6534 333.418 10.8328 333.418 11.0141C333.418 11.1953 333.382 11.3748 333.313 11.5419C333.244 11.7091 333.143 11.8606 333.015 11.9876C332.744 12.344 332.43 12.6652 332.081 12.9437C331.819 13.1965 331.481 13.3526 331.122 13.387V13.3609ZM336.262 21.5228H331.473C331.133 21.4962 330.795 21.595 330.522 21.8009C330.409 21.9124 330.322 22.0487 330.269 22.1993C330.215 22.3499 330.196 22.511 330.213 22.6701V25.0517C330.204 25.2024 330.227 25.3533 330.28 25.4943C330.333 25.6353 330.416 25.763 330.522 25.8688C330.792 26.0815 331.132 26.1838 331.473 26.1556H336.262V21.5228ZM336.382 13.3609C336.028 13.329 335.693 13.1862 335.423 12.9524C335.059 12.6848 334.741 12.359 334.48 11.9876C334.251 11.7098 334.113 11.3664 334.086 11.0054C334.109 10.6484 334.247 10.3091 334.48 10.0406C334.747 9.69044 335.058 9.37771 335.405 9.11053C335.67 8.87968 336 8.73972 336.348 8.71069C336.716 8.73119 337.067 8.8714 337.35 9.11053C337.697 9.37553 338.006 9.68859 338.267 10.0406C338.51 10.3141 338.652 10.664 338.67 11.0315C338.639 11.3872 338.495 11.723 338.259 11.9876C337.984 12.3442 337.668 12.6653 337.316 12.9437C337.061 13.1908 336.733 13.3464 336.382 13.387V13.3609Z" fill="#282476"/>
<path d="M343.245 30.8232V26.1382H351.916C351.748 25.2528 351.516 24.3812 351.222 23.5305C351.028 22.9647 350.757 22.4293 350.416 21.9399C350.143 21.572 349.771 21.2915 349.345 21.1315C348.855 20.9746 348.343 20.9012 347.829 20.9142C347.29 20.9162 346.752 20.9511 346.218 21.0185C345.694 21.0812 345.173 21.174 344.659 21.2967L343.545 16.716C344.214 16.5368 344.896 16.4118 345.584 16.3422C346.329 16.2499 347.079 16.2034 347.829 16.2032C348.781 16.1914 349.731 16.2817 350.665 16.4726C351.419 16.6346 352.129 16.9608 352.747 17.4287C353.391 17.9507 353.921 18.6017 354.306 19.341C354.845 20.341 355.278 21.3956 355.6 22.4875C356.005 23.7681 356.422 25.3327 356.851 27.1812V30.8232H343.245ZM355.848 26.1208H358.787V30.8232H355.848V26.1208Z" fill="#282476"/>
<path d="M357.613 30.8232V26.1382H365.153L368.014 30.8232H357.613ZM365.444 21.4272V24.6171C365.424 24.8326 365.455 25.0497 365.534 25.2507C365.613 25.4517 365.738 25.6308 365.898 25.7732C366.312 26.0468 366.802 26.1751 367.295 26.1382H374.457V30.8232H367.74C366.708 30.846 365.678 30.7172 364.682 30.4408C363.928 30.2239 363.244 29.8068 362.702 29.2326C362.162 28.6018 361.787 27.8422 361.614 27.0248C361.372 25.915 361.26 24.7801 361.28 23.6436C361.258 22.5203 361.359 21.398 361.58 20.2972C361.739 19.4919 362.092 18.7392 362.608 18.1068C363.14 17.523 363.827 17.1092 364.587 16.916C365.543 16.6451 366.534 16.5192 367.526 16.5422C368.186 16.5422 368.828 16.5422 369.445 16.6031C370.058 16.6387 370.667 16.7142 371.27 16.8291C371.877 16.9399 372.477 17.0821 373.069 17.255L372.453 21.7575C371.579 21.572 370.816 21.4416 370.165 21.3663C369.502 21.2885 368.836 21.2507 368.169 21.2533C367.603 21.2533 367.106 21.2533 366.669 21.2533C366.258 21.2878 365.849 21.3458 365.444 21.4272Z" fill="#282476"/>
<path d="M377.928 30.8232V12.0745H382.074V26.1382H384.919V30.8232H377.928Z" fill="#282476"/>
<path d="M383.745 26.1381H388.029C387.849 25.4602 387.72 24.8343 387.626 24.2694C387.532 23.584 387.489 22.8925 387.497 22.2007C387.474 21.3131 387.613 20.4289 387.909 19.593C388.178 18.8823 388.631 18.258 389.22 17.7851C389.884 17.2733 390.65 16.9144 391.464 16.7334C392.563 16.4811 393.688 16.3643 394.814 16.3857C396.027 16.3757 397.239 16.46 398.439 16.6378C399.535 16.8191 400.611 17.1102 401.651 17.507V30.8232H383.745V26.1381ZM392.201 13.3869C391.85 13.3532 391.518 13.2106 391.25 12.9784C390.884 12.7132 390.566 12.3869 390.308 12.0136C390.079 11.7358 389.941 11.3924 389.914 11.0314C389.936 10.6744 390.075 10.3351 390.308 10.0666C390.574 9.71645 390.885 9.4037 391.233 9.13653C391.497 8.90411 391.827 8.76393 392.175 8.73669C392.54 8.75903 392.889 8.89913 393.169 9.13653C393.517 9.4037 393.828 9.71645 394.095 10.0666C394.222 10.1936 394.323 10.3451 394.392 10.5122C394.462 10.6794 394.497 10.8588 394.497 11.0401C394.497 11.2213 394.462 11.4008 394.392 11.5679C394.323 11.7351 394.222 11.8866 394.095 12.0136C393.823 12.37 393.51 12.6912 393.161 12.9697C392.894 13.2113 392.557 13.3579 392.201 13.3869ZM396.339 26.1381C396.671 26.1752 397.003 26.0784 397.265 25.8687C397.462 25.5923 397.55 25.2515 397.513 24.9126V21.1576H393.144C392.807 21.1241 392.471 21.2203 392.201 21.4271C391.995 21.7094 391.9 22.0597 391.936 22.4093V26.1381H396.339ZM397.487 13.3869C397.137 13.3532 396.804 13.2106 396.536 12.9784C396.171 12.7132 395.852 12.3869 395.594 12.0136C395.365 11.7351 395.224 11.3926 395.191 11.0314C395.217 10.6737 395.359 10.3346 395.594 10.0666C395.861 9.71645 396.172 9.4037 396.519 9.13653C396.782 8.90304 397.113 8.7627 397.462 8.73669C397.827 8.75903 398.175 8.89913 398.456 9.13653C398.803 9.4037 399.114 9.71645 399.381 10.0666C399.508 10.1936 399.61 10.3451 399.679 10.5122C399.748 10.6794 399.783 10.8588 399.783 11.0401C399.783 11.2213 399.748 11.4008 399.679 11.5679C399.61 11.7351 399.508 11.8866 399.381 12.0136C399.109 12.3724 398.792 12.6938 398.439 12.9697C398.176 13.2124 397.841 13.3592 397.487 13.3869Z" fill="#282476"/>
<path d="M426.644 16.8377V30.8232H418.933C417.783 30.8465 416.635 30.7474 415.506 30.5277C414.716 30.4117 413.984 30.039 413.42 29.4654C412.856 28.8919 412.491 28.1484 412.379 27.3464C412.16 26.2011 412.06 25.0359 412.079 23.8696C412.06 22.7033 412.161 21.5381 412.379 20.3928C412.504 19.5706 412.867 18.8049 413.424 18.1937C414.004 17.6428 414.731 17.277 415.514 17.142C416.643 16.9188 417.792 16.8168 418.941 16.8377H426.644ZM417.365 13.3609C417.014 13.3272 416.682 13.1846 416.414 12.9524C416.05 12.6848 415.732 12.359 415.471 11.9876C415.242 11.7098 415.105 11.3664 415.077 11.0054C415.1 10.6484 415.239 10.3091 415.471 10.0406C415.738 9.69044 416.049 9.37771 416.397 9.11053C416.661 8.87968 416.991 8.73972 417.339 8.71069C417.704 8.73303 418.052 8.87313 418.333 9.11053C418.683 9.37542 418.994 9.68845 419.258 10.0406C419.498 10.3163 419.639 10.6649 419.661 11.0315C419.631 11.3872 419.486 11.723 419.25 11.9876C418.975 12.3442 418.659 12.6653 418.307 12.9437C418.05 13.193 417.719 13.3489 417.365 13.387V13.3609ZM422.506 21.5228H417.716C417.374 21.4979 417.034 21.5964 416.757 21.8009C416.643 21.9124 416.557 22.0487 416.503 22.1993C416.45 22.3499 416.431 22.511 416.448 22.6701V25.0517C416.439 25.2024 416.461 25.3533 416.515 25.4943C416.568 25.6353 416.65 25.763 416.757 25.8688C417.031 26.0798 417.373 26.1818 417.716 26.1556H422.506V21.5228ZM422.591 13.3609C422.237 13.329 421.902 13.1862 421.632 12.9524C421.271 12.6846 420.955 12.3587 420.698 11.9876C420.469 11.7098 420.331 11.3664 420.304 11.0054C420.326 10.6484 420.465 10.3091 420.698 10.0406C420.964 9.69044 421.276 9.37771 421.623 9.11053C421.885 8.87982 422.212 8.73974 422.557 8.71069C422.925 8.73119 423.276 8.8714 423.559 9.11053C423.936 9.38019 424.273 9.70202 424.562 10.0667C424.689 10.1937 424.791 10.3452 424.86 10.5123C424.929 10.6795 424.964 10.8589 424.964 11.0402C424.964 11.2214 424.929 11.4009 424.86 11.568C424.791 11.7351 424.689 11.8866 424.562 12.0137C424.291 12.3701 423.977 12.6913 423.628 12.9698C423.351 13.2221 422.997 13.3695 422.626 13.387L422.591 13.3609ZM426.584 26.1121H429.463V30.8232H426.618L426.584 26.1121Z" fill="#282476"/>
<path d="M428.323 30.8232V26.1382H443.676V22.2616H434.663C434.212 22.2972 433.759 22.2384 433.332 22.0889C432.904 21.9393 432.512 21.7023 432.178 21.3924C431.874 21.0361 431.641 20.6225 431.494 20.1751C431.347 19.7276 431.289 19.2552 431.322 18.7848C431.332 17.9607 431.453 17.1418 431.682 16.351C431.932 15.4572 432.253 14.5852 432.641 13.7434C433.056 12.8353 433.543 11.9632 434.098 11.1358C434.629 10.3537 435.235 9.62598 435.905 8.96277L439.221 10.7794C438.77 11.2259 438.354 11.7084 437.979 12.2223C437.559 12.7873 437.122 13.3957 436.771 14.0302C436.406 14.6358 436.077 15.2627 435.785 15.9077C435.535 16.4423 435.34 17.0015 435.203 17.5766H442.554C443.63 17.5325 444.705 17.6917 445.724 18.0459C446.089 18.1913 446.42 18.4104 446.698 18.6898C446.977 18.9692 447.196 19.3032 447.343 19.6714C447.697 20.701 447.857 21.7891 447.815 22.8787V30.8232H428.323Z" fill="#282476"/>
<path d="M452.193 39.1502L450.668 35.404C451.307 35.1282 451.903 34.756 452.433 34.3001C452.863 33.8855 453.162 33.3497 453.29 32.7616C453.467 31.9308 453.547 31.0819 453.529 30.2322V16.8378H457.633V30.2148C457.668 31.5952 457.495 32.9728 457.119 34.3001C456.797 35.3806 456.207 36.3593 455.406 37.1424C454.461 38.0003 453.373 38.6803 452.193 39.1502ZM457.599 26.1122H460.444V30.8233H457.599V26.1122Z" fill="#282476"/>
<path d="M467.872 30.8232H459.304V26.1382H463.768V19.5236H467.906L467.872 30.8232ZM470.28 30.8232H467.872V26.1382H471.573C472.139 26.1734 472.704 26.0659 473.218 25.8253C473.419 25.6878 473.577 25.496 473.676 25.2716C473.774 25.0473 473.809 24.7994 473.775 24.5562V19.5236H477.922V23.661C477.939 24.8441 477.841 26.0261 477.631 27.1899C477.487 28.0212 477.103 28.79 476.525 29.3977C475.87 29.983 475.065 30.3687 474.204 30.5103C472.91 30.7532 471.595 30.8581 470.28 30.8232ZM473.313 13.3696C472.959 13.3376 472.623 13.1949 472.353 12.9611C471.989 12.6935 471.671 12.3676 471.41 11.9963C471.187 11.7154 471.05 11.3737 471.016 11.0141C471.043 10.658 471.181 10.3198 471.41 10.0492C471.677 9.69911 471.988 9.38637 472.336 9.11919C472.6 8.88678 472.93 8.74659 473.278 8.71936C473.646 8.73986 473.998 8.88007 474.281 9.11919C474.628 9.38637 474.939 9.69911 475.206 10.0492C475.437 10.3294 475.574 10.6761 475.6 11.0401C475.57 11.3959 475.425 11.7317 475.189 11.9963C474.914 12.3529 474.598 12.674 474.246 12.9524C473.991 13.1979 473.663 13.3507 473.313 13.387V13.3696ZM475.926 7.65024C475.572 7.61828 475.237 7.47552 474.966 7.24171C474.605 6.97388 474.29 6.64798 474.032 6.2769C473.803 5.99844 473.663 5.65592 473.63 5.2947C473.655 4.93424 473.797 4.59225 474.032 4.32119C474.297 3.97176 474.608 3.66163 474.958 3.39983C475.218 3.16807 475.546 3.02785 475.891 3C476.259 3.0205 476.611 3.16071 476.894 3.39983C477.239 3.6661 477.55 3.97568 477.819 4.32119C478.056 4.60072 478.195 4.95242 478.213 5.32077C478.183 5.6765 478.038 6.01233 477.802 6.2769C477.528 6.63353 477.211 6.95464 476.86 7.23302C476.616 7.47006 476.303 7.62225 475.969 7.66762L475.926 7.65024ZM480.741 30.8232C479.561 30.8514 478.382 30.7406 477.228 30.4929C476.431 30.3377 475.696 29.9512 475.112 29.3803C474.57 28.757 474.211 27.9922 474.075 27.1725C473.857 26.0096 473.756 24.8272 473.775 23.6436V19.5236H477.922V24.5562C477.889 24.7994 477.923 25.0473 478.021 25.2716C478.12 25.496 478.278 25.6878 478.479 25.8253C478.993 26.0659 479.558 26.1734 480.124 26.1382H483.551C483.675 25.7102 483.755 25.2704 483.791 24.8257C483.791 24.3476 483.851 23.7913 483.851 23.1568C483.851 22.2272 483.77 21.2995 483.611 20.3841C483.457 19.454 483.26 18.4892 483.02 17.4983L487.107 16.8377C487.325 17.47 487.497 18.1179 487.621 18.776C487.75 19.4602 487.845 20.1507 487.903 20.8447C487.955 21.5488 487.989 22.2442 487.989 22.9135C488.059 24.5616 487.794 26.2067 487.209 27.7462C486.754 28.832 485.899 29.6954 484.828 30.1539C483.523 30.6523 482.133 30.8799 480.741 30.8232ZM478.539 13.387C478.188 13.3533 477.856 13.2106 477.588 12.9785C477.222 12.7132 476.904 12.387 476.645 12.0136C476.416 11.7359 476.279 11.3925 476.251 11.0314C476.274 10.6745 476.412 10.3351 476.645 10.0666C476.912 9.71649 477.223 9.40375 477.571 9.13658C477.834 8.90416 478.165 8.76398 478.513 8.73674C478.878 8.75908 479.226 8.89917 479.507 9.13658C479.855 9.40375 480.166 9.71649 480.432 10.0666C480.562 10.1924 480.665 10.3435 480.736 10.5108C480.806 10.6781 480.842 10.8582 480.842 11.0401C480.842 11.2221 480.806 11.4021 480.736 11.5694C480.665 11.7368 480.562 11.8879 480.432 12.0136C480.163 12.3719 479.849 12.6933 479.498 12.9698C479.233 13.2131 478.896 13.3598 478.539 13.387Z" fill="#282476"/>
<path d="M14.8079 85.9831C13.7468 86.3776 12.622 86.5663 11.4922 86.5394C10.4594 86.6099 9.42368 86.4573 8.45334 86.0918C7.48301 85.7262 6.60018 85.1559 5.86317 84.4185C4.47375 82.7499 3.77384 80.601 3.90971 78.421V61.4629C3.77384 59.2829 4.47375 57.134 5.86317 55.4654C7.43022 54.0973 9.42906 53.3448 11.4965 53.3448C13.5639 53.3448 15.5627 54.0973 17.1298 55.4654C18.5192 57.134 19.2191 59.2829 19.0832 61.4629V78.421C19.1596 80.2925 18.6693 82.1428 17.6781 83.7232C17.8193 84.0039 18.0618 84.2187 18.355 84.3229C18.7396 84.4314 19.1385 84.4783 19.5373 84.462H20.3084V89.0601H18.9976C16.7357 89.0601 15.3306 88.0431 14.8079 85.9831ZM14.0882 78.7513V61.1413C14.0882 59.0204 13.2315 57.96 11.5179 57.96C9.80435 57.96 8.94757 59.0204 8.94757 61.1413V78.7513C8.94757 80.8722 9.80435 81.9326 11.5179 81.9326C13.2315 81.9326 14.0882 80.8722 14.0882 78.7513Z" fill="#282476"/>
<path d="M24.1726 84.4444C22.9045 83.0449 22.262 81.0371 22.262 78.4208V53.8049H27.2655V78.7945C27.1859 79.6494 27.4209 80.5039 27.9253 81.1935C28.441 81.6693 29.1131 81.933 29.8102 81.933C30.5073 81.933 31.1793 81.6693 31.6951 81.1935C32.1936 80.5011 32.428 79.6488 32.3548 78.7945V53.8049H37.1699V78.4208C37.1699 81.0342 36.533 83.042 35.2593 84.4444C33.9855 85.8467 32.1377 86.5449 29.7159 86.5391C27.2912 86.5391 25.4492 85.8438 24.1726 84.4444Z" fill="#282476"/>
<path d="M44.5725 53.8049H51.3496L56.4903 86.0785H51.4953L50.5871 79.6724V79.7593H44.9067L43.9985 86.0785H39.3633L44.5725 53.8049ZM50.0302 75.3786L47.8026 59.4287H47.7083L45.5321 75.3786H50.0302Z" fill="#282476"/>
<path d="M58.932 53.8049H63.9356V81.463H72.1607V86.0785H58.932V53.8049Z" fill="#282476"/>
<path d="M74.5682 53.8049H79.5633V86.0785H74.5682V53.8049Z" fill="#282476"/>
<path d="M87.197 58.4204H81.9707V53.8049H97.3927V58.4204H92.1749V86.0785H87.1713L87.197 58.4204Z" fill="#282476"/>
<path d="M104.418 72.3364L98.3781 53.8049H103.69L107.117 65.6522H107.211L110.639 53.8049H115.497L109.456 72.3364V86.0785H104.453L104.418 72.3364Z" fill="#282476"/>
<path d="M125.007 53.8049H132.546C135.122 53.8049 137.001 54.4134 138.184 55.6303C139.366 56.8471 139.957 58.7188 139.957 61.2453V62.5404C140.012 63.9356 139.739 65.3238 139.161 66.5909C138.651 67.6225 137.785 68.4272 136.727 68.8508V68.9465C139.212 69.8041 140.454 72.0466 140.454 75.6741V78.4382C140.454 80.9299 139.812 82.8276 138.527 84.1314C137.241 85.4352 135.354 86.09 132.863 86.0958H125.007V53.8049ZM131.955 66.9473C132.363 66.9794 132.774 66.9266 133.161 66.7921C133.549 66.6576 133.905 66.4442 134.208 66.165C134.771 65.4217 135.037 64.4907 134.954 63.5574V61.7321C135.03 60.8441 134.816 59.9554 134.345 59.2027C134.105 58.9288 133.804 58.7155 133.468 58.5797C133.132 58.4439 132.77 58.3894 132.409 58.4204H130.002V66.9473H131.955ZM132.863 81.463C133.221 81.4931 133.582 81.445 133.92 81.3221C134.259 81.1992 134.567 81.0042 134.825 80.7502C135.317 80.0322 135.542 79.1606 135.459 78.2904V75.4742C135.569 74.3935 135.302 73.3079 134.705 72.4059C134.377 72.0908 133.987 71.8503 133.56 71.7004C133.133 71.5505 132.679 71.4947 132.229 71.5367H130.002V81.4456L132.863 81.463Z" fill="#282476"/>
<path d="M147.223 53.8049H154L159.141 86.0785H154.146L153.237 79.6724V79.7593H147.557L146.649 86.0785H142.014L147.223 53.8049ZM152.681 75.3786L150.453 59.4287H150.393L148.217 75.3786H152.681Z" fill="#282476"/>
<path d="M162.585 84.4443C161.34 83.0478 160.72 81.04 160.726 78.4208V76.578H165.447V78.7945C165.447 80.8806 166.303 81.9323 168.017 81.9323C168.374 81.9565 168.732 81.9004 169.065 81.7682C169.398 81.636 169.699 81.4309 169.945 81.1674C170.446 80.4499 170.68 79.5751 170.604 78.6989C170.624 77.4469 170.311 76.2126 169.696 75.1265C168.758 73.7298 167.623 72.4795 166.329 71.415C164.645 69.9935 163.199 68.3059 162.045 66.4171C161.216 64.8684 160.794 63.1292 160.82 61.367C160.685 59.2156 161.369 57.0937 162.731 55.439C163.456 54.7113 164.325 54.1483 165.28 53.7871C166.236 53.426 167.256 53.275 168.274 53.3442C170.664 53.3442 172.481 54.0483 173.706 55.439C174.931 56.8297 175.548 58.8463 175.548 61.4626V62.7925H170.819V61.141C170.89 60.2826 170.666 59.4257 170.185 58.7159C169.949 58.4559 169.659 58.2529 169.336 58.122C169.012 57.9911 168.664 57.9357 168.317 57.9597C166.655 57.9597 165.824 58.9883 165.824 61.0454C165.82 62.2019 166.141 63.3355 166.749 64.3136C167.715 65.7017 168.869 66.9452 170.176 68.0077C171.882 69.416 173.332 71.1163 174.46 73.0317C175.28 74.6727 175.686 76.4945 175.642 78.3338C175.642 80.9762 175 83.0044 173.714 84.4183C172.429 85.8351 170.553 86.5391 168.103 86.5391C165.652 86.5391 163.827 85.8438 162.585 84.4443Z" fill="#282476"/>
<path d="M178.487 53.8049H192.118V58.4204H183.49V66.9473H190.345V71.5541H183.49V81.463H192.118V86.0785H178.487V53.8049Z" fill="#282476"/>
<path d="M202.254 53.8049H207.257V86.0785H202.254V53.8049Z" fill="#282476"/>
<path d="M210.976 53.8049H217.222L222.088 73.1186H222.174V53.8049H226.646V86.0785H221.506L215.508 62.523H215.414V86.0785H210.959L210.976 53.8049Z" fill="#282476"/>
<path d="M231.384 84.4443C230.145 83.0478 229.522 81.04 229.516 78.4208V76.578H234.246V78.7945C234.246 80.8806 235.103 81.9323 236.816 81.9323C237.173 81.9565 237.531 81.9004 237.864 81.7682C238.197 81.636 238.498 81.4309 238.744 81.1674C239.249 80.4519 239.484 79.5755 239.404 78.6989C239.43 77.4461 239.115 76.2103 238.495 75.1265C237.563 73.7276 236.431 72.4768 235.137 71.415C233.451 69.996 232.004 68.3079 230.853 66.4171C230.024 64.8684 229.602 63.1292 229.628 61.367C229.493 59.2156 230.176 57.0937 231.538 55.439C232.263 54.7109 233.132 54.1475 234.088 53.7863C235.044 53.4252 236.064 53.2745 237.082 53.3442C239.472 53.3442 241.28 54.0483 242.505 55.439C243.73 56.8297 244.347 58.8463 244.347 61.4626V62.7925H239.626V61.141C239.699 60.2812 239.472 59.4227 238.984 58.7159C238.75 58.4561 238.461 58.2531 238.139 58.1222C237.817 57.9913 237.471 57.9357 237.125 57.9597C235.462 57.9597 234.623 58.9854 234.623 61.0454C234.618 62.2031 234.943 63.3377 235.557 64.3136C236.519 65.7046 237.673 66.9486 238.984 68.0077C240.691 69.4142 242.142 71.1148 243.268 73.0317C244.088 74.6727 244.494 76.4945 244.45 78.3338C244.45 80.9762 243.805 83.0044 242.514 84.4183C241.223 85.8322 239.352 86.5391 236.902 86.5391C234.469 86.5391 232.629 85.8409 231.384 84.4443Z" fill="#282476"/>
<path d="M247.286 53.8049H254.646C257.13 53.8049 258.995 54.4829 260.24 55.8389C261.486 57.1948 262.105 59.1766 262.1 61.7842V64.9655C262.1 67.5731 261.48 69.5549 260.24 70.9109C258.998 72.2668 257.13 72.9361 254.646 72.9361H252.289V86.0785H247.286V53.8049ZM254.646 68.3293C254.984 68.3548 255.324 68.3058 255.642 68.1858C255.959 68.0658 256.248 67.8776 256.488 67.634C256.965 66.9523 257.184 66.1192 257.105 65.2871V61.4626C257.186 60.6276 256.967 59.791 256.488 59.1071C256.248 58.8646 255.959 58.6776 255.641 58.5591C255.323 58.4406 254.983 58.3932 254.646 58.4204H252.289V68.3293H254.646Z" fill="#282476"/>
<path d="M264.824 53.8049H278.455V58.4204H269.828V66.9473H276.682V71.5541H269.828V81.463H278.455V86.0785H264.824V53.8049Z" fill="#282476"/>
<path d="M282.885 84.4617C281.544 82.8271 280.87 80.7344 281 78.612V61.2453C280.871 59.123 281.545 57.0306 282.885 55.3956C284.405 54.0558 286.351 53.318 288.364 53.318C290.377 53.318 292.323 54.0558 293.843 55.3956C295.183 57.0306 295.857 59.123 295.728 61.2453V64.7221H290.999V60.9845C290.999 58.9854 290.142 57.9945 288.497 57.9945C286.852 57.9945 286.004 58.9854 286.004 60.9845V78.9771C286.004 80.9415 286.86 81.9324 288.497 81.9324C290.133 81.9324 290.999 80.9415 290.999 78.9771V74.0487H295.728V78.6294C295.858 80.7518 295.184 82.8445 293.843 84.4791C292.323 85.8189 290.377 86.5567 288.364 86.5567C286.351 86.5567 284.405 85.8189 282.885 84.4791V84.4617Z" fill="#282476"/>
<path d="M302.634 58.4204H297.407V53.8049H312.829V58.4204H307.603V86.0785H302.608L302.634 58.4204Z" fill="#282476"/>
<path d="M315.263 53.8049H320.266V86.0785H315.263V53.8049Z" fill="#282476"/>
<path d="M325.578 84.4183C324.189 82.7496 323.489 80.6007 323.625 78.4208V61.4626C323.489 59.2826 324.189 57.1337 325.578 55.4651C327.147 54.0963 329.147 53.3436 331.216 53.3436C333.285 53.3436 335.285 54.0963 336.853 55.4651C338.243 57.1337 338.943 59.2826 338.807 61.4626V78.4208C338.943 80.6007 338.243 82.7496 336.853 84.4183C335.285 85.787 333.285 86.5397 331.216 86.5397C329.147 86.5397 327.147 85.787 325.578 84.4183ZM333.803 78.7511V61.141C333.803 59.0201 332.947 57.9597 331.233 57.9597C329.519 57.9597 328.663 59.0201 328.663 61.141V78.7511C328.663 80.8719 329.519 81.9323 331.233 81.9323C332.947 81.9323 333.803 80.8719 333.803 78.7511Z" fill="#282476"/>
<path d="M342.166 53.8049H348.437L353.295 73.1186H353.389V53.8049H357.845V86.0785H352.704L346.707 62.523H346.595V86.0785H342.14L342.166 53.8049Z" fill="#282476"/>
<path d="M370.405 84.4618C369.06 82.8293 368.385 80.735 368.52 78.612V61.2453C368.387 59.1225 369.062 57.0289 370.405 55.3956C371.923 54.0564 373.868 53.319 375.88 53.319C377.892 53.319 379.836 54.0564 381.355 55.3956C382.701 57.0276 383.379 59.1214 383.248 61.2453V64.7222H378.519V60.9846C378.519 58.9854 377.662 57.9945 376.017 57.9945C374.372 57.9945 373.524 58.9854 373.524 60.9846V78.9771C373.524 80.9415 374.38 81.9324 376.017 81.9324C377.653 81.9324 378.519 80.9415 378.519 78.9771V74.0487H383.248V78.6294C383.38 80.7536 382.702 82.848 381.355 84.4792C379.836 85.8183 377.892 86.5558 375.88 86.5558C373.868 86.5558 371.923 85.8183 370.405 84.4792V84.4618Z" fill="#282476"/>
<path d="M387.832 84.4183C386.442 82.7496 385.742 80.6007 385.878 78.4208V61.4626C385.742 59.2826 386.442 57.1337 387.832 55.4651C389.4 54.0963 391.4 53.3436 393.469 53.3436C395.538 53.3436 397.538 54.0963 399.107 55.4651C400.496 57.1337 401.196 59.2826 401.06 61.4626V78.4208C401.196 80.6007 400.496 82.7496 399.107 84.4183C398.368 85.1549 397.483 85.7247 396.512 86.0902C395.54 86.4557 394.503 86.6087 393.469 86.5391C391.013 86.5391 389.134 85.8322 387.832 84.4183ZM396.057 78.7511V61.141C396.057 59.0201 395.2 57.9597 393.486 57.9597C391.773 57.9597 390.916 59.0201 390.916 61.141V78.7511C390.916 80.8719 391.773 81.9323 393.486 81.9323C395.2 81.9323 396.057 80.8719 396.057 78.7511Z" fill="#282476"/>
<path d="M404.419 81.2369H409.234V86.1219H404.419V81.2369Z" fill="#282476"/>
<path d="M412.961 53.8049H417.965V81.463H426.19V86.0785H412.961V53.8049Z" fill="#282476"/>
<path d="M432.504 58.4204H427.278V53.8049H442.7V58.4204H437.473V86.0785H432.478L432.504 58.4204Z" fill="#282476"/>
<path d="M445.124 53.8049H452.758C455.243 53.8049 457.108 54.4829 458.353 55.8389C459.598 57.1948 460.218 59.1766 460.212 61.7842V78.0992C460.212 80.7184 459.593 82.703 458.353 84.0532C457.114 85.4034 455.249 86.0785 452.758 86.0785H445.124V53.8049ZM452.673 81.463C453.02 81.4846 453.368 81.4306 453.693 81.3047C454.018 81.1787 454.313 80.9838 454.558 80.7329C455.056 80.0404 455.29 79.1881 455.217 78.3339V61.5495C455.29 60.6952 455.056 59.843 454.558 59.1505C454.313 58.8996 454.018 58.7046 453.693 58.5787C453.368 58.4528 453.02 58.3988 452.673 58.4204H450.102V81.463H452.673Z" fill="#282476"/>
<path d="M463.588 81.2369H468.403V86.1219H463.588V81.2369Z" fill="#282476"/>
<path d="M473.758 86.0784H472.13V81.2369H476.945V85.583L474.443 91.6152H472.13L473.758 86.0784Z" fill="#282476"/>
<path d="M487.646 44.0438H0.311157V46.4428H487.646V44.0438Z" fill="#27BCB2"/>
<path d="M821.65 81.7773H805.173V18.491H821.65V81.7773Z" fill="#27BCB2"/>
<path d="M884.304 27.8885L874.197 39.3648C871.409 35.8717 867.227 32.8806 861.365 32.8806C851.426 32.8806 845.223 40.0295 845.223 50.0917C845.223 60.1539 851.426 67.3876 861.365 67.3876C867.227 67.3876 871.395 64.3965 874.197 60.9034L884.22 72.3798C877.849 79.2812 870.545 81.7773 861.365 81.7773C842.337 81.7773 828.829 68.1371 828.829 50.0917C828.829 32.0463 842.337 18.491 861.365 18.491C871.563 18.491 878.107 21.5669 884.304 27.8885Z" fill="#27BCB2"/>
<path d="M797.471 58.4356C796.951 55.8851 795.745 53.5306 793.986 51.6332C792.9 50.4819 791.653 49.498 790.285 48.7129C789.693 48.3805 789.107 48.0058 788.522 47.6946C788.468 47.6495 788.431 47.5871 788.417 47.5178C788.403 47.4832 788.395 47.4459 788.395 47.4082C788.395 47.3705 788.403 47.3332 788.417 47.2986C788.654 47.0158 788.898 46.74 789.114 46.4642C790.658 44.7951 791.776 42.768 792.369 40.5599C792.836 38.8721 793.045 37.1218 792.99 35.3697C792.99 34.7404 792.85 34.111 792.801 33.4746C792.698 32.0426 792.392 30.633 791.895 29.2886C790.984 26.8483 789.455 24.6947 787.462 23.0448C785.471 21.3933 783.157 20.1884 780.674 19.5092C778.358 18.8457 775.963 18.5101 773.557 18.5122H749.162H739.028C738.714 18.5122 738.408 18.5122 738.094 18.5122C738.072 18.5166 738.051 18.5259 738.033 18.5393C738.015 18.5528 738 18.5701 737.989 18.59C737.92 18.7102 737.989 18.7738 738.087 18.8446C738.54 19.1133 738.979 19.3961 739.432 19.6648C741.239 20.7325 742.937 21.9808 744.499 23.3913C746.181 24.8967 747.726 26.5534 749.113 28.341C751.663 31.6455 753.615 35.3828 754.878 39.379C755.708 41.897 756.228 44.5096 756.425 47.1572C756.646 49.8535 756.573 52.5663 756.209 55.2466C755.981 56.7646 755.67 58.2684 755.275 59.7508C754.285 63.3838 752.73 66.8332 750.668 69.9686C750.556 70.1453 750.431 70.315 750.319 70.4918C749.985 71.0292 749.999 71.1989 750.424 71.7717C750.682 72.104 750.954 72.4293 751.225 72.7475C751.497 73.0657 751.922 73.5395 752.257 73.9425L758.321 81.0136C758.453 81.1762 758.6 81.3318 758.739 81.4874C758.877 81.6355 759.068 81.7219 759.269 81.7278H777.6C778.658 81.7072 779.715 81.6269 780.764 81.4874C783.777 81.1031 786.684 80.1075 789.309 78.5599C791.862 77.0775 793.992 74.9505 795.494 72.3857C796.997 69.8209 797.819 66.9055 797.883 63.9228C797.972 62.0835 797.834 60.24 797.471 58.4356ZM764.712 33.3827H771.759C775.042 33.3827 777.419 35.1929 777.419 38.382C777.419 41.5711 775.042 43.3742 771.759 43.3742H764.712V33.3827ZM775.864 66.8785H764.712V55.685H775.864C779.558 55.685 782.179 57.6649 782.179 61.2853C782.179 64.9057 779.524 66.8785 775.864 66.8785Z" fill="#27BCB2"/>
<path d="M759.171 86.4583C757.122 84.0541 755.068 81.6523 753.01 79.2528C751.128 77.0537 749.204 74.89 747.35 72.6626C746.984 72.279 746.652 71.8624 746.36 71.4181L746.054 71.0645C750.775 65.1537 753.298 57.7479 753.184 50.1412C753.296 42.3514 750.694 34.7714 745.838 28.737C741.704 23.7425 736.152 20.1643 729.939 18.491C729.242 18.293 728.482 18.1162 727.736 17.9606H727.541L726.775 17.8192C725.267 17.557 723.744 17.3917 722.216 17.3242H721.226H720.265H719.568H719.066L718.411 17.3596C718.104 17.3596 717.804 17.402 717.504 17.4303H717.316C715.713 17.5845 714.122 17.8515 712.556 18.2293C709.389 18.9641 706.35 20.1824 703.544 21.8426H703.481C701.795 22.8609 700.212 24.0452 698.755 25.3782C696.218 27.6416 694.068 30.3152 692.392 33.2907C692.336 33.3827 692.287 33.4887 692.231 33.5807L691.743 34.507L691.576 34.8535C691.416 35.1787 691.262 35.5111 691.116 35.8434L691.018 36.0555C689.676 39.2081 688.798 42.5436 688.412 45.9551C688.335 46.5844 688.286 47.2137 688.244 47.8501V48.2603C688.244 48.8896 688.189 49.5189 688.189 50.1482C688.191 51.5452 688.277 52.9408 688.446 54.3272C688.532 55.3294 688.709 56.3213 688.976 57.29C688.976 57.4668 688.976 57.6365 689.011 57.8133C690.241 63.6333 693.083 68.9762 697.203 73.2138C701.323 77.4514 706.551 80.4076 712.27 81.7348C715.021 82.4204 717.843 82.774 720.676 82.7884C723.453 82.7873 726.221 82.4526 728.921 81.7914C730.743 81.353 732.526 80.7641 734.253 80.0307L735.794 81.7914L740.31 86.9391L740.415 87.0098H759.359C759.368 86.9898 759.373 86.9681 759.373 86.9462C759.373 86.9243 759.368 86.9026 759.359 86.8826C759.33 86.7281 759.266 86.5828 759.171 86.4583ZM735.187 58.4073L727.89 49.922L716.515 59.5245L723.589 67.6209C722.637 67.7921 721.671 67.8797 720.704 67.8825C711.197 67.8825 704.582 60.564 704.582 50.1412C704.582 39.5345 711.197 32.1452 720.704 32.1452C730.211 32.1452 736.832 39.5487 736.832 50.1412C736.849 52.9818 736.289 55.7955 735.187 58.4073Z" fill="url(#paint0_linear_93_55)"/>
<path d="M622.747 10.4086C625.58 10.4086 627.877 8.0786 627.877 5.20433C627.877 2.33006 625.58 0 622.747 0C619.914 0 617.617 2.33006 617.617 5.20433C617.617 8.0786 619.914 10.4086 622.747 10.4086Z" fill="#2BBCB2"/>
<path d="M597 49.3987C596.998 56.8574 598.927 64.1859 602.593 70.6508C606.26 77.1157 611.536 82.4904 617.893 86.237C624.25 89.9837 631.466 91.9708 638.818 91.9998C646.17 92.0287 653.4 90.0983 659.786 86.4018V73.596C656.65 76.4214 652.991 78.5863 649.023 79.9649C645.055 81.3434 640.857 81.9081 636.672 81.6261C632.487 81.3441 628.399 80.221 624.645 78.3222C620.892 76.4234 617.548 73.7867 614.807 70.5653C612.067 67.344 609.985 63.6022 608.683 59.5574C607.381 55.5127 606.884 51.2457 607.221 47.0044C607.558 42.7631 608.723 38.6322 610.648 34.8516C612.573 31.071 615.219 27.7162 618.433 24.9822V12.2543C611.931 15.9568 606.518 21.3494 602.751 27.8777C598.984 34.4059 596.999 41.8342 597 49.3987Z" fill="url(#paint1_linear_93_55)"/>
<path d="M618.433 49.8229C618.433 50.3462 618.475 50.8553 618.509 51.3644C618.88 56.5702 621.143 61.4508 624.861 65.059C628.578 68.6672 633.485 70.7457 638.627 70.891C643.77 71.0364 648.783 69.2383 652.692 65.8457C656.602 62.4531 659.13 57.708 659.786 52.5311V47.1076C659.35 43.6655 658.082 40.3864 656.093 37.5627C654.104 34.7391 651.458 32.4588 648.389 30.9253C645.32 29.3919 641.925 28.6529 638.507 28.7745C635.088 28.896 631.752 29.8743 628.797 31.6219V19C625.007 20.3109 621.497 22.341 618.454 24.9821L618.433 49.8229ZM638.994 38.7001C641.08 38.7001 643.119 39.3275 644.853 40.5031C646.587 41.6787 647.939 43.3496 648.737 45.3045C649.535 47.2594 649.744 49.4105 649.337 51.4858C648.93 53.5611 647.926 55.4674 646.451 56.9637C644.976 58.4599 643.097 59.4788 641.052 59.8916C639.006 60.3044 636.886 60.0926 634.959 59.2828C633.032 58.4731 631.385 57.1018 630.226 55.3424C629.067 53.5831 628.449 51.5146 628.449 49.3986C628.448 47.9934 628.72 46.6018 629.25 45.3034C629.779 44.0049 630.556 42.8252 631.535 41.8315C632.515 40.8379 633.678 40.0499 634.958 39.5126C636.237 38.9752 637.609 38.6991 638.994 38.7001Z" fill="url(#paint2_linear_93_55)"/>
<path d="M670.129 77.98C676.165 71.204 679.896 62.6398 680.77 53.55C681.645 44.4602 679.617 35.3258 674.987 27.4936C670.356 19.6613 663.368 13.5457 655.052 10.0482C646.736 6.55077 637.532 5.85664 628.797 8.06814V19.0001C632.884 17.5866 637.212 17.036 641.516 17.3822C645.82 17.7284 650.008 18.9641 653.824 21.0133C657.64 23.0624 661.002 25.8818 663.705 29.2979C666.407 32.7141 668.391 36.6549 669.537 40.878C669.781 41.776 669.983 42.6811 670.15 43.6075V77.98H670.129Z" fill="url(#paint3_linear_93_55)"/>
<defs>
<linearGradient id="paint0_linear_93_55" x1="732.162" y1="18.7455" x2="720.587" y2="83.4456" gradientUnits="userSpaceOnUse">
<stop stop-color="#243469"/>
<stop offset="0.1" stop-color="#243469"/>
<stop offset="0.23" stop-color="#24366A"/>
<stop offset="0.27" stop-color="#233D6E"/>
<stop offset="0.3" stop-color="#234572"/>
<stop offset="0.43" stop-color="#224B75"/>
<stop offset="0.45" stop-color="#225179"/>
<stop offset="0.71" stop-color="#208A98"/>
<stop offset="0.9" stop-color="#1FAEAC"/>
<stop offset="1" stop-color="#1FBBB3"/>
</linearGradient>
<linearGradient id="paint1_linear_93_55" x1="628.393" y1="12.2472" x2="628.393" y2="92.0021" gradientUnits="userSpaceOnUse">
<stop stop-color="#1FBBB3"/>
<stop offset="0.11" stop-color="#1FB5B0"/>
<stop offset="0.27" stop-color="#20A3A6"/>
<stop offset="0.45" stop-color="#218796"/>
<stop offset="0.64" stop-color="#225F81"/>
<stop offset="0.82" stop-color="#243469"/>
<stop offset="1" stop-color="#243469"/>
</linearGradient>
<linearGradient id="paint2_linear_93_55" x1="639.113" y1="19" x2="639.113" y2="70.8948" gradientUnits="userSpaceOnUse">
<stop stop-color="#1FBBB3"/>
<stop offset="0.11" stop-color="#1FB5B0"/>
<stop offset="0.27" stop-color="#20A3A6"/>
<stop offset="0.45" stop-color="#218796"/>
<stop offset="0.64" stop-color="#225F81"/>
<stop offset="0.82" stop-color="#243469"/>
<stop offset="1" stop-color="#243469"/>
</linearGradient>
<linearGradient id="paint3_linear_93_55" x1="654.879" y1="6.79535" x2="654.879" y2="77.98" gradientUnits="userSpaceOnUse">
<stop stop-color="#1FBBB3"/>
<stop offset="0.11" stop-color="#1FB5B0"/>
<stop offset="0.27" stop-color="#20A3A6"/>
<stop offset="0.45" stop-color="#218796"/>
<stop offset="0.64" stop-color="#225F81"/>
<stop offset="0.82" stop-color="#243469"/>
<stop offset="1" stop-color="#243469"/>
</linearGradient>
</defs>
</svg>
