<svg id="Layer_1" data-name="Layer 1" xmlns="http://www.w3.org/2000/svg" xmlns:xlink="http://www.w3.org/1999/xlink" viewBox="0 0 1012 637">
  <defs>
    <style>
      .cls-1 {
        fill: url(#linear-gradient);
      }

      .cls-2 {
        fill: url(#linear-gradient-2);
      }

      .cls-15, .cls-3 {
        opacity: 0.5;
      }

      .cls-11, .cls-15, .cls-18, .cls-3, .cls-6 {
        isolation: isolate;
      }

      .cls-3 {
        fill: url(#linear-gradient-3);
      }

      .cls-4 {
        fill: #228fcf;
      }

      .cls-5 {
        fill: #2f6db6;
      }

      .cls-6 {
        fill: #b2def2;
      }

      .cls-11, .cls-18, .cls-6 {
        opacity: 0.8;
      }

      .cls-7 {
        fill: url(#linear-gradient-4);
      }

      .cls-8 {
        fill: url(#linear-gradient-5);
      }

      .cls-9 {
        fill: #2a70b8;
      }

      .cls-10 {
        fill: #2752a4;
      }

      .cls-11 {
        fill: #b9dff1;
      }

      .cls-12 {
        fill: url(#linear-gradient-6);
      }

      .cls-13 {
        fill: url(#linear-gradient-7);
      }

      .cls-14 {
        fill: url(#linear-gradient-8);
      }

      .cls-15 {
        fill: url(#linear-gradient-9);
      }

      .cls-16 {
        fill: url(#linear-gradient-10);
      }

      .cls-17 {
        fill: url(#linear-gradient-11);
      }

      .cls-18 {
        fill: #2651a3;
      }

      .cls-19 {
        fill: #fff;
        fill-opacity: 0.2;
      }

      .cls-20 {
        fill: #333;
        fill-opacity: 0.25;
      }

      .cls-21 {
        fill: #24356a;
      }

      .cls-22 {
        fill: #2e2c74;
      }
    </style>
    <linearGradient id="linear-gradient" x1="211.4" y1="-3299" x2="211.4" y2="-2995.8" gradientTransform="matrix(1, 0, 0, -1, 564, -2662)" gradientUnits="userSpaceOnUse">
      <stop offset="0" stop-color="#fff" stop-opacity="0"/>
      <stop offset="0.21" stop-color="#f0f4f9" stop-opacity="0.21"/>
      <stop offset="0.63" stop-color="#c7d7ea" stop-opacity="0.63"/>
      <stop offset="0.7" stop-color="#bfd0e7" stop-opacity="0.7"/>
      <stop offset="1" stop-color="#bfd0e7"/>
    </linearGradient>
    <linearGradient id="linear-gradient-2" x1="325.23" y1="-3068.27" x2="189.83" y2="-3117.23" gradientTransform="matrix(1, 0, 0, -1, 564, -2662)" gradientUnits="userSpaceOnUse">
      <stop offset="0" stop-color="#fff" stop-opacity="0"/>
      <stop offset="0.02" stop-color="#feffff" stop-opacity="0.03"/>
      <stop offset="0.58" stop-color="#d3eef7" stop-opacity="0.67"/>
      <stop offset="0.87" stop-color="#c4e8f5"/>
      <stop offset="1" stop-color="#c4e8f5"/>
    </linearGradient>
    <linearGradient id="linear-gradient-3" x1="237.71" y1="-3230.19" x2="-173.95" y2="-3230.19" gradientTransform="matrix(1, 0, 0, -1, 564, -2662)" gradientUnits="userSpaceOnUse">
      <stop offset="0" stop-color="#fff" stop-opacity="0"/>
      <stop offset="0.01" stop-color="#fff" stop-opacity="0.02"/>
      <stop offset="0.28" stop-color="#dff2fa" stop-opacity="0.43"/>
      <stop offset="0.51" stop-color="#caebf5" stop-opacity="0.77"/>
      <stop offset="0.66" stop-color="#c4e8f5"/>
      <stop offset="1" stop-color="#c4e8f5"/>
    </linearGradient>
    <linearGradient id="linear-gradient-4" x1="447.59" y1="-3094.66" x2="140.96" y2="-3094.66" gradientTransform="matrix(1, 0, 0, -1, 564, -2662)" gradientUnits="userSpaceOnUse">
      <stop offset="0" stop-color="#fff" stop-opacity="0"/>
      <stop offset="0.37" stop-color="#feffff" stop-opacity="0.43"/>
      <stop offset="0.54" stop-color="#f6fbfd" stop-opacity="0.63"/>
      <stop offset="0.67" stop-color="#eaf7fd" stop-opacity="0.77"/>
      <stop offset="0.78" stop-color="#d9f0f8" stop-opacity="0.9"/>
      <stop offset="0.87" stop-color="#c4e8f5"/>
      <stop offset="1" stop-color="#c4e8f5"/>
    </linearGradient>
    <linearGradient id="linear-gradient-5" x1="440.39" y1="-2926.59" x2="206.17" y2="-3101.97" gradientTransform="matrix(1, 0, 0, -1, 564, -2662)" gradientUnits="userSpaceOnUse">
      <stop offset="0" stop-color="#fff" stop-opacity="0"/>
      <stop offset="0.21" stop-color="#fdfeff" stop-opacity="0.21"/>
      <stop offset="0.34" stop-color="#f4f8fd" stop-opacity="0.34"/>
      <stop offset="0.46" stop-color="#e5eff9" stop-opacity="0.46"/>
      <stop offset="0.56" stop-color="#cfe3f5" stop-opacity="0.56"/>
      <stop offset="0.66" stop-color="#b5d3ef" stop-opacity="0.66"/>
      <stop offset="0.75" stop-color="#93bfe6" stop-opacity="0.75"/>
      <stop offset="0.84" stop-color="#6ca6d9" stop-opacity="0.84"/>
      <stop offset="0.92" stop-color="#448ac9" stop-opacity="0.92"/>
      <stop offset="0.99" stop-color="#2f6db6" stop-opacity="0.99"/>
      <stop offset="1" stop-color="#2e6bb4"/>
    </linearGradient>
    <linearGradient id="linear-gradient-6" x1="441.06" y1="-2893.92" x2="316.39" y2="-2710.27" gradientTransform="matrix(1, 0, 0, -1, 564, -2662)" gradientUnits="userSpaceOnUse">
      <stop offset="0" stop-color="#fff" stop-opacity="0"/>
      <stop offset="0.22" stop-color="#f7fbfe" stop-opacity="0.22"/>
      <stop offset="0.55" stop-color="#e2ecf8" stop-opacity="0.55"/>
      <stop offset="0.96" stop-color="#c0d8f0" stop-opacity="0.96"/>
      <stop offset="1" stop-color="#bdd5ef"/>
    </linearGradient>
    <linearGradient id="linear-gradient-7" x1="473.18" y1="-2948.34" x2="346.97" y2="-2731.13" gradientTransform="matrix(1, 0, 0, -1, 564, -2662)" gradientUnits="userSpaceOnUse">
      <stop offset="0" stop-color="#fff" stop-opacity="0"/>
      <stop offset="0.42" stop-color="#dce8f6" stop-opacity="0.42"/>
      <stop offset="0.78" stop-color="#c4d9f0" stop-opacity="0.78"/>
      <stop offset="1" stop-color="#bdd5ef"/>
    </linearGradient>
    <linearGradient id="linear-gradient-8" x1="-455.43" y1="-2864.17" x2="-336.07" y2="-2820.72" xlink:href="#linear-gradient-2"/>
    <linearGradient id="linear-gradient-9" x1="-378.26" y1="-2721.84" x2="-14.82" y2="-2721.84" xlink:href="#linear-gradient-3"/>
    <linearGradient id="linear-gradient-10" x1="-563.55" y1="-2840.74" x2="-292.84" y2="-2840.74" xlink:href="#linear-gradient-4"/>
    <linearGradient id="linear-gradient-11" x1="-556.76" y1="-2988.75" x2="-351.16" y2="-2833.82" xlink:href="#linear-gradient-5"/>
  </defs>
  <g>
    <path class="cls-1" d="M1011.59,637H539.22q54.07-132.61,108.15-264.8a60.84,60.84,0,0,1,58.42-38.37l305.8,7.51Z"/>
    <path class="cls-2" d="M759.24,470.19c5.8-17.09,11.19-34.61,17-51.7a33.87,33.87,0,0,1,31.91-23.36h77.07A34.8,34.8,0,0,0,853.3,416.4c-7.87,17.93-15.33,35.86-23.2,53.79Z"/>
    <path class="cls-3" d="M411.6,599.47c5-8.34,9.94-16.68,14.5-25.44a74.2,74.2,0,0,1,64.22-37.11H666.84l-32.32,62.55Z"/>
    <path class="cls-4" d="M356.9,637a37.25,37.25,0,0,1,37.29-37.53H635.35l32.32-62.55,17.4-33.78a60.83,60.83,0,0,1,53.87-32.95h54.28c-7.46,22.11-14.5,44.63-22,66.73-11.19,33.36-22,66.72-33.15,100.08Z"/>
    <path class="cls-5" d="M879,637l68.37-166.81h64.23V637Z"/>
    <path class="cls-6" d="M942.39,395.13h69.2v75.06H947.36l17-41.7a23.47,23.47,0,0,0-1.66-21.68A23.15,23.15,0,0,0,942.39,395.13Z"/>
    <path class="cls-7" d="M793.22,470.19l24.86-75.06h67.54a34.79,34.79,0,0,0-31.9,21.27c-7.88,17.93-15.34,35.86-23.21,53.79Z"/>
    <path class="cls-8" d="M793.22,470.19l24.86-75.06c13.67-41.7,27.35-83.4,41.44-125.1,51,1.25,101.51,2.92,152.48,4.17-14.92,40.45-29.42,80.48-44.34,120.93h-82a34.79,34.79,0,0,0-31.9,21.27c-7.88,17.93-15.34,35.86-23.21,53.79Z"/>
    <path class="cls-9" d="M738.11,637c11.19-33.36,22-66.72,33.15-100.08,7.46-22.1,14.5-44.62,22-66.73h37.29c-9.94,20.44-51.79,136.37-58.84,166.81Z"/>
    <path class="cls-10" d="M771.26,637c5.8-26.27,47.65-143.87,58.84-166.81H947.36L879,637Z"/>
    <path class="cls-11" d="M830.1,470.19c7.87-17.93,15.33-35.86,23.2-53.79a34.38,34.38,0,0,1,31.91-21.27h57.18a23.86,23.86,0,0,1,20.72,12.1,24.74,24.74,0,0,1,1.65,21.68l-17,41.7H830.1Z"/>
  </g>
  <g>
    <path class="cls-12" d="M1012,.83V91.74l-75,181.4-2.9,6.68-17.41-7.09-11.18-4.59L850,244.79,951.09,0h58.83Z"/>
    <path class="cls-13" d="M1012,10.43V249.79l-10.36,25-17.82,42.54-84.11-35,4.14-10,1.66-4.17Z"/>
  </g>
  <path class="cls-14" d="M223.24,145.81c-5.12,15-9.88,30.37-15,45.37a29.9,29.9,0,0,1-28.17,20.48H112A30.7,30.7,0,0,0,140.19,193c7-15.73,13.54-31.46,20.49-47.19Z"/>
  <path class="cls-15" d="M530.16,32.41c-4.39,7.31-8.78,14.63-12.8,22.31a65.6,65.6,0,0,1-56.71,32.56H304.45L333,32.41Z"/>
  <path class="cls-4" d="M578.45-.52a32.78,32.78,0,0,1-32.92,32.93H332.62L304.08,87.28l-15.36,29.63a53.75,53.75,0,0,1-47.56,28.9H193.24c6.58-19.38,12.8-39.14,19.39-58.53C222.5,58,232,28.75,241.89-.52Z"/>
  <path class="cls-5" d="M117.51-.52,57.15,145.81H.45V-.52Z"/>
  <path class="cls-6" d="M61.54,211.66H.45V145.81h56.7l-15,36.59a21.21,21.21,0,0,0,19.39,29.26Z"/>
  <path class="cls-16" d="M193.24,145.81l-22,65.85H112A30.7,30.7,0,0,0,140.19,193c7-15.73,13.54-31.46,20.49-47.19Z"/>
  <path class="cls-17" d="M193.24,145.81l-22,65.85c-12.07,36.58-24.14,73.17-36.58,109.75-44.63-1.1-89.26-2.56-134.26-3.66,13.17-35.48,26-70.6,39.14-106.09H112A30.7,30.7,0,0,0,140.19,193c7-15.73,13.54-31.46,20.49-47.19Z"/>
  <path class="cls-9" d="M241.89-.52C232,28.75,222.5,58,212.63,87.28c-6.59,19.39-12.81,39.15-19.39,58.53H160.32c8.77-17.92,46.09-119.62,52.31-146.33Z"/>
  <path class="cls-10" d="M212.63-.52c-5.12,23.05-42.07,126.21-51.95,146.33H57.15L117.51-.52Z"/>
  <path class="cls-18" d="M160.68,145.81c-7,15.73-13.53,31.46-20.49,47.2A30.71,30.71,0,0,1,112,211.66H61.54a21.07,21.07,0,0,1-18.29-10.61,21.59,21.59,0,0,1-1.46-19l15-36.58H160.68Z"/>
  <path class="cls-19" d="M.5-.5h1011v638H.5Z"/>
  <path class="cls-20" d="M707.51,437.19H672.82V305.83h34.69Z"/>
  <path class="cls-20" d="M839.45,325.34l-21.29,23.82c-5.9-7.25-14.67-13.46-27-13.46-20.93,0-34,14.84-34,35.72s13.06,35.91,34,35.91c12.35,0,21.11-6.22,27-13.47l21.11,23.82c-13.41,14.33-28.8,19.51-48.12,19.51-40.07,0-68.52-28.3-68.52-65.76s28.45-65.59,68.52-65.59C812.61,305.83,826.39,312.23,839.45,325.34Z"/>
  <path class="cls-20" d="M656.66,388.74a29.24,29.24,0,0,0-7.42-14.12,33.51,33.51,0,0,0-7.81-6.05l-3.72-2.13a.53.53,0,0,1-.21-.35l-.06,0s0,0,0,0a.45.45,0,0,1,0-.23.5.5,0,0,1,.09-.23c.5-.57,1-1.15,1.52-1.72A29.11,29.11,0,0,0,646,351.58a34.94,34.94,0,0,0,1.3-10.76c0-1.3-.29-2.62-.4-3.93a32.23,32.23,0,0,0-11.41-21.6A38.23,38.23,0,0,0,621.16,308a54.92,54.92,0,0,0-15-2.06q-25.71,0-51.42-.06l-21.21,0c-.65,0-1.32,0-2,.08a.21.21,0,0,0-.12.05.28.28,0,0,0-.09.1c-.14.25,0,.39.21.53.95.55,1.87,1.16,2.83,1.71a65.34,65.34,0,0,1,10.65,7.76,77.7,77.7,0,0,1,9.71,10.32,73.52,73.52,0,0,1,12.15,22.91,67.15,67.15,0,0,1,3.25,16.12,76.09,76.09,0,0,1-.45,16.79,87,87,0,0,1-2,9.34,73.74,73.74,0,0,1-9.7,21.21c-.24.37-.51.72-.74,1.09-.7,1.12-.68,1.52.22,2.66.54.69,1.11,1.36,1.69,2,.72.83,1.46,1.64,2.18,2.47l12.76,14.71.88,1a1.82,1.82,0,0,0,.51.36,1.6,1.6,0,0,0,.61.14h38.57a61.59,61.59,0,0,0,6.66-.5,47.83,47.83,0,0,0,18-6.07,35.89,35.89,0,0,0,18-30.39A45.33,45.33,0,0,0,656.66,388.74Zm-69.09-52h14.84c6.9,0,11.91,3.76,11.91,10.37s-5,10.36-11.91,10.36H587.57ZM611,406.27H587.57V383H611c7.77,0,13.29,4.11,13.29,11.61S618.81,406.27,611,406.27Z"/>
  <path class="cls-20" d="M576,446.9l-13-15c-4-4.55-8-9.06-11.92-13.68a18.87,18.87,0,0,1-2.09-2.58l-.64-.74c9.47-11.42,15-26.43,15-43.41,0-17.41-5.73-32.73-15.47-44.42a65.65,65.65,0,0,0-33.47-21.28c-1.52-.41-3.07-.78-4.64-1.1l-.41-.07c-.53-.11-1.07-.2-1.61-.3a81.32,81.32,0,0,0-9.61-1l-2.07-.06h-2c-.47,0-1,0-1.42,0l-1.06.05-1.39.07-1.89.14-.41,0a75.69,75.69,0,0,0-10,1.64,67.92,67.92,0,0,0-19,7.5l-.13.08a62.74,62.74,0,0,0-10,7.26,64.76,64.76,0,0,0-13.43,16.51c-.12.21-.23.41-.33.61-.35.66-.69,1.28-1,1.92l-.36.73c-.32.67-.65,1.35-1,2-.07.15-.14.3-.2.45a72,72,0,0,0-5.5,20.52c-.16,1.3-.27,2.63-.35,3.94,0,.28,0,.57-.05.85-.07,1.3-.11,2.6-.11,3.9v.07a76.16,76.16,0,0,0,.55,8.67,33.78,33.78,0,0,0,1.12,6.15c0,.36.05.72.07,1.08,5.56,25,24.1,43.64,49,49.65a75.32,75.32,0,0,0,46.33-3.65l3.25,3.65,9.51,10.69a1.64,1.64,0,0,0,.22.14h39.89a.36.36,0,0,0,.06-.27A2.29,2.29,0,0,0,576,446.9Zm-50.5-58.21L510.1,371l-24,20L501,407.81a35.29,35.29,0,0,1-6.07.53c-20,0-34-15.19-34-36.81,0-22,13.94-37.35,34-37.35s33.95,15.37,33.95,37.35a43,43,0,0,1-3.4,17.15Z"/>
  <path class="cls-20" d="M243.21,279.49a14.1,14.1,0,1,0-14.1-14.1A14.1,14.1,0,0,0,243.21,279.49Z"/>
  <path class="cls-20" d="M172.44,385.11A115.4,115.4,0,0,0,345,485.36V450.68A87,87,0,1,1,231.36,319V284.48A115.36,115.36,0,0,0,172.44,385.11Z"/>
  <path class="cls-20" d="M231.36,386.26c0,1.41.11,2.79.21,4.18A57,57,0,0,0,345,393.6V378.91a57,57,0,0,0-85.25-42V302.77A86.84,86.84,0,0,0,231.35,319Zm56.49-30.13a29,29,0,1,1-20.49,8.49A29,29,0,0,1,287.85,356.13Z"/>
  <path class="cls-20" d="M373.42,462.56A115.43,115.43,0,0,0,259.78,273.14v29.63a87,87,0,0,1,112,59.27c.67,2.42,1.23,4.89,1.68,7.39v93.13Z"/>
  <rect class="cls-21" x="0.45" y="185.48" width="1011" height="14"/>
  <path class="cls-22" d="M409.12,217.82a1.67,1.67,0,1,0-1.67-1.67A1.67,1.67,0,0,0,409.12,217.82Z"/>
  <path class="cls-22" d="M417.62,217.82a1.67,1.67,0,1,0-1.67-1.67A1.66,1.66,0,0,0,417.62,217.82Z"/>
  <path class="cls-22" d="M426.11,217.82a1.67,1.67,0,1,0-1.67-1.67A1.67,1.67,0,0,0,426.11,217.82Z"/>
  <path class="cls-22" d="M434.61,217.82a1.67,1.67,0,1,0-1.67-1.67A1.67,1.67,0,0,0,434.61,217.82Z"/>
  <path class="cls-22" d="M443.11,217.82a1.67,1.67,0,1,0-1.67-1.67A1.66,1.66,0,0,0,443.11,217.82Z"/>
  <path class="cls-22" d="M451.6,217.82a1.67,1.67,0,1,0-1.67-1.67A1.67,1.67,0,0,0,451.6,217.82Z"/>
  <path class="cls-22" d="M460.1,217.82a1.67,1.67,0,1,0-1.67-1.67A1.67,1.67,0,0,0,460.1,217.82Z"/>
  <path class="cls-22" d="M468.6,217.82a1.67,1.67,0,1,0-1.67-1.67A1.67,1.67,0,0,0,468.6,217.82Z"/>
  <path class="cls-22" d="M409.12,226.34a1.67,1.67,0,1,0-1.67-1.67A1.67,1.67,0,0,0,409.12,226.34Z"/>
  <path class="cls-22" d="M417.62,226.34a1.67,1.67,0,1,0-1.67-1.67A1.66,1.66,0,0,0,417.62,226.34Z"/>
  <path class="cls-22" d="M426.11,226.34a1.67,1.67,0,1,0-1.67-1.67A1.67,1.67,0,0,0,426.11,226.34Z"/>
  <path class="cls-22" d="M434.61,226.34a1.67,1.67,0,1,0-1.67-1.67A1.67,1.67,0,0,0,434.61,226.34Z"/>
  <path class="cls-22" d="M443.11,226.34a1.67,1.67,0,1,0-1.67-1.67A1.66,1.66,0,0,0,443.11,226.34Z"/>
  <path class="cls-22" d="M451.6,226.34a1.67,1.67,0,1,0-1.67-1.67A1.67,1.67,0,0,0,451.6,226.34Z"/>
  <path class="cls-22" d="M460.1,226.34a1.67,1.67,0,1,0-1.67-1.67A1.67,1.67,0,0,0,460.1,226.34Z"/>
  <path class="cls-22" d="M468.6,226.34a1.67,1.67,0,1,0-1.67-1.67A1.67,1.67,0,0,0,468.6,226.34Z"/>
  <path class="cls-22" d="M460.12,235.45a1.67,1.67,0,1,0-1.67-1.67A1.66,1.66,0,0,0,460.12,235.45Z"/>
  <path class="cls-22" d="M468.61,235.45a1.67,1.67,0,1,0-1.67-1.67A1.67,1.67,0,0,0,468.61,235.45Z"/>
  <path class="cls-22" d="M460.12,244a1.67,1.67,0,1,0-1.67-1.67A1.66,1.66,0,0,0,460.12,244Z"/>
  <path class="cls-22" d="M468.61,244a1.67,1.67,0,1,0-1.67-1.67A1.67,1.67,0,0,0,468.61,244Z"/>
  <path class="cls-22" d="M460.12,252.48a1.67,1.67,0,1,0-1.67-1.66A1.66,1.66,0,0,0,460.12,252.48Z"/>
  <path class="cls-22" d="M468.61,252.48a1.67,1.67,0,1,0-1.67-1.66A1.66,1.66,0,0,0,468.61,252.48Z"/>
  <path class="cls-22" d="M880.12,272.15a1.67,1.67,0,1,1-1.67,1.67A1.67,1.67,0,0,1,880.12,272.15Z"/>
  <path class="cls-22" d="M888.61,272.15a1.67,1.67,0,1,1-1.66,1.67A1.67,1.67,0,0,1,888.61,272.15Z"/>
  <path class="cls-22" d="M897.11,272.15a1.67,1.67,0,1,1-1.67,1.67A1.67,1.67,0,0,1,897.11,272.15Z"/>
  <path class="cls-22" d="M905.61,272.15a1.67,1.67,0,1,1-1.67,1.67A1.67,1.67,0,0,1,905.61,272.15Z"/>
  <path class="cls-22" d="M914.11,272.15a1.67,1.67,0,1,1-1.67,1.67A1.66,1.66,0,0,1,914.11,272.15Z"/>
  <path class="cls-22" d="M922.6,272.15a1.67,1.67,0,1,1-1.67,1.67A1.67,1.67,0,0,1,922.6,272.15Z"/>
  <path class="cls-22" d="M931.1,272.15a1.67,1.67,0,1,1-1.67,1.67A1.67,1.67,0,0,1,931.1,272.15Z"/>
  <path class="cls-22" d="M939.6,272.15a1.67,1.67,0,1,1-1.67,1.67A1.67,1.67,0,0,1,939.6,272.15Z"/>
  <path class="cls-22" d="M880.12,263.63a1.67,1.67,0,1,1-1.67,1.67A1.67,1.67,0,0,1,880.12,263.63Z"/>
  <path class="cls-22" d="M888.61,263.63A1.67,1.67,0,1,1,887,265.3,1.67,1.67,0,0,1,888.61,263.63Z"/>
  <path class="cls-22" d="M897.11,263.63a1.67,1.67,0,1,1-1.67,1.67A1.67,1.67,0,0,1,897.11,263.63Z"/>
  <path class="cls-22" d="M905.61,263.63a1.67,1.67,0,1,1-1.67,1.67A1.67,1.67,0,0,1,905.61,263.63Z"/>
  <path class="cls-22" d="M914.11,263.63a1.67,1.67,0,1,1-1.67,1.67A1.66,1.66,0,0,1,914.11,263.63Z"/>
  <path class="cls-22" d="M922.6,263.63a1.67,1.67,0,1,1-1.67,1.67A1.67,1.67,0,0,1,922.6,263.63Z"/>
  <path class="cls-22" d="M931.1,263.63a1.67,1.67,0,1,1-1.67,1.67A1.67,1.67,0,0,1,931.1,263.63Z"/>
  <path class="cls-22" d="M939.6,263.63a1.67,1.67,0,1,1-1.67,1.67A1.67,1.67,0,0,1,939.6,263.63Z"/>
  <path class="cls-22" d="M931.11,254.52a1.67,1.67,0,1,1-1.66,1.67A1.67,1.67,0,0,1,931.11,254.52Z"/>
  <path class="cls-22" d="M939.61,254.52a1.67,1.67,0,1,1-1.66,1.67A1.67,1.67,0,0,1,939.61,254.52Z"/>
  <path class="cls-22" d="M931.11,246a1.67,1.67,0,1,1-1.66,1.67A1.67,1.67,0,0,1,931.11,246Z"/>
  <path class="cls-22" d="M939.61,246a1.67,1.67,0,1,1-1.66,1.67A1.67,1.67,0,0,1,939.61,246Z"/>
  <path class="cls-22" d="M931.11,237.48a1.67,1.67,0,1,1-1.66,1.67A1.67,1.67,0,0,1,931.11,237.48Z"/>
  <path class="cls-22" d="M939.61,237.48a1.67,1.67,0,1,1-1.66,1.67A1.67,1.67,0,0,1,939.61,237.48Z"/>
  <path class="cls-22" d="M118.61,272.15a1.67,1.67,0,1,0,1.67,1.67A1.67,1.67,0,0,0,118.61,272.15Z"/>
  <path class="cls-22" d="M110.12,272.15a1.67,1.67,0,1,0,1.66,1.67A1.67,1.67,0,0,0,110.12,272.15Z"/>
  <path class="cls-22" d="M101.62,272.15a1.67,1.67,0,1,0,1.67,1.67A1.67,1.67,0,0,0,101.62,272.15Z"/>
  <path class="cls-22" d="M93.12,272.15a1.67,1.67,0,1,0,1.67,1.67A1.67,1.67,0,0,0,93.12,272.15Z"/>
  <path class="cls-22" d="M84.62,272.15a1.67,1.67,0,1,0,1.67,1.67A1.66,1.66,0,0,0,84.62,272.15Z"/>
  <path class="cls-22" d="M76.13,272.15a1.67,1.67,0,1,0,0,3.33,1.67,1.67,0,0,0,0-3.33Z"/>
  <path class="cls-22" d="M67.63,272.15a1.67,1.67,0,1,0,1.67,1.67A1.67,1.67,0,0,0,67.63,272.15Z"/>
  <path class="cls-22" d="M59.13,272.15a1.67,1.67,0,1,0,1.67,1.67A1.66,1.66,0,0,0,59.13,272.15Z"/>
  <path class="cls-22" d="M118.61,263.63a1.67,1.67,0,1,0,1.67,1.67A1.67,1.67,0,0,0,118.61,263.63Z"/>
  <path class="cls-22" d="M110.12,263.63a1.67,1.67,0,1,0,1.66,1.67A1.67,1.67,0,0,0,110.12,263.63Z"/>
  <path class="cls-22" d="M101.62,263.63a1.67,1.67,0,1,0,1.67,1.67A1.67,1.67,0,0,0,101.62,263.63Z"/>
  <path class="cls-22" d="M93.12,263.63a1.67,1.67,0,1,0,1.67,1.67A1.67,1.67,0,0,0,93.12,263.63Z"/>
  <path class="cls-22" d="M84.62,263.63a1.67,1.67,0,1,0,1.67,1.67A1.66,1.66,0,0,0,84.62,263.63Z"/>
  <path class="cls-22" d="M76.13,263.63a1.67,1.67,0,1,0,1.66,1.67A1.67,1.67,0,0,0,76.13,263.63Z"/>
  <path class="cls-22" d="M67.63,263.63a1.67,1.67,0,1,0,1.67,1.67A1.67,1.67,0,0,0,67.63,263.63Z"/>
  <path class="cls-22" d="M59.13,263.63a1.67,1.67,0,1,0,1.67,1.67A1.66,1.66,0,0,0,59.13,263.63Z"/>
  <path class="cls-22" d="M67.61,254.52a1.67,1.67,0,1,0,1.67,1.67A1.66,1.66,0,0,0,67.61,254.52Z"/>
  <path class="cls-22" d="M59.12,254.52a1.67,1.67,0,1,0,1.67,1.67A1.67,1.67,0,0,0,59.12,254.52Z"/>
  <path class="cls-22" d="M67.61,246a1.67,1.67,0,1,0,1.67,1.67A1.66,1.66,0,0,0,67.61,246Z"/>
  <path class="cls-22" d="M59.12,246a1.67,1.67,0,1,0,1.67,1.67A1.67,1.67,0,0,0,59.12,246Z"/>
  <path class="cls-22" d="M67.61,237.48a1.67,1.67,0,1,0,1.67,1.67A1.66,1.66,0,0,0,67.61,237.48Z"/>
  <path class="cls-22" d="M59.12,237.48a1.67,1.67,0,1,0,1.67,1.67A1.67,1.67,0,0,0,59.12,237.48Z"/>
  <path class="cls-22" d="M608.61,217.82a1.67,1.67,0,1,1,1.67-1.67A1.67,1.67,0,0,1,608.61,217.82Z"/>
  <path class="cls-22" d="M600.11,217.82a1.67,1.67,0,1,1,1.67-1.67A1.66,1.66,0,0,1,600.11,217.82Z"/>
  <path class="cls-22" d="M591.62,217.82a1.67,1.67,0,1,1,1.67-1.67A1.67,1.67,0,0,1,591.62,217.82Z"/>
  <path class="cls-22" d="M583.12,217.82a1.67,1.67,0,1,1,1.67-1.67A1.67,1.67,0,0,1,583.12,217.82Z"/>
  <path class="cls-22" d="M574.62,217.82a1.67,1.67,0,1,1,1.67-1.67A1.66,1.66,0,0,1,574.62,217.82Z"/>
  <path class="cls-22" d="M566.13,217.82a1.67,1.67,0,1,1,1.66-1.67A1.67,1.67,0,0,1,566.13,217.82Z"/>
  <path class="cls-22" d="M557.63,217.82a1.67,1.67,0,1,1,1.67-1.67A1.67,1.67,0,0,1,557.63,217.82Z"/>
  <path class="cls-22" d="M549.13,217.82a1.67,1.67,0,1,1,1.67-1.67A1.66,1.66,0,0,1,549.13,217.82Z"/>
  <path class="cls-22" d="M608.61,226.34a1.67,1.67,0,1,1,1.67-1.67A1.67,1.67,0,0,1,608.61,226.34Z"/>
  <path class="cls-22" d="M600.11,226.34a1.67,1.67,0,1,1,1.67-1.67A1.66,1.66,0,0,1,600.11,226.34Z"/>
  <path class="cls-22" d="M591.62,226.34a1.67,1.67,0,1,1,1.67-1.67A1.67,1.67,0,0,1,591.62,226.34Z"/>
  <path class="cls-22" d="M583.12,226.34a1.67,1.67,0,1,1,1.67-1.67A1.67,1.67,0,0,1,583.12,226.34Z"/>
  <path class="cls-22" d="M574.62,226.34a1.67,1.67,0,1,1,1.67-1.67A1.66,1.66,0,0,1,574.62,226.34Z"/>
  <path class="cls-22" d="M566.13,226.34a1.67,1.67,0,1,1,1.66-1.67A1.67,1.67,0,0,1,566.13,226.34Z"/>
  <path class="cls-22" d="M557.63,226.34a1.67,1.67,0,1,1,1.67-1.67A1.67,1.67,0,0,1,557.63,226.34Z"/>
  <path class="cls-22" d="M549.13,226.34a1.67,1.67,0,1,1,1.67-1.67A1.66,1.66,0,0,1,549.13,226.34Z"/>
  <path class="cls-22" d="M557.61,235.45a1.67,1.67,0,1,1,1.67-1.67A1.66,1.66,0,0,1,557.61,235.45Z"/>
  <path class="cls-22" d="M549.12,235.45a1.67,1.67,0,1,1,1.67-1.67A1.67,1.67,0,0,1,549.12,235.45Z"/>
  <path class="cls-22" d="M557.61,244a1.67,1.67,0,1,1,1.67-1.67A1.66,1.66,0,0,1,557.61,244Z"/>
  <path class="cls-22" d="M549.12,244a1.67,1.67,0,1,1,1.67-1.67A1.67,1.67,0,0,1,549.12,244Z"/>
  <path class="cls-22" d="M557.61,252.48a1.67,1.67,0,1,1,1.67-1.66A1.66,1.66,0,0,1,557.61,252.48Z"/>
  <path class="cls-22" d="M549.12,252.48a1.67,1.67,0,1,1,1.67-1.66A1.66,1.66,0,0,1,549.12,252.48Z"/>
</svg>
