<svg id="Layer_1" data-name="Layer 1" xmlns="http://www.w3.org/2000/svg" xmlns:xlink="http://www.w3.org/1999/xlink" viewBox="0 0 1012 637">
  <defs>
    <style>
      .cls-1 {
        fill: none;
      }

      .cls-2 {
        fill: url(#linear-gradient);
      }

      .cls-24, .cls-3 {
        opacity: 0.5;
      }

      .cls-11, .cls-24, .cls-27, .cls-3, .cls-6 {
        isolation: isolate;
      }

      .cls-3 {
        fill: url(#linear-gradient-2);
      }

      .cls-4 {
        fill: #228fcf;
      }

      .cls-5 {
        fill: #2f6db6;
      }

      .cls-6 {
        fill: #b2def2;
      }

      .cls-11, .cls-27, .cls-6 {
        opacity: 0.8;
      }

      .cls-7 {
        fill: url(#linear-gradient-3);
      }

      .cls-8 {
        fill: url(#linear-gradient-4);
      }

      .cls-9 {
        fill: #2a70b8;
      }

      .cls-10 {
        fill: #2752a4;
      }

      .cls-11 {
        fill: #2651a3;
      }

      .cls-12 {
        fill: #fff;
        fill-opacity: 0.2;
      }

      .cls-13 {
        clip-path: url(#clip-path);
      }

      .cls-14 {
        fill: #2e2c74;
      }

      .cls-15 {
        fill: #29bcb2;
      }

      .cls-16 {
        fill: url(#linear-gradient-5);
      }

      .cls-17 {
        fill: #2cbcb2;
      }

      .cls-18 {
        fill: url(#linear-gradient-6);
      }

      .cls-19 {
        fill: url(#linear-gradient-7);
      }

      .cls-20 {
        fill: url(#linear-gradient-8);
      }

      .cls-21 {
        fill: #333;
        fill-opacity: 0.3;
      }

      .cls-22 {
        fill: url(#linear-gradient-9);
      }

      .cls-23 {
        fill: url(#linear-gradient-10);
      }

      .cls-24 {
        fill: url(#linear-gradient-11);
      }

      .cls-25 {
        fill: url(#linear-gradient-12);
      }

      .cls-26 {
        fill: url(#linear-gradient-13);
      }

      .cls-27 {
        fill: #b9dff1;
      }

      .cls-28 {
        fill: url(#linear-gradient-14);
      }

      .cls-29 {
        fill: url(#linear-gradient-15);
      }
    </style>
    <linearGradient id="linear-gradient" x1="-456" y1="-2864.01" x2="-336.76" y2="-2820.62" gradientTransform="matrix(1, 0, 0, -1, 564, -2662)" gradientUnits="userSpaceOnUse">
      <stop offset="0" stop-color="#fff" stop-opacity="0"/>
      <stop offset="0.02" stop-color="#feffff" stop-opacity="0.03"/>
      <stop offset="0.58" stop-color="#d3eef7" stop-opacity="0.67"/>
      <stop offset="0.87" stop-color="#c4e8f5"/>
      <stop offset="1" stop-color="#c4e8f5"/>
    </linearGradient>
    <linearGradient id="linear-gradient-2" x1="-378.91" y1="-2721.81" x2="-15.86" y2="-2721.81" gradientTransform="matrix(1, 0, 0, -1, 564, -2662)" gradientUnits="userSpaceOnUse">
      <stop offset="0" stop-color="#fff" stop-opacity="0"/>
      <stop offset="0.01" stop-color="#fff" stop-opacity="0.02"/>
      <stop offset="0.28" stop-color="#dff2fa" stop-opacity="0.43"/>
      <stop offset="0.51" stop-color="#caebf5" stop-opacity="0.77"/>
      <stop offset="0.66" stop-color="#c4e8f5"/>
      <stop offset="1" stop-color="#c4e8f5"/>
    </linearGradient>
    <linearGradient id="linear-gradient-3" x1="-564" y1="-2840.61" x2="-293.58" y2="-2840.61" gradientTransform="matrix(1, 0, 0, -1, 564, -2662)" gradientUnits="userSpaceOnUse">
      <stop offset="0" stop-color="#fff" stop-opacity="0"/>
      <stop offset="0.37" stop-color="#feffff" stop-opacity="0.43"/>
      <stop offset="0.54" stop-color="#f6fbfd" stop-opacity="0.63"/>
      <stop offset="0.67" stop-color="#eaf7fd" stop-opacity="0.77"/>
      <stop offset="0.78" stop-color="#d9f0f8" stop-opacity="0.9"/>
      <stop offset="0.87" stop-color="#c4e8f5"/>
      <stop offset="1" stop-color="#c4e8f5"/>
    </linearGradient>
    <linearGradient id="linear-gradient-4" x1="-557.24" y1="-2988.49" x2="-351.82" y2="-2833.74" gradientTransform="matrix(1, 0, 0, -1, 564, -2662)" gradientUnits="userSpaceOnUse">
      <stop offset="0" stop-color="#fff" stop-opacity="0"/>
      <stop offset="0.21" stop-color="#fdfeff" stop-opacity="0.21"/>
      <stop offset="0.34" stop-color="#f4f8fd" stop-opacity="0.34"/>
      <stop offset="0.46" stop-color="#e5eff9" stop-opacity="0.46"/>
      <stop offset="0.56" stop-color="#cfe3f5" stop-opacity="0.56"/>
      <stop offset="0.66" stop-color="#b5d3ef" stop-opacity="0.66"/>
      <stop offset="0.75" stop-color="#93bfe6" stop-opacity="0.75"/>
      <stop offset="0.84" stop-color="#6ca6d9" stop-opacity="0.84"/>
      <stop offset="0.92" stop-color="#448ac9" stop-opacity="0.92"/>
      <stop offset="0.99" stop-color="#2f6db6" stop-opacity="0.99"/>
      <stop offset="1" stop-color="#2e6bb4"/>
    </linearGradient>
    <clipPath id="clip-path">
      <rect class="cls-1" x="22.98" y="374.21" width="99.89" height="99.92"/>
    </clipPath>
    <linearGradient id="linear-gradient-5" x1="231.52" y1="-2713.25" x2="219.95" y2="-2777.91" gradientTransform="matrix(1, 0, 0, -1, 564, -2662)" gradientUnits="userSpaceOnUse">
      <stop offset="0" stop-color="#243469"/>
      <stop offset="0.1" stop-color="#243469"/>
      <stop offset="0.23" stop-color="#24366a"/>
      <stop offset="0.27" stop-color="#213e6e"/>
      <stop offset="0.3" stop-color="#224573"/>
      <stop offset="0.43" stop-color="#214c76"/>
      <stop offset="0.45" stop-color="#22527a"/>
      <stop offset="0.71" stop-color="#208a98"/>
      <stop offset="0.9" stop-color="#1baeac"/>
      <stop offset="1" stop-color="#1ebbb3"/>
    </linearGradient>
    <linearGradient id="linear-gradient-6" x1="127.64" y1="-2706.72" x2="127.64" y2="-2786.4" gradientTransform="matrix(1, 0, 0, -1, 564, -2662)" gradientUnits="userSpaceOnUse">
      <stop offset="0" stop-color="#1ebbb3"/>
      <stop offset="0.11" stop-color="#1db4af"/>
      <stop offset="0.27" stop-color="#1ea3a6"/>
      <stop offset="0.45" stop-color="#228796"/>
      <stop offset="0.64" stop-color="#225f81"/>
      <stop offset="0.82" stop-color="#243469"/>
      <stop offset="1" stop-color="#243469"/>
    </linearGradient>
    <linearGradient id="linear-gradient-7" x1="138.35" y1="-2713.46" x2="138.35" y2="-2765.32" xlink:href="#linear-gradient-6"/>
    <linearGradient id="linear-gradient-8" x1="154.1" y1="-2701.27" x2="154.1" y2="-2772.39" xlink:href="#linear-gradient-6"/>
    <linearGradient id="linear-gradient-9" x1="212.74" y1="-3299" x2="212.74" y2="-2996.05" gradientTransform="matrix(1, 0, 0, -1, 564, -2662)" gradientUnits="userSpaceOnUse">
      <stop offset="0" stop-color="#fff" stop-opacity="0"/>
      <stop offset="0.21" stop-color="#f0f4f9" stop-opacity="0.21"/>
      <stop offset="0.63" stop-color="#c7d7ea" stop-opacity="0.63"/>
      <stop offset="0.7" stop-color="#bfd0e7" stop-opacity="0.7"/>
      <stop offset="1" stop-color="#bfd0e7"/>
    </linearGradient>
    <linearGradient id="linear-gradient-10" x1="326.01" y1="-3068.69" x2="191.23" y2="-3117.2" xlink:href="#linear-gradient"/>
    <linearGradient id="linear-gradient-11" x1="238.9" y1="-3230.25" x2="-170.43" y2="-3230.25" xlink:href="#linear-gradient-2"/>
    <linearGradient id="linear-gradient-12" x1="447.59" y1="-3094.83" x2="142.7" y2="-3094.83" xlink:href="#linear-gradient-3"/>
    <linearGradient id="linear-gradient-13" x1="440.75" y1="-2927.32" x2="207.05" y2="-3101.46" xlink:href="#linear-gradient-4"/>
    <linearGradient id="linear-gradient-14" x1="441.18" y1="-2892.9" x2="316.39" y2="-2709.96" gradientTransform="matrix(1, 0, 0, -1, 564, -2662)" gradientUnits="userSpaceOnUse">
      <stop offset="0" stop-color="#fff" stop-opacity="0"/>
      <stop offset="0.22" stop-color="#f7fbfe" stop-opacity="0.22"/>
      <stop offset="0.55" stop-color="#e2ecf8" stop-opacity="0.55"/>
      <stop offset="0.96" stop-color="#c0d8f0" stop-opacity="0.96"/>
      <stop offset="1" stop-color="#bdd5ef"/>
    </linearGradient>
    <linearGradient id="linear-gradient-15" x1="473.22" y1="-2947.26" x2="346.81" y2="-2730.76" gradientTransform="matrix(1, 0, 0, -1, 564, -2662)" gradientUnits="userSpaceOnUse">
      <stop offset="0" stop-color="#fff" stop-opacity="0"/>
      <stop offset="0.42" stop-color="#dce8f6" stop-opacity="0.42"/>
      <stop offset="0.78" stop-color="#c4d9f0" stop-opacity="0.78"/>
      <stop offset="1" stop-color="#bdd5ef"/>
    </linearGradient>
  </defs>
  <path class="cls-2" d="M222.54,145.71c-5.11,15-9.86,30.34-15,45.33a29.86,29.86,0,0,1-28.14,20.47h-68a30.69,30.69,0,0,0,28.13-18.64c6.95-15.72,13.52-31.44,20.47-47.16Z"/>
  <path class="cls-3" d="M529.14,32.4c-4.39,7.31-8.77,14.62-12.79,22.3A65.54,65.54,0,0,1,459.7,87.23h-156l28.5-54.83Z"/>
  <path class="cls-4" d="M577.37-.5a32.75,32.75,0,0,1-32.89,32.9H331.81L303.3,87.23Q295.64,102,288,116.84a53.67,53.67,0,0,1-47.5,28.87H192.58c6.58-19.37,12.79-39.11,19.37-58.48C221.81,58,231.31,28.74,241.18-.5Z"/>
  <path class="cls-5" d="M116.94-.5,56.64,145.71H0V-.5Z"/>
  <path class="cls-6" d="M61,211.51H0v-65.8H56.64l-15,36.56A21.18,21.18,0,0,0,61,211.51Z"/>
  <path class="cls-7" d="M192.58,145.71l-21.93,65.8H111.46a30.69,30.69,0,0,0,28.13-18.64c6.95-15.72,13.52-31.44,20.47-47.16Z"/>
  <path class="cls-8" d="M192.58,145.71l-21.93,65.8c-12.05,36.56-24.11,73.11-36.54,109.66C89.53,320.08,45,318.61,0,317.52c13.16-35.46,26-70.55,39.1-106h72.36a30.69,30.69,0,0,0,28.13-18.64c6.95-15.72,13.52-31.44,20.47-47.16Z"/>
  <path class="cls-9" d="M241.18-.5C231.31,28.74,221.81,58,212,87.23c-6.58,19.37-12.79,39.11-19.37,58.48H159.69C168.46,127.8,205.73,26.18,212-.5Z"/>
  <path class="cls-10" d="M212-.5c-5.12,23-42,126.11-51.89,146.21H56.64L116.94-.5Z"/>
  <path class="cls-11" d="M160.06,145.71c-6.95,15.72-13.52,31.44-20.47,47.16a30.69,30.69,0,0,1-28.13,18.64H61a21.07,21.07,0,0,1-18.28-10.6,21.64,21.64,0,0,1-1.46-19l15-36.55H160.06Z"/>
  <rect class="cls-12" x="0.5" y="-0.5" width="1011" height="638"/>
  <g class="cls-13">
    <g>
      <path class="cls-14" d="M25.74,468.83a2.65,2.65,0,1,1-2.65,2.65A2.65,2.65,0,0,1,25.74,468.83Z"/>
      <path class="cls-14" d="M39.22,468.83a2.65,2.65,0,1,1-2.65,2.65A2.65,2.65,0,0,1,39.22,468.83Z"/>
      <path class="cls-14" d="M52.7,468.83a2.65,2.65,0,1,1-2.65,2.65A2.65,2.65,0,0,1,52.7,468.83Z"/>
      <path class="cls-14" d="M66.18,468.83a2.65,2.65,0,1,1-2.65,2.65A2.65,2.65,0,0,1,66.18,468.83Z"/>
      <path class="cls-14" d="M79.66,468.83A2.65,2.65,0,1,1,77,471.48,2.65,2.65,0,0,1,79.66,468.83Z"/>
      <path class="cls-14" d="M93.14,468.83a2.65,2.65,0,1,1-2.64,2.65A2.65,2.65,0,0,1,93.14,468.83Z"/>
      <path class="cls-14" d="M106.62,468.83a2.65,2.65,0,1,1-2.64,2.65A2.65,2.65,0,0,1,106.62,468.83Z"/>
      <path class="cls-14" d="M120.11,468.83a2.65,2.65,0,1,1-2.65,2.65A2.65,2.65,0,0,1,120.11,468.83Z"/>
      <path class="cls-14" d="M25.74,455.32A2.65,2.65,0,1,1,23.09,458,2.64,2.64,0,0,1,25.74,455.32Z"/>
      <path class="cls-14" d="M39.22,455.32A2.65,2.65,0,1,1,36.57,458,2.64,2.64,0,0,1,39.22,455.32Z"/>
      <path class="cls-14" d="M52.7,455.32A2.65,2.65,0,1,1,50.05,458,2.64,2.64,0,0,1,52.7,455.32Z"/>
      <path class="cls-14" d="M66.18,455.32A2.65,2.65,0,1,1,63.53,458,2.65,2.65,0,0,1,66.18,455.32Z"/>
      <path class="cls-14" d="M79.66,455.32A2.65,2.65,0,1,1,77,458,2.65,2.65,0,0,1,79.66,455.32Z"/>
      <path class="cls-14" d="M93.14,455.32A2.65,2.65,0,1,1,90.5,458,2.65,2.65,0,0,1,93.14,455.32Z"/>
      <path class="cls-14" d="M106.62,455.32A2.65,2.65,0,1,1,104,458,2.65,2.65,0,0,1,106.62,455.32Z"/>
      <path class="cls-14" d="M120.11,455.32a2.65,2.65,0,1,1-2.65,2.64A2.64,2.64,0,0,1,120.11,455.32Z"/>
      <path class="cls-14" d="M25.74,441.8a2.65,2.65,0,1,1-2.65,2.64A2.64,2.64,0,0,1,25.74,441.8Z"/>
      <path class="cls-14" d="M39.22,441.8a2.65,2.65,0,1,1-2.65,2.64A2.64,2.64,0,0,1,39.22,441.8Z"/>
      <path class="cls-14" d="M52.7,441.8a2.65,2.65,0,1,1-2.65,2.64A2.64,2.64,0,0,1,52.7,441.8Z"/>
      <path class="cls-14" d="M66.18,441.8a2.65,2.65,0,1,1-2.65,2.64A2.65,2.65,0,0,1,66.18,441.8Z"/>
      <path class="cls-14" d="M79.66,441.8A2.65,2.65,0,1,1,77,444.44,2.65,2.65,0,0,1,79.66,441.8Z"/>
      <path class="cls-14" d="M93.14,441.8a2.65,2.65,0,1,1-2.64,2.64A2.65,2.65,0,0,1,93.14,441.8Z"/>
      <path class="cls-14" d="M106.62,441.8a2.65,2.65,0,1,1-2.64,2.64A2.65,2.65,0,0,1,106.62,441.8Z"/>
      <path class="cls-14" d="M120.11,441.8a2.65,2.65,0,1,1-2.65,2.64A2.64,2.64,0,0,1,120.11,441.8Z"/>
      <path class="cls-14" d="M25.74,428.28a2.65,2.65,0,1,1-2.65,2.65A2.64,2.64,0,0,1,25.74,428.28Z"/>
      <path class="cls-14" d="M39.22,428.28a2.65,2.65,0,1,1-2.65,2.65A2.64,2.64,0,0,1,39.22,428.28Z"/>
      <path class="cls-14" d="M52.7,428.28a2.65,2.65,0,1,1-2.65,2.65A2.64,2.64,0,0,1,52.7,428.28Z"/>
      <path class="cls-14" d="M25.74,414.76a2.65,2.65,0,1,1-2.65,2.65A2.65,2.65,0,0,1,25.74,414.76Z"/>
      <path class="cls-14" d="M39.22,414.76a2.65,2.65,0,1,1-2.65,2.65A2.65,2.65,0,0,1,39.22,414.76Z"/>
      <path class="cls-14" d="M52.7,414.76a2.65,2.65,0,1,1-2.65,2.65A2.65,2.65,0,0,1,52.7,414.76Z"/>
      <path class="cls-14" d="M25.74,401.24a2.65,2.65,0,1,1-2.65,2.65A2.65,2.65,0,0,1,25.74,401.24Z"/>
      <path class="cls-14" d="M39.22,401.24a2.65,2.65,0,1,1-2.65,2.65A2.65,2.65,0,0,1,39.22,401.24Z"/>
      <path class="cls-14" d="M52.7,401.24a2.65,2.65,0,1,1-2.65,2.65A2.65,2.65,0,0,1,52.7,401.24Z"/>
      <path class="cls-14" d="M25.74,387.72a2.65,2.65,0,1,1-2.65,2.65A2.65,2.65,0,0,1,25.74,387.72Z"/>
      <path class="cls-14" d="M39.22,387.72a2.65,2.65,0,1,1-2.65,2.65A2.65,2.65,0,0,1,39.22,387.72Z"/>
      <path class="cls-14" d="M52.7,387.72a2.65,2.65,0,1,1-2.65,2.65A2.65,2.65,0,0,1,52.7,387.72Z"/>
      <path class="cls-14" d="M25.74,374.21a2.65,2.65,0,1,1-2.65,2.64A2.64,2.64,0,0,1,25.74,374.21Z"/>
      <path class="cls-14" d="M39.22,374.21a2.65,2.65,0,1,1-2.65,2.64A2.64,2.64,0,0,1,39.22,374.21Z"/>
      <path class="cls-14" d="M52.7,374.21a2.65,2.65,0,1,1-2.65,2.64A2.64,2.64,0,0,1,52.7,374.21Z"/>
    </g>
  </g>
  <path class="cls-14" d="M78.48,49.3v14h-7.7A15.65,15.65,0,0,1,67.36,63a3.6,3.6,0,0,1-3.14-3.18,21,21,0,0,1,0-6.95,4.3,4.3,0,0,1,1-2.2,4.11,4.11,0,0,1,2.1-1,16.36,16.36,0,0,1,3.42-.3ZM74.37,54H69.59a1.4,1.4,0,0,0-1,.27,1.12,1.12,0,0,0-.25.4,1.07,1.07,0,0,0-.06.47v2.38a1.1,1.1,0,0,0,.07.44,1,1,0,0,0,.24.38,1.41,1.41,0,0,0,1,.29h4.78Z"/>
  <path class="cls-14" d="M81.36,63.27V58.59H90a19.53,19.53,0,0,0-.69-2.6,5.82,5.82,0,0,0-.81-1.59,2.32,2.32,0,0,0-1.07-.81,4.57,4.57,0,0,0-1.51-.22,12.32,12.32,0,0,0-1.61.11,14.14,14.14,0,0,0-1.56.27l-1.11-4.57a12.86,12.86,0,0,1,2-.38,18.58,18.58,0,0,1,2.24-.14,13.44,13.44,0,0,1,2.83.27,5.14,5.14,0,0,1,2.08,1,6,6,0,0,1,1.58,1.9,16.07,16.07,0,0,1,1.3,3.15c.4,1.27.82,2.84,1.25,4.69v3.64Z"/>
  <path class="cls-14" d="M104.06,63.27a8,8,0,0,1-2.7-.4,4,4,0,0,1-1.83-1.27,6.25,6.25,0,0,1-1-2.3,14.47,14.47,0,0,1-.35-3.41,10.86,10.86,0,0,1,.43-3.21,5.09,5.09,0,0,1,1.28-2.17,5,5,0,0,1,2.2-1.22,12.11,12.11,0,0,1,3.33-.41,24.57,24.57,0,0,1,3.74.25,15,15,0,0,1,3.1.87v8.57L110,63.27Zm2.84-4.7a1,1,0,0,0,.51,0,1.17,1.17,0,0,0,.44-.26,1.11,1.11,0,0,0,.25-.45,1.1,1.1,0,0,0,0-.51V53.62h-3.92a2.34,2.34,0,0,0-1.3.25,1.13,1.13,0,0,0-.29.45,1.28,1.28,0,0,0-.06.55v3.72Zm-1.11,13L103,68.48a14,14,0,0,0,2-2.16,14.51,14.51,0,0,0,1.62-2.53,14.25,14.25,0,0,0,1-2.6,9.61,9.61,0,0,0,.36-2.61h4.15a14.1,14.1,0,0,1-.47,3.48,18.72,18.72,0,0,1-1.34,3.47,22.51,22.51,0,0,1-2,3.26,18.71,18.71,0,0,1-2.61,2.8Z"/>
  <path class="cls-14" d="M115.09,63.27V58.59h8.65a21.14,21.14,0,0,0-.68-2.6,6.14,6.14,0,0,0-.82-1.59,2.32,2.32,0,0,0-1.07-.81,4.51,4.51,0,0,0-1.5-.22,12.36,12.36,0,0,0-1.62.11,13.58,13.58,0,0,0-1.55.27l-1.12-4.57a12.86,12.86,0,0,1,2-.38,18.62,18.62,0,0,1,2.25-.14,13.41,13.41,0,0,1,2.82.27,5.39,5.39,0,0,1,2.09,1,6.44,6.44,0,0,1,1.58,1.9,16,16,0,0,1,1.29,3.15c.41,1.27.82,2.84,1.25,4.69v3.64Zm12.63-4.68h2.93v4.68h-2.93Z"/>
  <path class="cls-14" d="M140.75,54.21l3.85,1.32A13.84,13.84,0,0,1,143,59.12a8.56,8.56,0,0,1-4.91,3.74,10.71,10.71,0,0,1-3.08.43h-5.61v-4.7h6.08a5.49,5.49,0,0,0,2.08-.36,4.27,4.27,0,0,0,1.48-1,6,6,0,0,0,1-1.38A8.33,8.33,0,0,0,140.75,54.21Zm5.43,4.35h2.32v4.71h-3.06a2.5,2.5,0,0,1-1.5-.4,2.59,2.59,0,0,1-.9-1.26L141.33,57A5.5,5.5,0,0,0,140.21,55,4,4,0,0,0,138.49,54a8.28,8.28,0,0,0-2.67-.35h-1.64a16.66,16.66,0,0,0-1.87.17l-.62-4.64c.76-.1,1.48-.17,2.17-.22s1.33-.08,1.94-.08a12.41,12.41,0,0,1,4.35.67,7.24,7.24,0,0,1,3,2.07,11.39,11.39,0,0,1,1.95,3.63Z"/>
  <path class="cls-14" d="M159.79,48.88a9.93,9.93,0,0,1,3.42.51A3.66,3.66,0,0,1,165.15,51a5.6,5.6,0,0,1,.61,2.78v9.51H147.27V58.59h14.37V53.76a7.08,7.08,0,0,0-1-.11h-1.3a21.55,21.55,0,0,0-2.79.18,20.78,20.78,0,0,0-2.91.57L152,50.25a16.47,16.47,0,0,1,2.5-.78,23,23,0,0,1,2.61-.45A26.33,26.33,0,0,1,159.79,48.88Zm-7.22,13a5.52,5.52,0,0,1-1.21-2.53,17,17,0,0,1-.31-3.42,13.72,13.72,0,0,1,.27-2.86c.17-.87.41-1.84.7-2.83l4.28.92c-.34,1-.59,1.79-.79,2.52a8.53,8.53,0,0,0-.3,2.25c0,.66,0,1.31.09,2a7.61,7.61,0,0,0,.29,1.42,7.29,7.29,0,0,0,.56,1.2Zm13.21-3.3h2.84v4.66h-2.84Z"/>
  <path class="cls-14" d="M176,63.27h-8.56V58.59h4.46V44.54h4.13Z"/>
  <path class="cls-14" d="M180.56,63.27V44.54h4.13V63.27Z"/>
  <path class="cls-14" d="M202.77,70.44a19.43,19.43,0,0,1-3.88-.33A4.8,4.8,0,0,1,196.52,69a4.23,4.23,0,0,1-1.19-2.23,15.28,15.28,0,0,1-.34-3.57c0-.74,0-1.47.1-2.19s.17-1.44.3-2.15a14.49,14.49,0,0,1,.51-2l4.08.66c-.23.87-.44,1.69-.6,2.5a11.47,11.47,0,0,0-.26,2.41,14.16,14.16,0,0,0,.07,1.81,8.44,8.44,0,0,0,.23,1.52h4.2a6.19,6.19,0,0,0,2.3-.31,1.22,1.22,0,0,0,.58-.5,1.25,1.25,0,0,0,.16-.76v-4h4.14v3.25a16.26,16.26,0,0,1-.3,3.48A4.1,4.1,0,0,1,209.33,69a5.06,5.06,0,0,1-2.43,1.11A21.18,21.18,0,0,1,202.77,70.44Zm18.33-7.17V54a7.1,7.1,0,0,0-1.38-.23c-.6-.06-1.3-.09-2.09-.09a7.27,7.27,0,0,0-5.13,1.61,6.37,6.37,0,0,0-1.37,2.2,6.3,6.3,0,0,0-.34,2.58h-4.14V49.3h4.14v4.17a6.59,6.59,0,0,1,1.89-2.36,9.24,9.24,0,0,1,3-1.56A12.33,12.33,0,0,1,219.4,49a10.93,10.93,0,0,1,3.51.46,3.12,3.12,0,0,1,1.06.61,3.21,3.21,0,0,1,.74,1,7.65,7.65,0,0,1,.53,3.1v9.12Zm2.17-4.7,2,4.7H209V58.59Zm2,0h2.87v4.7h-2.87Z"/>
  <path class="cls-14" d="M238.26,54.21l3.84,1.32a13.69,13.69,0,0,1-1.57,3.59,8.4,8.4,0,0,1-4.91,3.75,10.38,10.38,0,0,1-3.08.44h-5.6V58.59H233a5.31,5.31,0,0,0,2.08-.36,4.41,4.41,0,0,0,1.49-1,6.28,6.28,0,0,0,1-1.38A9.78,9.78,0,0,0,238.26,54.21Zm5.43,4.35H246v4.71H243a2.21,2.21,0,0,1-2.37-1.66L238.82,57A5.21,5.21,0,0,0,237.7,55,4,4,0,0,0,235.94,54a8.25,8.25,0,0,0-2.66-.35h-1.64a17.23,17.23,0,0,0-1.89.17l-.61-4.64c.77-.1,1.49-.17,2.17-.22s1.33-.08,1.93-.08a12.39,12.39,0,0,1,4.36.67,7,7,0,0,1,3,2.07,10.83,10.83,0,0,1,1.95,3.63Z"/>
  <path class="cls-14" d="M244.77,58.59h4.28a18.5,18.5,0,0,1-.39-1.87,14.16,14.16,0,0,1-.13-2.06,7.47,7.47,0,0,1,.41-2.61,4.18,4.18,0,0,1,1.3-1.8,5.56,5.56,0,0,1,2.25-1.06,13.88,13.88,0,0,1,3.34-.34,23.11,23.11,0,0,1,3.62.25,16.21,16.21,0,0,1,3.21.87v13.3H244.77Zm12.59,0a1.23,1.23,0,0,0,.92-.27,1.45,1.45,0,0,0,.25-1V53.62h-4.38a1.3,1.3,0,0,0-.93.26,1.39,1.39,0,0,0-.26,1v3.72Zm-1.5-12.74a1.7,1.7,0,0,1-1-.41,4.33,4.33,0,0,1-.95-1,1.84,1.84,0,0,1-.39-1,1.64,1.64,0,0,1,.39-1,5.12,5.12,0,0,1,.93-.93,1.63,1.63,0,0,1,.94-.4,1.78,1.78,0,0,1,1,.4,5.12,5.12,0,0,1,.93.93,1.67,1.67,0,0,1,.4,1,1.62,1.62,0,0,1-.42,1,4.93,4.93,0,0,1-.93,1A1.59,1.59,0,0,1,255.86,45.85Zm6.8,12.71h2.85v4.71h-2.85Z"/>
  <path class="cls-14" d="M272.93,58.59h2.85v4.68H264.34V58.59h4.46V44.54h4.13Z"/>
  <path class="cls-14" d="M283.2,63.27h-8.56V58.59h4.46V44.54h4.14Z"/>
  <path class="cls-14" d="M308.16,49.3v14h-7.71A15.76,15.76,0,0,1,297,63a3.71,3.71,0,0,1-3.13-3.18,16.89,16.89,0,0,1-.29-3.47,16.92,16.92,0,0,1,.29-3.48,4.31,4.31,0,0,1,1-2.13,4.15,4.15,0,0,1,2.1-1,16.42,16.42,0,0,1,3.42-.3Zm-9.25-3.48a1.68,1.68,0,0,1-1-.4,4.33,4.33,0,0,1-.94-1,1.84,1.84,0,0,1-.39-1,1.64,1.64,0,0,1,.39-1,4.82,4.82,0,0,1,.93-.93,1.63,1.63,0,0,1,.94-.4,1.67,1.67,0,0,1,1,.4,4.51,4.51,0,0,1,.92.93,1.71,1.71,0,0,1,.4,1,1.67,1.67,0,0,1-.41,1,5.7,5.7,0,0,1-.94,1,1.64,1.64,0,0,1-1,.44ZM304.05,54h-4.78a1.35,1.35,0,0,0-.95.28,1,1,0,0,0-.31.87v2.38a1.09,1.09,0,0,0,.06.44,1.05,1.05,0,0,0,.25.37,1.32,1.32,0,0,0,.95.29H304Zm.12-8.16a1.68,1.68,0,0,1-.95-.4,3.94,3.94,0,0,1-.94-1,1.77,1.77,0,0,1-.4-1,1.69,1.69,0,0,1,.4-1,4.8,4.8,0,0,1,.89-.91,1.63,1.63,0,0,1,.94-.4,1.8,1.8,0,0,1,1,.4,5.12,5.12,0,0,1,.93.93,1.34,1.34,0,0,1,.29.45,1.36,1.36,0,0,1,.11.53,1.31,1.31,0,0,1-.11.52,1.34,1.34,0,0,1-.29.45,5.28,5.28,0,0,1-.94,1,1.54,1.54,0,0,1-.92.42Z"/>
  <path class="cls-14" d="M311,63.27V58.59h8.66A18.15,18.15,0,0,0,319,56a5.53,5.53,0,0,0-.8-1.59,2.38,2.38,0,0,0-1.07-.81,4.57,4.57,0,0,0-1.51-.22,12.6,12.6,0,0,0-1.62.11,13.41,13.41,0,0,0-1.54.27l-1.13-4.57a13,13,0,0,1,2.05-.38,18.58,18.58,0,0,1,2.24-.14,13.44,13.44,0,0,1,2.83.27,5.41,5.41,0,0,1,2.08,1,6.33,6.33,0,0,1,1.59,1.9,17,17,0,0,1,1.29,3.15c.4,1.27.82,2.84,1.24,4.69v3.64Z"/>
  <path class="cls-14" d="M333.74,63.27a8,8,0,0,1-2.7-.4,3.9,3.9,0,0,1-1.83-1.27,6.08,6.08,0,0,1-1-2.3,13.44,13.44,0,0,1-.35-3.41,10.23,10.23,0,0,1,.42-3.21,4.79,4.79,0,0,1,3.52-3.41,12.11,12.11,0,0,1,3.33-.41,24.44,24.44,0,0,1,3.73.26,14.56,14.56,0,0,1,3.1.86v8.58l-2.26,4.71Zm2.81-4.68a1,1,0,0,0,1.2-1.22V53.62h-3.93a2.31,2.31,0,0,0-1.29.25,1.13,1.13,0,0,0-.29.45,1.28,1.28,0,0,0-.06.55v3.72Zm-1.12,13-2.72-3.14a14,14,0,0,0,2.06-2.16,15.73,15.73,0,0,0,1.61-2.53,14,14,0,0,0,1-2.6,10,10,0,0,0,.37-2.61h4.13a13.15,13.15,0,0,1-.47,3.48,17.18,17.18,0,0,1-1.34,3.47,21.42,21.42,0,0,1-2,3.26,19.25,19.25,0,0,1-2.61,2.8Zm4.7-13h5v4.68h-4.89Z"/>
  <path class="cls-14" d="M355.21,54.21l3.84,1.32a13.81,13.81,0,0,1-1.56,3.59,8.53,8.53,0,0,1-4.92,3.74,10.71,10.71,0,0,1-3.08.43h-5.6v-4.7H350a5.55,5.55,0,0,0,2.09-.36,4.37,4.37,0,0,0,1.48-1,6.2,6.2,0,0,0,1-1.38A9.78,9.78,0,0,0,355.21,54.21Zm5.43,4.35H363v4.71H359.9a2.21,2.21,0,0,1-2.36-1.66L355.79,57A5.68,5.68,0,0,0,354.66,55,3.93,3.93,0,0,0,353,54a8.35,8.35,0,0,0-2.67-.35h-1.64a16.83,16.83,0,0,0-1.88.17l-.61-4.64c.75-.1,1.48-.17,2.16-.22s1.33-.08,1.94-.08a12.37,12.37,0,0,1,4.35.67,7.18,7.18,0,0,1,3,2.07,11.19,11.19,0,0,1,1.95,3.63Zm-7.19,11.72a1.68,1.68,0,0,1-.95-.4,3.94,3.94,0,0,1-.94-1,1.77,1.77,0,0,1-.4-1,1.72,1.72,0,0,1,.4-1,5,5,0,0,1,.92-.92,1.38,1.38,0,0,1,1.94,0,5.13,5.13,0,0,1,1,1,1.74,1.74,0,0,1,.4,1,1.65,1.65,0,0,1-.42.94,4.75,4.75,0,0,1-.94,1,1.61,1.61,0,0,1-1,.42Z"/>
  <path class="cls-14" d="M370.32,63.27h-8.56V58.59h4.45V44.54h4.14Z"/>
  <path class="cls-14" d="M374.84,63.27V44.54H379V63.27Z"/>
  <path class="cls-14" d="M403.93,49.3v14h-7.7a15.7,15.7,0,0,1-3.42-.29,3.71,3.71,0,0,1-3.13-3.18,16.22,16.22,0,0,1-.29-3.47,16.25,16.25,0,0,1,.29-3.48,4.23,4.23,0,0,1,1-2.13,4.08,4.08,0,0,1,2.09-1,16.36,16.36,0,0,1,3.42-.3Zm-9.24-3.48a1.71,1.71,0,0,1-1-.4,4.28,4.28,0,0,1-.93-1,1.69,1.69,0,0,1-.39-1,1.61,1.61,0,0,1,.39-1,4.82,4.82,0,0,1,.93-.93,1.6,1.6,0,0,1,.93-.4,1.7,1.7,0,0,1,1,.4,4.51,4.51,0,0,1,.92.93,1.32,1.32,0,0,1,.3.44,1.33,1.33,0,0,1,0,1.06,1.32,1.32,0,0,1-.3.44,5.29,5.29,0,0,1-.93,1,1.58,1.58,0,0,1-1,.44ZM399.83,54H395a1.37,1.37,0,0,0-1,.28,1,1,0,0,0-.25.4,1.07,1.07,0,0,0,0,.47v2.38a1.09,1.09,0,0,0,.06.44,1,1,0,0,0,.24.37,1.32,1.32,0,0,0,1,.29h4.79Zm.12-8.16a1.69,1.69,0,0,1-1-.4,4.12,4.12,0,0,1-.94-1,1.77,1.77,0,0,1-.4-1,1.62,1.62,0,0,1,.4-1,4.51,4.51,0,0,1,.92-.93,1.38,1.38,0,0,1,1.94,0,4.51,4.51,0,0,1,.92.93,1.36,1.36,0,0,1,0,1.94,5.34,5.34,0,0,1-.94,1,1.65,1.65,0,0,1-.93.44Z"/>
  <path class="cls-14" d="M406.8,63.27V58.59h8.66a16.89,16.89,0,0,0-.69-2.6,6.25,6.25,0,0,0-.8-1.59,2.43,2.43,0,0,0-1.07-.81,4.63,4.63,0,0,0-1.52-.22,12.44,12.44,0,0,0-1.61.11,14.14,14.14,0,0,0-1.56.27l-1.11-4.57a12.86,12.86,0,0,1,2-.38,18.58,18.58,0,0,1,2.24-.14,13.44,13.44,0,0,1,2.83.27,5.28,5.28,0,0,1,2.08,1,5.89,5.89,0,0,1,1.56,1.91,16.2,16.2,0,0,1,1.29,3.14c.41,1.28.82,2.85,1.25,4.69v3.64Zm12.59-4.7h2.94v4.7h-2.94Z"/>
  <path class="cls-14" d="M421.15,63.27V58.59h7.54l2.86,4.68ZM429,53.88v3.19a1.34,1.34,0,0,0,.09.63,1.39,1.39,0,0,0,.36.53,2.22,2.22,0,0,0,1.4.36H438v4.68h-6.71a10.13,10.13,0,0,1-3-.38,4.33,4.33,0,0,1-2-1.21,5.07,5.07,0,0,1-1.09-2.2,14.79,14.79,0,0,1-.33-3.38,15.61,15.61,0,0,1,.3-3.34,5,5,0,0,1,1-2.19,3.94,3.94,0,0,1,2-1.19,10.11,10.11,0,0,1,2.94-.38c.66,0,1.3,0,1.91.06a13.87,13.87,0,0,1,1.83.23,16.06,16.06,0,0,1,1.79.43L436,54.21c-.87-.18-1.64-.31-2.29-.39a19,19,0,0,0-2-.11h-1.5A10,10,0,0,0,429,53.88Z"/>
  <path class="cls-14" d="M441.45,63.27V44.54h4.14V58.59h2.84v4.68Z"/>
  <path class="cls-14" d="M447.26,58.59h4.28a18.72,18.72,0,0,1-.4-1.87,12.88,12.88,0,0,1-.13-2.06,7,7,0,0,1,.41-2.61,4.21,4.21,0,0,1,1.31-1.8A5.65,5.65,0,0,1,455,49.19a14,14,0,0,1,3.35-.34,23.11,23.11,0,0,1,3.62.25,16.12,16.12,0,0,1,3.2.87v13.3H447.26Zm8.44-12.74a1.67,1.67,0,0,1-.94-.41,3.94,3.94,0,0,1-.95-1,1.76,1.76,0,0,1-.39-1,1.64,1.64,0,0,1,.39-1,5.12,5.12,0,0,1,.93-.93,1.63,1.63,0,0,1,.94-.4,1.8,1.8,0,0,1,1,.4,5.12,5.12,0,0,1,.93.93,1.34,1.34,0,0,1,.29.45,1.36,1.36,0,0,1,.11.53,1.31,1.31,0,0,1-.11.52,1.34,1.34,0,0,1-.29.45,5.28,5.28,0,0,1-.94,1A1.62,1.62,0,0,1,455.7,45.85Zm4.14,12.74a1.23,1.23,0,0,0,.92-.27,1.33,1.33,0,0,0,.25-1V53.62h-4.36a1.35,1.35,0,0,0-.95.26,1.46,1.46,0,0,0-.26,1v3.72ZM461,45.85a1.67,1.67,0,0,1-.95-.41,3.94,3.94,0,0,1-1-1,1.85,1.85,0,0,1-.4-1,1.72,1.72,0,0,1,.4-1,5.12,5.12,0,0,1,.93-.93,1.63,1.63,0,0,1,.94-.4,1.78,1.78,0,0,1,1,.4,5.12,5.12,0,0,1,.93.93,1.2,1.2,0,0,1,.29.45,1.36,1.36,0,0,1,.11.53,1.31,1.31,0,0,1-.11.52,1.2,1.2,0,0,1-.29.45,5,5,0,0,1-.94,1A1.58,1.58,0,0,1,461,45.85Z"/>
  <path class="cls-14" d="M490.11,49.3v14h-7.7A15.8,15.8,0,0,1,479,63a3.72,3.72,0,0,1-2.08-1.06,3.8,3.8,0,0,1-1-2.12,16.9,16.9,0,0,1-.3-3.47,16.93,16.93,0,0,1,.3-3.48,4.29,4.29,0,0,1,1-2.2,4.08,4.08,0,0,1,2.09-1,16.45,16.45,0,0,1,3.43-.3Zm-9.27-3.48a1.68,1.68,0,0,1-.95-.4,4.33,4.33,0,0,1-.94-1,1.69,1.69,0,0,1-.39-1,1.61,1.61,0,0,1,.39-1,4.82,4.82,0,0,1,.93-.93,1.63,1.63,0,0,1,.94-.4,1.67,1.67,0,0,1,1,.4,4.27,4.27,0,0,1,.92.93,1.69,1.69,0,0,1,.41,1,1.67,1.67,0,0,1-.41,1,5.75,5.75,0,0,1-1,1,1.56,1.56,0,0,1-.94.44ZM486,54h-4.79a1.45,1.45,0,0,0-1,.28,1,1,0,0,0-.25.4,1.07,1.07,0,0,0-.05.47v2.38A1.09,1.09,0,0,0,480,58a1.18,1.18,0,0,0,.24.37,1.4,1.4,0,0,0,1,.29H486Zm.08-8.16a1.71,1.71,0,0,1-1-.4,4.28,4.28,0,0,1-.93-1,1.69,1.69,0,0,1-.39-1,1.61,1.61,0,0,1,.39-1,4.82,4.82,0,0,1,.93-.93,1.6,1.6,0,0,1,.93-.4,1.67,1.67,0,0,1,1,.4,5,5,0,0,1,1,1,1.37,1.37,0,0,1,.3.45,1.35,1.35,0,0,1,.1.53,1.3,1.3,0,0,1-.1.52,1.37,1.37,0,0,1-.3.45,5.23,5.23,0,0,1-.93,1,1.58,1.58,0,0,1-1,.42Zm4,12.75h2.88v4.7h-2.85Z"/>
  <path class="cls-14" d="M491.79,63.27V58.59h15.33V54.72h-9a3.53,3.53,0,0,1-1.33-.17,3.24,3.24,0,0,1-1.15-.7,3.42,3.42,0,0,1-.68-1.22,3.62,3.62,0,0,1-.18-1.39,9.1,9.1,0,0,1,.36-2.43,17.25,17.25,0,0,1,1-2.6,18.52,18.52,0,0,1,1.46-2.61,14.41,14.41,0,0,1,1.8-2.17l3.31,1.81a12.31,12.31,0,0,0-1.24,1.45,16.09,16.09,0,0,0-1.2,1.8,16.85,16.85,0,0,0-1,1.88,8.68,8.68,0,0,0-.58,1.67H506a8.34,8.34,0,0,1,3.17.47,2.83,2.83,0,0,1,1,.64,3,3,0,0,1,.65,1,8.94,8.94,0,0,1,.47,3.2v7.94Z"/>
  <path class="cls-14" d="M515.63,71.59l-1.52-3.74a7.13,7.13,0,0,0,1.76-1.1,3.07,3.07,0,0,0,.86-1.54,11.92,11.92,0,0,0,.24-2.53V49.3h4.1V62.67a13.77,13.77,0,0,1-.52,4.08,6.64,6.64,0,0,1-1.71,2.84A10.69,10.69,0,0,1,515.63,71.59Zm5.4-13h2.84v4.7H521Z"/>
  <path class="cls-14" d="M531.29,63.27h-8.56V58.59h4.46V52h4.14Zm2.41,0h-2.41V58.59H535a3.3,3.3,0,0,0,1.64-.31,1.29,1.29,0,0,0,.46-.55,1.38,1.38,0,0,0,.1-.72V52h4.14v4.14a18.05,18.05,0,0,1-.29,3.52,4.3,4.3,0,0,1-1.1,2.21A4.65,4.65,0,0,1,537.62,63,18.41,18.41,0,0,1,533.7,63.27Zm3-17.44a1.66,1.66,0,0,1-1-.41,4.08,4.08,0,0,1-.94-1,1.85,1.85,0,0,1-.4-1,1.69,1.69,0,0,1,.4-1,4.77,4.77,0,0,1,.92-.93,1.56,1.56,0,0,1,.94-.4,1.72,1.72,0,0,1,1,.4,5.07,5.07,0,0,1,.92.93,1.7,1.7,0,0,1,.39,1,1.6,1.6,0,0,1-.41,1,5.34,5.34,0,0,1-.94,1,1.61,1.61,0,0,1-.93.43Zm2.61-5.71a1.7,1.7,0,0,1-1-.41,4.24,4.24,0,0,1-.93-1,1.86,1.86,0,0,1-.41-1,1.66,1.66,0,0,1,.41-1,4.46,4.46,0,0,1,.92-.92,1.63,1.63,0,0,1,.93-.4,1.72,1.72,0,0,1,1,.4,5.72,5.72,0,0,1,.92.92,1.6,1.6,0,0,1,.39,1,1.63,1.63,0,0,1-.41,1,5.63,5.63,0,0,1-.94,1,1.57,1.57,0,0,1-.89.44Zm4.81,23.15a14.77,14.77,0,0,1-3.51-.33,4.09,4.09,0,0,1-2.11-1.11,4.45,4.45,0,0,1-1-2.2,17.48,17.48,0,0,1-.3-3.53V52h4.14v5a1.38,1.38,0,0,0,.1.72,1.36,1.36,0,0,0,.46.55,3.32,3.32,0,0,0,1.64.31H547a7.36,7.36,0,0,0,.24-1.31c0-.48.06-1,.06-1.67a17.17,17.17,0,0,0-.24-2.77q-.24-1.4-.6-2.88l4.09-.66a12.87,12.87,0,0,1,.51,1.94,20.39,20.39,0,0,1,.28,2.06c.05.71.09,1.4.09,2.07a12.23,12.23,0,0,1-.78,4.83,4.47,4.47,0,0,1-2.38,2.4A10.15,10.15,0,0,1,544.15,63.27ZM542,45.85a1.7,1.7,0,0,1-1-.41,3.9,3.9,0,0,1-.94-1,1.77,1.77,0,0,1-.4-1,1.72,1.72,0,0,1,.4-1,5.06,5.06,0,0,1,.92-.93,1.68,1.68,0,0,1,.94-.4,1.81,1.81,0,0,1,1,.4,5.4,5.4,0,0,1,.92.93,1.37,1.37,0,0,1,.3.45,1.31,1.31,0,0,1,0,1.05,1.37,1.37,0,0,1-.3.45,4.93,4.93,0,0,1-.93,1A1.58,1.58,0,0,1,542,45.85Z"/>
  <path class="cls-14" d="M78.72,118.39a9.11,9.11,0,0,1-3.31.56,7.33,7.33,0,0,1-3-.45,7.45,7.45,0,0,1-2.58-1.67,8.53,8.53,0,0,1-2-6V93.89a8.49,8.49,0,0,1,2-6A8.52,8.52,0,0,1,81,87.9a8.49,8.49,0,0,1,1.95,6v16.94a9.24,9.24,0,0,1-1.4,5.3,1.18,1.18,0,0,0,.68.6,3.61,3.61,0,0,0,1.18.14h.77v4.59H82.91C80.65,121.46,79.24,120.45,78.72,118.39ZM78,111.16V93.57c0-2.12-.85-3.18-2.56-3.18s-2.57,1.06-2.57,3.18v17.59c0,2.12.85,3.18,2.57,3.18S78,113.28,78,111.16Z"/>
  <path class="cls-14" d="M88.08,116.85a8.65,8.65,0,0,1-1.91-6V86.24h5v25a3.45,3.45,0,0,0,.66,2.39,2.76,2.76,0,0,0,3.76,0,3.57,3.57,0,0,0,.66-2.39v-25h4.81v24.59a8.66,8.66,0,0,1-1.91,6,7.06,7.06,0,0,1-5.54,2.09A7.08,7.08,0,0,1,88.08,116.85Z"/>
  <path class="cls-14" d="M108.46,86.24h6.76l5.14,32.25h-5l-.91-6.41v.09h-5.67l-.91,6.32h-4.63Zm5.45,21.55-2.23-15.93h-.09l-2.18,15.93Z"/>
  <path class="cls-14" d="M122.8,86.24h5v27.63H136v4.62H122.8Z"/>
  <path class="cls-14" d="M138.42,86.24h5v32.25h-5Z"/>
  <path class="cls-14" d="M151,90.85h-5.22V86.24h15.41v4.61H156v27.64h-5Z"/>
  <path class="cls-14" d="M168.24,104.75l-6-18.51h5.31l3.42,11.83H171l3.43-11.83h4.85l-6,18.51v13.74h-5Z"/>
  <path class="cls-14" d="M188.8,86.24h7.53c2.58,0,4.45.6,5.63,1.82s1.78,3.09,1.78,5.61V95a8.91,8.91,0,0,1-.8,4,4.62,4.62,0,0,1-2.43,2.26v.1q3.72,1.27,3.72,6.72v2.76a7.79,7.79,0,0,1-1.92,5.69,7.63,7.63,0,0,1-5.66,2H188.8Zm6.94,13.13a3,3,0,0,0,2.25-.78,3.82,3.82,0,0,0,.75-2.61V94.16a4.15,4.15,0,0,0-.61-2.53,2.28,2.28,0,0,0-.88-.62,2.21,2.21,0,0,0-1.05-.16h-2.41v8.52Zm.91,14.5a2.39,2.39,0,0,0,1.06-.14,2.46,2.46,0,0,0,.9-.57,3.76,3.76,0,0,0,.63-2.46v-2.81a4.68,4.68,0,0,0-.75-3.07,3.29,3.29,0,0,0-1.14-.7A3,3,0,0,0,196,104h-2.23v9.9Z"/>
  <path class="cls-14" d="M211,86.24h6.77l5.14,32.25h-5l-.91-6.41v.09h-5.67l-.91,6.32h-4.63Zm5.46,21.55-2.23-15.93h-.06L212,107.79Z"/>
  <path class="cls-14" d="M226.34,116.85a8.77,8.77,0,0,1-1.86-6V109h4.72v2.22c0,2.08.85,3.13,2.56,3.13a2.34,2.34,0,0,0,1.05-.16,2.42,2.42,0,0,0,.88-.6,3.73,3.73,0,0,0,.66-2.47,7,7,0,0,0-.91-3.57,17.43,17.43,0,0,0-3.36-3.71,20.47,20.47,0,0,1-4.28-5,10.33,10.33,0,0,1-1.22-5,8.45,8.45,0,0,1,1.9-5.92A7.23,7.23,0,0,1,229,86.22a7.12,7.12,0,0,1,3-.44,6.87,6.87,0,0,1,5.43,2.09,8.86,8.86,0,0,1,1.84,6v1.33h-4.73V93.57a3.79,3.79,0,0,0-.63-2.43,2.29,2.29,0,0,0-.85-.59,2.21,2.21,0,0,0-1-.16c-1.66,0-2.49,1-2.49,3.08a6.18,6.18,0,0,0,.93,3.27,18.16,18.16,0,0,0,3.42,3.69,19.09,19.09,0,0,1,4.28,5,11.18,11.18,0,0,1,1.18,5.3,8.76,8.76,0,0,1-1.92,6.08,7.22,7.22,0,0,1-5.61,2.11A7,7,0,0,1,226.34,116.85Z"/>
  <path class="cls-14" d="M242.22,86.24h13.62v4.61h-8.62v8.52h6.85V104h-6.85v9.9h8.62v4.62H242.22Z"/>
  <path class="cls-14" d="M266,86.24h5v32.25h-5Z"/>
  <path class="cls-14" d="M274.68,86.24h6.24l4.86,19.3h.08V86.24h4.47v32.25H285.2L279.2,95h-.09v23.54h-4.45Z"/>
  <path class="cls-14" d="M295.06,116.85a8.82,8.82,0,0,1-1.86-6V109h4.72v2.22c0,2.08.86,3.13,2.57,3.13a2.36,2.36,0,0,0,1.05-.16,2.51,2.51,0,0,0,.88-.6,3.73,3.73,0,0,0,.65-2.47,6.85,6.85,0,0,0-.9-3.57,17,17,0,0,0-3.36-3.71,20.29,20.29,0,0,1-4.28-5,10.33,10.33,0,0,1-1.22-5,8.45,8.45,0,0,1,1.91-5.92,7.09,7.09,0,0,1,5.54-2.09,6.83,6.83,0,0,1,5.41,2.09,8.81,8.81,0,0,1,1.84,6v1.33H303.3V93.57a3.75,3.75,0,0,0-.65-2.43,2.25,2.25,0,0,0-.84-.59,2.19,2.19,0,0,0-1-.16c-1.66,0-2.5,1-2.5,3.08a6.09,6.09,0,0,0,.93,3.27,17.9,17.9,0,0,0,3.42,3.69,18.6,18.6,0,0,1,4.28,5,11.18,11.18,0,0,1,1.18,5.3,8.72,8.72,0,0,1-1.93,6.08,7.21,7.21,0,0,1-5.6,2.11A7,7,0,0,1,295.06,116.85Z"/>
  <path class="cls-14" d="M311,86.24h7.35a7.21,7.21,0,0,1,5.59,2,8.44,8.44,0,0,1,1.85,5.94v3.18a8.53,8.53,0,0,1-1.85,5.94c-1.24,1.35-3.11,2-5.59,2H316v13.14h-5Zm7.35,14.51a2.21,2.21,0,0,0,1-.14,2.4,2.4,0,0,0,.85-.55,3.58,3.58,0,0,0,.62-2.35V93.89a3.53,3.53,0,0,0-.62-2.36,2.37,2.37,0,0,0-.85-.54,2.21,2.21,0,0,0-1-.14H316v9.9Z"/>
  <path class="cls-14" d="M328.47,86.24h13.61v4.61h-8.62v8.52h6.85V104h-6.85v9.9h8.62v4.62H328.47Z"/>
  <path class="cls-14" d="M346.51,116.87a8.42,8.42,0,0,1-1.89-5.85V93.67a8.44,8.44,0,0,1,1.89-5.84,8.23,8.23,0,0,1,10.94,0,8.4,8.4,0,0,1,1.89,5.84v3.48h-4.73V93.41c0-2-.85-3-2.5-3s-2.49,1-2.49,3v18c0,2,.86,3,2.49,3s2.5-1,2.5-3v-4.93h4.73V111a8.44,8.44,0,0,1-1.89,5.85,8.26,8.26,0,0,1-10.94,0Z"/>
  <path class="cls-14" d="M366.23,90.85H361V86.24h15.4v4.61H371.2v27.64h-5Z"/>
  <path class="cls-14" d="M378.85,86.24h5v32.25h-5Z"/>
  <path class="cls-14" d="M389.15,116.83a8.62,8.62,0,0,1-1.95-6V93.89a8.58,8.58,0,0,1,1.95-6,8.55,8.55,0,0,1,11.27,0,8.49,8.49,0,0,1,1.95,6v16.94a8.53,8.53,0,0,1-1.95,6,8.55,8.55,0,0,1-11.27,0Zm8.22-5.67V93.57c0-2.12-.85-3.18-2.57-3.18s-2.56,1.06-2.56,3.18v17.59c0,2.12.85,3.18,2.56,3.18S397.37,113.28,397.37,111.16Z"/>
  <path class="cls-14" d="M405.72,86.24H412l4.85,19.3h.1V86.24h4.45v32.25h-5.14l-6-23.54h-.11v23.54H405.7Z"/>
  <path class="cls-14" d="M433.93,116.87a8.4,8.4,0,0,1-1.88-5.85V93.67a8.39,8.39,0,0,1,1.88-5.84,8.23,8.23,0,0,1,10.94,0,8.4,8.4,0,0,1,1.89,5.84v3.48H442V93.41c0-2-.86-3-2.5-3s-2.49,1-2.49,3v18c0,2,.85,3,2.49,3s2.5-1,2.5-3v-4.93h4.72V111a7.61,7.61,0,0,1-12.83,5.85Z"/>
  <path class="cls-14" d="M451.34,116.83a8.53,8.53,0,0,1-1.95-6V93.89a8.49,8.49,0,0,1,1.95-6,8.54,8.54,0,0,1,11.26,0,8.49,8.49,0,0,1,1.95,6v16.94a8.53,8.53,0,0,1-1.95,6A7.49,7.49,0,0,1,460,118.5a9.17,9.17,0,0,1-8.67-1.67Zm8.22-5.67V93.57c0-2.12-.86-3.18-2.57-3.18s-2.57,1.06-2.57,3.18v17.59c0,2.12.86,3.18,2.57,3.18S459.56,113.28,459.56,111.16Z"/>
  <path class="cls-14" d="M467.91,113.65h4.81v4.88h-4.81Z"/>
  <path class="cls-14" d="M476.44,86.24h5v27.63h8.22v4.62H476.44Z"/>
  <path class="cls-14" d="M496,90.85h-5.22V86.24h15.41v4.61h-5.22v27.64h-5Z"/>
  <path class="cls-14" d="M508.57,86.24h7.63c2.48,0,4.34.67,5.58,2s1.87,3.33,1.86,5.94v16.3q0,3.93-1.86,5.95a7.2,7.2,0,0,1-5.58,2h-7.63Zm7.54,27.63a2.38,2.38,0,0,0,1-.16,2.27,2.27,0,0,0,.86-.57,3.52,3.52,0,0,0,.66-2.39V94a3.53,3.53,0,0,0-.66-2.4,2.27,2.27,0,0,0-.86-.57,2.38,2.38,0,0,0-1-.16h-2.57v23Z"/>
  <path class="cls-14" d="M527,113.65h4.8v4.88H527Z"/>
  <path class="cls-14" d="M537.17,118.49h-1.62v-4.84h4.81V118l-2.5,6h-2.31Z"/>
  <path class="cls-15" d="M551.05,76.48H64.24v2.4H551.05Z"/>
  <path class="cls-15" d="M884.69,114.19H868.23V51h16.46Z"/>
  <path class="cls-15" d="M947.27,60.34,937.18,71.81a16.08,16.08,0,0,0-12.82-6.48c-9.93,0-16.13,7.14-16.13,17.2s6.2,17.28,16.13,17.28a16.09,16.09,0,0,0,12.82-6.48l10,11.47c-6.36,6.89-13.66,9.39-22.83,9.39-19,0-32.5-13.63-32.5-31.66S905.35,51,924.36,51C934.55,51,941.08,54,947.27,60.34Z"/>
  <path class="cls-15" d="M860.53,90.86a14,14,0,0,0-3.48-6.79,16,16,0,0,0-3.69-2.92c-.59-.33-1.18-.71-1.77-1a.5.5,0,0,1-.12-.28.36.36,0,0,1,0-.11c.24-.29.48-.56.7-.84a14,14,0,0,0,3.25-5.9,17.39,17.39,0,0,0,.62-5.18c0-.63-.14-1.26-.19-1.9a15.3,15.3,0,0,0-.9-4.18,14.93,14.93,0,0,0-4.43-6.24A18.13,18.13,0,0,0,843.76,52a25.6,25.6,0,0,0-7.11-1H801.22l-.06,0a.1.1,0,0,0,0,0c-.07.12,0,.18.1.25l1.34.82a31.74,31.74,0,0,1,5.06,3.73,37.83,37.83,0,0,1,4.61,4.94,35.56,35.56,0,0,1,5.76,11,32.24,32.24,0,0,1,1.54,7.77,37.73,37.73,0,0,1-.21,8.09,43.27,43.27,0,0,1-.93,4.5,35.77,35.77,0,0,1-4.61,10.21l-.35.52c-.33.54-.32.71.11,1.28.26.33.53.66.8,1s.7.8,1,1.2l6.06,7.06c.13.17.28.32.41.48a.81.81,0,0,0,.53.24h18.31a28,28,0,0,0,3.17-.24,22.39,22.39,0,0,0,8.53-2.93,17.08,17.08,0,0,0,6.18-6.17A17.53,17.53,0,0,0,861,96.35,22.49,22.49,0,0,0,860.53,90.86Zm-32.72-25h7c3.28,0,5.65,1.81,5.65,5s-2.37,5-5.65,5h-7ZM839,99.3H827.81V88.12H839c3.69,0,6.31,2,6.31,5.59S842.61,99.3,839,99.3Z"/>
  <path class="cls-16" d="M822.28,118.86q-3.07-3.6-6.16-7.19c-1.88-2.2-3.8-4.36-5.65-6.59a8.41,8.41,0,0,1-1-1.24l-.31-.36a32.71,32.71,0,0,0,7.13-20.9A33.38,33.38,0,0,0,809,61.19,31.16,31.16,0,0,0,793.08,51c-.7-.2-1.46-.37-2.2-.53h-.2l-.77-.14a36.39,36.39,0,0,0-4.55-.5h-3.14l-.66,0a8.64,8.64,0,0,0-.9.07h-.19a33.55,33.55,0,0,0-4.76.8,31.62,31.62,0,0,0-9,3.61h-.06a29.61,29.61,0,0,0-4.72,3.53,30.79,30.79,0,0,0-6.36,7.91c-.06.09-.1.2-.16.29l-.49.92-.16.35c-.17.33-.32.66-.47,1l-.09.21a35.59,35.59,0,0,0-2.61,9.89c-.07.63-.12,1.26-.16,1.9v.41c0,.63-.06,1.25-.06,1.88a34.36,34.36,0,0,0,.26,4.18,15.71,15.71,0,0,0,.53,3,3,3,0,0,0,0,.52,31.33,31.33,0,0,0,8.19,15.39,30.59,30.59,0,0,0,15,8.51,35.39,35.39,0,0,0,8.39,1.06,34.67,34.67,0,0,0,8.24-1,33.6,33.6,0,0,0,5.33-1.76l1.53,1.76,4.52,5.15.1.07h18.92a.19.19,0,0,0,0-.07.14.14,0,0,0,0-.06A1.09,1.09,0,0,0,822.28,118.86Zm-24-28L791,82.36,779.67,92l7.06,8.09a16.32,16.32,0,0,1-2.88.26c-9.5,0-16.1-7.31-16.1-17.72,0-10.6,6.6-18,16.1-18S800,72,800,82.58A20.92,20.92,0,0,1,798.32,90.84Z"/>
  <path class="cls-17" d="M686,42.87a5.2,5.2,0,1,0-5.12-5.2A5.15,5.15,0,0,0,686,42.87Z"/>
  <path class="cls-18" d="M660.28,81.83a43.09,43.09,0,0,0,5.59,21.24,42.19,42.19,0,0,0,15.28,15.57,41.42,41.42,0,0,0,41.85.17V106a31.32,31.32,0,0,1-44.93-3A32.09,32.09,0,0,1,672,92a32.52,32.52,0,0,1,2-24.68,32.08,32.08,0,0,1,7.78-9.86V44.72A42.26,42.26,0,0,0,666,60.33,43,43,0,0,0,660.28,81.83Z"/>
  <path class="cls-19" d="M681.69,82.26c0,.52,0,1,.08,1.54a21.16,21.16,0,0,0,6.34,13.68,20.5,20.5,0,0,0,27.8.79A21.13,21.13,0,0,0,723,85V79.54A21.21,21.21,0,0,0,719.31,70a20.77,20.77,0,0,0-7.7-6.63,20.23,20.23,0,0,0-9.87-2.15,20.57,20.57,0,0,0-9.7,2.84V51.46a31.49,31.49,0,0,0-10.33,6Zm20.54-11.12A10.39,10.39,0,0,1,708.08,73,10.6,10.6,0,0,1,712,77.74a10.8,10.8,0,0,1,.6,6.18,10.7,10.7,0,0,1-2.88,5.47,10.41,10.41,0,0,1-11.48,2.32,10.56,10.56,0,0,1-4.73-3.94,10.82,10.82,0,0,1,1.31-13.5,10.54,10.54,0,0,1,7.45-3.13Z"/>
  <path class="cls-20" d="M733.33,110.39A43.05,43.05,0,0,0,738.18,60a42.12,42.12,0,0,0-19.91-17.44,41.42,41.42,0,0,0-26.23-2V51.46a31.38,31.38,0,0,1,34.87,10.29,32.16,32.16,0,0,1,5.83,11.57c.24.9.44,1.8.61,2.73v34.34Z"/>
  <path class="cls-21" d="M392.57,327.46a113,113,0,0,0,169,98.24v-34a85.22,85.22,0,1,1-111.32-129v-33.8A113.05,113.05,0,0,0,392.57,327.46Z"/>
  <g>
    <path class="cls-22" d="M1011.59,637H541.89q53.77-132.5,107.54-264.58a60.5,60.5,0,0,1,58.09-38.34l304.07,7.5Z"/>
    <path class="cls-23" d="M760.67,470.33c5.77-17.08,11.13-34.58,16.9-51.66a33.7,33.7,0,0,1,31.72-23.34h76.63a34.6,34.6,0,0,0-31.72,21.25c-7.83,17.92-15.24,35.84-23.07,53.75Z"/>
    <path class="cls-24" d="M415,599.5c4.95-8.33,9.89-16.67,14.43-25.42A73.72,73.72,0,0,1,493.28,537H668.79l-32.13,62.5Z"/>
    <path class="cls-4" d="M360.61,637a37.14,37.14,0,0,1,37.08-37.5H637.48L669.62,537l17.3-33.75a60.44,60.44,0,0,1,53.56-32.92h54C787,492.42,780,514.92,772.62,537c-11.12,33.33-21.84,66.67-33,100Z"/>
    <path class="cls-5" d="M879.74,637l68-166.67h63.86V637Z"/>
    <path class="cls-6" d="M942.78,395.33h68.81v75H947.73l16.89-41.66A23.57,23.57,0,0,0,963,407,23,23,0,0,0,942.78,395.33Z"/>
    <path class="cls-25" d="M794.46,470.33l24.72-75h67.16a34.62,34.62,0,0,0-31.73,21.25c-7.83,17.92-15.24,35.84-23.07,53.75Z"/>
    <path class="cls-26" d="M794.46,470.33l24.72-75c13.6-41.66,27.19-83.33,41.2-125,50.68,1.25,100.94,2.92,151.62,4.17-14.83,40.42-29.25,80.42-44.09,120.83H886.34a34.62,34.62,0,0,0-31.73,21.25c-7.83,17.92-15.24,35.84-23.07,53.75Z"/>
    <path class="cls-9" d="M739.66,637c11.12-33.33,21.84-66.67,33-100,7.42-22.08,14.42-44.58,21.84-66.67h37.08C821.65,490.75,780,606.58,773,637Z"/>
    <path class="cls-10" d="M772.62,637c5.77-26.25,47.38-143.75,58.51-166.67h116.6L879.74,637Z"/>
    <path class="cls-27" d="M831.13,470.33c7.83-17.91,15.24-35.83,23.07-53.75a34.19,34.19,0,0,1,31.72-21.25h56.86a23.67,23.67,0,0,1,20.6,12.09A24.83,24.83,0,0,1,965,429.08l-16.89,41.67h-117Z"/>
    <path class="cls-28" d="M1011.59.33V91.17L937,272.42l-2.88,6.66L916.83,272l-11.13-4.58-55.21-23.34L951-.5h58.51Z"/>
    <path class="cls-29" d="M1011.59,9.92V249.08l-10.3,25-17.72,42.5-83.64-35,4.12-10,1.65-4.16Z"/>
    <path class="cls-21" d="M462.9,224a13.81,13.81,0,1,0-13.81-13.81A13.8,13.8,0,0,0,462.9,224Z"/>
    <path class="cls-21" d="M451.29,328.59c0,1.38.1,2.74.2,4.1a55.86,55.86,0,0,0,111.12,3.1v-14.4a55.8,55.8,0,0,0-83.5-41.11v-33.5a85.11,85.11,0,0,0-27.83,15.88Zm55.34-29.52a28.39,28.39,0,1,1-20.07,8.32A28.34,28.34,0,0,1,506.63,299.07Z"/>
    <path class="cls-21" d="M590.44,403.35a113.09,113.09,0,0,0-111.31-185.6v29a85.19,85.19,0,0,1,109.68,58.08c.65,2.37,1.2,4.79,1.64,7.24v91.25Z"/>
  </g>
</svg>
