<svg id="Layer_1" data-name="Layer 1" xmlns="http://www.w3.org/2000/svg" xmlns:xlink="http://www.w3.org/1999/xlink" viewBox="0 0 1012 637">
  <defs>
    <style>
      .cls-1 {
        fill: none;
      }

      .cls-2, .cls-21 {
        fill: #fff;
      }

      .cls-3 {
        fill: url(#linear-gradient);
      }

      .cls-4 {
        fill: url(#linear-gradient-2);
      }

      .cls-17, .cls-5 {
        opacity: 0.5;
      }

      .cls-13, .cls-17, .cls-20, .cls-5, .cls-8 {
        isolation: isolate;
      }

      .cls-5 {
        fill: url(#linear-gradient-3);
      }

      .cls-6 {
        fill: #228fcf;
      }

      .cls-7 {
        fill: #2f6db6;
      }

      .cls-8 {
        fill: #b2def2;
      }

      .cls-13, .cls-20, .cls-8 {
        opacity: 0.8;
      }

      .cls-9 {
        fill: url(#linear-gradient-4);
      }

      .cls-10 {
        fill: url(#linear-gradient-5);
      }

      .cls-11 {
        fill: #2a70b8;
      }

      .cls-12 {
        fill: #2752a4;
      }

      .cls-13 {
        fill: #b9dff1;
      }

      .cls-14 {
        fill: url(#linear-gradient-6);
      }

      .cls-15 {
        fill: url(#linear-gradient-7);
      }

      .cls-16 {
        fill: url(#linear-gradient-8);
      }

      .cls-17 {
        fill: url(#linear-gradient-9);
      }

      .cls-18 {
        fill: url(#linear-gradient-10);
      }

      .cls-19 {
        fill: url(#linear-gradient-11);
      }

      .cls-20 {
        fill: #2651a3;
      }

      .cls-21, .cls-31 {
        fill-opacity: 0.3;
      }

      .cls-22 {
        clip-path: url(#clip-path);
      }

      .cls-23 {
        fill: #2e2c74;
      }

      .cls-24 {
        fill: #24356a;
      }

      .cls-25 {
        fill: #29bcb2;
      }

      .cls-26 {
        fill: url(#linear-gradient-12);
      }

      .cls-27 {
        fill: #2cbcb2;
      }

      .cls-28 {
        fill: url(#linear-gradient-13);
      }

      .cls-29 {
        fill: url(#linear-gradient-14);
      }

      .cls-30 {
        fill: url(#linear-gradient-15);
      }

      .cls-31 {
        fill: #333;
      }
    </style>
    <linearGradient id="linear-gradient" x1="211.74" y1="-5096.5" x2="211.74" y2="-4793.55" gradientTransform="matrix(1, 0, 0, -1, 564, -4460)" gradientUnits="userSpaceOnUse">
      <stop offset="0" stop-color="#fff" stop-opacity="0"/>
      <stop offset="0.21" stop-color="#f0f4f9" stop-opacity="0.21"/>
      <stop offset="0.63" stop-color="#c7d7ea" stop-opacity="0.63"/>
      <stop offset="0.7" stop-color="#bfd0e7" stop-opacity="0.7"/>
      <stop offset="1" stop-color="#bfd0e7"/>
    </linearGradient>
    <linearGradient id="linear-gradient-2" x1="325.01" y1="-4866.19" x2="190.23" y2="-4914.7" gradientTransform="matrix(1, 0, 0, -1, 564, -4460)" gradientUnits="userSpaceOnUse">
      <stop offset="0" stop-color="#fff" stop-opacity="0"/>
      <stop offset="0.02" stop-color="#feffff" stop-opacity="0.03"/>
      <stop offset="0.58" stop-color="#d3eef7" stop-opacity="0.67"/>
      <stop offset="0.87" stop-color="#c4e8f5"/>
      <stop offset="1" stop-color="#c4e8f5"/>
    </linearGradient>
    <linearGradient id="linear-gradient-3" x1="237.9" y1="-5027.75" x2="-171.43" y2="-5027.75" gradientTransform="matrix(1, 0, 0, -1, 564, -4460)" gradientUnits="userSpaceOnUse">
      <stop offset="0" stop-color="#fff" stop-opacity="0"/>
      <stop offset="0.01" stop-color="#fff" stop-opacity="0.02"/>
      <stop offset="0.28" stop-color="#dff2fa" stop-opacity="0.43"/>
      <stop offset="0.51" stop-color="#caebf5" stop-opacity="0.77"/>
      <stop offset="0.66" stop-color="#c4e8f5"/>
      <stop offset="1" stop-color="#c4e8f5"/>
    </linearGradient>
    <linearGradient id="linear-gradient-4" x1="446.59" y1="-4892.33" x2="141.7" y2="-4892.33" gradientTransform="matrix(1, 0, 0, -1, 564, -4460)" gradientUnits="userSpaceOnUse">
      <stop offset="0" stop-color="#fff" stop-opacity="0"/>
      <stop offset="0.37" stop-color="#feffff" stop-opacity="0.43"/>
      <stop offset="0.54" stop-color="#f6fbfd" stop-opacity="0.63"/>
      <stop offset="0.67" stop-color="#eaf7fd" stop-opacity="0.77"/>
      <stop offset="0.78" stop-color="#d9f0f8" stop-opacity="0.9"/>
      <stop offset="0.87" stop-color="#c4e8f5"/>
      <stop offset="1" stop-color="#c4e8f5"/>
    </linearGradient>
    <linearGradient id="linear-gradient-5" x1="439.75" y1="-4724.82" x2="206.05" y2="-4898.96" gradientTransform="matrix(1, 0, 0, -1, 564, -4460)" gradientUnits="userSpaceOnUse">
      <stop offset="0" stop-color="#fff" stop-opacity="0"/>
      <stop offset="0.21" stop-color="#fdfeff" stop-opacity="0.21"/>
      <stop offset="0.34" stop-color="#f4f8fd" stop-opacity="0.34"/>
      <stop offset="0.46" stop-color="#e5eff9" stop-opacity="0.46"/>
      <stop offset="0.56" stop-color="#cfe3f5" stop-opacity="0.56"/>
      <stop offset="0.66" stop-color="#b5d3ef" stop-opacity="0.66"/>
      <stop offset="0.75" stop-color="#93bfe6" stop-opacity="0.75"/>
      <stop offset="0.84" stop-color="#6ca6d9" stop-opacity="0.84"/>
      <stop offset="0.92" stop-color="#448ac9" stop-opacity="0.92"/>
      <stop offset="0.99" stop-color="#2f6db6" stop-opacity="0.99"/>
      <stop offset="1" stop-color="#2e6bb4"/>
    </linearGradient>
    <linearGradient id="linear-gradient-6" x1="440.18" y1="-4690.4" x2="315.39" y2="-4507.46" gradientTransform="matrix(1, 0, 0, -1, 564, -4460)" gradientUnits="userSpaceOnUse">
      <stop offset="0" stop-color="#fff" stop-opacity="0"/>
      <stop offset="0.22" stop-color="#f7fbfe" stop-opacity="0.22"/>
      <stop offset="0.55" stop-color="#e2ecf8" stop-opacity="0.55"/>
      <stop offset="0.96" stop-color="#c0d8f0" stop-opacity="0.96"/>
      <stop offset="1" stop-color="#bdd5ef"/>
    </linearGradient>
    <linearGradient id="linear-gradient-7" x1="472.22" y1="-4744.76" x2="345.81" y2="-4528.26" gradientTransform="matrix(1, 0, 0, -1, 564, -4460)" gradientUnits="userSpaceOnUse">
      <stop offset="0" stop-color="#fff" stop-opacity="0"/>
      <stop offset="0.42" stop-color="#dce8f6" stop-opacity="0.42"/>
      <stop offset="0.78" stop-color="#c4d9f0" stop-opacity="0.78"/>
      <stop offset="1" stop-color="#bdd5ef"/>
    </linearGradient>
    <linearGradient id="linear-gradient-8" x1="-456" y1="-4661.51" x2="-336.76" y2="-4618.12" xlink:href="#linear-gradient-2"/>
    <linearGradient id="linear-gradient-9" x1="-378.91" y1="-4519.31" x2="-15.86" y2="-4519.31" xlink:href="#linear-gradient-3"/>
    <linearGradient id="linear-gradient-10" x1="-564" y1="-4638.11" x2="-293.58" y2="-4638.11" xlink:href="#linear-gradient-4"/>
    <linearGradient id="linear-gradient-11" x1="-557.24" y1="-4785.99" x2="-351.82" y2="-4631.24" xlink:href="#linear-gradient-5"/>
    <clipPath id="clip-path">
      <rect class="cls-1" x="22.98" y="373.71" width="99.89" height="99.92"/>
    </clipPath>
    <linearGradient id="linear-gradient-12" x1="231.52" y1="-4510.75" x2="219.95" y2="-4575.41" gradientTransform="matrix(1, 0, 0, -1, 564, -4460)" gradientUnits="userSpaceOnUse">
      <stop offset="0" stop-color="#243469"/>
      <stop offset="0.1" stop-color="#243469"/>
      <stop offset="0.23" stop-color="#24366a"/>
      <stop offset="0.27" stop-color="#213e6e"/>
      <stop offset="0.3" stop-color="#224573"/>
      <stop offset="0.43" stop-color="#214c76"/>
      <stop offset="0.45" stop-color="#22527a"/>
      <stop offset="0.71" stop-color="#208a98"/>
      <stop offset="0.9" stop-color="#1baeac"/>
      <stop offset="1" stop-color="#1ebbb3"/>
    </linearGradient>
    <linearGradient id="linear-gradient-13" x1="127.64" y1="-4504.22" x2="127.64" y2="-4583.9" gradientTransform="matrix(1, 0, 0, -1, 564, -4460)" gradientUnits="userSpaceOnUse">
      <stop offset="0" stop-color="#1ebbb3"/>
      <stop offset="0.11" stop-color="#1db4af"/>
      <stop offset="0.27" stop-color="#1ea3a6"/>
      <stop offset="0.45" stop-color="#228796"/>
      <stop offset="0.64" stop-color="#225f81"/>
      <stop offset="0.82" stop-color="#243469"/>
      <stop offset="1" stop-color="#243469"/>
    </linearGradient>
    <linearGradient id="linear-gradient-14" x1="138.35" y1="-4510.96" x2="138.35" y2="-4562.82" xlink:href="#linear-gradient-13"/>
    <linearGradient id="linear-gradient-15" x1="154.1" y1="-4498.77" x2="154.1" y2="-4569.89" xlink:href="#linear-gradient-13"/>
  </defs>
  <g>
    <rect class="cls-2" x="1" y="-1" width="1011" height="637.5"/>
    <path class="cls-3" d="M1010.59,636.5H540.89Q594.67,504,648.43,371.92a60.5,60.5,0,0,1,58.09-38.34l304.07,7.5Z"/>
    <path class="cls-4" d="M759.67,469.83c5.77-17.08,11.13-34.58,16.9-51.66a33.7,33.7,0,0,1,31.72-23.34h76.63a34.6,34.6,0,0,0-31.72,21.25C845.37,434,838,451.92,830.13,469.83Z"/>
    <path class="cls-5" d="M414,599c4.95-8.33,9.89-16.67,14.43-25.42a73.72,73.72,0,0,1,63.86-37.08H667.79L635.66,599Z"/>
    <path class="cls-6" d="M359.61,636.5A37.14,37.14,0,0,1,396.69,599H636.48l32.14-62.5,17.3-33.75a60.44,60.44,0,0,1,53.56-32.92h54C786,491.92,779,514.42,771.62,536.5c-11.12,33.33-21.84,66.67-33,100Z"/>
    <path class="cls-7" d="M878.74,636.5l68-166.67h63.86V636.5Z"/>
    <path class="cls-8" d="M941.78,394.83h68.81v75H946.73l16.89-41.66A23.57,23.57,0,0,0,962,406.5,23,23,0,0,0,941.78,394.83Z"/>
    <path class="cls-9" d="M793.46,469.83l24.72-75h67.16a34.62,34.62,0,0,0-31.73,21.25c-7.83,17.92-15.24,35.84-23.07,53.75Z"/>
    <path class="cls-10" d="M793.46,469.83l24.72-75c13.6-41.66,27.19-83.33,41.2-125,50.68,1.25,100.94,2.92,151.62,4.17-14.83,40.42-29.25,80.42-44.09,120.83H885.34a34.62,34.62,0,0,0-31.73,21.25c-7.83,17.92-15.24,35.84-23.07,53.75Z"/>
    <path class="cls-11" d="M738.66,636.5c11.12-33.33,21.84-66.67,33-100,7.42-22.08,14.42-44.58,21.84-66.67h37.08C820.65,490.25,779,606.08,772,636.5Z"/>
    <path class="cls-12" d="M771.62,636.5c5.77-26.25,47.38-143.75,58.51-166.67h116.6l-68,166.67Z"/>
    <path class="cls-13" d="M830.13,469.83C838,451.92,845.37,434,853.2,416.08a34.19,34.19,0,0,1,31.72-21.25h56.86a23.67,23.67,0,0,1,20.6,12.09A24.83,24.83,0,0,1,964,428.58l-16.89,41.67h-117Z"/>
    <path class="cls-14" d="M1010.59-.17V90.67L936,271.92l-2.88,6.66-17.3-7.08-11.13-4.58-55.21-23.34L950-1h58.51Z"/>
    <path class="cls-15" d="M1010.59,9.42V248.58l-10.3,25-17.72,42.5-83.64-35,4.12-10,1.65-4.16Z"/>
    <path class="cls-16" d="M222.54,145.21c-5.11,15-9.86,30.34-15,45.33A29.86,29.86,0,0,1,179.42,211h-68a30.69,30.69,0,0,0,28.13-18.64c6.95-15.72,13.52-31.44,20.47-47.16Z"/>
    <path class="cls-17" d="M529.14,31.9c-4.39,7.31-8.77,14.62-12.79,22.3A65.54,65.54,0,0,1,459.7,86.73h-156l28.5-54.83Z"/>
    <path class="cls-6" d="M577.37-1a32.75,32.75,0,0,1-32.89,32.9H331.81L303.3,86.73q-7.67,14.8-15.35,29.61a53.67,53.67,0,0,1-47.5,28.87H192.58c6.58-19.37,12.79-39.11,19.37-58.48C221.81,57.49,231.31,28.24,241.18-1Z"/>
    <path class="cls-7" d="M116.94-1,56.64,145.21H0V-1Z"/>
    <path class="cls-8" d="M61,211H0v-65.8H56.64l-15,36.56A21.18,21.18,0,0,0,61,211Z"/>
    <path class="cls-18" d="M192.58,145.21,170.65,211H111.46a30.69,30.69,0,0,0,28.13-18.64c6.95-15.72,13.52-31.44,20.47-47.16Z"/>
    <path class="cls-19" d="M192.58,145.21,170.65,211c-12.05,36.56-24.11,73.11-36.54,109.66C89.53,319.58,45,318.11,0,317c13.16-35.46,26-70.55,39.1-106h72.36a30.69,30.69,0,0,0,28.13-18.64c6.95-15.72,13.52-31.44,20.47-47.16Z"/>
    <path class="cls-11" d="M241.18-1C231.31,28.24,221.81,57.49,212,86.73c-6.58,19.37-12.79,39.11-19.37,58.48H159.69C168.46,127.3,205.73,25.68,212-1Z"/>
    <path class="cls-12" d="M212-1c-5.12,23-42,126.11-51.89,146.21H56.64L116.94-1Z"/>
    <path class="cls-20" d="M160.06,145.21c-6.95,15.72-13.52,31.44-20.47,47.16A30.69,30.69,0,0,1,111.46,211H61a21.07,21.07,0,0,1-18.28-10.6,21.64,21.64,0,0,1-1.46-19l15-36.55H160.06Z"/>
    <rect class="cls-21" y="-1" width="1011" height="638"/>
    <rect class="cls-2" x="782.15" y="232.82" width="169.82" height="167.87"/>
    <path d="M846.33,242.81h-5.8v5.88h5.8Z"/>
    <path d="M852.13,242.81h-5.8v5.88h5.8Z"/>
    <path d="M857.93,242.81h-5.8v5.88h5.8Z"/>
    <path d="M875.32,242.81h-5.79v5.88h5.79Z"/>
    <path d="M846.33,248.69h-5.8v5.89h5.8Z"/>
    <path d="M852.13,248.69h-5.8v5.89h5.8Z"/>
    <path d="M881.12,248.69h-5.8v5.89h5.8Z"/>
    <path d="M846.33,254.58h-5.8v5.88h5.8Z"/>
    <path d="M852.13,254.58h-5.8v5.88h5.8Z"/>
    <path d="M857.93,254.58h-5.8v5.88h5.8Z"/>
    <path d="M869.53,254.58h-5.8v5.88h5.8Z"/>
    <path d="M875.32,254.58h-5.79v5.88h5.79Z"/>
    <path d="M881.12,254.58h-5.8v5.88h5.8Z"/>
    <path d="M852.13,260.46h-5.8v5.89h5.8Z"/>
    <path d="M869.53,260.46h-5.8v5.89h5.8Z"/>
    <path d="M875.32,260.46h-5.79v5.89h5.79Z"/>
    <path d="M886.92,260.46h-5.8v5.89h5.8Z"/>
    <path d="M892.72,260.46h-5.8v5.89h5.8Z"/>
    <path d="M846.33,266.35h-5.8v5.88h5.8Z"/>
    <path d="M852.13,266.35h-5.8v5.88h5.8Z"/>
    <path d="M863.73,266.35h-5.8v5.88h5.8Z"/>
    <path d="M881.12,266.35h-5.8v5.88h5.8Z"/>
    <path d="M857.93,272.23h-5.8v5.89h5.8Z"/>
    <path d="M869.53,272.23h-5.8v5.89h5.8Z"/>
    <path d="M846.33,278.12h-5.8V284h5.8Z"/>
    <path d="M857.93,278.12h-5.8V284h5.8Z"/>
    <path d="M869.53,278.12h-5.8V284h5.8Z"/>
    <path d="M881.12,278.12h-5.8V284h5.8Z"/>
    <path d="M892.72,278.12h-5.8V284h5.8Z"/>
    <path d="M852.13,284h-5.8v5.89h5.8Z"/>
    <path d="M869.53,284h-5.8v5.89h5.8Z"/>
    <path d="M875.32,284h-5.79v5.89h5.79Z"/>
    <path d="M892.72,284h-5.8v5.89h5.8Z"/>
    <path d="M799.93,289.89h-5.79v5.88h5.79Z"/>
    <path d="M817.33,289.89h-5.8v5.88h5.8Z"/>
    <path d="M823.13,289.89h-5.8v5.88h5.8Z"/>
    <path d="M828.93,289.89h-5.8v5.88h5.8Z"/>
    <path d="M834.73,289.89h-5.8v5.88h5.8Z"/>
    <path d="M840.53,289.89h-5.8v5.88h5.8Z"/>
    <path d="M846.33,289.89h-5.8v5.88h5.8Z"/>
    <path d="M852.13,289.89h-5.8v5.88h5.8Z"/>
    <path d="M892.72,289.89h-5.8v5.88h5.8Z"/>
    <path d="M898.52,289.89h-5.8v5.88h5.8Z"/>
    <path d="M915.92,289.89h-5.8v5.88h5.8Z"/>
    <path d="M927.52,289.89h-5.8v5.88h5.8Z"/>
    <path d="M933.32,289.89h-5.8v5.88h5.8Z"/>
    <path d="M939.11,289.89h-5.79v5.88h5.79Z"/>
    <path d="M811.53,295.77h-5.8v5.89h5.8Z"/>
    <path d="M817.33,295.77h-5.8v5.89h5.8Z"/>
    <path d="M823.13,295.77h-5.8v5.89h5.8Z"/>
    <path d="M846.33,295.77h-5.8v5.89h5.8Z"/>
    <path d="M852.13,295.77h-5.8v5.89h5.8Z"/>
    <path d="M863.73,295.77h-5.8v5.89h5.8Z"/>
    <path d="M875.32,295.77h-5.79v5.89h5.79Z"/>
    <path d="M881.12,295.77h-5.8v5.89h5.8Z"/>
    <path d="M886.92,295.77h-5.8v5.89h5.8Z"/>
    <path d="M910.12,295.77h-5.8v5.89h5.8Z"/>
    <path d="M915.92,295.77h-5.8v5.89h5.8Z"/>
    <path d="M921.72,295.77h-5.8v5.89h5.8Z"/>
    <path d="M927.52,295.77h-5.8v5.89h5.8Z"/>
    <path d="M933.32,295.77h-5.8v5.89h5.8Z"/>
    <path d="M805.73,301.66h-5.8v5.88h5.8Z"/>
    <path d="M817.33,301.66h-5.8v5.88h5.8Z"/>
    <path d="M828.93,301.66h-5.8v5.88h5.8Z"/>
    <path d="M834.73,301.66h-5.8v5.88h5.8Z"/>
    <path d="M840.53,301.66h-5.8v5.88h5.8Z"/>
    <path d="M846.33,301.66h-5.8v5.88h5.8Z"/>
    <path d="M863.73,301.66h-5.8v5.88h5.8Z"/>
    <path d="M869.53,301.66h-5.8v5.88h5.8Z"/>
    <path d="M875.32,301.66h-5.79v5.88h5.79Z"/>
    <path d="M886.92,301.66h-5.8v5.88h5.8Z"/>
    <path d="M892.72,301.66h-5.8v5.88h5.8Z"/>
    <path d="M898.52,301.66h-5.8v5.88h5.8Z"/>
    <path d="M904.32,301.66h-5.8v5.88h5.8Z"/>
    <path d="M910.12,301.66h-5.8v5.88h5.8Z"/>
    <path d="M915.92,301.66h-5.8v5.88h5.8Z"/>
    <path d="M921.72,301.66h-5.8v5.88h5.8Z"/>
    <path d="M939.11,301.66h-5.79v5.88h5.79Z"/>
    <path d="M811.53,307.54h-5.8v5.89h5.8Z"/>
    <path d="M823.13,307.54h-5.8v5.89h5.8Z"/>
    <path d="M828.93,307.54h-5.8v5.89h5.8Z"/>
    <path d="M846.33,307.54h-5.8v5.89h5.8Z"/>
    <path d="M852.13,307.54h-5.8v5.89h5.8Z"/>
    <path d="M857.93,307.54h-5.8v5.89h5.8Z"/>
    <path d="M863.73,307.54h-5.8v5.89h5.8Z"/>
    <path d="M869.53,307.54h-5.8v5.89h5.8Z"/>
    <path d="M881.12,307.54h-5.8v5.89h5.8Z"/>
    <path d="M886.92,307.54h-5.8v5.89h5.8Z"/>
    <path d="M898.52,307.54h-5.8v5.89h5.8Z"/>
    <path d="M921.72,307.54h-5.8v5.89h5.8Z"/>
    <path d="M927.52,307.54h-5.8v5.89h5.8Z"/>
    <path d="M933.32,307.54h-5.8v5.89h5.8Z"/>
    <path d="M939.11,307.54h-5.79v5.89h5.79Z"/>
    <path d="M805.73,313.43h-5.8v5.88h5.8Z"/>
    <path d="M817.33,313.43h-5.8v5.88h5.8Z"/>
    <path d="M828.93,313.43h-5.8v5.88h5.8Z"/>
    <path d="M834.73,313.43h-5.8v5.88h5.8Z"/>
    <path d="M840.53,313.43h-5.8v5.88h5.8Z"/>
    <path d="M846.33,313.43h-5.8v5.88h5.8Z"/>
    <path d="M863.73,313.43h-5.8v5.88h5.8Z"/>
    <path d="M875.32,313.43h-5.79v5.88h5.79Z"/>
    <path d="M881.12,313.43h-5.8v5.88h5.8Z"/>
    <path d="M892.72,313.43h-5.8v5.88h5.8Z"/>
    <path d="M904.32,313.43h-5.8v5.88h5.8Z"/>
    <path d="M939.11,313.43h-5.79v5.88h5.79Z"/>
    <path d="M799.93,319.31h-5.79v5.89h5.79Z"/>
    <path d="M846.33,319.31h-5.8v5.89h5.8Z"/>
    <path d="M852.13,319.31h-5.8v5.89h5.8Z"/>
    <path d="M869.53,319.31h-5.8v5.89h5.8Z"/>
    <path d="M881.12,319.31h-5.8v5.89h5.8Z"/>
    <path d="M886.92,319.31h-5.8v5.89h5.8Z"/>
    <path d="M892.72,319.31h-5.8v5.89h5.8Z"/>
    <path d="M915.92,319.31h-5.8v5.89h5.8Z"/>
    <path d="M933.32,319.31h-5.8v5.89h5.8Z"/>
    <path d="M799.93,325.2h-5.79v5.88h5.79Z"/>
    <path d="M805.73,325.2h-5.8v5.88h5.8Z"/>
    <path d="M817.33,325.2h-5.8v5.88h5.8Z"/>
    <path d="M823.13,325.2h-5.8v5.88h5.8Z"/>
    <path d="M828.93,325.2h-5.8v5.88h5.8Z"/>
    <path d="M834.73,325.2h-5.8v5.88h5.8Z"/>
    <path d="M840.53,325.2h-5.8v5.88h5.8Z"/>
    <path d="M852.13,325.2h-5.8v5.88h5.8Z"/>
    <path d="M881.12,325.2h-5.8v5.88h5.8Z"/>
    <path d="M886.92,325.2h-5.8v5.88h5.8Z"/>
    <path d="M915.92,325.2h-5.8v5.88h5.8Z"/>
    <path d="M921.72,325.2h-5.8v5.88h5.8Z"/>
    <path d="M927.52,325.2h-5.8v5.88h5.8Z"/>
    <path d="M933.32,325.2h-5.8v5.88h5.8Z"/>
    <path d="M939.11,325.2h-5.79v5.88h5.79Z"/>
    <path d="M799.93,331.08h-5.79V337h5.79Z"/>
    <path d="M811.53,331.08h-5.8V337h5.8Z"/>
    <path d="M817.33,331.08h-5.8V337h5.8Z"/>
    <path d="M823.13,331.08h-5.8V337h5.8Z"/>
    <path d="M846.33,331.08h-5.8V337h5.8Z"/>
    <path d="M857.93,331.08h-5.8V337h5.8Z"/>
    <path d="M869.53,331.08h-5.8V337h5.8Z"/>
    <path d="M875.32,331.08h-5.79V337h5.79Z"/>
    <path d="M881.12,331.08h-5.8V337h5.8Z"/>
    <path d="M886.92,331.08h-5.8V337h5.8Z"/>
    <path d="M892.72,331.08h-5.8V337h5.8Z"/>
    <path d="M898.52,331.08h-5.8V337h5.8Z"/>
    <path d="M904.32,331.08h-5.8V337h5.8Z"/>
    <path d="M910.12,331.08h-5.8V337h5.8Z"/>
    <path d="M921.72,331.08h-5.8V337h5.8Z"/>
    <path d="M927.52,331.08h-5.8V337h5.8Z"/>
    <path d="M939.11,331.08h-5.79V337h5.79Z"/>
    <path d="M799.93,337h-5.79v5.89h5.79Z"/>
    <path d="M811.53,337h-5.8v5.89h5.8Z"/>
    <path d="M828.93,337h-5.8v5.89h5.8Z"/>
    <path d="M834.73,337h-5.8v5.89h5.8Z"/>
    <path d="M857.93,337h-5.8v5.89h5.8Z"/>
    <path d="M863.73,337h-5.8v5.89h5.8Z"/>
    <path d="M869.53,337h-5.8v5.89h5.8Z"/>
    <path d="M886.92,337h-5.8v5.89h5.8Z"/>
    <path d="M892.72,337h-5.8v5.89h5.8Z"/>
    <path d="M898.52,337h-5.8v5.89h5.8Z"/>
    <path d="M904.32,337h-5.8v5.89h5.8Z"/>
    <path d="M910.12,337h-5.8v5.89h5.8Z"/>
    <path d="M915.92,337h-5.8v5.89h5.8Z"/>
    <path d="M927.52,337h-5.8v5.89h5.8Z"/>
    <path d="M933.32,337h-5.8v5.89h5.8Z"/>
    <path d="M846.33,342.85h-5.8v5.89h5.8Z"/>
    <path d="M852.13,342.85h-5.8v5.89h5.8Z"/>
    <path d="M863.73,342.85h-5.8v5.89h5.8Z"/>
    <path d="M892.72,342.85h-5.8v5.89h5.8Z"/>
    <path d="M915.92,342.85h-5.8v5.89h5.8Z"/>
    <path d="M927.52,342.85h-5.8v5.89h5.8Z"/>
    <path d="M933.32,342.85h-5.8v5.89h5.8Z"/>
    <path d="M846.33,348.74h-5.8v5.88h5.8Z"/>
    <path d="M869.53,348.74h-5.8v5.88h5.8Z"/>
    <path d="M875.32,348.74h-5.79v5.88h5.79Z"/>
    <path d="M881.12,348.74h-5.8v5.88h5.8Z"/>
    <path d="M892.72,348.74h-5.8v5.88h5.8Z"/>
    <path d="M904.32,348.74h-5.8v5.88h5.8Z"/>
    <path d="M915.92,348.74h-5.8v5.88h5.8Z"/>
    <path d="M939.11,348.74h-5.79v5.88h5.79Z"/>
    <path d="M846.33,354.62h-5.8v5.89h5.8Z"/>
    <path d="M852.13,354.62h-5.8v5.89h5.8Z"/>
    <path d="M863.73,354.62h-5.8v5.89h5.8Z"/>
    <path d="M875.32,354.62h-5.79v5.89h5.79Z"/>
    <path d="M886.92,354.62h-5.8v5.89h5.8Z"/>
    <path d="M892.72,354.62h-5.8v5.89h5.8Z"/>
    <path d="M915.92,354.62h-5.8v5.89h5.8Z"/>
    <path d="M939.11,354.62h-5.79v5.89h5.79Z"/>
    <path d="M846.33,360.51h-5.8v5.88h5.8Z"/>
    <path d="M852.13,360.51h-5.8v5.88h5.8Z"/>
    <path d="M857.93,360.51h-5.8v5.88h5.8Z"/>
    <path d="M863.73,360.51h-5.8v5.88h5.8Z"/>
    <path d="M875.32,360.51h-5.79v5.88h5.79Z"/>
    <path d="M886.92,360.51h-5.8v5.88h5.8Z"/>
    <path d="M892.72,360.51h-5.8v5.88h5.8Z"/>
    <path d="M898.52,360.51h-5.8v5.88h5.8Z"/>
    <path d="M904.32,360.51h-5.8v5.88h5.8Z"/>
    <path d="M910.12,360.51h-5.8v5.88h5.8Z"/>
    <path d="M915.92,360.51h-5.8v5.88h5.8Z"/>
    <path d="M933.32,360.51h-5.8v5.88h5.8Z"/>
    <path d="M939.11,360.51h-5.79v5.88h5.79Z"/>
    <path d="M846.33,366.39h-5.8v5.89h5.8Z"/>
    <path d="M869.53,366.39h-5.8v5.89h5.8Z"/>
    <path d="M875.32,366.39h-5.79v5.89h5.79Z"/>
    <path d="M898.52,366.39h-5.8v5.89h5.8Z"/>
    <path d="M904.32,366.39h-5.8v5.89h5.8Z"/>
    <path d="M933.32,366.39h-5.8v5.89h5.8Z"/>
    <path d="M939.11,366.39h-5.79v5.89h5.79Z"/>
    <path d="M852.13,372.28h-5.8v5.89h5.8Z"/>
    <path d="M863.73,372.28h-5.8v5.89h5.8Z"/>
    <path d="M875.32,372.28h-5.79v5.89h5.79Z"/>
    <path d="M892.72,372.28h-5.8v5.89h5.8Z"/>
    <path d="M898.52,372.28h-5.8v5.89h5.8Z"/>
    <path d="M915.92,372.28h-5.8v5.89h5.8Z"/>
    <path d="M921.72,372.28h-5.8v5.89h5.8Z"/>
    <path d="M927.52,372.28h-5.8v5.89h5.8Z"/>
    <path d="M933.32,372.28h-5.8v5.89h5.8Z"/>
    <path d="M939.11,372.28h-5.79v5.89h5.79Z"/>
    <path d="M857.93,378.17h-5.8v5.88h5.8Z"/>
    <path d="M863.73,378.17h-5.8v5.88h5.8Z"/>
    <path d="M869.53,378.17h-5.8v5.88h5.8Z"/>
    <path d="M875.32,378.17h-5.79v5.88h5.79Z"/>
    <path d="M898.52,378.17h-5.8v5.88h5.8Z"/>
    <path d="M904.32,378.17h-5.8v5.88h5.8Z"/>
    <path d="M910.12,378.17h-5.8v5.88h5.8Z"/>
    <path d="M915.92,378.17h-5.8v5.88h5.8Z"/>
    <path d="M927.52,378.17h-5.8v5.88h5.8Z"/>
    <path d="M933.32,378.17h-5.8v5.88h5.8Z"/>
    <path d="M939.11,378.17h-5.79v5.88h5.79Z"/>
    <path d="M846.33,384.05h-5.8v5.88h5.8Z"/>
    <path d="M863.73,384.05h-5.8v5.88h5.8Z"/>
    <path d="M869.53,384.05h-5.8v5.88h5.8Z"/>
    <path d="M875.32,384.05h-5.79v5.88h5.79Z"/>
    <path d="M886.92,384.05h-5.8v5.88h5.8Z"/>
    <path d="M892.72,384.05h-5.8v5.88h5.8Z"/>
    <path d="M921.72,384.05h-5.8v5.88h5.8Z"/>
    <path d="M939.11,384.05h-5.79v5.88h5.79Z"/>
    <path d="M828.64,242.81h-34.5V284h40.59V242.81Zm0,35H800.22V249h28.42Z"/>
    <path d="M933,242.81H898.52V284h40.59V242.81Zm0,35H904.61V249H933Z"/>
    <path d="M828.64,348.74h-34.5v41.19h40.59V348.74Zm0,35H800.22V354.92h28.42Z"/>
    <path d="M823.13,254.58h-17.4v17.65h17.4Z"/>
    <path d="M927.52,254.58h-17.4v17.65h17.4Z"/>
    <path d="M823.13,360.51h-17.4v17.66h17.4Z"/>
    <g class="cls-22">
      <g>
        <path class="cls-23" d="M25.74,468.33A2.65,2.65,0,1,1,23.09,471,2.65,2.65,0,0,1,25.74,468.33Z"/>
        <path class="cls-23" d="M39.22,468.33A2.65,2.65,0,1,1,36.57,471,2.65,2.65,0,0,1,39.22,468.33Z"/>
        <path class="cls-23" d="M52.7,468.33A2.65,2.65,0,1,1,50.05,471,2.65,2.65,0,0,1,52.7,468.33Z"/>
        <path class="cls-23" d="M66.18,468.33A2.65,2.65,0,1,1,63.53,471,2.65,2.65,0,0,1,66.18,468.33Z"/>
        <path class="cls-23" d="M79.66,468.33A2.65,2.65,0,1,1,77,471,2.65,2.65,0,0,1,79.66,468.33Z"/>
        <path class="cls-23" d="M93.14,468.33A2.65,2.65,0,1,1,90.5,471,2.65,2.65,0,0,1,93.14,468.33Z"/>
        <path class="cls-23" d="M106.62,468.33A2.65,2.65,0,1,1,104,471,2.65,2.65,0,0,1,106.62,468.33Z"/>
        <path class="cls-23" d="M120.11,468.33a2.65,2.65,0,1,1-2.65,2.65A2.65,2.65,0,0,1,120.11,468.33Z"/>
        <path class="cls-23" d="M25.74,454.82a2.65,2.65,0,1,1-2.65,2.64A2.64,2.64,0,0,1,25.74,454.82Z"/>
        <path class="cls-23" d="M39.22,454.82a2.65,2.65,0,1,1-2.65,2.64A2.64,2.64,0,0,1,39.22,454.82Z"/>
        <path class="cls-23" d="M52.7,454.82a2.65,2.65,0,1,1-2.65,2.64A2.64,2.64,0,0,1,52.7,454.82Z"/>
        <path class="cls-23" d="M66.18,454.82a2.65,2.65,0,1,1-2.65,2.64A2.65,2.65,0,0,1,66.18,454.82Z"/>
        <path class="cls-23" d="M79.66,454.82A2.65,2.65,0,1,1,77,457.46,2.65,2.65,0,0,1,79.66,454.82Z"/>
        <path class="cls-23" d="M93.14,454.82a2.65,2.65,0,1,1-2.64,2.64A2.65,2.65,0,0,1,93.14,454.82Z"/>
        <path class="cls-23" d="M106.62,454.82a2.65,2.65,0,1,1-2.64,2.64A2.65,2.65,0,0,1,106.62,454.82Z"/>
        <path class="cls-23" d="M120.11,454.82a2.65,2.65,0,1,1-2.65,2.64A2.64,2.64,0,0,1,120.11,454.82Z"/>
        <path class="cls-23" d="M25.74,441.3a2.65,2.65,0,1,1-2.65,2.64A2.64,2.64,0,0,1,25.74,441.3Z"/>
        <path class="cls-23" d="M39.22,441.3a2.65,2.65,0,1,1-2.65,2.64A2.64,2.64,0,0,1,39.22,441.3Z"/>
        <path class="cls-23" d="M52.7,441.3a2.65,2.65,0,1,1-2.65,2.64A2.64,2.64,0,0,1,52.7,441.3Z"/>
        <path class="cls-23" d="M66.18,441.3a2.65,2.65,0,1,1-2.65,2.64A2.65,2.65,0,0,1,66.18,441.3Z"/>
        <path class="cls-23" d="M79.66,441.3A2.65,2.65,0,1,1,77,443.94,2.65,2.65,0,0,1,79.66,441.3Z"/>
        <path class="cls-23" d="M93.14,441.3a2.65,2.65,0,1,1-2.64,2.64A2.65,2.65,0,0,1,93.14,441.3Z"/>
        <path class="cls-23" d="M106.62,441.3a2.65,2.65,0,1,1-2.64,2.64A2.65,2.65,0,0,1,106.62,441.3Z"/>
        <path class="cls-23" d="M120.11,441.3a2.65,2.65,0,1,1-2.65,2.64A2.64,2.64,0,0,1,120.11,441.3Z"/>
        <path class="cls-23" d="M25.74,427.78a2.65,2.65,0,1,1-2.65,2.65A2.64,2.64,0,0,1,25.74,427.78Z"/>
        <path class="cls-23" d="M39.22,427.78a2.65,2.65,0,1,1-2.65,2.65A2.64,2.64,0,0,1,39.22,427.78Z"/>
        <path class="cls-23" d="M52.7,427.78a2.65,2.65,0,1,1-2.65,2.65A2.64,2.64,0,0,1,52.7,427.78Z"/>
        <path class="cls-23" d="M25.74,414.26a2.65,2.65,0,1,1-2.65,2.65A2.65,2.65,0,0,1,25.74,414.26Z"/>
        <path class="cls-23" d="M39.22,414.26a2.65,2.65,0,1,1-2.65,2.65A2.65,2.65,0,0,1,39.22,414.26Z"/>
        <path class="cls-23" d="M52.7,414.26a2.65,2.65,0,1,1-2.65,2.65A2.65,2.65,0,0,1,52.7,414.26Z"/>
        <path class="cls-23" d="M25.74,400.74a2.65,2.65,0,1,1-2.65,2.65A2.65,2.65,0,0,1,25.74,400.74Z"/>
        <path class="cls-23" d="M39.22,400.74a2.65,2.65,0,1,1-2.65,2.65A2.65,2.65,0,0,1,39.22,400.74Z"/>
        <path class="cls-23" d="M52.7,400.74a2.65,2.65,0,1,1-2.65,2.65A2.65,2.65,0,0,1,52.7,400.74Z"/>
        <path class="cls-23" d="M25.74,387.22a2.65,2.65,0,1,1-2.65,2.65A2.65,2.65,0,0,1,25.74,387.22Z"/>
        <path class="cls-23" d="M39.22,387.22a2.65,2.65,0,1,1-2.65,2.65A2.65,2.65,0,0,1,39.22,387.22Z"/>
        <path class="cls-23" d="M52.7,387.22a2.65,2.65,0,1,1-2.65,2.65A2.65,2.65,0,0,1,52.7,387.22Z"/>
        <path class="cls-23" d="M25.74,373.71a2.65,2.65,0,1,1-2.65,2.64A2.64,2.64,0,0,1,25.74,373.71Z"/>
        <path class="cls-23" d="M39.22,373.71a2.65,2.65,0,1,1-2.65,2.64A2.64,2.64,0,0,1,39.22,373.71Z"/>
        <path class="cls-23" d="M52.7,373.71a2.65,2.65,0,1,1-2.65,2.64A2.64,2.64,0,0,1,52.7,373.71Z"/>
      </g>
    </g>
    <rect class="cls-24" x="141.85" y="499.61" width="727.21" height="86.93" rx="25"/>
    <path class="cls-2" d="M327.83,534.66a6.15,6.15,0,0,0-5.29,2.58,11.92,11.92,0,0,0-1.88,7.15q0,9.55,7.17,9.55a22.48,22.48,0,0,0,7.28-1.51v5.08a20.15,20.15,0,0,1-7.85,1.47q-6.22,0-9.53-3.77t-3.3-10.86a17.63,17.63,0,0,1,1.62-7.79,11.63,11.63,0,0,1,4.65-5.14,13.76,13.76,0,0,1,7.13-1.8,19.24,19.24,0,0,1,8.36,2l-1.95,4.93a30.54,30.54,0,0,0-3.23-1.33A9.54,9.54,0,0,0,327.83,534.66Zm21.43,8.05h2a7.43,7.43,0,0,0,4.23-1,3.4,3.4,0,0,0,1.37-3,3.14,3.14,0,0,0-1.4-2.89,8.48,8.48,0,0,0-4.32-.86h-1.84Zm0,4.92v11h-6.05V530h8.32q5.82,0,8.61,2.13t2.79,6.43a7.65,7.65,0,0,1-1.38,4.49,9.29,9.29,0,0,1-3.93,3.07q6.45,9.63,8.4,12.44H359.3l-6.81-11Zm39.84,11-2.08-6.8H376.61l-2.07,6.8H368l10.08-28.68h7.4l10.12,28.68Zm-3.52-11.88c-1.91-6.16-3-9.64-3.24-10.45s-.41-1.44-.51-1.91q-.65,2.5-3.69,12.36Zm41,11.88h-7.69L406.45,537h-.18q.38,5.73.37,8.17v13.44h-5.41V530h7.64l12.4,21.39h.14c-.2-3.71-.3-6.34-.3-7.87V530h5.45Zm25.66,0H435.77V530h16.45v5H441.83v6.27h9.66v5h-9.66v7.37h10.39Zm46.28-14.32q0,7.1-3.51,10.9T484.91,559q-6.57,0-10.08-3.81t-3.52-10.94q0-7.12,3.52-10.88T485,529.58q6.57,0,10.06,3.79T498.5,544.27Zm-20.84,0q0,4.79,1.82,7.21a6.36,6.36,0,0,0,5.43,2.42q7.24,0,7.24-9.63t-7.2-9.65a6.4,6.4,0,0,0-5.45,2.44Q477.66,539.49,477.66,544.27Zm34.81-.8h2a6.75,6.75,0,0,0,4.18-1.09,4.62,4.62,0,0,0,.21-6.37,5.39,5.39,0,0,0-3.63-1h-2.76Zm13.68-4.53a8.74,8.74,0,0,1-2.89,7q-2.88,2.44-8.19,2.44h-2.6v10.16h-6.05V530h9.12q5.19,0,7.89,2.25T526.15,538.94ZM550,558.59H533.54V530H550v5H539.59v6.27h9.67v5h-9.67v7.37H550Zm14-15.88h2a7.43,7.43,0,0,0,4.23-1,3.4,3.4,0,0,0,1.37-3,3.13,3.13,0,0,0-1.41-2.89,8.42,8.42,0,0,0-4.31-.86H564Zm0,4.92v11h-6V530h8.32q5.82,0,8.61,2.13t2.79,6.43a7.65,7.65,0,0,1-1.38,4.49,9.29,9.29,0,0,1-3.93,3.07q6.45,9.63,8.4,12.44h-6.72l-6.81-11Zm39.83,11-2.06-6.8H591.36l-2.07,6.8h-6.52l10.08-28.68h7.4l10.12,28.68Zm-3.51-11.88c-1.92-6.16-3-9.64-3.24-10.45s-.41-1.44-.51-1.91q-.65,2.5-3.69,12.36ZM627,558.59h-6.06V535.07h-7.75v-5h21.56v5H627Zm40.06-14.32q0,7.1-3.51,10.9T653.47,559c-4.38,0-7.73-1.27-10.08-3.81s-3.51-6.19-3.51-10.94,1.17-8.38,3.51-10.88,5.73-3.77,10.12-3.77,7.74,1.27,10.06,3.79S667.06,539.53,667.06,544.27Zm-20.84,0q0,4.79,1.82,7.21a6.36,6.36,0,0,0,5.43,2.42q7.24,0,7.25-9.63t-7.21-9.65a6.4,6.4,0,0,0-5.45,2.44C646.84,538.68,646.22,541.08,646.22,544.27ZM681,542.71h2a7.47,7.47,0,0,0,4.24-1,3.42,3.42,0,0,0,1.36-3,3.12,3.12,0,0,0-1.4-2.89,8.46,8.46,0,0,0-4.32-.86H681Zm0,4.92v11H675V530h8.32q5.82,0,8.61,2.13t2.8,6.43a7.59,7.59,0,0,1-1.39,4.49,9.26,9.26,0,0,1-3.92,3.07q6.44,9.63,8.39,12.44h-6.71l-6.82-11Z"/>
    <rect class="cls-1" x="66.93" y="223.82" width="161.82" height="208.84"/>
    <path d="M259.24,192.86h-3.89l-5.29-12.41h-.16a14.74,14.74,0,0,1,.3,3.05v9.36h-3V175.73h3.92L256.41,188h.13a16.51,16.51,0,0,1-.22-2.93v-9.35h2.92Zm12.34,0-1-4.32h-4.46l-1,4.32H262l4.24-17.2h4.32l4.26,17.2ZM270,185.72l-.91-4c-.05-.24-.18-.85-.37-1.82s-.31-1.62-.34-1.95q-.15,1-.39,2.22c-.16.81-.56,2.65-1.22,5.54Zm13.62,7.14-3.26-14.59h-.13a23.61,23.61,0,0,1,.22,3.1v11.49h-2.95V175.73h4.9l2.93,13.47h.09l2.91-13.47h5v17.13h-3V181.25a27.23,27.23,0,0,1,.17-2.95h-.1l-3.24,14.56Zm21.62,0h-7.72V175.73h7.72v2.76H300.7v4.07h4.2v2.77h-4.2v4.74h4.53Z"/>
    <path d="M455,195.92a2,2,0,0,1,.73-1.75,3.1,3.1,0,0,1,1.77-.5,2.87,2.87,0,0,1,1.68.5,2.44,2.44,0,0,1,0,3.46,2.76,2.76,0,0,1-1.68.53,3,3,0,0,1-1.77-.53A2,2,0,0,1,455,195.92Zm0-9.26a1.93,1.93,0,0,1,.73-1.73,3,3,0,0,1,1.77-.51,2.81,2.81,0,0,1,1.68.51,2,2,0,0,1,.72,1.73,2,2,0,0,1-.72,1.74,2.81,2.81,0,0,1-1.68.51,3,3,0,0,1-1.77-.51A2,2,0,0,1,455,186.66Z"/>
    <path d="M506.46,191.87H493.71v-2.36l8.22-11.77h-8v-3h12.31v2.34L498,188.87h8.42Zm12.6,0h-9.87V174.74h9.87v3h-6.24v3.77h5.8v3h-5.8v4.42h6.24Zm13.45,0h-9.87V174.74h9.87v3h-6.23v3.77h5.8v3h-5.8v4.42h6.23Zm13.7-4.76a4.42,4.42,0,0,1-1.68,3.66,7.2,7.2,0,0,1-4.64,1.33,10.91,10.91,0,0,1-4.85-1V187.7a21.19,21.19,0,0,0,2.93,1.09,8.81,8.81,0,0,0,2.21.31,3.12,3.12,0,0,0,1.82-.45,1.57,1.57,0,0,0,.65-1.36,1.5,1.5,0,0,0-.28-.89,3.18,3.18,0,0,0-.84-.77,19.82,19.82,0,0,0-2.21-1.15,10.72,10.72,0,0,1-2.35-1.42,5.3,5.3,0,0,1-1.26-1.58,4.59,4.59,0,0,1-.47-2.11,4.43,4.43,0,0,1,1.54-3.58,6.4,6.4,0,0,1,4.26-1.3,10.12,10.12,0,0,1,2.55.32,16.46,16.46,0,0,1,2.54.89L545,178.52a16.76,16.76,0,0,0-2.28-.78,7.13,7.13,0,0,0-1.75-.23,2.36,2.36,0,0,0-1.59.48,1.61,1.61,0,0,0-.55,1.26,1.55,1.55,0,0,0,.23.84,2.3,2.3,0,0,0,.7.69A24.27,24.27,0,0,0,542,182a8.94,8.94,0,0,1,3.29,2.31A4.46,4.46,0,0,1,546.21,187.11Zm17.14,4.76h-3.62v-7.39H553v7.39h-3.63V174.74H553v6.71h6.78v-6.71h3.62Zm14.83,0-1.24-4.08h-6.25l-1.24,4.08h-3.92l6.05-17.2H576l6.07,17.2Zm-2.11-7.13-2-6.26c-.14-.49-.24-.87-.3-1.15q-.39,1.5-2.22,7.41Zm23.39,7.13h-4.62l-7.45-13h-.11c.15,2.29.23,3.92.23,4.9v8.06h-3.25V174.74h4.58l7.44,12.83h.09c-.12-2.23-.18-3.8-.18-4.72v-8.11h3.27Zm17.17,0H613V177.76h-4.66v-3h12.94v3h-4.65Zm17.78,0-1.25-4.08h-6.24l-1.24,4.08h-3.92l6-17.2h4.44l6.07,17.2Zm-2.11-7.13-1.95-6.26c-.14-.49-.24-.87-.3-1.15q-.39,1.5-2.22,7.41Zm22.23,7.13h-3.62v-7.39h-6.79v7.39h-3.63V174.74h3.63v6.71h6.79v-6.71h3.62Zm14.82,0-1.24-4.08h-6.25l-1.24,4.08h-3.91l6-17.2h4.45l6.07,17.2Zm-2.11-7.13c-1.15-3.69-1.79-5.78-1.94-6.26s-.25-.87-.31-1.15c-.26,1-1,3.47-2.21,7.41Zm18.31,2.37a4.42,4.42,0,0,1-1.68,3.66,7.22,7.22,0,0,1-4.64,1.33,10.85,10.85,0,0,1-4.85-1V187.7a20.28,20.28,0,0,0,2.93,1.09,8.74,8.74,0,0,0,2.2.31,3.13,3.13,0,0,0,1.83-.45,1.56,1.56,0,0,0,.64-1.36,1.43,1.43,0,0,0-.28-.89,3,3,0,0,0-.83-.77,21.93,21.93,0,0,0-2.21-1.15,10.83,10.83,0,0,1-2.36-1.42,5.43,5.43,0,0,1-1.25-1.58,5,5,0,0,1,1.06-5.69,6.43,6.43,0,0,1,4.27-1.3,10,10,0,0,1,2.54.32,16.94,16.94,0,0,1,2.55.89l-1.18,2.82a16.25,16.25,0,0,0-2.27-.78,7.15,7.15,0,0,0-1.76-.23,2.33,2.33,0,0,0-1.58.48,1.58,1.58,0,0,0-.55,1.26,1.55,1.55,0,0,0,.22.84,2.42,2.42,0,0,0,.7.69,24.27,24.27,0,0,0,2.31,1.2,9,9,0,0,1,3.3,2.31A4.46,4.46,0,0,1,685.55,187.11Zm17.14,4.76h-3.62v-7.39h-6.79v7.39h-3.63V174.74h3.63v6.71h6.79v-6.71h3.62Zm4.34,0V174.74h3.63v17.13Zm7.94,0V174.74h3.63v14.13h6.95v3Zm27.79-8.73a8.43,8.43,0,0,1-2.42,6.48c-1.6,1.5-3.91,2.25-7,2.25h-4.85V174.74h5.38a9.1,9.1,0,0,1,6.52,2.21A8.18,8.18,0,0,1,742.76,183.14Zm-3.78.09q0-5.52-4.87-5.52h-1.93v11.16h1.55Q739,188.87,739,183.23Zm17.82,8.64-1.25-4.08h-6.24l-1.24,4.08h-3.92l6.05-17.2h4.44l6.07,17.2Zm-2.11-7.13-2-6.26c-.14-.49-.24-.87-.3-1.15q-.39,1.5-2.22,7.41Zm11.82-2.4h1.17a4.54,4.54,0,0,0,2.55-.57,2.08,2.08,0,0,0,.82-1.81,1.85,1.85,0,0,0-.85-1.73,5,5,0,0,0-2.59-.52h-1.1Zm0,2.95v6.58h-3.63V174.74h5A8.54,8.54,0,0,1,773,176a5,5,0,0,1,.84,6.55,5.41,5.41,0,0,1-2.35,1.84c2.57,3.86,4.25,6.34,5,7.47h-4l-4.08-6.58Z"/>
    <path d="M247.82,248.82V231.69h3v17.13Zm19.61-8.59a13.67,13.67,0,0,1-.79,5,6.08,6.08,0,0,1-2.29,3l3.15,4.67h-3.68l-2.37-3.84h-.17a5.23,5.23,0,0,1-4.57-2.28,11.34,11.34,0,0,1-1.6-6.57,11.19,11.19,0,0,1,1.6-6.52,5.27,5.27,0,0,1,4.59-2.27,5.19,5.19,0,0,1,4.55,2.29A11.37,11.37,0,0,1,267.43,240.23Zm-9.06,0a10.69,10.69,0,0,0,.74,4.47,2.33,2.33,0,0,0,2.17,1.53q2.88,0,2.88-6t-2.86-6a2.34,2.34,0,0,0-2.19,1.54A10.57,10.57,0,0,0,258.37,240.23Zm20.88,8.59-1-4.32H273.8l-1,4.32h-3.19l4.25-17.2h4.32l4.26,17.2Zm-1.59-7.15-.91-4c-.05-.24-.18-.85-.37-1.82s-.31-1.63-.34-2q-.17,1-.39,2.22c-.16.81-.56,2.65-1.22,5.53Zm13.61,7.15L288,234.23h-.13a23.61,23.61,0,0,1,.22,3.1v11.49h-2.95V231.69h4.89L293,245.15h.1l2.9-13.46h5v17.13h-3V237.21a27,27,0,0,1,.16-3H298l-3.24,14.56Zm22,0-1-4.32h-4.46l-1,4.32h-3.18l4.24-17.2h4.32l4.26,17.2Zm-1.59-7.15-.91-4c-.05-.24-.18-.85-.37-1.82s-.31-1.63-.34-2c-.11.67-.23,1.41-.39,2.22s-.56,2.65-1.22,5.53Zm15.56-10-6.39,17.13h-3l6.39-17.13Zm12.2,5.27a5.91,5.91,0,0,1-1.38,4.2,5.19,5.19,0,0,1-4,1.45h-.8v6.21h-3.19V231.69h4.35Q339.47,231.69,339.46,237Zm-6.15,2.89h.61a2.24,2.24,0,0,0,1.75-.65,3.15,3.15,0,0,0,.57-2.11,3.05,3.05,0,0,0-.53-2,2,2,0,0,0-1.63-.66h-.77Zm17.14,9-1-4.32H345l-1,4.32h-3.19l4.24-17.2h4.32l4.26,17.2Zm-1.58-7.15-.92-4c-.05-.24-.18-.85-.37-1.82s-.3-1.63-.34-2q-.15,1-.39,2.22t-1.22,5.53Zm15.3,2.43a5.14,5.14,0,0,1-1.22,3.68,4.6,4.6,0,0,1-3.5,1.28,7.77,7.77,0,0,1-3.81-.88V245a6.67,6.67,0,0,0,3.53,1.25,1.77,1.77,0,0,0,1.37-.5,1.93,1.93,0,0,0,.47-1.38,2.45,2.45,0,0,0-.55-1.55,8,8,0,0,0-1.82-1.59,8.14,8.14,0,0,1-1.67-1.45,5.38,5.38,0,0,1-.88-1.57,6.16,6.16,0,0,1-.3-2,4.86,4.86,0,0,1,1.22-3.5,4.32,4.32,0,0,1,3.29-1.29,7.14,7.14,0,0,1,3.78,1.11L363,235.1a11,11,0,0,0-1.19-.59,3.32,3.32,0,0,0-1.31-.25,1.46,1.46,0,0,0-1.19.51,2.1,2.1,0,0,0-.41,1.38,2.43,2.43,0,0,0,.49,1.52,7.43,7.43,0,0,0,1.75,1.46,7.28,7.28,0,0,1,2.33,2.3A5.34,5.34,0,0,1,364.17,244.1Zm11.11,0a5.14,5.14,0,0,1-1.22,3.68,4.58,4.58,0,0,1-3.49,1.28,7.77,7.77,0,0,1-3.81-.88V245a6.64,6.64,0,0,0,3.53,1.25,1.78,1.78,0,0,0,1.37-.5,2,2,0,0,0,.47-1.38,2.51,2.51,0,0,0-.55-1.55,8.23,8.23,0,0,0-1.82-1.59,8.23,8.23,0,0,1-1.68-1.45,5.88,5.88,0,0,1-.88-1.57,6.16,6.16,0,0,1-.3-2,4.91,4.91,0,0,1,1.22-3.5,4.34,4.34,0,0,1,3.29-1.29,7.18,7.18,0,0,1,3.79,1.11l-1.06,2.55a10.82,10.82,0,0,0-1.18-.59,3.39,3.39,0,0,0-1.31-.25,1.47,1.47,0,0,0-1.2.51,2.16,2.16,0,0,0-.41,1.38,2.43,2.43,0,0,0,.49,1.52,7.43,7.43,0,0,0,1.75,1.46,7.17,7.17,0,0,1,2.33,2.3A5.24,5.24,0,0,1,375.28,244.1ZM387.93,237a5.91,5.91,0,0,1-1.38,4.2,5.21,5.21,0,0,1-4,1.45h-.79v6.21h-3.19V231.69h4.35C386.26,231.69,387.93,233.45,387.93,237Zm-6.15,2.89h.61a2.2,2.2,0,0,0,1.74-.65,3.15,3.15,0,0,0,.57-2.11,3.12,3.12,0,0,0-.52-2,2,2,0,0,0-1.63-.66h-.77Zm21.3.38a11.36,11.36,0,0,1-1.59,6.54,5.7,5.7,0,0,1-9.13,0,11.42,11.42,0,0,1-1.59-6.57,11.27,11.27,0,0,1,1.59-6.52,5.28,5.28,0,0,1,4.6-2.27,5.17,5.17,0,0,1,4.54,2.29A11.3,11.3,0,0,1,403.08,240.23Zm-9.05,0a10.53,10.53,0,0,0,.74,4.47,2.33,2.33,0,0,0,2.16,1.53q2.9,0,2.89-6c0-4-1-6-2.86-6a2.34,2.34,0,0,0-2.19,1.54A10.42,10.42,0,0,0,394,240.23Zm16,1.92v6.67h-3.19V231.69H411a5.37,5.37,0,0,1,3.91,1.25,5.22,5.22,0,0,1,1.26,3.84q0,3.24-2.19,4.53l3.29,7.51h-3.41l-2.7-6.67Zm0-2.74h.82a1.94,1.94,0,0,0,1.62-.63,3.11,3.11,0,0,0,.49-1.91,2.63,2.63,0,0,0-.53-1.86,2.05,2.05,0,0,0-1.6-.57H410Zm15.28,9.41h-3.18V234.49H418.8v-2.8h9.74v2.8h-3.28Z"/>
    <path d="M455,248.88a2,2,0,0,1,.73-1.75,3.1,3.1,0,0,1,1.77-.5,2.87,2.87,0,0,1,1.68.5,2.44,2.44,0,0,1,0,3.46,2.76,2.76,0,0,1-1.68.53,3,3,0,0,1-1.77-.53A2,2,0,0,1,455,248.88Zm0-9.26a2,2,0,0,1,.73-1.74,3.1,3.1,0,0,1,1.77-.5,2.87,2.87,0,0,1,1.68.5,2.45,2.45,0,0,1,0,3.47,2.75,2.75,0,0,1-1.68.52,3,3,0,0,1-1.77-.52A2,2,0,0,1,455,239.62Z"/>
    <path d="M503.05,250.82h-3.62v-9.91l0-1.63.06-1.78c-.6.6-1,1-1.25,1.18l-2,1.58-1.75-2.17,5.52-4.4h3Zm16.73,0h-12V248.3l4.3-4.34c1.27-1.31,2.11-2.21,2.49-2.71a5.79,5.79,0,0,0,.85-1.41,3.58,3.58,0,0,0,.26-1.33,1.93,1.93,0,0,0-.58-1.54,2.15,2.15,0,0,0-1.51-.5,4.4,4.4,0,0,0-1.93.45,9.84,9.84,0,0,0-2,1.31l-2-2.34a12.94,12.94,0,0,1,2.1-1.52,7.45,7.45,0,0,1,1.82-.68,9.24,9.24,0,0,1,2.2-.25,6.58,6.58,0,0,1,2.84.59,4.55,4.55,0,0,1,1.9,1.64,4.31,4.31,0,0,1,.68,2.42,5.88,5.88,0,0,1-.42,2.22,8,8,0,0,1-1.29,2.12,30,30,0,0,1-3.07,3.11l-2.2,2.07v.17h7.46Zm13.05-13.3a4,4,0,0,1-1,2.73,5,5,0,0,1-2.73,1.55v.07a5.47,5.47,0,0,1,3.15,1.26,3.53,3.53,0,0,1,1.06,2.7,4.62,4.62,0,0,1-1.79,3.86,8.32,8.32,0,0,1-5.12,1.37,12.42,12.42,0,0,1-4.95-.93v-3.08a11.82,11.82,0,0,0,2.19.82,9.32,9.32,0,0,0,2.37.32,4.65,4.65,0,0,0,2.65-.61,2.24,2.24,0,0,0,.85-2,1.76,1.76,0,0,0-1-1.71,7.21,7.21,0,0,0-3.14-.51h-1.3v-2.77h1.32a6.11,6.11,0,0,0,2.91-.52,1.89,1.89,0,0,0,.93-1.79c0-1.3-.82-1.95-2.44-1.95a6,6,0,0,0-1.73.28,8.77,8.77,0,0,0-1.93,1l-1.67-2.5a9.33,9.33,0,0,1,5.59-1.69,7.16,7.16,0,0,1,4.19,1.08A3.46,3.46,0,0,1,532.83,237.52Zm14.76,9.75h-2.06v3.55H542v-3.55h-7.31v-2.52l7.51-11.06h3.34v10.77h2.06Zm-5.6-2.81v-2.91c0-.48,0-1.18.06-2.11s.07-1.45.09-1.6h-.09a13.8,13.8,0,0,1-1,1.87l-3.14,4.75Zm13.19-4.58a5.46,5.46,0,0,1,3.94,1.39,5,5,0,0,1,1.48,3.82,5.55,5.55,0,0,1-1.77,4.42,7.45,7.45,0,0,1-5.06,1.55,9.87,9.87,0,0,1-4.62-.93V247a9.73,9.73,0,0,0,2.16.81,9.9,9.9,0,0,0,2.33.31q3.32,0,3.32-2.72t-3.44-2.59a7.78,7.78,0,0,0-1.37.13,9.19,9.19,0,0,0-1.22.25l-1.44-.77.65-8.73h9.29v3.07h-6.12l-.31,3.36.41-.08A8,8,0,0,1,555.18,239.88Zm7.35,3.67q0-5.1,2.15-7.57t6.44-2.49a11.4,11.4,0,0,1,2.3.18v2.89a9.1,9.1,0,0,0-2.06-.23,7.07,7.07,0,0,0-3.05.56,3.83,3.83,0,0,0-1.76,1.66,7.68,7.68,0,0,0-.69,3.13H566a4,4,0,0,1,3.71-2,4.61,4.61,0,0,1,3.6,1.44,5.72,5.72,0,0,1,1.3,4,6,6,0,0,1-1.55,4.34,5.67,5.67,0,0,1-4.29,1.6,6.2,6.2,0,0,1-3.31-.88,5.71,5.71,0,0,1-2.18-2.57A9.77,9.77,0,0,1,562.53,243.55Zm6.19,4.61a2.15,2.15,0,0,0,1.78-.77,3.48,3.48,0,0,0,.62-2.23,3,3,0,0,0-.58-2,2.1,2.1,0,0,0-1.75-.72,2.72,2.72,0,0,0-1.88.71,2.2,2.2,0,0,0-.78,1.67,3.8,3.8,0,0,0,.73,2.35A2.25,2.25,0,0,0,568.72,248.16Zm9.34,2.66,6.44-14.06h-8.45v-3h12.29V236l-6.48,14.83Z"/>
    <path d="M247.82,302.78V285.65h3v17.13Zm15.62-4.72a5.14,5.14,0,0,1-1.21,3.68,4.6,4.6,0,0,1-3.5,1.28,7.71,7.71,0,0,1-3.8-.88V299a6.55,6.55,0,0,0,3.52,1.26,1.74,1.74,0,0,0,1.37-.51,1.89,1.89,0,0,0,.47-1.37,2.46,2.46,0,0,0-.55-1.56,8.25,8.25,0,0,0-1.82-1.58,8.46,8.46,0,0,1-1.67-1.45,5.38,5.38,0,0,1-.88-1.57,6.18,6.18,0,0,1-.3-2,4.88,4.88,0,0,1,1.21-3.49,4.36,4.36,0,0,1,3.3-1.29,7.22,7.22,0,0,1,3.78,1.1l-1.05,2.56a9.41,9.41,0,0,0-1.19-.59,3.33,3.33,0,0,0-1.31-.26,1.47,1.47,0,0,0-1.19.52,2.1,2.1,0,0,0-.41,1.38,2.38,2.38,0,0,0,.49,1.51,7.58,7.58,0,0,0,1.74,1.47,7.22,7.22,0,0,1,2.34,2.3A5.34,5.34,0,0,1,263.44,298.06Zm11.12,0a5.14,5.14,0,0,1-1.22,3.68,4.58,4.58,0,0,1-3.49,1.28,7.77,7.77,0,0,1-3.81-.88V299a6.58,6.58,0,0,0,3.53,1.26,1.75,1.75,0,0,0,1.37-.51,1.93,1.93,0,0,0,.47-1.37,2.52,2.52,0,0,0-.55-1.56,8.5,8.5,0,0,0-1.82-1.58,8.55,8.55,0,0,1-1.68-1.45,5.88,5.88,0,0,1-.88-1.57,6.18,6.18,0,0,1-.3-2,4.88,4.88,0,0,1,1.22-3.49,4.34,4.34,0,0,1,3.29-1.29,7.26,7.26,0,0,1,3.79,1.1l-1.06,2.56a9.28,9.28,0,0,0-1.18-.59,3.4,3.4,0,0,0-1.31-.26,1.47,1.47,0,0,0-1.2.52,2.16,2.16,0,0,0-.41,1.38,2.38,2.38,0,0,0,.49,1.51,7.67,7.67,0,0,0,1.75,1.47,7.17,7.17,0,0,1,2.33,2.3A5.24,5.24,0,0,1,274.56,298.06Zm13.84-12.41v11.08a7,7,0,0,1-1.38,4.68,5,5,0,0,1-4,1.61,4.8,4.8,0,0,1-3.89-1.6,7.25,7.25,0,0,1-1.33-4.73v-11H281v11.27c0,2.18.72,3.27,2.17,3.27a1.78,1.78,0,0,0,1.56-.83,4.35,4.35,0,0,0,.55-2.37V285.65Zm11.89,17.13h-7.72V285.65h7.72v2.75h-4.53v4.08H300v2.76h-4.2V300h4.53Zm14.6-8.73q0,4.24-1.74,6.49a5.9,5.9,0,0,1-5,2.24H304V285.65h4.58a5.5,5.5,0,0,1,4.65,2.21A10.08,10.08,0,0,1,314.89,294.05Zm-3.28.09c0-3.82-1.05-5.74-3.16-5.74h-1.28V300h1a2.76,2.76,0,0,0,2.58-1.45A9.08,9.08,0,0,0,311.61,294.14Zm25-.09a10.5,10.5,0,0,1-1.73,6.49,5.91,5.91,0,0,1-5,2.24h-4.2V285.65h4.58a5.5,5.5,0,0,1,4.66,2.21A10.08,10.08,0,0,1,336.62,294.05Zm-3.27.09c0-3.82-1.05-5.74-3.16-5.74h-1.28V300h1a2.77,2.77,0,0,0,2.58-1.45A9.2,9.2,0,0,0,333.35,294.14Zm15.09,8.64-1-4.32H343l-1,4.32h-3.19l4.24-17.2h4.32l4.26,17.2Zm-1.58-7.15-.92-4c-.05-.24-.18-.85-.37-1.82s-.3-1.63-.34-2c-.1.68-.23,1.42-.39,2.23s-.56,2.65-1.22,5.53Zm11.93,7.15h-3.18V288.45h-3.28v-2.8h9.74v2.8h-3.28Zm14,0h-7.72V285.65h7.72v2.75H368.3v4.08h4.21v2.76H368.3V300h4.53Z"/>
    <path d="M455,302.83a2,2,0,0,1,.73-1.74,3,3,0,0,1,1.77-.51,2.81,2.81,0,0,1,1.68.51,2,2,0,0,1,.72,1.74,2,2,0,0,1-.72,1.72,2.75,2.75,0,0,1-1.68.52,3,3,0,0,1-1.77-.52A2,2,0,0,1,455,302.83Zm0-9.25a2,2,0,0,1,.73-1.74,3.1,3.1,0,0,1,1.77-.5,2.87,2.87,0,0,1,1.68.5,2.45,2.45,0,0,1,0,3.47,2.75,2.75,0,0,1-1.68.52,3,3,0,0,1-1.77-.52A2,2,0,0,1,455,293.58Z"/>
    <path d="M506.07,304.78h-12v-2.52l4.3-4.35q1.91-1.95,2.49-2.7a5.79,5.79,0,0,0,.85-1.41,3.63,3.63,0,0,0,.26-1.34,2,2,0,0,0-.58-1.53,2.16,2.16,0,0,0-1.51-.51,4.41,4.41,0,0,0-1.93.46,10.2,10.2,0,0,0-2,1.3l-2-2.33a12,12,0,0,1,2.1-1.52,7.13,7.13,0,0,1,1.81-.68,8.89,8.89,0,0,1,2.21-.25A6.51,6.51,0,0,1,503,288a4.46,4.46,0,0,1,1.91,1.64,4.3,4.3,0,0,1,.68,2.41,5.94,5.94,0,0,1-.42,2.23,8.15,8.15,0,0,1-1.29,2.12,30.24,30.24,0,0,1-3.07,3.1l-2.2,2.08v.16h7.46Zm8-10.95a5.48,5.48,0,0,1,4,1.4,5,5,0,0,1,1.48,3.82,5.56,5.56,0,0,1-1.77,4.42,7.47,7.47,0,0,1-5.06,1.55,9.87,9.87,0,0,1-4.62-.93V301a10.11,10.11,0,0,0,4.49,1.11q3.32,0,3.31-2.71t-3.43-2.59a8.76,8.76,0,0,0-1.37.12,10.38,10.38,0,0,0-1.22.26l-1.44-.77.64-8.73h9.3v3.07h-6.12l-.32,3.36.41-.08A8,8,0,0,1,514,293.83Zm13.47,6v-2.93h6.29v2.93Zm23.39-3.76a8.43,8.43,0,0,1-2.42,6.48c-1.6,1.5-3.91,2.25-7,2.25h-4.85V287.65h5.38a9.1,9.1,0,0,1,6.52,2.21A8.18,8.18,0,0,1,550.9,296.05Zm-3.78.09q0-5.52-4.87-5.52h-1.93v11.16h1.56C545.38,301.78,547.12,299.9,547.12,296.14Zm17.2,8.64h-9.87V287.65h9.87v3h-6.24v3.77h5.8v3h-5.8v4.42h6.24Zm10.86-14.36A3.71,3.71,0,0,0,572,292a7.13,7.13,0,0,0-1.12,4.29q0,5.73,4.3,5.73a13.63,13.63,0,0,0,4.37-.9v3.05a12.27,12.27,0,0,1-4.71.88,7.2,7.2,0,0,1-5.72-2.27q-2-2.26-2-6.51a10.75,10.75,0,0,1,1-4.68,7,7,0,0,1,2.79-3.08,8.27,8.27,0,0,1,4.28-1.08,11.49,11.49,0,0,1,5,1.21L579,291.56a18.64,18.64,0,0,0-1.93-.79A5.73,5.73,0,0,0,575.18,290.42Zm6.59,9.39v-2.93h6.29v2.93Zm26.19,5H596v-2.52l4.3-4.35c1.27-1.3,2.11-2.2,2.5-2.7a6.05,6.05,0,0,0,.84-1.41,3.63,3.63,0,0,0,.26-1.34,1.92,1.92,0,0,0-.58-1.53,2.14,2.14,0,0,0-1.51-.51,4.41,4.41,0,0,0-1.93.46,10.2,10.2,0,0,0-2,1.3l-2-2.33a12.76,12.76,0,0,1,2.1-1.52,7.2,7.2,0,0,1,1.82-.68,8.76,8.76,0,0,1,2.2-.25,6.55,6.55,0,0,1,2.84.59,4.51,4.51,0,0,1,1.91,1.64,4.38,4.38,0,0,1,.68,2.41,5.75,5.75,0,0,1-.43,2.23,8.37,8.37,0,0,1-1.28,2.12,31.35,31.35,0,0,1-3.07,3.1l-2.21,2.08v.16H608Zm13.61-8.57c0,3-.49,5.21-1.47,6.65a5.71,5.71,0,0,1-9-.07q-1.5-2.24-1.5-6.58,0-4.53,1.46-6.68a5.69,5.69,0,0,1,9,.1C621.07,291.13,621.57,293.32,621.57,296.21Zm-8.37,0a13.87,13.87,0,0,0,.53,4.53,1.92,1.92,0,0,0,1.84,1.36,1.9,1.9,0,0,0,1.83-1.39,18,18,0,0,0,0-9,1.89,1.89,0,0,0-3.64,0A13.19,13.19,0,0,0,613.2,296.21Zm22.18,8.57h-12v-2.52l4.3-4.35c1.28-1.3,2.11-2.2,2.5-2.7a6.05,6.05,0,0,0,.84-1.41,3.44,3.44,0,0,0,.26-1.34,2,2,0,0,0-.57-1.53,2.17,2.17,0,0,0-1.51-.51,4.46,4.46,0,0,0-1.94.46,10.52,10.52,0,0,0-2,1.3l-2-2.33a12.76,12.76,0,0,1,2.1-1.52,7.2,7.2,0,0,1,1.82-.68,8.81,8.81,0,0,1,2.2-.25,6.55,6.55,0,0,1,2.84.59,4.46,4.46,0,0,1,1.91,1.64,4.38,4.38,0,0,1,.68,2.41,5.94,5.94,0,0,1-.42,2.23,8.73,8.73,0,0,1-1.29,2.12,30.24,30.24,0,0,1-3.07,3.1l-2.21,2.08v.16h7.47Zm14.1-3.55h-2.07v3.55h-3.53v-3.55h-7.32v-2.52l7.51-11.06h3.34v10.77h2.07Zm-5.6-2.81v-2.91c0-.48,0-1.19,0-2.11s.07-1.45.1-1.6h-.1a12.8,12.8,0,0,1-1,1.87l-3.14,4.75Z"/>
    <path d="M255,356.74h-7.73V339.61H255v2.75h-4.54v4.08h4.21v2.76h-4.21V354H255Zm13.54,0h-3.32l-2.45-6.14-2.27,6.14h-3.32l3.92-8.91-3.63-8.22h3.21l2.27,5.63,1.95-5.63h3.34L264.59,348Zm12.06-11.86a5.86,5.86,0,0,1-1.38,4.19,5.22,5.22,0,0,1-4,1.46h-.79v6.21h-3.19V339.61h4.35C278.91,339.61,280.57,341.36,280.57,344.88Zm-6.15,2.88H275a2.2,2.2,0,0,0,1.74-.64,4.07,4.07,0,0,0,.05-4.1,2,2,0,0,0-1.63-.66h-.77Zm10.09,9V339.61h3v17.13Zm11-6.67v6.67h-3.19V339.61h4.18a5.31,5.31,0,0,1,3.9,1.25,5.2,5.2,0,0,1,1.26,3.83q0,3.26-2.19,4.54l3.29,7.51h-3.41l-2.7-6.67Zm0-2.74h.82a1.94,1.94,0,0,0,1.62-.63,3.11,3.11,0,0,0,.49-1.91,2.68,2.68,0,0,0-.53-1.87,2.09,2.09,0,0,0-1.6-.56h-.8Zm14.14-1,2.28-6.76h3.34l-4.06,10.26v6.87h-3.14V350L304,339.61h3.37ZM336,348q0,4.25-1.74,6.49a5.9,5.9,0,0,1-5,2.24h-4.19V339.61h4.58a5.47,5.47,0,0,1,4.65,2.21A10.08,10.08,0,0,1,336,348Zm-3.27.09q0-5.75-3.17-5.74h-1.28V354h1a2.77,2.77,0,0,0,2.57-1.45A9.1,9.1,0,0,0,332.77,348.1Zm15.08,8.64-1-4.33H342.4l-1,4.33h-3.19l4.24-17.2h4.33l4.25,17.2Zm-1.58-7.15-.91-4c-.06-.25-.18-.85-.38-1.82s-.3-1.63-.34-2c-.1.67-.23,1.42-.38,2.23s-.57,2.65-1.22,5.53Zm11.93,7.15H355V342.41h-3.28v-2.8h9.74v2.8H358.2Zm14.05,0h-7.72V339.61h7.72v2.75h-4.54v4.08h4.21v2.76h-4.21V354h4.54Z"/>
    <path d="M455,356.79a1.94,1.94,0,0,1,.73-1.74,3,3,0,0,1,1.77-.51,2.81,2.81,0,0,1,1.68.51,2.43,2.43,0,0,1,0,3.45,2.7,2.7,0,0,1-1.68.53,2.9,2.9,0,0,1-1.77-.53A2,2,0,0,1,455,356.79Zm0-9.25a2,2,0,0,1,.73-1.74,3,3,0,0,1,1.77-.5,2.8,2.8,0,0,1,1.68.5,2,2,0,0,1,.72,1.74,2,2,0,0,1-.72,1.73,2.82,2.82,0,0,1-1.68.52,3,3,0,0,1-1.77-.52A2,2,0,0,1,455,347.54Z"/>
    <path d="M506.07,358.74h-12v-2.52l4.3-4.35c1.27-1.3,2.1-2.21,2.49-2.71a5.57,5.57,0,0,0,.85-1.4,3.63,3.63,0,0,0,.26-1.34,1.92,1.92,0,0,0-.58-1.53,2.16,2.16,0,0,0-1.51-.51,4.41,4.41,0,0,0-1.93.46,9.76,9.76,0,0,0-2,1.3l-2-2.33a12,12,0,0,1,2.1-1.52,7.13,7.13,0,0,1,1.81-.68,8.89,8.89,0,0,1,2.21-.25A6.37,6.37,0,0,1,503,342a4.46,4.46,0,0,1,1.91,1.64,4.27,4.27,0,0,1,.68,2.41,5.94,5.94,0,0,1-.42,2.23,8.31,8.31,0,0,1-1.29,2.12,31.31,31.31,0,0,1-3.07,3.1l-2.2,2.08v.16h7.46Zm14.1-3.55h-2.06v3.55h-3.54v-3.55h-7.31v-2.52l7.51-11.06h3.34v10.77h2.06Zm-5.6-2.81v-2.91c0-.49,0-1.19.06-2.11s.07-1.46.09-1.61h-.09a13.91,13.91,0,0,1-1,1.88l-3.14,4.75Zm12.94,1.39v-2.93h6.29v2.93ZM557.13,350a8.42,8.42,0,0,1-2.41,6.48q-2.4,2.25-7,2.25h-4.85V341.61h5.38a9,9,0,0,1,6.51,2.21A8.14,8.14,0,0,1,557.13,350Zm-3.77.09q0-5.52-4.88-5.52h-1.93v11.16h1.56Q553.36,355.74,553.36,350.1Zm17.19,8.64h-9.87V341.61h9.87v3h-6.23v3.76h5.8v3h-5.8v4.42h6.23Zm10.86-14.36a3.7,3.7,0,0,0-3.17,1.55,7.13,7.13,0,0,0-1.13,4.29c0,3.82,1.44,5.73,4.3,5.73a13.58,13.58,0,0,0,4.37-.9v3a12,12,0,0,1-4.71.88,7.21,7.21,0,0,1-5.72-2.26c-1.32-1.51-2-3.69-2-6.51a10.57,10.57,0,0,1,1-4.68,7,7,0,0,1,2.79-3.08,8.21,8.21,0,0,1,4.27-1.08,11.46,11.46,0,0,1,5,1.21l-1.17,2.95a18.89,18.89,0,0,0-1.94-.8A5.88,5.88,0,0,0,581.41,344.38Zm12.82,9.39v-2.93h6.3v2.93Zm26.2,5h-12v-2.52l4.3-4.35c1.27-1.3,2.1-2.21,2.5-2.71a5.81,5.81,0,0,0,.84-1.4,3.63,3.63,0,0,0,.26-1.34,1.89,1.89,0,0,0-.58-1.53,2.16,2.16,0,0,0-1.51-.51,4.41,4.41,0,0,0-1.93.46,9.76,9.76,0,0,0-2,1.3l-2-2.33a12.76,12.76,0,0,1,2.1-1.52,7.06,7.06,0,0,1,1.82-.68,8.76,8.76,0,0,1,2.2-.25,6.37,6.37,0,0,1,2.83.59,4.48,4.48,0,0,1,1.92,1.64A4.35,4.35,0,0,1,620,346a5.94,5.94,0,0,1-.43,2.23,8.31,8.31,0,0,1-1.29,2.12,30.2,30.2,0,0,1-3.07,3.1l-2.2,2.08v.16h7.47ZM634,350.17q0,4.49-1.47,6.65A5.12,5.12,0,0,1,628,359a5.05,5.05,0,0,1-4.47-2.22q-1.5-2.24-1.5-6.58c0-3,.48-5.25,1.46-6.68a5.69,5.69,0,0,1,9,.1Q634,345.84,634,350.17Zm-8.38,0a13.57,13.57,0,0,0,.54,4.53,1.92,1.92,0,0,0,3.67,0,18.28,18.28,0,0,0,0-9,1.9,1.9,0,0,0-1.82-1.38,1.88,1.88,0,0,0-1.82,1.38A13.1,13.1,0,0,0,625.66,350.17Zm22.19,8.57h-12v-2.52l4.3-4.35c1.28-1.3,2.11-2.21,2.5-2.71a5.81,5.81,0,0,0,.84-1.4,3.63,3.63,0,0,0,.26-1.34,1.92,1.92,0,0,0-.57-1.53,2.18,2.18,0,0,0-1.52-.51,4.45,4.45,0,0,0-1.93.46,9.76,9.76,0,0,0-2,1.3l-2-2.33a12.76,12.76,0,0,1,2.1-1.52,7.2,7.2,0,0,1,1.82-.68,8.76,8.76,0,0,1,2.2-.25,6.41,6.41,0,0,1,2.84.59,4.51,4.51,0,0,1,1.91,1.64,4.35,4.35,0,0,1,.68,2.41,5.94,5.94,0,0,1-.42,2.23,8.93,8.93,0,0,1-1.29,2.12,32.49,32.49,0,0,1-3.07,3.1l-2.21,2.08v.16h7.47Zm8-10.95a5.51,5.51,0,0,1,3.95,1.4,5,5,0,0,1,1.47,3.82,5.58,5.58,0,0,1-1.77,4.42,7.47,7.47,0,0,1-5.06,1.54,10,10,0,0,1-4.62-.92v-3.13a9.73,9.73,0,0,0,2.16.81,9.87,9.87,0,0,0,2.33.3q3.32,0,3.32-2.72c0-1.72-1.15-2.59-3.44-2.59a8.86,8.86,0,0,0-1.37.13,10.85,10.85,0,0,0-1.22.26l-1.44-.77.65-8.73h9.29v3.07H654l-.31,3.36.41-.08A7.91,7.91,0,0,1,655.82,347.79Z"/>
    <path d="M252.93,450.06a2.42,2.42,0,0,0-2.17,1.61,10.4,10.4,0,0,0-.78,4.46q0,6,3.1,6a5.65,5.65,0,0,0,2.85-.87v2.84a5.75,5.75,0,0,1-3.21.83,5.08,5.08,0,0,1-4.46-2.3,11.58,11.58,0,0,1-1.54-6.48,11.42,11.42,0,0,1,1.59-6.5,5.11,5.11,0,0,1,4.45-2.34,6.27,6.27,0,0,1,1.8.26,7.61,7.61,0,0,1,1.85.9L255.35,451a8.19,8.19,0,0,0-1.12-.65A2.86,2.86,0,0,0,252.93,450.06Zm18,6a11.28,11.28,0,0,1-1.6,6.54,5.2,5.2,0,0,1-4.55,2.29,5.26,5.26,0,0,1-4.58-2.28,11.42,11.42,0,0,1-1.59-6.57,11.27,11.27,0,0,1,1.59-6.52,5.3,5.3,0,0,1,4.6-2.27,5.19,5.19,0,0,1,4.55,2.29A11.37,11.37,0,0,1,271,456.06Zm-9.06,0a10.5,10.5,0,0,0,.74,4.47,2.33,2.33,0,0,0,2.17,1.53q2.88,0,2.88-6c0-4-1-6-2.86-6a2.35,2.35,0,0,0-2.19,1.54A10.42,10.42,0,0,0,261.91,456.06Zm18.88,8.59-3.25-14.59h-.13a25.48,25.48,0,0,1,.22,3.1v11.49h-2.95V447.52h4.89L282.5,461h.1l2.9-13.47h5v17.13h-3V453a27.17,27.17,0,0,1,.16-3h-.09l-3.25,14.56ZM304,452.79a5.87,5.87,0,0,1-1.39,4.2,5.17,5.17,0,0,1-4,1.45h-.8v6.21H294.7V447.52H299Q304,447.52,304,452.79Zm-6.16,2.89h.61a2.23,2.23,0,0,0,1.75-.65,3.15,3.15,0,0,0,.57-2.11,3.12,3.12,0,0,0-.52-2,2,2,0,0,0-1.63-.66h-.78Zm17.14,9-1-4.32h-4.47l-1,4.32H305.4l4.24-17.2H314l4.25,17.2Zm-1.58-7.14-.92-4c0-.24-.17-.85-.37-1.82s-.3-1.62-.34-1.95q-.15,1-.39,2.22c-.15.81-.56,2.65-1.22,5.54Zm19.49,7.14H329l-5.3-12.41h-.15a14.74,14.74,0,0,1,.3,3.05v9.36h-3V447.52h3.92l5.25,12.28h.13a16.42,16.42,0,0,1-.23-2.93v-9.35h2.93Zm8.35-10.37,2.29-6.76h3.33l-4.06,10.27v6.86H339.7v-6.73l-4.06-10.4H339Zm27.48,10.37h-3.89l-5.3-12.41h-.15a15.48,15.48,0,0,1,.29,3.05v9.36h-2.95V447.52h3.91l5.25,12.28h.13a16.51,16.51,0,0,1-.22-2.93v-9.35h2.93Zm12.33,0-1-4.32h-4.47l-1,4.32h-3.19l4.24-17.2H380l4.25,17.2Zm-1.58-7.14-.91-4c-.06-.24-.18-.85-.38-1.82s-.3-1.62-.34-1.95q-.15,1-.39,2.22c-.15.81-.56,2.65-1.22,5.54Zm13.61,7.14-3.26-14.59h-.13a23.61,23.61,0,0,1,.22,3.1v11.49H387V447.52h4.9L394.83,461h.09l2.91-13.47h5v17.13h-3V453a27.17,27.17,0,0,1,.16-3h-.09l-3.25,14.56Zm21.62,0H407V447.52h7.72v2.75h-4.53v4.08h4.21v2.77h-4.21v4.74h4.53Z"/>
    <path d="M455,464.71a2,2,0,0,1,.73-1.75,3.1,3.1,0,0,1,1.77-.5,2.87,2.87,0,0,1,1.68.5,2.44,2.44,0,0,1,0,3.46,2.76,2.76,0,0,1-1.68.53,3,3,0,0,1-1.77-.53A2,2,0,0,1,455,464.71Zm0-9.26a1.93,1.93,0,0,1,.73-1.73,3,3,0,0,1,1.77-.51,2.81,2.81,0,0,1,1.68.51,2,2,0,0,1,.72,1.73,2,2,0,0,1-.72,1.73,2.75,2.75,0,0,1-1.68.52,3,3,0,0,1-1.77-.52A2,2,0,0,1,455,455.45Z"/>
    <path d="M510.84,459.06a10.94,10.94,0,0,1-1.07,5.08,6.51,6.51,0,0,1-3.15,3l4.13,4.61H506.1L503,467.89h-.27a7.84,7.84,0,0,1-6.05-2.29q-2.11-2.28-2.11-6.56t2.11-6.53a7.91,7.91,0,0,1,6.07-2.26,7.81,7.81,0,0,1,6,2.27Q510.84,454.8,510.84,459.06Zm-12.5,0a7.14,7.14,0,0,0,1.09,4.33,3.81,3.81,0,0,0,3.26,1.45c2.9,0,4.35-1.92,4.35-5.78s-1.45-5.79-4.33-5.79a3.84,3.84,0,0,0-3.27,1.47A7.13,7.13,0,0,0,498.34,459.06Zm30-8.54v11.09a6.34,6.34,0,0,1-.86,3.32,5.4,5.4,0,0,1-2.45,2.19,8.69,8.69,0,0,1-3.79.77,7.27,7.27,0,0,1-5.14-1.69,6,6,0,0,1-1.82-4.64v-11h3.62V461a4.36,4.36,0,0,0,.8,2.91,3.31,3.31,0,0,0,2.63.92,3.25,3.25,0,0,0,2.58-.92,4.45,4.45,0,0,0,.81-2.94V450.52ZM543,467.65l-1.24-4.07h-6.25l-1.24,4.07h-3.91l6-17.2h4.44l6.07,17.2Zm-2.11-7.12Q539.2,455,539,454.26c-.14-.49-.24-.87-.31-1.15q-.37,1.5-2.21,7.42Zm8.19,7.12V450.52h3.64v14.13h7v3Zm13.58,0V450.52h3.63v17.13Zm14.55,0H573.6V453.54H569v-3h12.93v3h-4.65Zm12.62-10.07,3.58-7.06h3.91L591.66,461v6.67h-3.61V461.1l-5.69-10.58h3.94Zm15.88-7.06h5.33a10.29,10.29,0,0,1,5.29,1,3.61,3.61,0,0,1,1.65,3.3,4.11,4.11,0,0,1-.73,2.52,2.84,2.84,0,0,1-1.91,1.18v.12a3.73,3.73,0,0,1,2.35,1.36,4.39,4.39,0,0,1,.72,2.64,4.34,4.34,0,0,1-1.7,3.66,7.3,7.3,0,0,1-4.59,1.31h-6.41Zm3.63,6.78h2.11a3.83,3.83,0,0,0,2.13-.45,1.7,1.7,0,0,0,.67-1.51,1.5,1.5,0,0,0-.72-1.41,4.57,4.57,0,0,0-2.28-.43h-1.91Zm0,2.89v4.46h2.37a3.55,3.55,0,0,0,2.22-.57,2.14,2.14,0,0,0,.71-1.76c0-1.42-1-2.13-3-2.13Zm23,7.46-1.24-4.07h-6.25l-1.24,4.07H619.7l6-17.2h4.44l6.07,17.2Zm-2.11-7.12q-1.71-5.55-1.94-6.27c-.14-.49-.24-.87-.31-1.15q-.37,1.5-2.21,7.42Zm18.31,2.36a4.42,4.42,0,0,1-1.68,3.66,7.22,7.22,0,0,1-4.64,1.34,11,11,0,0,1-4.85-1v-3.38a19.55,19.55,0,0,0,2.93,1.09,8.79,8.79,0,0,0,2.2.32,3.13,3.13,0,0,0,1.83-.46,1.57,1.57,0,0,0,.65-1.36,1.52,1.52,0,0,0-.28-.89,3.16,3.16,0,0,0-.84-.76,20.28,20.28,0,0,0-2.21-1.16,10.69,10.69,0,0,1-2.36-1.42,5.3,5.3,0,0,1-1.25-1.58,4.56,4.56,0,0,1-.47-2.11,4.42,4.42,0,0,1,1.53-3.57,6.45,6.45,0,0,1,4.27-1.31,10,10,0,0,1,2.54.32,17.7,17.7,0,0,1,2.55.89l-1.18,2.82a17.68,17.68,0,0,0-2.27-.78,7.13,7.13,0,0,0-1.76-.22,2.35,2.35,0,0,0-1.58.48,1.57,1.57,0,0,0-.55,1.25,1.71,1.71,0,0,0,.22.85,2.76,2.76,0,0,0,.71.69,24.44,24.44,0,0,0,2.3,1.19,9.23,9.23,0,0,1,3.3,2.31A4.5,4.5,0,0,1,648.54,462.89Zm13,4.76h-9.87V450.52h9.87v3h-6.23v3.76h5.8v3h-5.8v4.42h6.23Zm9.82,0V450.52H675v17.13Zm23.15,0h-4.62l-7.45-13h-.11c.15,2.29.22,3.92.22,4.9v8.06h-3.24V450.52h4.58l7.44,12.83h.08c-.11-2.23-.17-3.8-.17-4.72v-8.11h3.27Zm14.43-4.76a4.44,4.44,0,0,1-1.67,3.66,7.24,7.24,0,0,1-4.64,1.34,11,11,0,0,1-4.85-1v-3.38a19.15,19.15,0,0,0,2.93,1.09,8.79,8.79,0,0,0,2.2.32,3.15,3.15,0,0,0,1.83-.46,1.56,1.56,0,0,0,.64-1.36,1.45,1.45,0,0,0-.28-.89,3.27,3.27,0,0,0-.83-.76,20.76,20.76,0,0,0-2.22-1.16,10.58,10.58,0,0,1-2.35-1.42,5.33,5.33,0,0,1-1.26-1.58,4.56,4.56,0,0,1-.46-2.11,4.42,4.42,0,0,1,1.53-3.57,6.41,6.41,0,0,1,4.27-1.31,10,10,0,0,1,2.54.32,17.59,17.59,0,0,1,2.54.89l-1.17,2.82a17.68,17.68,0,0,0-2.27-.78,7.19,7.19,0,0,0-1.76-.22,2.31,2.31,0,0,0-1.58.48,1.57,1.57,0,0,0-.55,1.25,1.61,1.61,0,0,0,.22.85,2.7,2.7,0,0,0,.7.69,25.12,25.12,0,0,0,2.31,1.19,9.17,9.17,0,0,1,3.29,2.31A4.44,4.44,0,0,1,708.91,462.89Zm6.74-4.31h1.2a4,4,0,0,0,2.5-.65,2.75,2.75,0,0,0,.13-3.82,3.21,3.21,0,0,0-2.18-.61h-1.65Zm8.2-2.72a5.2,5.2,0,0,1-1.73,4.23,7.34,7.34,0,0,1-4.91,1.47h-1.56v6.09H712V450.52h5.47a7.24,7.24,0,0,1,4.74,1.35A4.87,4.87,0,0,1,723.85,455.86ZM737,467.65h-9.87V450.52H737v3h-6.24v3.76h5.8v3h-5.8v4.42H737Zm10.86-14.35a3.7,3.7,0,0,0-3.18,1.54,7.17,7.17,0,0,0-1.12,4.29q0,5.73,4.3,5.73a13.63,13.63,0,0,0,4.37-.9V467a12.24,12.24,0,0,1-4.71.88,7.2,7.2,0,0,1-5.72-2.27q-2-2.26-2-6.51a10.61,10.61,0,0,1,1-4.68,7,7,0,0,1,2.79-3.08,8.27,8.27,0,0,1,4.28-1.08,11.63,11.63,0,0,1,5,1.21l-1.18,2.95a18.64,18.64,0,0,0-1.93-.79A5.67,5.67,0,0,0,747.82,453.3Zm14.64,14.35h-3.64V453.54h-4.65v-3h12.94v3h-4.65Zm7.29,0V450.52h3.63v17.13Zm23.49-8.59q0,4.26-2.11,6.54a9.12,9.12,0,0,1-12.09,0q-2.12-2.28-2.11-6.56t2.11-6.53a7.91,7.91,0,0,1,6.07-2.26,7.79,7.79,0,0,1,6,2.27Q793.24,454.8,793.24,459.06Zm-12.5,0a7.14,7.14,0,0,0,1.09,4.33,3.8,3.8,0,0,0,3.26,1.45c2.89,0,4.34-1.92,4.34-5.78s-1.44-5.79-4.32-5.79a3.82,3.82,0,0,0-3.27,1.47A7.06,7.06,0,0,0,780.74,459.06ZM812,467.65h-4.61l-7.46-13h-.1c.15,2.29.22,3.92.22,4.9v8.06h-3.25V450.52h4.59l7.44,12.83h.08c-.12-2.23-.18-3.8-.18-4.72v-8.11H812Zm17.84-14.35a3.7,3.7,0,0,0-3.18,1.54,7.17,7.17,0,0,0-1.12,4.29q0,5.73,4.3,5.73a13.63,13.63,0,0,0,4.37-.9V467a12.27,12.27,0,0,1-4.71.88,7.2,7.2,0,0,1-5.72-2.27q-2-2.26-2-6.51a10.61,10.61,0,0,1,1-4.68,7,7,0,0,1,2.79-3.08,8.27,8.27,0,0,1,4.28-1.08,11.59,11.59,0,0,1,5,1.21l-1.17,2.95a18.64,18.64,0,0,0-1.93-.79A5.71,5.71,0,0,0,829.83,453.3Zm23.58,5.76a9.32,9.32,0,0,1-2.11,6.54,9.14,9.14,0,0,1-12.1,0c-1.4-1.52-2.11-3.71-2.11-6.56s.71-5,2.11-6.53a7.92,7.92,0,0,1,6.07-2.26,7.8,7.8,0,0,1,6,2.27Q853.41,454.8,853.41,459.06Zm-12.51,0a7.21,7.21,0,0,0,1.09,4.33,3.81,3.81,0,0,0,3.26,1.45c2.9,0,4.35-1.92,4.35-5.78s-1.44-5.79-4.33-5.79a3.84,3.84,0,0,0-3.27,1.47A7.13,7.13,0,0,0,840.9,459.06Zm23.31,8.59-4.12-13.44H860c.15,2.74.22,4.56.22,5.47v8H857V450.52h4.94l4.06,13.1H866l4.3-13.1h4.94v17.13h-3.38v-8.11c0-.38,0-.82,0-1.32s.07-1.83.16-4H872l-4.42,13.42Zm19-9.07h1.2a4,4,0,0,0,2.5-.65,2.75,2.75,0,0,0,.13-3.82,3.21,3.21,0,0,0-2.18-.61h-1.65Zm8.2-2.72a5.23,5.23,0,0,1-1.73,4.23,7.36,7.36,0,0,1-4.91,1.47h-1.56v6.09H879.6V450.52h5.47a7.19,7.19,0,0,1,4.73,1.35A4.85,4.85,0,0,1,891.43,455.86Zm13.73,11.79-1.25-4.07h-6.24l-1.24,4.07h-3.92l6-17.2H903l6.07,17.2Zm-2.11-7.12-1.95-6.27c-.14-.49-.24-.87-.3-1.15q-.39,1.5-2.22,7.42Zm23.39,7.12h-4.62l-7.45-13h-.11c.15,2.29.22,3.92.22,4.9v8.06h-3.24V450.52h4.58l7.44,12.83h.08c-.11-2.23-.17-3.8-.17-4.72v-8.11h3.27Zm9.65-10.07,3.58-7.06h3.91L937.9,461v6.67h-3.61V461.1l-5.69-10.58h3.94Z"/>
    <path d="M247.82,410.7V393.56h3V410.7ZM266.54,402q0,4.25-1.74,6.5a5.9,5.9,0,0,1-5,2.24h-4.19V393.56h4.58a5.47,5.47,0,0,1,4.65,2.22A10.07,10.07,0,0,1,266.54,402Zm-3.27.1c0-3.83-1.06-5.74-3.16-5.74h-1.28v11.59h1a2.78,2.78,0,0,0,2.58-1.46A9.16,9.16,0,0,0,263.27,402.06Zm26.11,8.64h-3.9l-5.29-12.41H280a15.38,15.38,0,0,1,.29,3v9.37h-2.95V393.56h3.91l5.25,12.28h.13a16.47,16.47,0,0,1-.22-2.92v-9.36h2.93Zm14.75-17.14v11.09a7,7,0,0,1-1.38,4.68,5,5,0,0,1-4,1.6,4.82,4.82,0,0,1-3.9-1.59,7.26,7.26,0,0,1-1.33-4.74v-11h3.16v11.28c0,2.18.73,3.27,2.17,3.27a1.77,1.77,0,0,0,1.56-.84,4.22,4.22,0,0,0,.55-2.36V393.56Zm10.29,17.14-3.26-14.59H311a23.35,23.35,0,0,1,.22,3.09v11.5H308.3V393.56h4.9L316.13,407h.09l2.91-13.47h5V410.7h-3V399.08a27.23,27.23,0,0,1,.17-2.95h-.1L317.9,410.7Zm13.9-17.14h4.37a5.89,5.89,0,0,1,3.89,1.05,4.07,4.07,0,0,1,1.22,3.29,4.52,4.52,0,0,1-.65,2.49,2.56,2.56,0,0,1-1.75,1.21v.12a3.29,3.29,0,0,1,2.09,1.36,4.81,4.81,0,0,1,.65,2.65,5.12,5.12,0,0,1-1.25,3.65,4.47,4.47,0,0,1-3.41,1.32h-5.16Zm3,6.89h1.46a1.69,1.69,0,0,0,1.42-.53,2.62,2.62,0,0,0,.41-1.61,2,2,0,0,0-.47-1.52,2,2,0,0,0-1.47-.47h-1.35Zm0,2.66v4.8h1.6a1.78,1.78,0,0,0,1.48-.61,3,3,0,0,0,.49-1.89c0-1.53-.67-2.3-2-2.3Zm18.09,7.59h-7.73V393.56h7.73v2.76h-4.54v4.07h4.21v2.77h-4.21v4.75h4.54Zm6.88-6.67v6.67H353.1V393.56h4.17a5.33,5.33,0,0,1,3.91,1.26,5.18,5.18,0,0,1,1.26,3.83c0,2.16-.73,3.68-2.19,4.53l3.29,7.52h-3.41l-2.7-6.67Zm0-2.74h.82a1.91,1.91,0,0,0,1.62-.64,3.16,3.16,0,0,0,.49-1.91,2.67,2.67,0,0,0-.53-1.86,2.09,2.09,0,0,0-1.6-.56h-.8Z"/>
    <path d="M455,410.75a1.94,1.94,0,0,1,.73-1.74,3,3,0,0,1,1.77-.51,2.81,2.81,0,0,1,1.68.51,2.43,2.43,0,0,1,0,3.45,2.76,2.76,0,0,1-1.68.53,3,3,0,0,1-1.77-.53A2,2,0,0,1,455,410.75Zm0-9.26a1.93,1.93,0,0,1,.73-1.73,3,3,0,0,1,1.77-.5,2.8,2.8,0,0,1,1.68.5,2,2,0,0,1,.72,1.73,2,2,0,0,1-.72,1.74,2.81,2.81,0,0,1-1.68.51,3,3,0,0,1-1.77-.51A2,2,0,0,1,455,401.49Z"/>
    <path d="M510.84,405.11a10.93,10.93,0,0,1-1.07,5.07,6.53,6.53,0,0,1-3.15,3l4.13,4.6H506.1L503,413.93h-.27a7.8,7.8,0,0,1-6.05-2.29q-2.11-2.28-2.11-6.56t2.11-6.53a7.94,7.94,0,0,1,6.07-2.26,7.78,7.78,0,0,1,6,2.28Q510.84,400.84,510.84,405.11Zm-12.5,0a7.13,7.13,0,0,0,1.09,4.32,3.81,3.81,0,0,0,3.26,1.45q4.35,0,4.35-5.77c0-3.86-1.45-5.79-4.33-5.79a3.84,3.84,0,0,0-3.27,1.46A7.14,7.14,0,0,0,498.34,405.11Zm16.05-8.55h5.34a10.1,10.1,0,0,1,5.28,1.05,3.58,3.58,0,0,1,1.65,3.29,4.18,4.18,0,0,1-.72,2.52A2.89,2.89,0,0,1,524,404.6v.12a3.73,3.73,0,0,1,2.34,1.36,4.41,4.41,0,0,1,.73,2.65,4.35,4.35,0,0,1-1.7,3.65,7.29,7.29,0,0,1-4.6,1.32h-6.41Zm3.64,6.79h2.11a3.78,3.78,0,0,0,2.13-.46,1.68,1.68,0,0,0,.67-1.51,1.49,1.49,0,0,0-.73-1.41,4.53,4.53,0,0,0-2.27-.43H518Zm0,2.88v4.47h2.36a3.55,3.55,0,0,0,2.22-.58,2.11,2.11,0,0,0,.71-1.76c0-1.42-1-2.13-3-2.13Zm12.49,7.47V396.56h3.63V413.7Zm15.22-14.36a3.7,3.7,0,0,0-3.17,1.55,7.13,7.13,0,0,0-1.13,4.29c0,3.82,1.44,5.73,4.3,5.73a13.36,13.36,0,0,0,4.37-.91v3.05a12,12,0,0,1-4.71.88,7.19,7.19,0,0,1-5.72-2.26q-2-2.28-2-6.52a10.53,10.53,0,0,1,1-4.67,6.93,6.93,0,0,1,2.79-3.09,8.3,8.3,0,0,1,4.27-1.07,11.58,11.58,0,0,1,5,1.2l-1.17,3a18.89,18.89,0,0,0-1.94-.8A5.67,5.67,0,0,0,545.74,399.34Zm12.82,9.39V405.8h6.29v2.93Zm25.9,5-1.24-4.08H577l-1.24,4.08h-3.91l6-17.21h4.44l6.08,17.21Zm-2.11-7.13q-1.73-5.54-1.94-6.27c-.14-.48-.25-.87-.31-1.15q-.39,1.5-2.21,7.42Zm8.19-10h5.34a10.13,10.13,0,0,1,5.28,1.05,3.58,3.58,0,0,1,1.65,3.29,4.18,4.18,0,0,1-.72,2.52,2.89,2.89,0,0,1-1.91,1.18v.12a3.73,3.73,0,0,1,2.34,1.36,4.41,4.41,0,0,1,.73,2.65,4.35,4.35,0,0,1-1.7,3.65,7.29,7.29,0,0,1-4.6,1.32h-6.41Zm3.64,6.79h2.1a3.8,3.8,0,0,0,2.14-.46,1.71,1.71,0,0,0,.67-1.51,1.51,1.51,0,0,0-.73-1.41,4.56,4.56,0,0,0-2.27-.43h-1.91Zm0,2.88v4.47h2.36a3.55,3.55,0,0,0,2.22-.58,2.14,2.14,0,0,0,.71-1.76c0-1.42-1-2.13-3-2.13ZM614,399.34a3.71,3.71,0,0,0-3.18,1.55,7.13,7.13,0,0,0-1.13,4.29q0,5.73,4.31,5.73a13.46,13.46,0,0,0,4.37-.91v3.05a12.1,12.1,0,0,1-4.72.88,7.17,7.17,0,0,1-5.71-2.26q-2-2.28-2-6.52a10.53,10.53,0,0,1,1-4.67,7.05,7.05,0,0,1,2.79-3.09,8.34,8.34,0,0,1,4.28-1.07,11.57,11.57,0,0,1,5,1.2l-1.17,3a18.89,18.89,0,0,0-1.94-.8A5.61,5.61,0,0,0,614,399.34Zm15.78,14.36h-3.62v-9.92l0-1.63.06-1.78c-.6.6-1,1-1.25,1.18l-2,1.59L621.23,401l5.52-4.4h3Zm16.74,0h-12v-2.52l4.3-4.35c1.27-1.31,2.1-2.21,2.49-2.71a5.79,5.79,0,0,0,.85-1.41,3.54,3.54,0,0,0,.26-1.33,1.93,1.93,0,0,0-.58-1.54,2.2,2.2,0,0,0-1.51-.5,4.28,4.28,0,0,0-1.93.46,9.76,9.76,0,0,0-2,1.3l-2-2.33a12.68,12.68,0,0,1,2.1-1.53,8,8,0,0,1,1.81-.68,9.41,9.41,0,0,1,2.21-.24,6.5,6.5,0,0,1,2.83.58,4.46,4.46,0,0,1,1.91,1.64A4.33,4.33,0,0,1,646,401a5.85,5.85,0,0,1-.42,2.22,8,8,0,0,1-1.29,2.12,29.07,29.07,0,0,1-3.07,3.11l-2.2,2.07v.17h7.47Zm13-13.31a4,4,0,0,1-1,2.73,4.92,4.92,0,0,1-2.73,1.55v.07A5.47,5.47,0,0,1,659,406,3.5,3.5,0,0,1,660,408.7a4.61,4.61,0,0,1-1.79,3.86,8.32,8.32,0,0,1-5.12,1.37,12.42,12.42,0,0,1-5-.93v-3.08a11.15,11.15,0,0,0,2.19.82,9.32,9.32,0,0,0,2.37.32,4.57,4.57,0,0,0,2.65-.61,2.25,2.25,0,0,0,.86-2,1.77,1.77,0,0,0-1-1.71,7.39,7.39,0,0,0-3.14-.5h-1.3V403.5h1.32A6.11,6.11,0,0,0,655,403a1.88,1.88,0,0,0,.93-1.79c0-1.3-.82-1.94-2.44-1.94a5.63,5.63,0,0,0-1.73.28,8.28,8.28,0,0,0-1.93,1l-1.67-2.5a9.32,9.32,0,0,1,5.59-1.68,7.24,7.24,0,0,1,4.19,1.07A3.46,3.46,0,0,1,659.51,400.39Zm14.76,9.75h-2.06v3.56h-3.54v-3.56h-7.31v-2.52l7.51-11.06h3.34v10.77h2.06Zm-5.6-2.81v-2.9c0-.49,0-1.19.06-2.11s.07-1.46.09-1.61h-.09a13.91,13.91,0,0,1-1,1.88l-3.14,4.74Zm13.18-4.58a5.47,5.47,0,0,1,3.95,1.39,5,5,0,0,1,1.48,3.82,5.55,5.55,0,0,1-1.77,4.42,7.47,7.47,0,0,1-5.06,1.55,9.87,9.87,0,0,1-4.62-.93v-3.12a10.25,10.25,0,0,0,2.16.8,9.41,9.41,0,0,0,2.33.31q3.31,0,3.32-2.72t-3.44-2.59a7.78,7.78,0,0,0-1.37.13,9,9,0,0,0-1.22.26l-1.44-.78.65-8.73h9.29v3.07H680l-.31,3.37.41-.09A7.94,7.94,0,0,1,681.85,402.75Z"/>
    <path class="cls-23" d="M78.48,48.8v14h-7.7a15.65,15.65,0,0,1-3.42-.29,3.6,3.6,0,0,1-3.14-3.18,21,21,0,0,1,0-6.95,4.3,4.3,0,0,1,1-2.2,4.11,4.11,0,0,1,2.1-1,16.36,16.36,0,0,1,3.42-.3Zm-4.11,4.71H69.59a1.4,1.4,0,0,0-1,.27,1.12,1.12,0,0,0-.25.4,1.07,1.07,0,0,0-.06.47V57a1.1,1.1,0,0,0,.07.44,1,1,0,0,0,.24.38,1.41,1.41,0,0,0,1,.29h4.78Z"/>
    <path class="cls-23" d="M81.36,62.77V58.09H90a19.53,19.53,0,0,0-.69-2.6,5.82,5.82,0,0,0-.81-1.59,2.32,2.32,0,0,0-1.07-.81,4.57,4.57,0,0,0-1.51-.22,12.32,12.32,0,0,0-1.61.11,14.14,14.14,0,0,0-1.56.27l-1.11-4.57a12.86,12.86,0,0,1,2-.38,18.58,18.58,0,0,1,2.24-.14,13.44,13.44,0,0,1,2.83.27,5.14,5.14,0,0,1,2.08,1,6,6,0,0,1,1.58,1.9,16.07,16.07,0,0,1,1.3,3.15c.4,1.28.82,2.84,1.25,4.69v3.64Z"/>
    <path class="cls-23" d="M104.06,62.77a8,8,0,0,1-2.7-.4,4,4,0,0,1-1.83-1.27,6.25,6.25,0,0,1-1-2.3,14.47,14.47,0,0,1-.35-3.41,10.86,10.86,0,0,1,.43-3.21A5.09,5.09,0,0,1,99.84,50a5,5,0,0,1,2.2-1.22,12.11,12.11,0,0,1,3.33-.41,24.57,24.57,0,0,1,3.74.25,15,15,0,0,1,3.1.87v8.57L110,62.77Zm2.84-4.7a1,1,0,0,0,.51,0,1.17,1.17,0,0,0,.44-.26,1.11,1.11,0,0,0,.25-.45,1.1,1.1,0,0,0,0-.51V53.12h-3.92a2.34,2.34,0,0,0-1.3.25,1.13,1.13,0,0,0-.29.45,1.28,1.28,0,0,0-.06.55v3.72Zm-1.11,13L103,68a14,14,0,0,0,2-2.16,14.51,14.51,0,0,0,1.62-2.53,14.25,14.25,0,0,0,1-2.6,9.61,9.61,0,0,0,.36-2.61h4.15a14,14,0,0,1-.47,3.48A18.72,18.72,0,0,1,110.44,65a22.51,22.51,0,0,1-2,3.26,18.71,18.71,0,0,1-2.61,2.8Z"/>
    <path class="cls-23" d="M115.09,62.77V58.09h8.65a21.14,21.14,0,0,0-.68-2.6,6.14,6.14,0,0,0-.82-1.59,2.32,2.32,0,0,0-1.07-.81,4.51,4.51,0,0,0-1.5-.22,12.36,12.36,0,0,0-1.62.11,13.58,13.58,0,0,0-1.55.27l-1.12-4.57a12.86,12.86,0,0,1,2-.38,18.62,18.62,0,0,1,2.25-.14,13.41,13.41,0,0,1,2.82.27,5.39,5.39,0,0,1,2.09,1,6.44,6.44,0,0,1,1.58,1.9,16,16,0,0,1,1.29,3.15c.41,1.27.82,2.84,1.25,4.69v3.64Zm12.63-4.68h2.93v4.68h-2.93Z"/>
    <path class="cls-23" d="M140.75,53.71,144.6,55A13.84,13.84,0,0,1,143,58.62a8.56,8.56,0,0,1-4.91,3.74,10.71,10.71,0,0,1-3.08.43h-5.61v-4.7h6.08a5.49,5.49,0,0,0,2.08-.36,4.27,4.27,0,0,0,1.48-1,6,6,0,0,0,1-1.38A8.33,8.33,0,0,0,140.75,53.71Zm5.43,4.35h2.32v4.71h-3.06a2.5,2.5,0,0,1-1.5-.4,2.59,2.59,0,0,1-.9-1.26l-1.71-4.64a5.5,5.5,0,0,0-1.12-1.93,4,4,0,0,0-1.72-1.09,8.28,8.28,0,0,0-2.67-.35h-1.64a16.66,16.66,0,0,0-1.87.17l-.62-4.64c.76-.1,1.48-.17,2.17-.22s1.33-.08,1.94-.08a12.41,12.41,0,0,1,4.35.67,7.24,7.24,0,0,1,3,2.07,11.39,11.39,0,0,1,1.95,3.63Z"/>
    <path class="cls-23" d="M159.79,48.38a9.93,9.93,0,0,1,3.42.51,3.66,3.66,0,0,1,1.94,1.59,5.6,5.6,0,0,1,.61,2.78v9.51H147.27V58.09h14.37V53.26a8.9,8.9,0,0,0-1-.11h-1.3a21.55,21.55,0,0,0-2.79.18,20.78,20.78,0,0,0-2.91.57L152,49.75a16.47,16.47,0,0,1,2.5-.78,23,23,0,0,1,2.61-.45A26.33,26.33,0,0,1,159.79,48.38Zm-7.22,13a5.52,5.52,0,0,1-1.21-2.53,17,17,0,0,1-.31-3.42,13.72,13.72,0,0,1,.27-2.86c.17-.87.41-1.84.7-2.83l4.28.92c-.34,1-.59,1.79-.79,2.52a8.53,8.53,0,0,0-.3,2.25c0,.66,0,1.31.09,2a7.61,7.61,0,0,0,.29,1.42,7.29,7.29,0,0,0,.56,1.2Zm13.21-3.3h2.84v4.66h-2.84Z"/>
    <path class="cls-23" d="M176,62.77h-8.56V58.09h4.46V44h4.13Z"/>
    <path class="cls-23" d="M180.56,62.77V44h4.13V62.77Z"/>
    <path class="cls-23" d="M202.77,69.94a19.43,19.43,0,0,1-3.88-.33,4.8,4.8,0,0,1-2.37-1.13,4.23,4.23,0,0,1-1.19-2.23,15.28,15.28,0,0,1-.34-3.57c0-.74,0-1.47.1-2.19s.17-1.44.3-2.15a14.49,14.49,0,0,1,.51-2L200,57c-.23.87-.44,1.69-.6,2.5a11.47,11.47,0,0,0-.26,2.41,14.4,14.4,0,0,0,.07,1.82,8.72,8.72,0,0,0,.23,1.52h4.2a6.41,6.41,0,0,0,2.3-.32,1.22,1.22,0,0,0,.58-.5,1.25,1.25,0,0,0,.16-.76v-4h4.14v3.25a16.26,16.26,0,0,1-.3,3.48,4.1,4.1,0,0,1-1.17,2.18,5.06,5.06,0,0,1-2.43,1.11A21.18,21.18,0,0,1,202.77,69.94Zm18.33-7.17V53.53a7.1,7.1,0,0,0-1.38-.23c-.6-.06-1.3-.09-2.09-.09a7.27,7.27,0,0,0-5.13,1.61,6.37,6.37,0,0,0-1.37,2.2,6.3,6.3,0,0,0-.34,2.58h-4.14V48.8h4.14V53a6.59,6.59,0,0,1,1.89-2.36,9.24,9.24,0,0,1,3-1.56,12.33,12.33,0,0,1,3.72-.55,10.93,10.93,0,0,1,3.51.46,3.12,3.12,0,0,1,1.06.61,3.21,3.21,0,0,1,.74,1,7.65,7.65,0,0,1,.53,3.1v9.12Zm2.17-4.7,2,4.7H209V58.09Zm2,0h2.87v4.7h-2.87Z"/>
    <path class="cls-23" d="M238.26,53.71,242.1,55a13.69,13.69,0,0,1-1.57,3.59,8.4,8.4,0,0,1-4.91,3.75,10.38,10.38,0,0,1-3.08.44h-5.6V58.09H233a5.31,5.31,0,0,0,2.08-.36,4.41,4.41,0,0,0,1.49-1,6.28,6.28,0,0,0,1-1.38A9.78,9.78,0,0,0,238.26,53.71Zm5.43,4.35H246v4.71H243a2.21,2.21,0,0,1-2.37-1.66l-1.76-4.64a5.21,5.21,0,0,0-1.12-1.93,4,4,0,0,0-1.76-1.09,8.25,8.25,0,0,0-2.66-.35h-1.64a17.23,17.23,0,0,0-1.89.17l-.61-4.64c.77-.1,1.49-.17,2.17-.22s1.33-.08,1.93-.08a12.39,12.39,0,0,1,4.36.67,7,7,0,0,1,3,2.07,10.83,10.83,0,0,1,1.95,3.63Z"/>
    <path class="cls-23" d="M244.77,58.09h4.28a18.5,18.5,0,0,1-.39-1.87,14.16,14.16,0,0,1-.13-2.06,7.47,7.47,0,0,1,.41-2.61,4.18,4.18,0,0,1,1.3-1.8,5.56,5.56,0,0,1,2.25-1.06,13.88,13.88,0,0,1,3.34-.34,23.11,23.11,0,0,1,3.62.25,16.21,16.21,0,0,1,3.21.87v13.3H244.77Zm12.59,0a1.23,1.23,0,0,0,.92-.27,1.45,1.45,0,0,0,.25-1V53.12h-4.38a1.3,1.3,0,0,0-.93.26,1.39,1.39,0,0,0-.26,1v3.72Zm-1.5-12.74a1.7,1.7,0,0,1-1-.41,4.33,4.33,0,0,1-.95-1,1.84,1.84,0,0,1-.39-1,1.64,1.64,0,0,1,.39-1,5.12,5.12,0,0,1,.93-.93,1.63,1.63,0,0,1,.94-.4,1.78,1.78,0,0,1,1,.4,5.12,5.12,0,0,1,.93.93,1.67,1.67,0,0,1,.4,1,1.62,1.62,0,0,1-.42,1,4.93,4.93,0,0,1-.93,1A1.59,1.59,0,0,1,255.86,45.35Zm6.8,12.71h2.85v4.71h-2.85Z"/>
    <path class="cls-23" d="M272.93,58.09h2.85v4.68H264.34V58.09h4.46V44h4.13Z"/>
    <path class="cls-23" d="M283.2,62.77h-8.56V58.09h4.46V44h4.14Z"/>
    <path class="cls-23" d="M308.16,48.8v14h-7.71a15.76,15.76,0,0,1-3.42-.29,3.71,3.71,0,0,1-3.13-3.18,16.89,16.89,0,0,1-.29-3.47,16.92,16.92,0,0,1,.29-3.48,4.31,4.31,0,0,1,1-2.13,4.15,4.15,0,0,1,2.1-1,16.42,16.42,0,0,1,3.42-.3Zm-9.25-3.48a1.68,1.68,0,0,1-1-.4,4.33,4.33,0,0,1-.94-1,1.84,1.84,0,0,1-.39-1,1.64,1.64,0,0,1,.39-1,4.82,4.82,0,0,1,.93-.93,1.63,1.63,0,0,1,.94-.4,1.67,1.67,0,0,1,1,.4,4.51,4.51,0,0,1,.92.93,1.71,1.71,0,0,1,.4,1,1.67,1.67,0,0,1-.41,1,5.7,5.7,0,0,1-.94,1,1.64,1.64,0,0,1-1,.44Zm5.14,8.16h-4.78a1.35,1.35,0,0,0-.95.28,1,1,0,0,0-.31.87V57a1.09,1.09,0,0,0,.06.44,1.05,1.05,0,0,0,.25.37,1.32,1.32,0,0,0,.95.29H304Zm.12-8.16a1.68,1.68,0,0,1-.95-.4,3.94,3.94,0,0,1-.94-1,1.77,1.77,0,0,1-.4-1,1.69,1.69,0,0,1,.4-1,4.8,4.8,0,0,1,.89-.91,1.63,1.63,0,0,1,.94-.4,1.8,1.8,0,0,1,1,.4A5.12,5.12,0,0,1,306,42a1.34,1.34,0,0,1,.29.45,1.36,1.36,0,0,1,.11.53,1.31,1.31,0,0,1-.11.52A1.34,1.34,0,0,1,306,44a5.28,5.28,0,0,1-.94,1,1.54,1.54,0,0,1-.92.42Z"/>
    <path class="cls-23" d="M311,62.77V58.09h8.66a18.15,18.15,0,0,0-.7-2.6,5.53,5.53,0,0,0-.8-1.59,2.38,2.38,0,0,0-1.07-.81,4.57,4.57,0,0,0-1.51-.22A12.6,12.6,0,0,0,314,53a13.41,13.41,0,0,0-1.54.27l-1.13-4.57a13,13,0,0,1,2.05-.38,18.58,18.58,0,0,1,2.24-.14,13.44,13.44,0,0,1,2.83.27,5.41,5.41,0,0,1,2.08,1,6.33,6.33,0,0,1,1.59,1.9,17,17,0,0,1,1.29,3.15c.4,1.27.82,2.84,1.24,4.69v3.64Z"/>
    <path class="cls-23" d="M333.74,62.77a8,8,0,0,1-2.7-.4,3.9,3.9,0,0,1-1.83-1.27,6,6,0,0,1-1-2.3,13.44,13.44,0,0,1-.35-3.41,10.23,10.23,0,0,1,.42-3.21,4.79,4.79,0,0,1,3.52-3.41,12.11,12.11,0,0,1,3.33-.41,24.44,24.44,0,0,1,3.73.26,14.56,14.56,0,0,1,3.1.86v8.58l-2.26,4.71Zm2.81-4.68a1,1,0,0,0,1.2-1.22V53.12h-3.93a2.31,2.31,0,0,0-1.29.25,1.13,1.13,0,0,0-.29.45,1.28,1.28,0,0,0-.06.55v3.72Zm-1.12,13L332.71,68a14,14,0,0,0,2.06-2.16,15.73,15.73,0,0,0,1.61-2.53,14,14,0,0,0,1-2.6,10,10,0,0,0,.37-2.61h4.13a13.15,13.15,0,0,1-.47,3.48A17.18,17.18,0,0,1,340.11,65a21.42,21.42,0,0,1-2,3.26,19.25,19.25,0,0,1-2.61,2.8Zm4.7-13h5v4.68h-4.89Z"/>
    <path class="cls-23" d="M355.21,53.71,359.05,55a13.81,13.81,0,0,1-1.56,3.59,8.53,8.53,0,0,1-4.92,3.74,10.71,10.71,0,0,1-3.08.43h-5.6v-4.7H350a5.55,5.55,0,0,0,2.09-.36,4.37,4.37,0,0,0,1.48-1,6.2,6.2,0,0,0,1-1.38A9.78,9.78,0,0,0,355.21,53.71Zm5.43,4.35H363v4.71H359.9a2.21,2.21,0,0,1-2.36-1.66l-1.75-4.64a5.68,5.68,0,0,0-1.13-1.93A3.93,3.93,0,0,0,353,53.45a8.35,8.35,0,0,0-2.67-.35h-1.64a16.83,16.83,0,0,0-1.88.17l-.61-4.64c.75-.1,1.48-.17,2.16-.22s1.33-.08,1.94-.08a12.37,12.37,0,0,1,4.35.67,7.18,7.18,0,0,1,3,2.07,11.19,11.19,0,0,1,1.95,3.63Zm-7.19,11.72a1.68,1.68,0,0,1-.95-.4,3.94,3.94,0,0,1-.94-1,1.77,1.77,0,0,1-.4-1,1.72,1.72,0,0,1,.4-1,5,5,0,0,1,.92-.92,1.38,1.38,0,0,1,1.94,0,5.13,5.13,0,0,1,1,1,1.74,1.74,0,0,1,.4,1,1.65,1.65,0,0,1-.42.94,4.75,4.75,0,0,1-.94,1,1.61,1.61,0,0,1-1,.42Z"/>
    <path class="cls-23" d="M370.32,62.77h-8.56V58.09h4.45V44h4.14Z"/>
    <path class="cls-23" d="M374.84,62.77V44H379V62.77Z"/>
    <path class="cls-23" d="M403.93,48.8v14h-7.7a15.7,15.7,0,0,1-3.42-.29,3.71,3.71,0,0,1-3.13-3.18,16.22,16.22,0,0,1-.29-3.47,16.25,16.25,0,0,1,.29-3.48,4.23,4.23,0,0,1,1-2.13,4.08,4.08,0,0,1,2.09-1,16.36,16.36,0,0,1,3.42-.3Zm-9.24-3.48a1.71,1.71,0,0,1-1-.4,4.28,4.28,0,0,1-.93-1,1.69,1.69,0,0,1-.39-1,1.61,1.61,0,0,1,.39-1,4.82,4.82,0,0,1,.93-.93,1.6,1.6,0,0,1,.93-.4,1.7,1.7,0,0,1,1,.4,4.51,4.51,0,0,1,.92.93,1.32,1.32,0,0,1,.3.44,1.33,1.33,0,0,1,0,1.06,1.32,1.32,0,0,1-.3.44,5.29,5.29,0,0,1-.93,1,1.58,1.58,0,0,1-1,.44Zm5.14,8.16H395a1.37,1.37,0,0,0-1,.28,1,1,0,0,0-.25.4,1.07,1.07,0,0,0,0,.47V57a1.09,1.09,0,0,0,.06.44,1,1,0,0,0,.24.37,1.32,1.32,0,0,0,1,.29h4.79Zm.12-8.16a1.69,1.69,0,0,1-1-.4,4.12,4.12,0,0,1-.94-1,1.77,1.77,0,0,1-.4-1,1.62,1.62,0,0,1,.4-1,4.51,4.51,0,0,1,.92-.93,1.38,1.38,0,0,1,1.94,0,4.51,4.51,0,0,1,.92.93,1.36,1.36,0,0,1,0,1.94,5.34,5.34,0,0,1-.94,1,1.65,1.65,0,0,1-.93.44Z"/>
    <path class="cls-23" d="M406.8,62.77V58.09h8.66a16.89,16.89,0,0,0-.69-2.6,6.25,6.25,0,0,0-.8-1.59,2.43,2.43,0,0,0-1.07-.81,4.63,4.63,0,0,0-1.52-.22,12.44,12.44,0,0,0-1.61.11,14.14,14.14,0,0,0-1.56.27l-1.11-4.57a12.86,12.86,0,0,1,2-.38,18.58,18.58,0,0,1,2.24-.14,13.44,13.44,0,0,1,2.83.27,5.28,5.28,0,0,1,2.08,1,5.89,5.89,0,0,1,1.56,1.91,16.2,16.2,0,0,1,1.29,3.14c.41,1.28.82,2.85,1.25,4.69v3.64Zm12.59-4.7h2.94v4.7h-2.94Z"/>
    <path class="cls-23" d="M421.15,62.77V58.09h7.54l2.86,4.68ZM429,53.38v3.19a1.41,1.41,0,0,0,.09.64,1.43,1.43,0,0,0,.36.52,2.22,2.22,0,0,0,1.4.36H438v4.68h-6.71a10.13,10.13,0,0,1-3-.38,4.33,4.33,0,0,1-2-1.21,5.07,5.07,0,0,1-1.09-2.2,14.79,14.79,0,0,1-.33-3.38,15.61,15.61,0,0,1,.3-3.34,5,5,0,0,1,1-2.19,3.94,3.94,0,0,1,2-1.19,10.11,10.11,0,0,1,2.94-.38c.66,0,1.3,0,1.91.06a15.77,15.77,0,0,1,1.83.23,16.06,16.06,0,0,1,1.79.43L436,53.71c-.87-.18-1.64-.31-2.29-.39a19,19,0,0,0-2-.11h-1.5C429.79,53.25,429.38,53.3,429,53.38Z"/>
    <path class="cls-23" d="M441.45,62.77V44h4.14V58.09h2.84v4.68Z"/>
    <path class="cls-23" d="M447.26,58.09h4.28a18.72,18.72,0,0,1-.4-1.87,12.88,12.88,0,0,1-.13-2.06,7,7,0,0,1,.41-2.61,4.21,4.21,0,0,1,1.31-1.8A5.65,5.65,0,0,1,455,48.69a14,14,0,0,1,3.35-.34,23.11,23.11,0,0,1,3.62.25,16.12,16.12,0,0,1,3.2.87v13.3H447.26Zm8.44-12.74a1.67,1.67,0,0,1-.94-.41,3.94,3.94,0,0,1-.95-1,1.76,1.76,0,0,1-.39-1,1.64,1.64,0,0,1,.39-1,5.12,5.12,0,0,1,.93-.93,1.63,1.63,0,0,1,.94-.4,1.8,1.8,0,0,1,1,.4,5.12,5.12,0,0,1,.93.93,1.34,1.34,0,0,1,.29.45A1.36,1.36,0,0,1,458,43a1.31,1.31,0,0,1-.11.52,1.34,1.34,0,0,1-.29.45,5.28,5.28,0,0,1-.94,1A1.56,1.56,0,0,1,455.7,45.35Zm4.14,12.74a1.23,1.23,0,0,0,.92-.27,1.33,1.33,0,0,0,.25-1V53.12h-4.36a1.35,1.35,0,0,0-.95.26,1.46,1.46,0,0,0-.26,1v3.72ZM461,45.35a1.67,1.67,0,0,1-.95-.41,3.94,3.94,0,0,1-1-1,1.85,1.85,0,0,1-.4-1,1.72,1.72,0,0,1,.4-1,5.12,5.12,0,0,1,.93-.93,1.63,1.63,0,0,1,.94-.4,1.78,1.78,0,0,1,1,.4,5.12,5.12,0,0,1,.93.93,1.2,1.2,0,0,1,.29.45,1.36,1.36,0,0,1,.11.53,1.31,1.31,0,0,1-.11.52,1.2,1.2,0,0,1-.29.45,5,5,0,0,1-.94,1A1.58,1.58,0,0,1,461,45.35Z"/>
    <path class="cls-23" d="M490.11,48.8v14h-7.7a15.8,15.8,0,0,1-3.43-.29,3.72,3.72,0,0,1-2.08-1.06,3.8,3.8,0,0,1-1-2.12,16.9,16.9,0,0,1-.3-3.47,16.93,16.93,0,0,1,.3-3.48,4.29,4.29,0,0,1,1-2.2,4.08,4.08,0,0,1,2.09-1,16.45,16.45,0,0,1,3.43-.3Zm-9.27-3.48a1.68,1.68,0,0,1-.95-.4,4.33,4.33,0,0,1-.94-1,1.69,1.69,0,0,1-.39-1,1.61,1.61,0,0,1,.39-1,4.82,4.82,0,0,1,.93-.93,1.63,1.63,0,0,1,.94-.4,1.67,1.67,0,0,1,1,.4,4.27,4.27,0,0,1,.92.93,1.69,1.69,0,0,1,.41,1,1.67,1.67,0,0,1-.41,1,5.75,5.75,0,0,1-1,1,1.56,1.56,0,0,1-.94.44ZM486,53.48h-4.79a1.45,1.45,0,0,0-1,.28,1,1,0,0,0-.25.4,1.07,1.07,0,0,0-.05.47V57a1.09,1.09,0,0,0,.06.44,1.18,1.18,0,0,0,.24.37,1.4,1.4,0,0,0,1,.29H486Zm.08-8.16a1.71,1.71,0,0,1-1-.4,4.28,4.28,0,0,1-.93-1,1.69,1.69,0,0,1-.39-1,1.61,1.61,0,0,1,.39-1,4.82,4.82,0,0,1,.93-.93,1.6,1.6,0,0,1,.93-.4,1.67,1.67,0,0,1,1,.4,5,5,0,0,1,1,1,1.37,1.37,0,0,1,.3.45,1.35,1.35,0,0,1,.1.53,1.3,1.3,0,0,1-.1.52,1.37,1.37,0,0,1-.3.45,5.23,5.23,0,0,1-.93,1,1.58,1.58,0,0,1-1,.42Zm4,12.75h2.88v4.7h-2.85Z"/>
    <path class="cls-23" d="M491.79,62.77V58.09h15.33V54.22h-9a3.34,3.34,0,0,1-1.33-.17,3.24,3.24,0,0,1-1.15-.7,3.42,3.42,0,0,1-.68-1.22,3.62,3.62,0,0,1-.18-1.39,9.1,9.1,0,0,1,.36-2.43,17.25,17.25,0,0,1,1-2.6,18.52,18.52,0,0,1,1.46-2.61,14.41,14.41,0,0,1,1.8-2.17l3.31,1.82a11.46,11.46,0,0,0-1.24,1.44,16.09,16.09,0,0,0-1.2,1.8,16.85,16.85,0,0,0-1,1.88,8.68,8.68,0,0,0-.58,1.67H506a8.34,8.34,0,0,1,3.17.47,2.83,2.83,0,0,1,1,.64,3,3,0,0,1,.65,1,8.94,8.94,0,0,1,.47,3.2v7.94Z"/>
    <path class="cls-23" d="M515.63,71.09l-1.52-3.74a7.13,7.13,0,0,0,1.76-1.1,3.07,3.07,0,0,0,.86-1.54,11.92,11.92,0,0,0,.24-2.53V48.8h4.1V62.17a13.77,13.77,0,0,1-.52,4.08,6.64,6.64,0,0,1-1.71,2.84A10.69,10.69,0,0,1,515.63,71.09Zm5.4-13h2.84v4.7H521Z"/>
    <path class="cls-23" d="M531.29,62.77h-8.56V58.09h4.46V51.48h4.14Zm2.41,0h-2.41V58.09H535a3.3,3.3,0,0,0,1.64-.31,1.29,1.29,0,0,0,.46-.55,1.38,1.38,0,0,0,.1-.72v-5h4.14v4.14a18.05,18.05,0,0,1-.29,3.52,4.3,4.3,0,0,1-1.1,2.21,4.65,4.65,0,0,1-2.32,1.11A18.41,18.41,0,0,1,533.7,62.77Zm3-17.44a1.71,1.71,0,0,1-1-.4,4.33,4.33,0,0,1-.94-1,1.85,1.85,0,0,1-.4-1,1.69,1.69,0,0,1,.4-1,4.77,4.77,0,0,1,.92-.93,1.56,1.56,0,0,1,.94-.4,1.72,1.72,0,0,1,1,.4,5.07,5.07,0,0,1,.92.93,1.7,1.7,0,0,1,.39,1,1.6,1.6,0,0,1-.41,1,5.34,5.34,0,0,1-.94,1,1.61,1.61,0,0,1-.93.43Zm2.61-5.71a1.7,1.7,0,0,1-1-.41,4.24,4.24,0,0,1-.93-1,1.86,1.86,0,0,1-.41-1,1.66,1.66,0,0,1,.41-1,4.46,4.46,0,0,1,.92-.92,1.63,1.63,0,0,1,.93-.4,1.72,1.72,0,0,1,1,.4,5.72,5.72,0,0,1,.92.92,1.6,1.6,0,0,1,.39,1,1.63,1.63,0,0,1-.41,1,5.63,5.63,0,0,1-.94,1,1.57,1.57,0,0,1-.89.44Zm4.81,23.15a14.77,14.77,0,0,1-3.51-.33,4.09,4.09,0,0,1-2.11-1.11,4.45,4.45,0,0,1-1-2.2,17.48,17.48,0,0,1-.3-3.53V51.48h4.14v5a1.38,1.38,0,0,0,.1.72,1.36,1.36,0,0,0,.46.55,3.32,3.32,0,0,0,1.64.31H547a7.36,7.36,0,0,0,.24-1.31c0-.48.06-1,.06-1.67a17.17,17.17,0,0,0-.24-2.77q-.24-1.4-.6-2.88l4.09-.66a12.87,12.87,0,0,1,.51,1.94,20.39,20.39,0,0,1,.28,2.06c.05.71.09,1.4.09,2.07a12.23,12.23,0,0,1-.78,4.83,4.47,4.47,0,0,1-2.38,2.4A10.15,10.15,0,0,1,544.15,62.77ZM542,45.35a1.7,1.7,0,0,1-1-.41,3.9,3.9,0,0,1-.94-1,1.77,1.77,0,0,1-.4-1,1.72,1.72,0,0,1,.4-1,5.06,5.06,0,0,1,.92-.93,1.68,1.68,0,0,1,.94-.4,1.81,1.81,0,0,1,1,.4,5.4,5.4,0,0,1,.92.93,1.37,1.37,0,0,1,.3.45,1.31,1.31,0,0,1,0,1.05,1.37,1.37,0,0,1-.3.45,4.93,4.93,0,0,1-.93,1A1.58,1.58,0,0,1,542,45.35Z"/>
    <path class="cls-23" d="M78.72,117.89a9.11,9.11,0,0,1-3.31.56,7.33,7.33,0,0,1-3-.45,7.45,7.45,0,0,1-2.58-1.67,8.53,8.53,0,0,1-2-6V93.39a8.49,8.49,0,0,1,2-6A8.52,8.52,0,0,1,81,87.4a8.49,8.49,0,0,1,1.95,6v16.94a9.24,9.24,0,0,1-1.4,5.3,1.18,1.18,0,0,0,.68.6,3.61,3.61,0,0,0,1.18.14h.77V121H82.91C80.65,121,79.24,120,78.72,117.89ZM78,110.66V93.07c0-2.12-.85-3.18-2.56-3.18S72.87,91,72.87,93.07v17.59c0,2.12.85,3.18,2.57,3.18S78,112.78,78,110.66Z"/>
    <path class="cls-23" d="M88.08,116.35a8.65,8.65,0,0,1-1.91-6V85.74h5v25a3.45,3.45,0,0,0,.66,2.39,2.76,2.76,0,0,0,3.76,0,3.57,3.57,0,0,0,.66-2.39v-25h4.81v24.59a8.66,8.66,0,0,1-1.91,6,7.06,7.06,0,0,1-5.54,2.09A7.08,7.08,0,0,1,88.08,116.35Z"/>
    <path class="cls-23" d="M108.46,85.74h6.76L120.36,118h-5l-.91-6.41v.09h-5.67l-.91,6.32h-4.63Zm5.45,21.55-2.23-15.93h-.09l-2.18,15.93Z"/>
    <path class="cls-23" d="M122.8,85.74h5v27.63H136V118H122.8Z"/>
    <path class="cls-23" d="M138.42,85.74h5V118h-5Z"/>
    <path class="cls-23" d="M151,90.35h-5.22V85.74h15.41v4.61H156V118h-5Z"/>
    <path class="cls-23" d="M168.24,104.25l-6-18.51h5.31l3.42,11.83H171l3.43-11.83h4.85l-6,18.51V118h-5Z"/>
    <path class="cls-23" d="M188.8,85.74h7.53c2.58,0,4.45.6,5.63,1.82s1.78,3.09,1.78,5.61v1.3a8.91,8.91,0,0,1-.8,4,4.62,4.62,0,0,1-2.43,2.26v.1q3.72,1.27,3.72,6.72v2.76a7.79,7.79,0,0,1-1.92,5.69,7.63,7.63,0,0,1-5.66,2H188.8Zm6.94,13.13a3,3,0,0,0,2.25-.78,3.82,3.82,0,0,0,.75-2.61V93.66a4.15,4.15,0,0,0-.61-2.53,2.28,2.28,0,0,0-.88-.62,2.21,2.21,0,0,0-1.05-.16h-2.41v8.52Zm.91,14.5a2.39,2.39,0,0,0,1.06-.14,2.46,2.46,0,0,0,.9-.57,3.76,3.76,0,0,0,.63-2.46v-2.81a4.68,4.68,0,0,0-.75-3.07,3.29,3.29,0,0,0-1.14-.7,3,3,0,0,0-1.33-.16h-2.23v9.9Z"/>
    <path class="cls-23" d="M211,85.74h6.77L222.9,118h-5l-.91-6.41v.09h-5.67l-.91,6.32h-4.63Zm5.46,21.55-2.23-15.93h-.06L212,107.29Z"/>
    <path class="cls-23" d="M226.34,116.35a8.77,8.77,0,0,1-1.86-6v-1.84h4.72v2.22c0,2.08.85,3.13,2.56,3.13a2.34,2.34,0,0,0,1.05-.16,2.42,2.42,0,0,0,.88-.6,3.73,3.73,0,0,0,.66-2.47,7,7,0,0,0-.91-3.57,17.43,17.43,0,0,0-3.36-3.71,20.47,20.47,0,0,1-4.28-5,10.33,10.33,0,0,1-1.22-5,8.45,8.45,0,0,1,1.9-5.92A7.23,7.23,0,0,1,229,85.72a7.12,7.12,0,0,1,3-.44,6.87,6.87,0,0,1,5.43,2.09,8.86,8.86,0,0,1,1.84,6v1.33h-4.73V93.07a3.79,3.79,0,0,0-.63-2.43,2.29,2.29,0,0,0-.85-.59,2.21,2.21,0,0,0-1-.16c-1.66,0-2.49,1-2.49,3.08a6.18,6.18,0,0,0,.93,3.27,18.16,18.16,0,0,0,3.42,3.69,19.09,19.09,0,0,1,4.28,5,11.18,11.18,0,0,1,1.18,5.3,8.76,8.76,0,0,1-1.92,6.08,7.22,7.22,0,0,1-5.61,2.11A7,7,0,0,1,226.34,116.35Z"/>
    <path class="cls-23" d="M242.22,85.74h13.62v4.61h-8.62v8.52h6.85v4.6h-6.85v9.9h8.62V118H242.22Z"/>
    <path class="cls-23" d="M266,85.74h5V118h-5Z"/>
    <path class="cls-23" d="M274.68,85.74h6.24l4.86,19.3h.08V85.74h4.47V118H285.2l-6-23.54h-.09V118h-4.45Z"/>
    <path class="cls-23" d="M295.06,116.35a8.82,8.82,0,0,1-1.86-6v-1.84h4.72v2.22c0,2.08.86,3.13,2.57,3.13a2.36,2.36,0,0,0,1.05-.16,2.51,2.51,0,0,0,.88-.6,3.73,3.73,0,0,0,.65-2.47,6.85,6.85,0,0,0-.9-3.57,17,17,0,0,0-3.36-3.71,20.29,20.29,0,0,1-4.28-5,10.33,10.33,0,0,1-1.22-5,8.45,8.45,0,0,1,1.91-5.92,7.09,7.09,0,0,1,5.54-2.09,6.83,6.83,0,0,1,5.41,2.09,8.81,8.81,0,0,1,1.84,6v1.33H303.3V93.07a3.75,3.75,0,0,0-.65-2.43,2.25,2.25,0,0,0-.84-.59,2.19,2.19,0,0,0-1-.16c-1.66,0-2.5,1-2.5,3.08a6.09,6.09,0,0,0,.93,3.27,17.9,17.9,0,0,0,3.42,3.69,18.6,18.6,0,0,1,4.28,5,11.18,11.18,0,0,1,1.18,5.3,8.72,8.72,0,0,1-1.93,6.08,7.21,7.21,0,0,1-5.6,2.11A7,7,0,0,1,295.06,116.35Z"/>
    <path class="cls-23" d="M311,85.74h7.35a7.21,7.21,0,0,1,5.59,2,8.44,8.44,0,0,1,1.85,5.94v3.18a8.53,8.53,0,0,1-1.85,5.94c-1.24,1.35-3.11,2-5.59,2H316V118h-5Zm7.35,14.51a2.21,2.21,0,0,0,1-.14,2.4,2.4,0,0,0,.85-.55,3.58,3.58,0,0,0,.62-2.35V93.39a3.53,3.53,0,0,0-.62-2.36,2.37,2.37,0,0,0-.85-.54,2.21,2.21,0,0,0-1-.14H316v9.9Z"/>
    <path class="cls-23" d="M328.47,85.74h13.61v4.61h-8.62v8.52h6.85v4.6h-6.85v9.9h8.62V118H328.47Z"/>
    <path class="cls-23" d="M346.51,116.37a8.41,8.41,0,0,1-1.89-5.84V93.17a8.44,8.44,0,0,1,1.89-5.84,8.23,8.23,0,0,1,10.94,0,8.4,8.4,0,0,1,1.89,5.84v3.48h-4.73V92.91c0-2-.85-3-2.5-3s-2.49,1-2.49,3v18c0,2,.86,3,2.49,3s2.5-1,2.5-3V106h4.73v4.58a8.44,8.44,0,0,1-1.89,5.85,8.26,8.26,0,0,1-10.94,0Z"/>
    <path class="cls-23" d="M366.23,90.35H361V85.74h15.4v4.61H371.2V118h-5Z"/>
    <path class="cls-23" d="M378.85,85.74h5V118h-5Z"/>
    <path class="cls-23" d="M389.15,116.33a8.62,8.62,0,0,1-1.95-6V93.39a8.58,8.58,0,0,1,1.95-6,8.55,8.55,0,0,1,11.27,0,8.49,8.49,0,0,1,1.95,6v16.94a8.53,8.53,0,0,1-1.95,6,8.55,8.55,0,0,1-11.27,0Zm8.22-5.67V93.07c0-2.12-.85-3.18-2.57-3.18s-2.56,1.06-2.56,3.18v17.59c0,2.12.85,3.18,2.56,3.18S397.37,112.78,397.37,110.66Z"/>
    <path class="cls-23" d="M405.72,85.74H412l4.85,19.3h.1V85.74h4.45V118h-5.14l-6-23.54h-.11V118H405.7Z"/>
    <path class="cls-23" d="M433.93,116.37a8.39,8.39,0,0,1-1.88-5.84V93.17a8.39,8.39,0,0,1,1.88-5.84,8.23,8.23,0,0,1,10.94,0,8.4,8.4,0,0,1,1.89,5.84v3.48H442V92.91c0-2-.86-3-2.5-3s-2.49,1-2.49,3v18c0,2,.85,3,2.49,3s2.5-1,2.5-3V106h4.72v4.58a7.61,7.61,0,0,1-12.83,5.85Z"/>
    <path class="cls-23" d="M451.34,116.33a8.53,8.53,0,0,1-1.95-6V93.39a8.49,8.49,0,0,1,1.95-6,8.54,8.54,0,0,1,11.26,0,8.49,8.49,0,0,1,1.95,6v16.94a8.53,8.53,0,0,1-1.95,6A7.49,7.49,0,0,1,460,118a9.17,9.17,0,0,1-8.67-1.67Zm8.22-5.67V93.07c0-2.12-.86-3.18-2.57-3.18s-2.57,1.06-2.57,3.18v17.59c0,2.12.86,3.18,2.57,3.18S459.56,112.78,459.56,110.66Z"/>
    <path class="cls-23" d="M467.91,113.15h4.81V118h-4.81Z"/>
    <path class="cls-23" d="M476.44,85.74h5v27.63h8.22V118H476.44Z"/>
    <path class="cls-23" d="M496,90.35h-5.22V85.74h15.41v4.61h-5.22V118h-5Z"/>
    <path class="cls-23" d="M508.57,85.74h7.63c2.48,0,4.34.67,5.58,2s1.87,3.33,1.86,5.94V110q0,3.93-1.86,5.95a7.2,7.2,0,0,1-5.58,2h-7.63Zm7.54,27.63a2.38,2.38,0,0,0,1-.16,2.27,2.27,0,0,0,.86-.57,3.52,3.52,0,0,0,.66-2.39V93.48a3.53,3.53,0,0,0-.66-2.4,2.27,2.27,0,0,0-.86-.57,2.38,2.38,0,0,0-1-.16h-2.57v23Z"/>
    <path class="cls-23" d="M527,113.15h4.8V118H527Z"/>
    <path class="cls-23" d="M537.17,118h-1.62v-4.84h4.81v4.34l-2.5,6h-2.31Z"/>
    <path class="cls-25" d="M551.05,76H64.24v2.4H551.05Z"/>
    <path class="cls-25" d="M884.69,113.69H868.23V50.45h16.46Z"/>
    <path class="cls-25" d="M947.27,59.84,937.18,71.31a16.08,16.08,0,0,0-12.82-6.48c-9.93,0-16.13,7.14-16.13,17.2s6.2,17.28,16.13,17.28a16.09,16.09,0,0,0,12.82-6.48l10,11.47c-6.36,6.89-13.66,9.39-22.83,9.39-19,0-32.5-13.63-32.5-31.66s13.49-31.58,32.5-31.58C934.55,50.45,941.08,53.52,947.27,59.84Z"/>
    <path class="cls-25" d="M860.53,90.36a14,14,0,0,0-3.48-6.79,16,16,0,0,0-3.69-2.92c-.59-.33-1.18-.71-1.77-1a.5.5,0,0,1-.12-.28.36.36,0,0,1,0-.11c.24-.29.48-.56.7-.84a14,14,0,0,0,3.25-5.9,17.39,17.39,0,0,0,.62-5.18c0-.63-.14-1.26-.19-1.9a15.3,15.3,0,0,0-.9-4.18A14.93,14.93,0,0,0,850.54,55a18.13,18.13,0,0,0-6.78-3.53,26,26,0,0,0-7.11-1H801.22l-.06,0a.1.1,0,0,0,0,0c-.07.12,0,.18.1.25l1.34.82a31.74,31.74,0,0,1,5.06,3.73,37.83,37.83,0,0,1,4.61,4.94,35.56,35.56,0,0,1,5.76,11,32.24,32.24,0,0,1,1.54,7.77,37.73,37.73,0,0,1-.21,8.09,43.27,43.27,0,0,1-.93,4.5,35.77,35.77,0,0,1-4.61,10.21l-.35.52c-.33.54-.32.71.11,1.28.26.33.53.66.8,1s.7.79,1,1.19l6.06,7.06c.13.17.28.32.41.48a.77.77,0,0,0,.53.24h18.31a28,28,0,0,0,3.17-.24,22.39,22.39,0,0,0,8.53-2.93,17.08,17.08,0,0,0,6.18-6.17A17.53,17.53,0,0,0,861,95.85,22.49,22.49,0,0,0,860.53,90.36Zm-32.72-25h7c3.28,0,5.65,1.81,5.65,5s-2.37,5-5.65,5h-7ZM839,98.8H827.81V87.62H839c3.69,0,6.31,2,6.31,5.59S842.61,98.8,839,98.8Z"/>
    <path class="cls-26" d="M822.28,118.36q-3.07-3.6-6.16-7.19c-1.88-2.2-3.8-4.36-5.65-6.59a8.41,8.41,0,0,1-1-1.24l-.31-.36a32.71,32.71,0,0,0,7.13-20.9A33.38,33.38,0,0,0,809,60.69a31.16,31.16,0,0,0-15.88-10.24c-.7-.2-1.46-.37-2.2-.53h-.2l-.77-.14a36.39,36.39,0,0,0-4.55-.5h-3.14l-.66,0a8.64,8.64,0,0,0-.9.07h-.19a33.55,33.55,0,0,0-4.76.8,31.62,31.62,0,0,0-9,3.61h-.06a29.61,29.61,0,0,0-4.72,3.53,30.79,30.79,0,0,0-6.36,7.91c-.06.09-.1.2-.16.29l-.49.92-.16.35c-.17.33-.32.66-.47,1l-.09.21a35.59,35.59,0,0,0-2.61,9.89c-.07.63-.12,1.26-.16,1.9v.41c0,.63-.06,1.25-.06,1.88a34.36,34.36,0,0,0,.26,4.18,15.71,15.71,0,0,0,.53,3,3,3,0,0,0,0,.52,31.33,31.33,0,0,0,8.19,15.39,30.59,30.59,0,0,0,15,8.51,35.39,35.39,0,0,0,8.39,1.06,34.67,34.67,0,0,0,8.24-1,33.6,33.6,0,0,0,5.33-1.76l1.53,1.76,4.52,5.15.1.07h18.92a.19.19,0,0,0,0-.07.14.14,0,0,0,0-.06A1.09,1.09,0,0,0,822.28,118.36Zm-24-28L791,81.86l-11.36,9.59,7.06,8.09a16.32,16.32,0,0,1-2.88.26c-9.5,0-16.1-7.31-16.1-17.72,0-10.6,6.6-18,16.1-18s16.11,7.4,16.11,18A20.92,20.92,0,0,1,798.32,90.34Z"/>
    <path class="cls-27" d="M686,42.37a5.2,5.2,0,1,0-5.12-5.2A5.15,5.15,0,0,0,686,42.37Z"/>
    <path class="cls-28" d="M660.28,81.33a43.09,43.09,0,0,0,5.59,21.24,42.19,42.19,0,0,0,15.28,15.57,41.42,41.42,0,0,0,41.85.17v-12.8a31.32,31.32,0,0,1-44.93-3,32.09,32.09,0,0,1-6.12-11,32.52,32.52,0,0,1,2-24.68,32.08,32.08,0,0,1,7.78-9.86V44.22A42.26,42.26,0,0,0,666,59.83,43,43,0,0,0,660.28,81.33Z"/>
    <path class="cls-29" d="M681.69,81.76c0,.52,0,1,.08,1.54A21.16,21.16,0,0,0,688.11,97a20.5,20.5,0,0,0,27.8.79A21.13,21.13,0,0,0,723,84.46V79a21.21,21.21,0,0,0-3.69-9.53,20.77,20.77,0,0,0-7.7-6.63,20.23,20.23,0,0,0-9.87-2.15,20.57,20.57,0,0,0-9.7,2.84V51a31.49,31.49,0,0,0-10.33,6Zm20.54-11.12a10.39,10.39,0,0,1,5.85,1.81A10.6,10.6,0,0,1,712,77.24a10.8,10.8,0,0,1,.6,6.18,10.7,10.7,0,0,1-2.88,5.47,10.41,10.41,0,0,1-11.48,2.32,10.56,10.56,0,0,1-4.73-3.94,10.82,10.82,0,0,1,1.31-13.5,10.54,10.54,0,0,1,7.45-3.13Z"/>
    <path class="cls-30" d="M733.33,109.89a43.05,43.05,0,0,0,4.85-50.44A42.12,42.12,0,0,0,718.27,42,41.42,41.42,0,0,0,692,40V51a31.38,31.38,0,0,1,34.87,10.29,32.16,32.16,0,0,1,5.83,11.57c.24.9.44,1.8.61,2.73v34.34Z"/>
    <path class="cls-31" d="M461.9,223.47a13.81,13.81,0,1,0-13.81-13.81A13.8,13.8,0,0,0,461.9,223.47Z"/>
    <path class="cls-31" d="M392.57,327a113,113,0,0,0,169,98.24v-34a85.22,85.22,0,1,1-111.32-129v-33.8A113,113,0,0,0,392.57,327Z"/>
    <path class="cls-31" d="M450.29,328.09c0,1.38.1,2.74.2,4.1a55.86,55.86,0,0,0,111.12,3.1v-14.4a55.8,55.8,0,0,0-83.5-41.11v-33.5a85.11,85.11,0,0,0-27.83,15.88Zm55.34-29.52a28.39,28.39,0,1,1-20.07,8.32A28.34,28.34,0,0,1,505.63,298.57Z"/>
    <path class="cls-31" d="M589.44,402.85a113.09,113.09,0,0,0-111.31-185.6v29a85.19,85.19,0,0,1,109.68,58.08c.65,2.37,1.2,4.79,1.64,7.24v91.25Z"/>
  </g>
</svg>
