<svg width="188" height="177" viewBox="0 0 188 177" fill="none" xmlns="http://www.w3.org/2000/svg">
<path d="M111.275 0.869553C104.118 3.35399 100.772 5.37259 93.7393 11.4595C91.6326 13.2607 86.3348 18.9128 84.8787 20.8692C84.414 21.5214 83.6085 22.4841 83.1438 23.0431C82.6791 23.6021 81.7806 24.8133 81.192 25.7449C80.5723 26.6766 79.3331 28.6331 78.4037 30.0927C76.266 33.3846 71.8976 42.3286 70.0388 47.1111C69.2642 49.0986 68.4587 51.1794 68.2418 51.6762C68.025 52.2042 67.7152 53.1048 67.5912 53.6948C67.4673 54.2849 67.1885 55.1544 66.9406 55.5892C66.7238 56.0551 66.2281 57.6699 65.8873 59.1606C64.741 64.1605 64.2453 65.8065 63.9045 65.8065C62.2625 65.8065 55.8804 62.204 53.8356 60.0923L52.4724 58.6948L52.4105 53.9433C52.3485 49.9061 52.2246 48.9123 51.6669 47.4216C50.6136 44.6577 48.6618 43.3534 47.4225 44.5956C46.9888 45.0614 46.9268 45.5273 47.1127 48.0738C47.2366 49.6887 47.4845 51.2104 47.7013 51.4589C47.9182 51.7073 48.228 52.639 48.4139 53.5085C48.5998 54.3781 49.0026 56.024 49.3124 57.142C49.9939 59.5954 49.963 59.7817 47.1127 69.9989C45.5946 75.4647 44.5413 79.533 44.0146 81.9553C43.7667 83.0733 43.4259 84.4708 43.271 85.0608C42.0008 90.1229 40.7306 95.4644 40.4518 96.924C40.1419 98.5699 40.049 98.7252 39.3055 98.7252C38.7168 98.7252 38.5929 98.8184 38.8407 99.0668C39.2435 99.4706 38.9956 100.651 38.4999 100.495C38.3141 100.433 37.7564 101.303 37.2607 102.421C36.765 103.539 36.2693 104.533 36.1764 104.626C36.0524 104.719 35.6497 105.309 35.2469 105.961C34.8442 106.613 34.3795 107.079 34.1936 107.017C34.0077 106.955 33.6049 106.147 33.2641 105.216C32.7684 103.849 32.6445 102.39 32.5206 97.0172C32.4276 93.1042 32.4896 89.1291 32.7065 87.0794C32.9233 85.1851 33.2641 81.3652 33.512 78.5392C34.0696 72.3902 34.1626 71.5517 34.9061 67.3592C35.2469 65.558 35.5877 63.1978 35.6807 62.0798C36.4862 53.5706 37.7564 45.6204 38.6858 43.4465C39.987 40.4652 40.6996 37.7945 41.2882 33.6641C41.8459 29.9374 41.9389 25.5276 41.4741 25.0617C41.3192 24.9065 40.7925 24.8133 40.2969 24.8754C39.3364 24.9686 39.2745 25.1238 38.6549 29.1611C38.0042 33.1983 35.7116 44.1298 35.4018 44.6266C35.3089 44.7819 35.092 46.0863 34.9371 47.5148C34.7512 48.9434 34.4104 51.4589 34.1626 53.0737C33.6669 56.3967 31.6531 71.8312 31.0335 77.297C30.8166 79.2535 30.4758 82.0795 30.259 83.6012C30.0421 85.3403 29.9491 89.5328 30.0111 95.4023C30.135 103.384 30.228 104.688 30.7547 106.334C31.4362 108.383 32.7375 109.595 34.2865 109.595C35.5258 109.595 37.2607 107.7 38.4999 105.029C39.8012 102.172 43.271 92.3278 43.271 91.4272C43.271 91.0235 43.4569 90.5576 43.7048 90.3713C43.9526 90.1539 44.2624 89.5328 44.3554 89.0049C44.4793 88.4459 44.8201 87.2658 45.1609 86.3341C45.5017 85.4024 45.9664 83.7876 46.2143 82.7627C46.4311 81.7068 46.9268 79.8125 47.2986 78.5392C48.6927 73.6635 49.1575 71.8002 49.5292 69.5331C49.7461 68.2598 49.9939 67.1418 50.1179 67.0487C50.3657 66.8624 51.3261 63.6947 51.2642 63.3841C51.2332 63.2599 51.3881 62.8251 51.605 62.4214L52.0077 61.7071L52.9681 62.6388C55.2298 64.7816 60.8683 67.9803 62.3864 67.9803C63.2539 67.9803 63.7186 68.5704 63.4088 69.3468C63.2849 69.6884 62.9441 71.7381 62.6343 73.8809C62.0766 77.887 61.8288 88.508 62.2625 90.6508C62.4794 91.7067 62.4174 91.7688 60.9923 92.5452C58.2349 94.0669 54.5792 96.2097 54.2384 96.5203C54.0215 96.6756 52.2246 97.8246 50.2108 99.0668C46.679 101.272 40.1419 106.023 36.9199 108.787C36.0834 109.533 34.3175 110.992 33.0473 112.079C31.777 113.135 28.1522 116.551 24.9922 119.657C14.4276 130.029 9.28472 136.271 5.16423 143.6C4.57559 144.625 3.80106 145.898 3.42929 146.457C2.40691 148.01 0.579021 153.569 0.207247 156.457C-0.226489 159.594 -0.0406024 160.805 1.35355 164.128C2.28298 166.333 2.7477 167.016 5.22619 169.469C7.30193 171.55 8.57216 172.544 10.0902 173.258C11.2056 173.786 12.4138 174.376 12.7546 174.563C13.715 175.091 16.968 175.836 22.1419 176.643C26.5412 177.358 36.6721 176.954 42.4965 175.836C43.8597 175.587 45.9044 175.246 47.0198 175.122C48.9096 174.873 50.0559 174.656 52.8752 173.879C53.4638 173.724 54.858 173.445 55.9733 173.227C57.0886 173.01 58.142 172.761 58.2969 172.637C58.4828 172.513 59.4432 172.264 60.4656 172.047C63.2849 171.457 68.1489 170.153 68.7375 169.811C69.0474 169.656 69.5121 169.532 69.7599 169.532C70.0388 169.532 71.34 169.19 72.6412 168.786C73.9424 168.383 76.4828 167.606 78.2797 167.047C80.0766 166.519 82.71 165.712 84.1662 165.277C85.6223 164.842 87.8219 164.159 89.0612 163.755C90.3004 163.352 91.5706 163.01 91.9114 163.01C92.2213 163.01 92.562 162.886 92.655 162.73C92.7479 162.575 93.5844 162.265 94.4519 162.078C95.3503 161.861 96.2488 161.581 96.4037 161.457C96.5896 161.333 98.1696 160.774 99.9665 160.215C101.763 159.656 103.87 158.942 104.676 158.631C105.481 158.29 106.349 158.041 106.597 158.041C106.875 158.041 107.34 157.917 107.65 157.731C107.929 157.575 109.633 157.016 111.43 156.488C113.226 155.929 114.837 155.37 114.992 155.246C115.178 155.122 115.891 154.904 116.603 154.78C117.347 154.656 117.998 154.439 118.091 154.314C118.183 154.159 118.865 153.942 119.64 153.818C120.383 153.724 121.189 153.445 121.375 153.196C121.56 152.948 122.025 152.762 122.397 152.762C122.769 152.762 123.76 152.513 124.597 152.203C125.464 151.892 126.331 151.675 126.548 151.768C126.734 151.83 126.92 151.737 126.92 151.582C126.92 151.395 127.478 151.178 128.159 151.054C128.841 150.929 129.461 150.712 129.585 150.557C129.677 150.401 130.08 150.277 130.514 150.277C130.917 150.277 131.258 150.122 131.258 149.936C131.258 149.656 131.381 149.656 131.66 149.936C132.001 150.184 132.218 150.153 132.59 149.718C132.992 149.252 132.992 149.128 132.621 148.787C132.249 148.445 132.156 148.476 131.97 148.88C131.877 149.19 131.722 149.252 131.598 149.066C131.319 148.631 128.779 149.035 128.779 149.501C128.779 149.749 128.5 149.811 128.035 149.749C127.23 149.594 124.751 150.526 124.751 150.96C124.751 151.116 124.411 151.147 124.008 151.023C123.605 150.929 122.397 151.147 121.313 151.519C120.228 151.892 118.772 152.296 118.091 152.451C117.409 152.606 116.232 152.948 115.457 153.196C114.683 153.476 112.607 154.128 110.81 154.656C109.013 155.153 107.061 155.774 106.473 156.022C105.884 156.271 104.552 156.706 103.529 156.954C102.507 157.234 100.989 157.731 100.121 158.041C99.285 158.352 97.7359 158.849 96.7135 159.128C93.7703 159.935 88.7514 161.426 87.729 161.799C83.2367 163.321 81.192 163.973 79.2092 164.532C77.9389 164.904 76.5758 165.339 76.173 165.525C75.7703 165.681 75.1816 165.805 74.8408 165.805C74.531 165.805 74.0043 165.929 73.6945 166.116C73.4157 166.271 72.0525 166.674 70.6894 167.016C68.3348 167.606 65.9492 168.227 61.7048 169.376C60.6824 169.656 58.111 170.308 55.9733 170.836C53.8356 171.333 51.8528 171.892 51.574 172.047C51.2642 172.202 50.4587 172.327 49.7771 172.327C49.0955 172.327 48.29 172.451 47.9802 172.606C47.2986 172.979 42.3726 173.879 41.0404 173.879C40.4827 173.879 39.2745 174.097 38.376 174.314C35.9285 174.966 25.4879 174.966 21.956 174.345C16.3174 173.289 12.8166 172.078 10.2142 170.308C6.55838 167.792 3.80106 164.066 3.18144 160.743C2.84064 158.942 3.58419 153.507 4.45166 151.209C6.31053 146.302 11.7013 137.948 16.5033 132.482C20.8097 127.607 33.2641 115.185 36.765 112.296C43.7667 106.551 50.3657 101.8 56.2831 98.2594C58.2349 97.1103 60.5275 95.6818 61.395 95.1228L62.9441 94.098L63.2539 96.0234C64.1214 100.961 68.6136 107.576 72.7961 110.029C75.4914 111.644 79.488 112.048 82.3073 111.054C85.7152 109.812 89.7428 106.179 92.8409 101.52C93.6774 100.247 94.8237 98.601 95.3813 97.8867C96.4347 96.5203 98.8822 91.9862 103.127 83.5081C104.552 80.682 105.791 78.2907 105.946 78.1976C106.07 78.1044 107.526 77.856 109.199 77.6386C110.841 77.4212 112.948 77.1106 113.877 76.9554C114.807 76.8001 116.108 76.6759 116.789 76.6759C117.874 76.6759 117.967 76.738 117.75 77.3591C117.626 77.7628 117.44 78.4771 117.316 79.005C117.161 79.5019 116.851 80.5578 116.603 81.3342C115.395 84.8434 114.868 91.5825 115.736 92.6073C116.294 93.2905 117.533 93.2905 117.874 92.5762C118.029 92.2967 118.338 91.2719 118.555 90.3403C118.772 89.4086 119.206 87.7937 119.485 86.7689C119.794 85.744 120.228 84.2844 120.414 83.5081C121.189 80.4025 122.428 76.8001 122.862 76.4585C123.45 75.9616 129.987 75.9305 134.82 76.3964C139.87 76.8622 145.478 77.6075 146.996 77.9802L148.359 78.3218L148.142 79.7504C148.049 80.5267 147.832 81.5826 147.678 82.1106C146.593 85.8372 146.252 96.5824 147.151 100.123C147.399 101.148 147.739 101.955 147.925 101.924C148.08 101.893 148.235 102.297 148.204 102.856C148.173 104.253 150.125 108.849 151.829 111.427C156.786 118.88 164.841 120.837 173.64 116.706C174.693 116.209 175.839 115.806 176.18 115.806C176.49 115.806 176.862 115.65 176.955 115.495C177.079 115.309 177.698 114.905 178.38 114.563C180.084 113.663 185.227 108.88 186.621 106.893C187.395 105.775 187.829 104.719 187.953 103.756C188.17 101.955 187.612 99.2532 186.776 98.1352C186.435 97.6693 185.815 96.6134 185.382 95.775C184.638 94.2843 182.562 91.893 182.005 91.893C181.881 91.893 181.757 92.0483 181.757 92.2657C181.757 92.5452 181.664 92.5452 181.385 92.2657C181.075 91.9551 181.075 91.7999 181.447 91.5825C181.85 91.334 181.819 91.2719 181.385 91.2719C181.075 91.2719 180.827 91.1477 180.827 90.9924C180.827 90.7129 178.783 89.2223 175.901 87.39C175.096 86.862 173.98 86.0857 173.423 85.5888C170.82 83.4149 160.132 78.9119 154.493 77.6075C152.201 77.1106 151.767 76.8001 151.953 75.8374C152.015 75.3715 152.201 74.8125 152.325 74.6573C152.449 74.4709 152.634 73.7567 152.758 73.0113C152.851 72.2971 153.316 70.6511 153.719 69.3778C154.153 68.1356 154.493 66.7381 154.493 66.2723C154.493 65.8375 154.648 65.1854 154.803 64.8438C155.175 64.1916 156.414 59.6575 157.096 56.6451C157.344 55.6203 157.87 53.3222 158.304 51.521C159.141 47.9496 159.946 41.0863 159.605 40.0615C159.202 38.7572 157.994 39.2541 155.578 41.6764C153.564 43.726 153.099 44.4093 151.023 48.726C149.753 51.3657 148.421 54.3781 148.049 55.4029C146.531 59.8438 145.168 63.0736 144.455 64.0363C143.991 64.6264 143.65 65.2475 143.65 65.4027C143.65 65.5891 143.433 65.8996 143.185 66.117C142.906 66.3344 142.752 66.7071 142.844 66.9245C142.937 67.1729 142.721 67.4835 142.411 67.6698C142.07 67.8561 141.791 68.2288 141.791 68.5083C141.791 68.7878 141.729 68.9431 141.636 68.8499C141.543 68.7567 141.636 67.9493 141.822 67.0487C142.008 66.1481 142.256 65.5891 142.38 65.7754C142.504 65.9928 142.813 65.6822 143.123 65.0301C143.805 63.5705 143.774 63.291 143.03 64.2537C142.256 65.2164 142.256 64.9369 142.999 62.2351C144.332 57.3904 144.889 47.7633 144.146 42.2975C143.65 38.5708 143.154 37.2044 141.946 36.428C141.233 35.9622 141.11 35.9622 139.746 36.6143C138.042 37.4529 135.843 39.5025 134.015 42.0491C132.559 44.0055 132.032 44.9062 129.987 48.8812C128.562 51.6141 128.531 51.6762 128.314 51.4899C128.19 51.3346 128.779 48.757 130.08 44.0677C131.474 38.8814 133.581 30.1859 134.108 27.3288C134.263 26.3661 134.511 25.0307 134.665 24.3475C135.502 20.0307 136.524 13.6333 136.524 12.5464C136.524 11.6768 136.338 11.0868 135.936 10.7141C135.378 10.2172 135.316 10.2172 134.696 10.9936C134.356 11.4595 133.984 12.329 133.86 12.9812C133.643 14.0992 130.266 21.304 127.757 25.9002C127.013 27.2667 125.092 30.9002 123.512 33.9746C121.932 37.0491 120.073 40.6205 119.392 41.8938C117.967 44.5645 112.173 56.8314 111.863 57.8252C111.77 58.1979 111.306 59.2848 110.903 60.2165C110.469 61.1481 109.664 63.0425 109.106 64.409C106.597 70.5579 105.729 72.6076 104.862 74.4088C104.025 76.179 103.839 76.3653 102.817 76.5206C102.197 76.6138 100.989 76.8933 100.121 77.1106C99.285 77.3591 97.612 77.7939 96.4037 78.0423C89.8667 79.564 80.3555 83.0733 70.9992 87.4521C67.932 88.8807 65.2677 90.0297 65.0818 90.0297C64.0594 90.0297 64.5551 75.6821 65.7634 69.8747L65.9183 69.1294L69.2952 69.3468C73.5086 69.6263 78.6205 69.0983 81.6257 68.1046C83.9493 67.3592 89.5259 64.7816 90.3624 64.0674C90.6102 63.85 91.7256 63.1668 92.8409 62.5456C99.0681 59.0364 108.084 50.6204 113.257 43.4465C114.807 41.3037 116.077 39.4093 116.077 39.192C116.077 39.0056 116.201 38.7882 116.356 38.7261C116.789 38.5708 120.197 32.3598 121.932 28.5399C122.8 26.5835 123.698 24.6891 123.884 24.3785C124.535 23.1674 125.712 19.3165 126.208 16.7389C126.486 15.2793 126.703 12.298 126.734 10.062C126.765 5.55893 126.486 4.62726 124.256 2.32916C122.986 1.02483 122.273 0.838501 123.14 2.04967C123.481 2.54654 123.946 3.54031 124.225 4.31671C124.844 6.21109 125.185 11.4284 124.782 12.9191C124.597 13.5712 124.163 15.4656 123.791 17.1426C123.078 20.5276 122.273 22.5773 118.369 30.8691C116.789 34.192 112.545 40.9311 110.035 44.0366C105.326 49.9061 96.0319 58.3221 91.9114 60.4649C91.3228 60.7755 90.2694 61.3655 89.5879 61.8003C86.5827 63.7258 81.7186 65.8996 79.0543 66.4897C77.0715 66.9245 67.3744 67.0797 66.9406 66.676C66.1661 65.8996 70.5654 51.3036 73.3847 45.1857C75.4914 40.6826 78.9303 33.9436 79.8598 32.515C80.2625 31.8939 81.161 30.4654 81.8426 29.3474C83.5465 26.4903 85.8082 23.4158 87.5121 21.5214C88.3176 20.6519 89.278 19.5339 89.6808 19.0059C90.92 17.2979 95.4123 12.9812 98.2626 10.6831C102.197 7.54648 109.044 3.07449 109.911 3.07449C110.252 3.07449 110.252 3.1366 109.881 3.41609C109.478 3.6956 109.478 3.72665 109.881 3.60243C110.128 3.54031 110.314 3.29187 110.252 3.10555C110.221 2.9192 110.438 2.67076 110.717 2.54654C111.027 2.45338 111.492 2.17389 111.739 1.98755C111.987 1.77016 112.762 1.52171 113.443 1.42856C114.125 1.33539 115.302 0.993774 116.077 0.652161L117.471 0H115.612C114.373 0 112.917 0.310562 111.275 0.869553ZM134.201 19.7513C134.077 20.0618 133.891 21.0866 133.736 22.0183C133.612 22.95 133.333 24.068 133.178 24.5027C132.992 24.9375 132.404 26.7698 131.846 28.6021C131.288 30.4654 130.731 31.8008 130.607 31.5834C130.483 31.397 130.235 32.0803 130.018 33.074C129.832 34.0678 129.554 35.31 129.399 35.838C129.151 36.8007 128.686 38.6019 128.004 41.5832C127.788 42.5149 127.292 44.4093 126.92 45.7757C126.548 47.1422 126.053 49.0365 125.805 49.9682C124.844 53.9122 121.994 64.2537 121.653 65.0301C121.498 65.3717 121.158 66.3344 120.91 67.204C119.516 72.0797 119.051 73.4461 118.71 73.8188C118.524 74.0362 117.13 74.3467 115.581 74.533C114.063 74.6883 111.584 75.0299 110.035 75.2784C108.517 75.5268 107.154 75.7442 107.03 75.7442C106.906 75.7442 107.154 74.9368 107.588 73.943C108.022 72.9803 109.075 70.4337 109.942 68.2909C110.81 66.1481 111.894 63.4773 112.39 62.2972C112.886 61.1481 113.288 60.0612 113.288 59.8438C113.288 59.6575 113.474 59.2538 113.722 59.0053C113.97 58.7258 115.085 56.3967 116.232 53.8501C118.4 48.8813 121.994 41.5211 123.078 39.7199C123.419 39.1298 125.061 36.0554 126.672 32.8877C129.213 27.9188 130.731 25.1549 131.908 23.2605C132.249 22.7326 133.054 20.9624 133.457 19.9065C133.612 19.5339 133.891 19.2233 134.077 19.2233C134.294 19.2233 134.325 19.4407 134.201 19.7513ZM141.171 39.9373C141.171 41.4901 141.791 43.1671 142.628 43.8503C143.123 44.254 143.309 44.7509 143.309 45.7136C143.371 51.1483 143.278 53.5706 143.061 53.788C142.906 53.9433 142.844 53.0427 142.906 51.7694L142.999 49.5024L142.69 51.6762C142.535 52.8564 142.194 55.4029 141.946 57.2973C141.698 59.1917 141.264 61.3034 141.048 61.9556L140.583 63.1668L140.738 61.614C140.831 60.2475 140.831 60.1854 140.552 60.9929C140.056 62.5146 139.003 67.763 139.189 68.0114C139.251 68.1356 139.189 68.322 139.003 68.4462C138.569 68.7257 138.6 72.1107 139.065 72.5765C139.282 72.7939 139.808 72.9492 140.242 72.9492C140.955 72.9492 141.233 72.6076 142.411 70.2474C143.185 68.7567 144.765 65.9307 145.943 63.9431C147.12 61.9866 149.35 57.6078 150.931 54.2538C153.657 48.4775 156.042 44.4403 156.91 44.1298C157.158 44.0677 157.282 44.3782 157.282 45.1235C157.282 45.7136 157.437 46.3036 157.591 46.3968C158.056 46.6763 157.963 48.757 157.468 49.316C157.034 49.844 156.228 52.2042 155.888 54.0054C155.516 55.8377 154.772 58.0426 153.223 61.6761C152.418 63.5705 151.674 65.8065 151.55 66.645C151.457 67.4524 151.085 68.912 150.776 69.8437C150.466 70.7753 149.877 72.5765 149.505 73.7877C148.855 75.9305 148.793 76.0237 148.018 75.8684C147.585 75.7753 146.903 75.651 146.562 75.5579C144.92 75.2473 132.528 74.1604 128.252 73.974C125.65 73.8809 123.512 73.6635 123.512 73.5082C123.512 73.2598 123.915 71.8623 125.774 65.9617C126.703 63.0115 128.655 57.5768 129.151 56.6451C129.43 56.1172 129.801 55.1234 129.987 54.3781C130.731 51.6762 134.356 45.372 137.144 41.9559C138.135 40.6826 140.397 38.8193 140.955 38.7882C141.079 38.7882 141.171 39.3162 141.171 39.9373ZM48.8476 50.2787C48.8476 50.6204 48.6308 50.8999 48.3829 50.8999C47.8253 50.8999 47.7943 50.5272 48.29 50.0303C48.7857 49.5334 48.8476 49.5645 48.8476 50.2787ZM102.755 79.1292C102.755 80.1541 94.9476 94.9365 93.1507 97.3588C92.562 98.1352 91.5397 99.5327 90.8891 100.464C88.8753 103.352 84.507 107.545 82.5242 108.508C80.9441 109.253 80.4794 109.346 78.4656 109.222C73.6945 108.911 69.8529 105.651 67.1885 99.6258C66.321 97.7314 65.0508 93.2284 65.2986 93.011C65.3606 92.9489 66.1351 92.5452 66.9716 92.1415C67.8391 91.7067 69.0783 91.0856 69.7599 90.7129C73.9424 88.539 79.9527 85.8993 85.5603 83.8186C86.5827 83.4459 87.9149 82.9491 88.5035 82.7006C90.3004 82.0174 95.6911 80.4025 96.7135 80.2162C97.2092 80.1541 98.2626 79.8746 99.0371 79.6261C100.307 79.2224 101.33 79.005 102.383 78.8808C102.569 78.8808 102.755 78.974 102.755 79.1292ZM155.702 80.123C160.69 81.5516 164.5 82.887 165.027 83.3217C165.275 83.5702 166.049 84.0049 166.731 84.3155C167.413 84.6261 168.838 85.4024 169.891 86.0546C170.975 86.7068 171.967 87.2347 172.091 87.2347C172.246 87.2347 172.989 87.6695 173.733 88.2285C175.963 89.8744 178.101 91.2719 178.318 91.2719C178.411 91.2719 178.225 91.0545 177.915 90.8061C177.234 90.3092 177.419 89.8123 178.132 90.2471C178.38 90.3713 179.154 90.9614 179.867 91.5514C181.168 92.6384 181.54 93.3526 180.61 93.011C180.301 92.9179 180.889 93.6011 181.912 94.5638C182.934 95.5265 183.771 96.4892 183.802 96.6756C183.802 96.8619 184.328 98.0731 184.948 99.3774C185.567 100.682 186.094 102.11 186.094 102.576C186.094 104.129 184.824 105.992 181.85 108.849C179.34 111.241 178.38 111.924 175.437 113.414C169.116 116.551 164.872 117.265 160.875 115.837C156.972 114.439 154.091 111.365 151.86 106.179C149.443 100.62 148.669 95.4023 149.381 89.3775C150.373 81.0236 150.838 79.1603 151.798 79.1603C152.108 79.1603 153.874 79.5951 155.702 80.123ZM119.609 82.2348C119.609 83.7565 119.454 84.6261 119.02 85.2472C118.152 86.6136 118.091 85.6509 118.865 82.7006C119.268 81.2721 119.578 80.092 119.609 80.092C119.64 80.092 119.64 81.0547 119.609 82.2348Z" fill="black"/>
</svg>
