<svg width="32" height="32" viewBox="0 0 32 32" fill="none" xmlns="http://www.w3.org/2000/svg">
<path d="M30.3505 8.66003C27.9299 10.2371 25.2634 11.3997 22.4605 12.1C22.5505 13.28 22.6005 14.49 22.6005 15.69C22.6005 17.28 22.5205 18.88 22.3705 20.42C25.0273 21.0776 27.5648 22.1472 29.8905 23.59C31.1909 21.3318 31.9133 18.7874 31.9935 16.1827C32.0738 13.5781 31.5094 10.994 30.3505 8.66003Z" fill="black"/>
<path d="M16.0005 10.7201C17.3683 10.7162 18.7332 10.5957 20.0805 10.36C19.3505 4.10005 17.4205 0.310059 16.0005 0.310059C14.5805 0.310059 12.6405 4.10005 11.9105 10.36C13.2611 10.5961 14.6294 10.7166 16.0005 10.7201Z" fill="black"/>
<path d="M11.7205 12.55C11.6505 13.55 11.6105 14.6001 11.6105 15.6901C11.6105 17.2201 11.6905 18.6401 11.8105 19.9801C14.5877 19.5135 17.4233 19.5135 20.2005 19.9801C20.3205 18.6401 20.4005 17.2201 20.4005 15.6901C20.4005 14.6001 20.4005 13.55 20.3005 12.55C18.8825 12.7853 17.4479 12.9057 16.0105 12.9101C14.5729 12.9111 13.1378 12.7907 11.7205 12.55Z" fill="black"/>
<path d="M29.2705 6.78003C26.9146 3.2773 23.2699 0.847499 19.1305 0.0200195C20.7005 2.12002 21.7505 5.77003 22.2505 9.91003C24.7426 9.24799 27.1125 8.19128 29.2705 6.78003Z" fill="black"/>
<path d="M16.0005 21.83C14.6804 21.8338 13.3628 21.9442 12.0605 22.16C12.8805 27.74 14.6605 31.07 16.0005 31.07C17.3405 31.07 19.1105 27.74 19.9405 22.16C18.6381 21.945 17.3206 21.8347 16.0005 21.83Z" fill="black"/>
<path d="M3.33051 25.43C5.68005 28.5229 9.07445 30.6555 12.8805 31.43C11.4605 29.52 10.4605 26.34 9.88052 22.67C7.57144 23.2573 5.36352 24.1876 3.33051 25.43Z" fill="black"/>
<path d="M19.1305 31.38C22.933 30.6032 26.3235 28.4708 28.6705 25.38C26.6317 24.1257 24.4174 23.182 22.1005 22.58C21.5505 26.29 20.5605 29.47 19.1305 31.38Z" fill="black"/>
<path d="M9.42053 15.69C9.42053 14.49 9.4205 13.28 9.5505 12.1C6.74415 11.3959 4.07441 10.23 1.65051 8.65002C0.491602 10.9875 -0.0727363 13.5749 0.00750356 16.1826C0.0877435 18.7904 0.810075 21.3382 2.1105 23.6C4.43814 22.1516 6.97925 21.0785 9.64053 20.42C9.49053 18.88 9.42053 17.28 9.42053 15.69Z" fill="black"/>
<path d="M12.8805 0C8.73785 0.832392 5.09264 3.26972 2.74051 6.78C4.89187 8.19252 7.25494 9.25254 9.74051 9.92001C10.2605 5.78001 11.3105 2.1 12.8805 0Z" fill="black"/>
</svg>
